G04 EAGLE Gerber RS-274X export*
G75*
%MOMM*%
%FSLAX34Y34*%
%LPD*%
%INTop Copper*%
%IPPOS*%
%AMOC8*
5,1,8,0,0,1.08239X$1,22.5*%
G01*
%ADD10R,1.050000X1.080000*%
%ADD11R,1.300000X1.500000*%
%ADD12R,1.600000X1.800000*%
%ADD13R,1.800000X1.600000*%
%ADD14R,0.950000X1.750000*%
%ADD15R,3.200000X1.750000*%
%ADD16R,1.208000X1.208000*%
%ADD17C,1.208000*%
%ADD18R,1.000000X1.500000*%
%ADD19R,1.500000X1.000000*%
%ADD20R,6.000000X6.000000*%
%ADD21C,1.524000*%
%ADD22R,1.000000X1.100000*%
%ADD23R,1.000000X1.250000*%
%ADD24R,0.400000X0.600000*%
%ADD25C,1.650000*%
%ADD26C,0.812800*%
%ADD27C,0.152400*%
%ADD28C,0.254000*%
%ADD29C,0.756400*%
%ADD30C,0.304800*%
%ADD31C,1.270000*%
%ADD32C,0.200000*%
%ADD33C,1.016000*%
%ADD34C,0.508000*%
%ADD35C,0.609600*%
%ADD36C,0.406400*%

G36*
X235108Y100679D02*
X235108Y100679D01*
X235353Y100690D01*
X235426Y100702D01*
X235499Y100708D01*
X235532Y100715D01*
X235684Y100744D01*
X235838Y100763D01*
X235976Y100798D01*
X235981Y100799D01*
X235989Y100801D01*
X235997Y100803D01*
X236158Y100834D01*
X236305Y100882D01*
X236455Y100920D01*
X236608Y100980D01*
X236764Y101031D01*
X236904Y101096D01*
X237048Y101153D01*
X237192Y101232D01*
X237340Y101302D01*
X237471Y101384D01*
X237607Y101459D01*
X237740Y101555D01*
X237879Y101643D01*
X237998Y101741D01*
X238124Y101832D01*
X238243Y101944D01*
X238370Y102048D01*
X238476Y102161D01*
X238589Y102267D01*
X238694Y102393D01*
X238806Y102512D01*
X238898Y102638D01*
X238997Y102757D01*
X239085Y102895D01*
X239181Y103027D01*
X239256Y103163D01*
X239340Y103294D01*
X239410Y103442D01*
X239489Y103585D01*
X239546Y103729D01*
X239613Y103869D01*
X239664Y104025D01*
X239724Y104178D01*
X239763Y104328D01*
X239812Y104475D01*
X239843Y104636D01*
X239884Y104794D01*
X239903Y104948D01*
X239933Y105100D01*
X239943Y105259D01*
X239965Y105426D01*
X239965Y105595D01*
X239975Y105754D01*
X239975Y112916D01*
X239971Y112989D01*
X239973Y113062D01*
X239951Y113307D01*
X239935Y113552D01*
X239922Y113624D01*
X239915Y113696D01*
X239862Y113936D01*
X239816Y114178D01*
X239794Y114247D01*
X239778Y114318D01*
X239695Y114550D01*
X239619Y114784D01*
X239588Y114850D01*
X239564Y114919D01*
X239453Y115138D01*
X239348Y115360D01*
X239309Y115422D01*
X239276Y115487D01*
X239139Y115691D01*
X239007Y115899D01*
X238961Y115955D01*
X238920Y116015D01*
X238767Y116189D01*
X238602Y116390D01*
X238541Y116447D01*
X238488Y116508D01*
X238001Y116994D01*
X237193Y118944D01*
X237193Y121056D01*
X238001Y123006D01*
X239494Y124499D01*
X241444Y125307D01*
X243430Y125307D01*
X243585Y125316D01*
X243740Y125316D01*
X243902Y125336D01*
X244066Y125347D01*
X244218Y125376D01*
X244372Y125395D01*
X244531Y125435D01*
X244692Y125466D01*
X244839Y125514D01*
X244989Y125552D01*
X245142Y125612D01*
X245298Y125663D01*
X245438Y125728D01*
X245582Y125785D01*
X245726Y125864D01*
X245874Y125934D01*
X246005Y126016D01*
X246141Y126091D01*
X246274Y126187D01*
X246413Y126275D01*
X246532Y126373D01*
X246658Y126464D01*
X246777Y126576D01*
X246904Y126680D01*
X247010Y126793D01*
X247123Y126899D01*
X247228Y127025D01*
X247340Y127144D01*
X247432Y127270D01*
X247531Y127389D01*
X247619Y127527D01*
X247715Y127659D01*
X247790Y127795D01*
X247874Y127926D01*
X247944Y128074D01*
X248023Y128217D01*
X248080Y128361D01*
X248147Y128501D01*
X248198Y128657D01*
X248258Y128810D01*
X248297Y128960D01*
X248346Y129107D01*
X248377Y129268D01*
X248418Y129426D01*
X248437Y129580D01*
X248467Y129732D01*
X248477Y129891D01*
X248499Y130058D01*
X248499Y130227D01*
X248509Y130386D01*
X248509Y132400D01*
X248607Y132891D01*
X248828Y133426D01*
X248890Y133522D01*
X248936Y133618D01*
X248989Y133711D01*
X249072Y133905D01*
X249163Y134097D01*
X249196Y134199D01*
X249238Y134297D01*
X249295Y134501D01*
X249362Y134703D01*
X249382Y134808D01*
X249411Y134911D01*
X249443Y135120D01*
X249483Y135328D01*
X249490Y135433D01*
X249506Y135541D01*
X249512Y135771D01*
X249525Y135982D01*
X249525Y145936D01*
X249540Y146117D01*
X249536Y146190D01*
X249540Y146263D01*
X249525Y146458D01*
X249525Y158636D01*
X249540Y158817D01*
X249536Y158890D01*
X249540Y158963D01*
X249525Y159158D01*
X249525Y171336D01*
X249540Y171519D01*
X249536Y171592D01*
X249540Y171665D01*
X249525Y171858D01*
X249525Y184034D01*
X249540Y184213D01*
X249536Y184290D01*
X249540Y184367D01*
X249525Y184560D01*
X249525Y196734D01*
X249540Y196913D01*
X249536Y196990D01*
X249540Y197067D01*
X249525Y197260D01*
X249525Y209614D01*
X249516Y209769D01*
X249516Y209924D01*
X249496Y210086D01*
X249485Y210250D01*
X249456Y210402D01*
X249437Y210556D01*
X249397Y210715D01*
X249366Y210876D01*
X249318Y211023D01*
X249280Y211173D01*
X249220Y211326D01*
X249169Y211482D01*
X249104Y211622D01*
X249047Y211766D01*
X248968Y211910D01*
X248898Y212058D01*
X248816Y212189D01*
X248741Y212325D01*
X248645Y212458D01*
X248557Y212597D01*
X248459Y212716D01*
X248368Y212842D01*
X248256Y212961D01*
X248152Y213088D01*
X248039Y213194D01*
X247933Y213307D01*
X247807Y213412D01*
X247688Y213524D01*
X247562Y213616D01*
X247443Y213715D01*
X247305Y213803D01*
X247173Y213899D01*
X247037Y213974D01*
X246906Y214058D01*
X246758Y214128D01*
X246615Y214207D01*
X246471Y214264D01*
X246331Y214331D01*
X246175Y214382D01*
X246022Y214442D01*
X245872Y214481D01*
X245725Y214530D01*
X245564Y214561D01*
X245406Y214602D01*
X245252Y214621D01*
X245100Y214651D01*
X244941Y214661D01*
X244774Y214683D01*
X244605Y214683D01*
X244446Y214693D01*
X243944Y214693D01*
X241994Y215501D01*
X241508Y215988D01*
X241453Y216036D01*
X241403Y216089D01*
X241214Y216247D01*
X241030Y216409D01*
X240969Y216450D01*
X240913Y216497D01*
X240706Y216629D01*
X240503Y216767D01*
X240438Y216800D01*
X240376Y216840D01*
X240154Y216945D01*
X239935Y217057D01*
X239867Y217081D01*
X239801Y217113D01*
X239567Y217189D01*
X239336Y217273D01*
X239265Y217289D01*
X239195Y217312D01*
X238954Y217358D01*
X238714Y217412D01*
X238641Y217419D01*
X238570Y217433D01*
X238339Y217448D01*
X238080Y217473D01*
X237996Y217470D01*
X237916Y217475D01*
X190670Y217475D01*
X190515Y217466D01*
X190360Y217466D01*
X190198Y217446D01*
X190034Y217435D01*
X189882Y217406D01*
X189728Y217387D01*
X189569Y217347D01*
X189408Y217316D01*
X189261Y217268D01*
X189111Y217230D01*
X188958Y217170D01*
X188802Y217119D01*
X188662Y217054D01*
X188518Y216997D01*
X188374Y216918D01*
X188226Y216848D01*
X188095Y216766D01*
X187959Y216691D01*
X187826Y216595D01*
X187687Y216507D01*
X187568Y216409D01*
X187442Y216318D01*
X187323Y216206D01*
X187196Y216102D01*
X187090Y215989D01*
X186977Y215883D01*
X186872Y215757D01*
X186760Y215638D01*
X186668Y215512D01*
X186569Y215393D01*
X186481Y215255D01*
X186385Y215123D01*
X186310Y214987D01*
X186226Y214856D01*
X186156Y214708D01*
X186077Y214565D01*
X186020Y214421D01*
X185953Y214281D01*
X185902Y214125D01*
X185842Y213972D01*
X185803Y213822D01*
X185754Y213675D01*
X185723Y213514D01*
X185682Y213356D01*
X185663Y213202D01*
X185633Y213050D01*
X185623Y212891D01*
X185601Y212724D01*
X185601Y212555D01*
X185591Y212396D01*
X185591Y197309D01*
X158130Y197309D01*
X157976Y197299D01*
X157821Y197300D01*
X157658Y197279D01*
X157494Y197269D01*
X157342Y197240D01*
X157188Y197221D01*
X157029Y197181D01*
X156868Y197150D01*
X156721Y197102D01*
X156571Y197064D01*
X156418Y197004D01*
X156262Y196953D01*
X156122Y196887D01*
X155978Y196831D01*
X155834Y196752D01*
X155686Y196682D01*
X155555Y196599D01*
X155419Y196525D01*
X155286Y196429D01*
X155148Y196341D01*
X155028Y196243D01*
X154903Y196152D01*
X154783Y196040D01*
X154656Y195936D01*
X154550Y195823D01*
X154437Y195717D01*
X154332Y195591D01*
X154220Y195471D01*
X154128Y195346D01*
X154029Y195227D01*
X153941Y195089D01*
X153845Y194956D01*
X153770Y194821D01*
X153686Y194690D01*
X153616Y194542D01*
X153537Y194398D01*
X153480Y194255D01*
X153413Y194115D01*
X153362Y193959D01*
X153302Y193806D01*
X153263Y193656D01*
X153215Y193509D01*
X153183Y193348D01*
X153142Y193190D01*
X153123Y193036D01*
X153093Y192884D01*
X153083Y192725D01*
X153061Y192558D01*
X153061Y192389D01*
X153051Y192230D01*
X153051Y187149D01*
X153049Y187149D01*
X153049Y192230D01*
X153039Y192384D01*
X153040Y192539D01*
X153019Y192702D01*
X153009Y192866D01*
X152980Y193018D01*
X152961Y193172D01*
X152921Y193331D01*
X152890Y193492D01*
X152842Y193639D01*
X152804Y193789D01*
X152744Y193942D01*
X152693Y194098D01*
X152627Y194238D01*
X152571Y194382D01*
X152492Y194526D01*
X152422Y194674D01*
X152339Y194805D01*
X152265Y194941D01*
X152169Y195074D01*
X152081Y195212D01*
X151983Y195332D01*
X151892Y195457D01*
X151780Y195577D01*
X151675Y195704D01*
X151563Y195810D01*
X151457Y195923D01*
X151331Y196028D01*
X151211Y196140D01*
X151086Y196232D01*
X150967Y196331D01*
X150829Y196419D01*
X150696Y196515D01*
X150561Y196590D01*
X150430Y196674D01*
X150282Y196744D01*
X150138Y196823D01*
X149995Y196880D01*
X149855Y196947D01*
X149699Y196998D01*
X149546Y197058D01*
X149396Y197097D01*
X149249Y197145D01*
X149088Y197177D01*
X148929Y197218D01*
X148776Y197237D01*
X148624Y197267D01*
X148465Y197277D01*
X148297Y197299D01*
X148129Y197299D01*
X147970Y197309D01*
X120509Y197309D01*
X120509Y217400D01*
X120607Y217891D01*
X120798Y218353D01*
X121077Y218770D01*
X121609Y219303D01*
X121712Y219419D01*
X121822Y219529D01*
X121923Y219658D01*
X122031Y219780D01*
X122118Y219909D01*
X122214Y220032D01*
X122297Y220172D01*
X122389Y220307D01*
X122460Y220446D01*
X122539Y220579D01*
X122604Y220729D01*
X122679Y220875D01*
X122731Y221021D01*
X122793Y221164D01*
X122839Y221320D01*
X122895Y221474D01*
X122929Y221626D01*
X122972Y221775D01*
X122998Y221936D01*
X123034Y222096D01*
X123049Y222251D01*
X123073Y222404D01*
X123079Y222568D01*
X123094Y222730D01*
X123090Y222886D01*
X123095Y223041D01*
X123080Y223204D01*
X123075Y223367D01*
X123051Y223521D01*
X123037Y223675D01*
X123001Y223835D01*
X122976Y223996D01*
X122933Y224146D01*
X122899Y224298D01*
X122845Y224451D01*
X122799Y224609D01*
X122737Y224751D01*
X122685Y224898D01*
X122612Y225044D01*
X122547Y225194D01*
X122468Y225327D01*
X122439Y225384D01*
X121439Y227798D01*
X121439Y229910D01*
X122247Y231860D01*
X123740Y233353D01*
X125690Y234161D01*
X127802Y234161D01*
X129752Y233353D01*
X131245Y231860D01*
X132053Y229910D01*
X132053Y227798D01*
X131603Y226714D01*
X131540Y226529D01*
X131468Y226346D01*
X131437Y226227D01*
X131397Y226111D01*
X131357Y225919D01*
X131308Y225730D01*
X131293Y225608D01*
X131268Y225487D01*
X131252Y225292D01*
X131227Y225098D01*
X131227Y224975D01*
X131217Y224852D01*
X131227Y224656D01*
X131226Y224460D01*
X131241Y224338D01*
X131247Y224216D01*
X131281Y224023D01*
X131305Y223828D01*
X131335Y223709D01*
X131356Y223588D01*
X131414Y223401D01*
X131462Y223211D01*
X131507Y223096D01*
X131543Y222979D01*
X131623Y222800D01*
X131695Y222618D01*
X131754Y222510D01*
X131805Y222398D01*
X131907Y222231D01*
X132001Y222059D01*
X132073Y221959D01*
X132137Y221854D01*
X132259Y221701D01*
X132374Y221542D01*
X132458Y221453D01*
X132535Y221356D01*
X132675Y221220D01*
X132809Y221077D01*
X132904Y220998D01*
X132992Y220912D01*
X133148Y220794D01*
X133299Y220669D01*
X133402Y220603D01*
X133501Y220529D01*
X133671Y220432D01*
X133836Y220326D01*
X133947Y220274D01*
X134054Y220213D01*
X134234Y220137D01*
X134411Y220053D01*
X134528Y220015D01*
X134642Y219968D01*
X134831Y219916D01*
X135017Y219854D01*
X135137Y219831D01*
X135256Y219798D01*
X135450Y219770D01*
X135642Y219733D01*
X135762Y219725D01*
X135887Y219707D01*
X136099Y219703D01*
X136296Y219691D01*
X140608Y219691D01*
X140803Y219703D01*
X140999Y219706D01*
X141121Y219723D01*
X141243Y219731D01*
X141436Y219767D01*
X141630Y219795D01*
X141749Y219827D01*
X141869Y219850D01*
X142056Y219910D01*
X142245Y219962D01*
X142358Y220009D01*
X142475Y220047D01*
X142653Y220130D01*
X142834Y220205D01*
X142941Y220265D01*
X143052Y220318D01*
X143217Y220422D01*
X143388Y220519D01*
X143486Y220593D01*
X143590Y220659D01*
X143741Y220783D01*
X143898Y220901D01*
X143986Y220986D01*
X144081Y221064D01*
X144216Y221207D01*
X144357Y221343D01*
X144434Y221439D01*
X144518Y221528D01*
X144633Y221687D01*
X144756Y221839D01*
X144821Y221944D01*
X144893Y222043D01*
X144988Y222215D01*
X145090Y222382D01*
X145141Y222494D01*
X145201Y222601D01*
X145273Y222783D01*
X145354Y222962D01*
X145391Y223079D01*
X145436Y223194D01*
X145485Y223383D01*
X145543Y223570D01*
X145565Y223691D01*
X145595Y223810D01*
X145620Y224005D01*
X145654Y224198D01*
X145661Y224320D01*
X145676Y224442D01*
X145677Y224638D01*
X145686Y224834D01*
X145677Y224956D01*
X145677Y225080D01*
X145653Y225274D01*
X145638Y225469D01*
X145614Y225589D01*
X145599Y225712D01*
X145550Y225902D01*
X145511Y226094D01*
X145473Y226207D01*
X145442Y226329D01*
X145364Y226527D01*
X145300Y226714D01*
X145061Y227290D01*
X145061Y229402D01*
X145869Y231352D01*
X147362Y232845D01*
X149312Y233653D01*
X150514Y233653D01*
X150751Y233668D01*
X150987Y233675D01*
X151068Y233688D01*
X151150Y233693D01*
X151383Y233737D01*
X151617Y233774D01*
X151696Y233797D01*
X151776Y233812D01*
X152001Y233885D01*
X152229Y233951D01*
X152304Y233983D01*
X152382Y234009D01*
X152596Y234109D01*
X152814Y234203D01*
X152885Y234245D01*
X152959Y234280D01*
X153158Y234406D01*
X153363Y234527D01*
X153428Y234577D01*
X153497Y234621D01*
X153679Y234771D01*
X153867Y234916D01*
X153925Y234974D01*
X153988Y235026D01*
X154150Y235199D01*
X154318Y235366D01*
X154369Y235431D01*
X154425Y235490D01*
X154564Y235682D01*
X154710Y235869D01*
X154752Y235939D01*
X154800Y236005D01*
X154914Y236213D01*
X155035Y236416D01*
X155068Y236491D01*
X155107Y236563D01*
X155195Y236784D01*
X155289Y237001D01*
X155312Y237079D01*
X155343Y237156D01*
X155402Y237385D01*
X155469Y237612D01*
X155482Y237693D01*
X155502Y237772D01*
X155532Y238007D01*
X155570Y238241D01*
X155573Y238323D01*
X155583Y238404D01*
X155583Y238641D01*
X155592Y238878D01*
X155584Y238959D01*
X155584Y239042D01*
X155555Y239277D01*
X155533Y239512D01*
X155516Y239592D01*
X155506Y239674D01*
X155447Y239904D01*
X155396Y240134D01*
X155369Y240212D01*
X155348Y240291D01*
X155262Y240512D01*
X155182Y240735D01*
X155145Y240808D01*
X155115Y240884D01*
X155001Y241093D01*
X154895Y241303D01*
X154849Y241371D01*
X154810Y241443D01*
X154671Y241635D01*
X154538Y241831D01*
X154485Y241892D01*
X154436Y241960D01*
X154259Y242150D01*
X154106Y242324D01*
X130292Y266138D01*
X130237Y266186D01*
X130187Y266239D01*
X129998Y266397D01*
X129814Y266559D01*
X129754Y266600D01*
X129698Y266647D01*
X129490Y266779D01*
X129287Y266917D01*
X129222Y266950D01*
X129161Y266990D01*
X128939Y267095D01*
X128720Y267207D01*
X128651Y267231D01*
X128585Y267263D01*
X128351Y267339D01*
X128120Y267423D01*
X128049Y267439D01*
X127980Y267462D01*
X127738Y267508D01*
X127498Y267562D01*
X127426Y267569D01*
X127354Y267583D01*
X127123Y267598D01*
X126864Y267623D01*
X126781Y267620D01*
X126700Y267625D01*
X125386Y267625D01*
X125231Y267616D01*
X125076Y267616D01*
X124914Y267596D01*
X124750Y267585D01*
X124598Y267556D01*
X124444Y267537D01*
X124285Y267497D01*
X124124Y267466D01*
X123977Y267418D01*
X123827Y267380D01*
X123674Y267320D01*
X123518Y267269D01*
X123378Y267204D01*
X123234Y267147D01*
X123090Y267068D01*
X122942Y266998D01*
X122811Y266916D01*
X122675Y266841D01*
X122542Y266745D01*
X122403Y266657D01*
X122284Y266559D01*
X122158Y266468D01*
X122039Y266356D01*
X121912Y266252D01*
X121806Y266139D01*
X121693Y266033D01*
X121588Y265907D01*
X121476Y265788D01*
X121384Y265662D01*
X121285Y265543D01*
X121197Y265405D01*
X121101Y265273D01*
X121026Y265137D01*
X120942Y265006D01*
X120872Y264858D01*
X120793Y264715D01*
X120736Y264571D01*
X120669Y264431D01*
X120618Y264275D01*
X120558Y264122D01*
X120519Y263972D01*
X120470Y263825D01*
X120439Y263664D01*
X120398Y263506D01*
X120379Y263352D01*
X120349Y263200D01*
X120339Y263041D01*
X120317Y262874D01*
X120317Y262705D01*
X120307Y262546D01*
X120307Y261444D01*
X119499Y259494D01*
X118006Y258001D01*
X116056Y257193D01*
X113944Y257193D01*
X111994Y258001D01*
X110501Y259494D01*
X109693Y261444D01*
X109693Y262546D01*
X109684Y262701D01*
X109684Y262856D01*
X109664Y263018D01*
X109653Y263182D01*
X109624Y263334D01*
X109605Y263488D01*
X109565Y263647D01*
X109534Y263808D01*
X109486Y263955D01*
X109448Y264105D01*
X109388Y264258D01*
X109337Y264414D01*
X109272Y264554D01*
X109215Y264698D01*
X109136Y264842D01*
X109066Y264990D01*
X108984Y265121D01*
X108909Y265257D01*
X108813Y265390D01*
X108725Y265529D01*
X108627Y265648D01*
X108536Y265774D01*
X108424Y265893D01*
X108320Y266020D01*
X108207Y266126D01*
X108101Y266239D01*
X107975Y266344D01*
X107856Y266456D01*
X107730Y266548D01*
X107611Y266647D01*
X107473Y266735D01*
X107341Y266831D01*
X107205Y266906D01*
X107074Y266990D01*
X106926Y267060D01*
X106783Y267139D01*
X106639Y267196D01*
X106499Y267263D01*
X106343Y267314D01*
X106190Y267374D01*
X106040Y267413D01*
X105893Y267462D01*
X105732Y267493D01*
X105574Y267534D01*
X105420Y267553D01*
X105268Y267583D01*
X105109Y267593D01*
X104942Y267615D01*
X104773Y267615D01*
X104614Y267625D01*
X102886Y267625D01*
X102731Y267616D01*
X102576Y267616D01*
X102414Y267596D01*
X102250Y267585D01*
X102098Y267556D01*
X101944Y267537D01*
X101785Y267497D01*
X101624Y267466D01*
X101477Y267418D01*
X101327Y267380D01*
X101174Y267320D01*
X101018Y267269D01*
X100878Y267204D01*
X100734Y267147D01*
X100590Y267068D01*
X100442Y266998D01*
X100311Y266916D01*
X100175Y266841D01*
X100042Y266745D01*
X99903Y266657D01*
X99784Y266559D01*
X99658Y266468D01*
X99539Y266356D01*
X99412Y266252D01*
X99306Y266139D01*
X99193Y266033D01*
X99088Y265907D01*
X98976Y265788D01*
X98884Y265662D01*
X98785Y265543D01*
X98697Y265405D01*
X98601Y265273D01*
X98526Y265137D01*
X98442Y265006D01*
X98372Y264858D01*
X98293Y264715D01*
X98236Y264571D01*
X98169Y264431D01*
X98118Y264275D01*
X98058Y264122D01*
X98019Y263972D01*
X97970Y263825D01*
X97939Y263664D01*
X97898Y263506D01*
X97879Y263352D01*
X97849Y263200D01*
X97839Y263041D01*
X97817Y262874D01*
X97817Y262705D01*
X97807Y262546D01*
X97807Y261444D01*
X96999Y259494D01*
X95506Y258001D01*
X93556Y257193D01*
X91444Y257193D01*
X89494Y258001D01*
X88001Y259494D01*
X87193Y261444D01*
X87193Y261592D01*
X87192Y261608D01*
X87193Y261625D01*
X87172Y261927D01*
X87153Y262228D01*
X87150Y262244D01*
X87149Y262260D01*
X87091Y262557D01*
X87034Y262854D01*
X87029Y262870D01*
X87026Y262885D01*
X86931Y263171D01*
X86837Y263460D01*
X86830Y263475D01*
X86825Y263490D01*
X86696Y263761D01*
X86566Y264037D01*
X86558Y264050D01*
X86551Y264065D01*
X86387Y264319D01*
X86225Y264575D01*
X86215Y264587D01*
X86206Y264601D01*
X86013Y264832D01*
X85820Y265066D01*
X85808Y265077D01*
X85798Y265090D01*
X85576Y265295D01*
X85356Y265503D01*
X85343Y265512D01*
X85331Y265523D01*
X85086Y265699D01*
X84841Y265878D01*
X84826Y265886D01*
X84813Y265895D01*
X84547Y266040D01*
X84283Y266185D01*
X84268Y266191D01*
X84253Y266199D01*
X83969Y266310D01*
X83690Y266421D01*
X83675Y266425D01*
X83660Y266431D01*
X83366Y266505D01*
X83074Y266580D01*
X83058Y266582D01*
X83042Y266586D01*
X82743Y266623D01*
X82442Y266661D01*
X82425Y266661D01*
X82410Y266663D01*
X82107Y266662D01*
X81804Y266662D01*
X81788Y266660D01*
X81772Y266660D01*
X81540Y266629D01*
X81379Y266609D01*
X81129Y266609D01*
X81129Y276650D01*
X81120Y276804D01*
X81120Y276959D01*
X81100Y277122D01*
X81089Y277286D01*
X81060Y277437D01*
X81041Y277591D01*
X81001Y277751D01*
X80970Y277911D01*
X80922Y278059D01*
X80884Y278209D01*
X80824Y278361D01*
X80774Y278517D01*
X80708Y278658D01*
X80651Y278802D01*
X80572Y278946D01*
X80503Y279094D01*
X80420Y279225D01*
X80345Y279361D01*
X80249Y279494D01*
X80161Y279632D01*
X80063Y279752D01*
X79972Y279877D01*
X79860Y279997D01*
X79756Y280123D01*
X79643Y280230D01*
X79537Y280343D01*
X79411Y280448D01*
X79292Y280560D01*
X79166Y280651D01*
X79047Y280750D01*
X78909Y280839D01*
X78777Y280935D01*
X78641Y281010D01*
X78510Y281093D01*
X78362Y281164D01*
X78219Y281243D01*
X78075Y281300D01*
X77935Y281366D01*
X77779Y281418D01*
X77627Y281478D01*
X77477Y281517D01*
X77329Y281565D01*
X77169Y281596D01*
X77010Y281637D01*
X76856Y281657D01*
X76704Y281687D01*
X76545Y281697D01*
X76378Y281718D01*
X76209Y281719D01*
X76050Y281729D01*
X75895Y281719D01*
X75741Y281719D01*
X75740Y281719D01*
X75577Y281699D01*
X75414Y281689D01*
X75262Y281660D01*
X75108Y281641D01*
X74949Y281600D01*
X74788Y281570D01*
X74641Y281522D01*
X74491Y281484D01*
X74338Y281424D01*
X74182Y281373D01*
X74042Y281307D01*
X73898Y281250D01*
X73754Y281172D01*
X73605Y281102D01*
X73475Y281019D01*
X73339Y280945D01*
X73206Y280849D01*
X73067Y280761D01*
X72948Y280662D01*
X72822Y280572D01*
X72702Y280460D01*
X72576Y280355D01*
X72470Y280242D01*
X72357Y280137D01*
X72252Y280011D01*
X72139Y279891D01*
X72048Y279766D01*
X71949Y279647D01*
X71861Y279509D01*
X71764Y279376D01*
X71690Y279241D01*
X71606Y279110D01*
X71536Y278962D01*
X71457Y278818D01*
X71400Y278674D01*
X71333Y278534D01*
X71282Y278378D01*
X71221Y278226D01*
X71183Y278076D01*
X71134Y277929D01*
X71103Y277768D01*
X71062Y277609D01*
X71042Y277456D01*
X71013Y277304D01*
X71003Y277145D01*
X70981Y276977D01*
X70981Y276809D01*
X70971Y276650D01*
X70971Y266609D01*
X70702Y266609D01*
X70547Y266600D01*
X70392Y266600D01*
X70230Y266580D01*
X70066Y266569D01*
X69914Y266540D01*
X69760Y266521D01*
X69601Y266481D01*
X69440Y266450D01*
X69293Y266402D01*
X69143Y266364D01*
X68990Y266304D01*
X68834Y266253D01*
X68694Y266188D01*
X68550Y266131D01*
X68406Y266052D01*
X68258Y265982D01*
X68127Y265900D01*
X67991Y265825D01*
X67858Y265729D01*
X67719Y265641D01*
X67600Y265543D01*
X67474Y265452D01*
X67355Y265340D01*
X67228Y265236D01*
X67122Y265123D01*
X67009Y265017D01*
X66904Y264891D01*
X66792Y264772D01*
X66700Y264646D01*
X66601Y264527D01*
X66513Y264389D01*
X66417Y264257D01*
X66342Y264121D01*
X66258Y263990D01*
X66188Y263842D01*
X66109Y263699D01*
X66052Y263555D01*
X65985Y263415D01*
X65934Y263259D01*
X65874Y263106D01*
X65835Y262956D01*
X65786Y262809D01*
X65755Y262648D01*
X65714Y262490D01*
X65695Y262336D01*
X65665Y262184D01*
X65655Y262025D01*
X65633Y261858D01*
X65633Y261689D01*
X65623Y261530D01*
X65623Y106770D01*
X65632Y106615D01*
X65632Y106460D01*
X65652Y106298D01*
X65663Y106134D01*
X65692Y105982D01*
X65711Y105828D01*
X65751Y105669D01*
X65782Y105508D01*
X65830Y105361D01*
X65868Y105211D01*
X65928Y105058D01*
X65979Y104902D01*
X66044Y104762D01*
X66101Y104618D01*
X66180Y104474D01*
X66250Y104326D01*
X66332Y104195D01*
X66407Y104059D01*
X66503Y103926D01*
X66591Y103787D01*
X66689Y103668D01*
X66780Y103542D01*
X66892Y103423D01*
X66996Y103296D01*
X67109Y103190D01*
X67215Y103077D01*
X67341Y102972D01*
X67460Y102860D01*
X67586Y102768D01*
X67705Y102669D01*
X67843Y102581D01*
X67975Y102485D01*
X68111Y102410D01*
X68242Y102326D01*
X68390Y102256D01*
X68533Y102177D01*
X68677Y102120D01*
X68817Y102053D01*
X68973Y102002D01*
X69126Y101942D01*
X69276Y101903D01*
X69423Y101854D01*
X69584Y101823D01*
X69742Y101782D01*
X69896Y101763D01*
X70048Y101733D01*
X70207Y101723D01*
X70374Y101701D01*
X70543Y101701D01*
X70702Y101691D01*
X74614Y101691D01*
X74769Y101700D01*
X74924Y101700D01*
X75086Y101720D01*
X75250Y101731D01*
X75402Y101760D01*
X75556Y101779D01*
X75715Y101819D01*
X75876Y101850D01*
X76023Y101898D01*
X76173Y101936D01*
X76326Y101996D01*
X76482Y102047D01*
X76622Y102112D01*
X76766Y102169D01*
X76910Y102248D01*
X77058Y102318D01*
X77189Y102400D01*
X77325Y102475D01*
X77458Y102571D01*
X77597Y102659D01*
X77716Y102757D01*
X77842Y102848D01*
X77961Y102960D01*
X78088Y103064D01*
X78194Y103177D01*
X78307Y103283D01*
X78412Y103409D01*
X78524Y103528D01*
X78616Y103654D01*
X78715Y103773D01*
X78803Y103911D01*
X78899Y104043D01*
X78974Y104179D01*
X79058Y104310D01*
X79128Y104458D01*
X79207Y104601D01*
X79264Y104745D01*
X79331Y104885D01*
X79382Y105041D01*
X79442Y105194D01*
X79481Y105344D01*
X79530Y105491D01*
X79561Y105652D01*
X79602Y105810D01*
X79606Y105846D01*
X80501Y108006D01*
X81994Y109499D01*
X83944Y110307D01*
X86056Y110307D01*
X88006Y109499D01*
X89499Y108006D01*
X90307Y106056D01*
X90307Y105754D01*
X90316Y105599D01*
X90316Y105444D01*
X90336Y105282D01*
X90347Y105118D01*
X90376Y104966D01*
X90395Y104812D01*
X90435Y104653D01*
X90466Y104492D01*
X90514Y104345D01*
X90552Y104195D01*
X90612Y104042D01*
X90663Y103886D01*
X90728Y103746D01*
X90785Y103602D01*
X90864Y103458D01*
X90934Y103310D01*
X91016Y103179D01*
X91091Y103043D01*
X91187Y102910D01*
X91275Y102771D01*
X91373Y102652D01*
X91464Y102526D01*
X91576Y102407D01*
X91680Y102280D01*
X91793Y102174D01*
X91899Y102061D01*
X92025Y101956D01*
X92144Y101844D01*
X92270Y101752D01*
X92389Y101653D01*
X92527Y101565D01*
X92659Y101469D01*
X92795Y101394D01*
X92926Y101310D01*
X93074Y101240D01*
X93217Y101161D01*
X93361Y101104D01*
X93501Y101037D01*
X93657Y100986D01*
X93810Y100926D01*
X93960Y100887D01*
X94107Y100838D01*
X94268Y100807D01*
X94426Y100766D01*
X94580Y100747D01*
X94732Y100717D01*
X94891Y100707D01*
X95058Y100685D01*
X95227Y100685D01*
X95386Y100675D01*
X107536Y100675D01*
X107717Y100660D01*
X107790Y100664D01*
X107863Y100660D01*
X108058Y100675D01*
X120236Y100675D01*
X120417Y100660D01*
X120490Y100664D01*
X120563Y100660D01*
X120758Y100675D01*
X132936Y100675D01*
X133117Y100660D01*
X133190Y100664D01*
X133263Y100660D01*
X133458Y100675D01*
X145636Y100675D01*
X145817Y100660D01*
X145890Y100664D01*
X145963Y100660D01*
X146158Y100675D01*
X158336Y100675D01*
X158517Y100660D01*
X158590Y100664D01*
X158663Y100660D01*
X158858Y100675D01*
X171036Y100675D01*
X171217Y100660D01*
X171290Y100664D01*
X171363Y100660D01*
X171558Y100675D01*
X183736Y100675D01*
X183917Y100660D01*
X183990Y100664D01*
X184063Y100660D01*
X184258Y100675D01*
X196436Y100675D01*
X196617Y100660D01*
X196690Y100664D01*
X196763Y100660D01*
X196958Y100675D01*
X209136Y100675D01*
X209317Y100660D01*
X209390Y100664D01*
X209463Y100660D01*
X209658Y100675D01*
X221836Y100675D01*
X222017Y100660D01*
X222090Y100664D01*
X222163Y100660D01*
X222358Y100675D01*
X234536Y100675D01*
X234717Y100660D01*
X234790Y100664D01*
X234863Y100660D01*
X235108Y100679D01*
G37*
G36*
X397302Y10176D02*
X397302Y10176D01*
X397538Y10183D01*
X397619Y10196D01*
X397701Y10201D01*
X397934Y10245D01*
X398168Y10282D01*
X398247Y10305D01*
X398327Y10320D01*
X398552Y10393D01*
X398780Y10459D01*
X398855Y10491D01*
X398933Y10517D01*
X399148Y10617D01*
X399365Y10711D01*
X399436Y10753D01*
X399510Y10788D01*
X399710Y10914D01*
X399914Y11035D01*
X399979Y11085D01*
X400048Y11129D01*
X400231Y11280D01*
X400418Y11424D01*
X400476Y11482D01*
X400539Y11534D01*
X400702Y11707D01*
X400869Y11874D01*
X400920Y11939D01*
X400976Y11998D01*
X401115Y12190D01*
X401261Y12377D01*
X401303Y12447D01*
X401351Y12513D01*
X401465Y12721D01*
X401586Y12925D01*
X401619Y13000D01*
X401658Y13071D01*
X401746Y13291D01*
X401840Y13509D01*
X401863Y13587D01*
X401894Y13664D01*
X401953Y13893D01*
X402020Y14120D01*
X402033Y14201D01*
X402053Y14280D01*
X402083Y14516D01*
X402121Y14749D01*
X402124Y14831D01*
X402134Y14912D01*
X402134Y15150D01*
X402142Y15386D01*
X402135Y15468D01*
X402135Y15550D01*
X402106Y15785D01*
X402084Y16020D01*
X402067Y16100D01*
X402057Y16182D01*
X401998Y16411D01*
X401947Y16643D01*
X401920Y16720D01*
X401899Y16799D01*
X401813Y17020D01*
X401733Y17243D01*
X401696Y17316D01*
X401666Y17392D01*
X401552Y17600D01*
X401446Y17811D01*
X401400Y17879D01*
X401360Y17951D01*
X401222Y18143D01*
X401089Y18339D01*
X401036Y18400D01*
X400987Y18468D01*
X400929Y18529D01*
X397839Y25990D01*
X397839Y34010D01*
X400909Y41420D01*
X403092Y43604D01*
X403222Y43751D01*
X403358Y43891D01*
X403432Y43990D01*
X403514Y44082D01*
X403624Y44244D01*
X403742Y44400D01*
X403803Y44507D01*
X403872Y44609D01*
X403961Y44783D01*
X404058Y44953D01*
X404105Y45067D01*
X404161Y45176D01*
X404228Y45360D01*
X404303Y45541D01*
X404336Y45660D01*
X404377Y45776D01*
X404420Y45966D01*
X404472Y46155D01*
X404490Y46277D01*
X404517Y46397D01*
X404535Y46592D01*
X404563Y46786D01*
X404566Y46909D01*
X404577Y47032D01*
X404571Y47227D01*
X404575Y47423D01*
X404562Y47546D01*
X404558Y47668D01*
X404528Y47862D01*
X404506Y48057D01*
X404478Y48176D01*
X404459Y48298D01*
X404405Y48486D01*
X404359Y48676D01*
X404316Y48792D01*
X404282Y48910D01*
X404204Y49090D01*
X404136Y49273D01*
X404078Y49382D01*
X404030Y49495D01*
X403930Y49664D01*
X403839Y49837D01*
X403769Y49938D01*
X403706Y50044D01*
X403586Y50199D01*
X403474Y50359D01*
X403392Y50451D01*
X403316Y50548D01*
X403178Y50687D01*
X403047Y50832D01*
X402954Y50912D01*
X402867Y50999D01*
X402712Y51120D01*
X402564Y51247D01*
X402461Y51315D01*
X402364Y51391D01*
X402196Y51491D01*
X402032Y51599D01*
X401925Y51652D01*
X401816Y51716D01*
X401621Y51801D01*
X401444Y51888D01*
X400712Y52191D01*
X398139Y54764D01*
X396747Y58125D01*
X396747Y61763D01*
X398139Y65124D01*
X400712Y67697D01*
X404073Y69089D01*
X422951Y69089D01*
X426312Y67697D01*
X428885Y65124D01*
X430277Y61763D01*
X430277Y58125D01*
X428882Y54758D01*
X428805Y54671D01*
X428695Y54562D01*
X428595Y54432D01*
X428486Y54309D01*
X428399Y54181D01*
X428304Y54059D01*
X428220Y53918D01*
X428128Y53782D01*
X428058Y53644D01*
X427978Y53511D01*
X427913Y53361D01*
X427839Y53215D01*
X427786Y53069D01*
X427724Y52927D01*
X427678Y52770D01*
X427622Y52615D01*
X427589Y52464D01*
X427545Y52315D01*
X427519Y52154D01*
X427483Y51994D01*
X427468Y51840D01*
X427444Y51686D01*
X427438Y51522D01*
X427423Y51359D01*
X427427Y51205D01*
X427422Y51050D01*
X427437Y50886D01*
X427442Y50723D01*
X427466Y50570D01*
X427480Y50415D01*
X427516Y50255D01*
X427541Y50093D01*
X427584Y49944D01*
X427617Y49793D01*
X427672Y49639D01*
X427718Y49481D01*
X427779Y49339D01*
X427831Y49193D01*
X427905Y49046D01*
X427970Y48896D01*
X428049Y48763D01*
X428119Y48624D01*
X428210Y48489D01*
X428294Y48347D01*
X428389Y48224D01*
X428475Y48096D01*
X428580Y47976D01*
X428683Y47843D01*
X428802Y47724D01*
X428908Y47604D01*
X435091Y41420D01*
X436960Y36909D01*
X437028Y36770D01*
X437087Y36626D01*
X437168Y36484D01*
X437240Y36336D01*
X437326Y36207D01*
X437402Y36072D01*
X437500Y35941D01*
X437590Y35804D01*
X437691Y35686D01*
X437783Y35562D01*
X437897Y35444D01*
X438004Y35319D01*
X438118Y35215D01*
X438226Y35103D01*
X438353Y35001D01*
X438475Y34890D01*
X438602Y34801D01*
X438722Y34704D01*
X438861Y34618D01*
X438996Y34523D01*
X439133Y34451D01*
X439265Y34370D01*
X439414Y34302D01*
X439559Y34225D01*
X439704Y34170D01*
X439845Y34106D01*
X440001Y34057D01*
X440154Y33999D01*
X440305Y33963D01*
X440453Y33917D01*
X440614Y33888D01*
X440774Y33850D01*
X440928Y33832D01*
X441080Y33805D01*
X441244Y33797D01*
X441407Y33779D01*
X441562Y33781D01*
X441717Y33773D01*
X441880Y33786D01*
X442044Y33788D01*
X442197Y33810D01*
X442352Y33821D01*
X442513Y33854D01*
X442675Y33877D01*
X442825Y33918D01*
X442976Y33949D01*
X443127Y34000D01*
X443290Y34044D01*
X443446Y34108D01*
X443597Y34160D01*
X446979Y35561D01*
X483760Y35561D01*
X483915Y35570D01*
X484070Y35570D01*
X484232Y35590D01*
X484396Y35601D01*
X484548Y35630D01*
X484702Y35649D01*
X484861Y35689D01*
X485022Y35720D01*
X485169Y35768D01*
X485319Y35806D01*
X485472Y35866D01*
X485628Y35917D01*
X485768Y35982D01*
X485912Y36039D01*
X486056Y36118D01*
X486204Y36188D01*
X486335Y36270D01*
X486471Y36345D01*
X486604Y36441D01*
X486743Y36529D01*
X486862Y36627D01*
X486988Y36718D01*
X487107Y36830D01*
X487234Y36934D01*
X487340Y37047D01*
X487453Y37153D01*
X487558Y37279D01*
X487670Y37398D01*
X487762Y37524D01*
X487861Y37643D01*
X487949Y37781D01*
X488045Y37913D01*
X488120Y38049D01*
X488204Y38180D01*
X488274Y38328D01*
X488353Y38471D01*
X488410Y38615D01*
X488477Y38755D01*
X488528Y38911D01*
X488588Y39064D01*
X488627Y39214D01*
X488676Y39361D01*
X488707Y39522D01*
X488748Y39680D01*
X488767Y39834D01*
X488797Y39986D01*
X488807Y40145D01*
X488829Y40312D01*
X488829Y40481D01*
X488839Y40640D01*
X488839Y98842D01*
X488824Y99078D01*
X488817Y99315D01*
X488804Y99396D01*
X488799Y99478D01*
X488755Y99709D01*
X488718Y99944D01*
X488695Y100023D01*
X488680Y100104D01*
X488607Y100329D01*
X488541Y100556D01*
X488509Y100632D01*
X488483Y100710D01*
X488383Y100924D01*
X488289Y101141D01*
X488247Y101212D01*
X488212Y101286D01*
X488086Y101486D01*
X487965Y101690D01*
X487915Y101755D01*
X487871Y101824D01*
X487721Y102007D01*
X487576Y102194D01*
X487518Y102253D01*
X487466Y102316D01*
X487293Y102478D01*
X487126Y102646D01*
X487061Y102696D01*
X487002Y102752D01*
X486810Y102892D01*
X486623Y103037D01*
X486553Y103079D01*
X486487Y103127D01*
X486279Y103242D01*
X486076Y103363D01*
X486000Y103395D01*
X485929Y103435D01*
X485709Y103522D01*
X485491Y103617D01*
X485413Y103640D01*
X485336Y103670D01*
X485108Y103729D01*
X484880Y103796D01*
X484799Y103809D01*
X484720Y103830D01*
X484485Y103860D01*
X484251Y103897D01*
X484169Y103900D01*
X484088Y103911D01*
X483851Y103911D01*
X483614Y103919D01*
X483533Y103912D01*
X483450Y103912D01*
X483216Y103882D01*
X482980Y103861D01*
X482900Y103843D01*
X482818Y103833D01*
X482589Y103775D01*
X482358Y103724D01*
X482280Y103696D01*
X482201Y103676D01*
X481980Y103589D01*
X481757Y103510D01*
X481684Y103473D01*
X481608Y103443D01*
X481399Y103329D01*
X481189Y103222D01*
X481121Y103176D01*
X481049Y103137D01*
X480857Y102998D01*
X480661Y102866D01*
X480600Y102813D01*
X480532Y102764D01*
X480343Y102586D01*
X480168Y102433D01*
X479140Y101405D01*
X478629Y101034D01*
X478629Y107950D01*
X478620Y108104D01*
X478620Y108259D01*
X478600Y108422D01*
X478589Y108586D01*
X478560Y108737D01*
X478541Y108891D01*
X478501Y109051D01*
X478470Y109211D01*
X478422Y109359D01*
X478384Y109509D01*
X478324Y109661D01*
X478274Y109817D01*
X478208Y109958D01*
X478151Y110102D01*
X478072Y110246D01*
X478003Y110394D01*
X477920Y110525D01*
X477845Y110661D01*
X477749Y110794D01*
X477661Y110932D01*
X477563Y111052D01*
X477472Y111177D01*
X477360Y111297D01*
X477256Y111423D01*
X477143Y111530D01*
X477037Y111643D01*
X476911Y111748D01*
X476792Y111860D01*
X476666Y111951D01*
X476547Y112050D01*
X476409Y112139D01*
X476277Y112235D01*
X476141Y112310D01*
X476010Y112393D01*
X475862Y112464D01*
X475719Y112543D01*
X475575Y112600D01*
X475435Y112666D01*
X475279Y112718D01*
X475127Y112778D01*
X474977Y112817D01*
X474829Y112865D01*
X474669Y112896D01*
X474510Y112937D01*
X474356Y112957D01*
X474204Y112987D01*
X474045Y112997D01*
X473878Y113018D01*
X473709Y113019D01*
X473550Y113029D01*
X473395Y113019D01*
X473241Y113019D01*
X473240Y113019D01*
X473077Y112999D01*
X472914Y112989D01*
X472762Y112960D01*
X472608Y112941D01*
X472449Y112900D01*
X472288Y112870D01*
X472141Y112822D01*
X471991Y112784D01*
X471838Y112724D01*
X471682Y112673D01*
X471542Y112607D01*
X471398Y112550D01*
X471254Y112472D01*
X471105Y112402D01*
X470975Y112319D01*
X470839Y112245D01*
X470706Y112149D01*
X470567Y112061D01*
X470448Y111962D01*
X470322Y111872D01*
X470202Y111760D01*
X470076Y111655D01*
X469970Y111542D01*
X469857Y111437D01*
X469752Y111311D01*
X469639Y111191D01*
X469548Y111066D01*
X469449Y110947D01*
X469361Y110809D01*
X469264Y110676D01*
X469190Y110541D01*
X469106Y110410D01*
X469036Y110262D01*
X468957Y110118D01*
X468900Y109974D01*
X468833Y109834D01*
X468782Y109678D01*
X468721Y109526D01*
X468683Y109376D01*
X468634Y109229D01*
X468603Y109068D01*
X468562Y108909D01*
X468542Y108756D01*
X468513Y108604D01*
X468503Y108445D01*
X468481Y108277D01*
X468481Y108109D01*
X468471Y107950D01*
X468471Y101034D01*
X467784Y101533D01*
X467716Y101593D01*
X467587Y101681D01*
X467464Y101777D01*
X467324Y101860D01*
X467189Y101952D01*
X467050Y102022D01*
X466916Y102102D01*
X466767Y102167D01*
X466621Y102241D01*
X466475Y102294D01*
X466332Y102356D01*
X466175Y102402D01*
X466022Y102458D01*
X465870Y102492D01*
X465721Y102535D01*
X465559Y102561D01*
X465400Y102597D01*
X465245Y102612D01*
X465092Y102637D01*
X464929Y102642D01*
X464766Y102658D01*
X464610Y102653D01*
X464455Y102658D01*
X464292Y102644D01*
X464129Y102639D01*
X463975Y102614D01*
X463820Y102600D01*
X463661Y102565D01*
X463500Y102540D01*
X463350Y102497D01*
X463198Y102463D01*
X463045Y102408D01*
X462888Y102363D01*
X462744Y102301D01*
X462598Y102249D01*
X462453Y102176D01*
X462303Y102111D01*
X462168Y102032D01*
X462029Y101962D01*
X461894Y101870D01*
X461754Y101788D01*
X461630Y101692D01*
X461501Y101605D01*
X461382Y101500D01*
X461249Y101398D01*
X461129Y101279D01*
X461009Y101173D01*
X460454Y100617D01*
X459893Y100385D01*
X456875Y100385D01*
X456843Y100383D01*
X456811Y100385D01*
X456525Y100363D01*
X456239Y100345D01*
X456208Y100339D01*
X456176Y100337D01*
X455894Y100280D01*
X455613Y100226D01*
X455583Y100216D01*
X455552Y100210D01*
X455314Y100129D01*
X455149Y100075D01*
X451949Y100075D01*
X451837Y100112D01*
X451566Y100205D01*
X451535Y100212D01*
X451504Y100222D01*
X451222Y100276D01*
X450942Y100334D01*
X450910Y100337D01*
X450879Y100343D01*
X450628Y100359D01*
X450307Y100385D01*
X450265Y100383D01*
X450225Y100385D01*
X447207Y100385D01*
X446646Y100617D01*
X446217Y101046D01*
X445985Y101607D01*
X445985Y104625D01*
X445983Y104657D01*
X445985Y104689D01*
X445963Y104975D01*
X445945Y105261D01*
X445939Y105292D01*
X445937Y105324D01*
X445880Y105606D01*
X445826Y105887D01*
X445816Y105917D01*
X445810Y105948D01*
X445729Y106186D01*
X445675Y106351D01*
X445675Y109551D01*
X445712Y109663D01*
X445805Y109934D01*
X445812Y109965D01*
X445822Y109996D01*
X445876Y110277D01*
X445934Y110558D01*
X445937Y110590D01*
X445943Y110621D01*
X445959Y110872D01*
X445985Y111193D01*
X445983Y111235D01*
X445985Y111275D01*
X445985Y114293D01*
X446217Y114854D01*
X446646Y115283D01*
X447207Y115515D01*
X447874Y115515D01*
X447947Y115519D01*
X448020Y115517D01*
X448265Y115539D01*
X448510Y115555D01*
X448582Y115568D01*
X448655Y115575D01*
X448895Y115628D01*
X449136Y115674D01*
X449206Y115697D01*
X449277Y115712D01*
X449508Y115795D01*
X449742Y115871D01*
X449808Y115902D01*
X449877Y115926D01*
X450096Y116037D01*
X450319Y116142D01*
X450380Y116181D01*
X450445Y116214D01*
X450649Y116351D01*
X450857Y116483D01*
X450913Y116529D01*
X450974Y116570D01*
X451147Y116723D01*
X451348Y116888D01*
X451405Y116949D01*
X451466Y117002D01*
X468920Y134456D01*
X468968Y134511D01*
X469021Y134561D01*
X469179Y134750D01*
X469341Y134934D01*
X469382Y134994D01*
X469429Y135051D01*
X469561Y135258D01*
X469699Y135461D01*
X469732Y135526D01*
X469772Y135587D01*
X469877Y135809D01*
X469989Y136029D01*
X470013Y136097D01*
X470045Y136163D01*
X470121Y136397D01*
X470205Y136628D01*
X470221Y136699D01*
X470244Y136768D01*
X470290Y137010D01*
X470344Y137250D01*
X470351Y137322D01*
X470365Y137394D01*
X470380Y137625D01*
X470405Y137884D01*
X470402Y137967D01*
X470407Y138048D01*
X470407Y168546D01*
X470398Y168701D01*
X470398Y168856D01*
X470378Y169018D01*
X470367Y169182D01*
X470338Y169334D01*
X470319Y169488D01*
X470279Y169647D01*
X470248Y169808D01*
X470200Y169955D01*
X470162Y170105D01*
X470102Y170258D01*
X470051Y170414D01*
X469986Y170554D01*
X469929Y170698D01*
X469850Y170842D01*
X469780Y170990D01*
X469698Y171121D01*
X469623Y171257D01*
X469527Y171390D01*
X469439Y171529D01*
X469341Y171648D01*
X469250Y171774D01*
X469138Y171893D01*
X469034Y172020D01*
X468921Y172126D01*
X468815Y172239D01*
X468689Y172344D01*
X468570Y172456D01*
X468444Y172548D01*
X468325Y172647D01*
X468187Y172735D01*
X468055Y172831D01*
X467919Y172906D01*
X467788Y172990D01*
X467640Y173060D01*
X467497Y173139D01*
X467353Y173196D01*
X467213Y173263D01*
X467057Y173314D01*
X466904Y173374D01*
X466754Y173413D01*
X466607Y173462D01*
X466446Y173493D01*
X466288Y173534D01*
X466134Y173553D01*
X465982Y173583D01*
X465823Y173593D01*
X465656Y173615D01*
X465487Y173615D01*
X465328Y173625D01*
X462897Y173625D01*
X462336Y173857D01*
X461351Y174843D01*
X461339Y174853D01*
X461328Y174865D01*
X461098Y175066D01*
X460873Y175264D01*
X460860Y175273D01*
X460848Y175284D01*
X460594Y175454D01*
X460346Y175622D01*
X460332Y175630D01*
X460319Y175639D01*
X460047Y175775D01*
X459779Y175912D01*
X459763Y175917D01*
X459749Y175924D01*
X459462Y176026D01*
X459179Y176128D01*
X459164Y176131D01*
X459148Y176137D01*
X458853Y176201D01*
X458558Y176267D01*
X458541Y176269D01*
X458526Y176272D01*
X458226Y176299D01*
X457923Y176328D01*
X457907Y176327D01*
X457891Y176329D01*
X457590Y176318D01*
X457286Y176308D01*
X457270Y176306D01*
X457255Y176305D01*
X456956Y176256D01*
X456657Y176209D01*
X456642Y176205D01*
X456626Y176202D01*
X456335Y176116D01*
X456045Y176032D01*
X456030Y176026D01*
X456015Y176021D01*
X455739Y175900D01*
X455460Y175780D01*
X455446Y175772D01*
X455431Y175766D01*
X455172Y175610D01*
X454911Y175457D01*
X454898Y175447D01*
X454885Y175439D01*
X454646Y175252D01*
X454407Y175067D01*
X454396Y175056D01*
X454383Y175046D01*
X454168Y174829D01*
X453956Y174617D01*
X453946Y174605D01*
X453934Y174593D01*
X453791Y174405D01*
X453564Y174115D01*
X453551Y174093D01*
X453536Y174073D01*
X453173Y173530D01*
X452820Y173177D01*
X452403Y172898D01*
X451941Y172707D01*
X451450Y172609D01*
X448279Y172609D01*
X448279Y184150D01*
X448270Y184304D01*
X448270Y184459D01*
X448250Y184622D01*
X448239Y184786D01*
X448210Y184937D01*
X448191Y185091D01*
X448151Y185251D01*
X448120Y185411D01*
X448072Y185559D01*
X448034Y185709D01*
X447974Y185861D01*
X447924Y186017D01*
X447858Y186158D01*
X447801Y186302D01*
X447722Y186446D01*
X447653Y186594D01*
X447570Y186725D01*
X447495Y186861D01*
X447399Y186994D01*
X447311Y187132D01*
X447213Y187252D01*
X447122Y187377D01*
X447010Y187497D01*
X446906Y187623D01*
X446793Y187730D01*
X446687Y187843D01*
X446561Y187948D01*
X446442Y188060D01*
X446316Y188151D01*
X446197Y188250D01*
X446059Y188339D01*
X445927Y188435D01*
X445791Y188510D01*
X445660Y188593D01*
X445512Y188664D01*
X445369Y188743D01*
X445225Y188800D01*
X445085Y188866D01*
X444929Y188918D01*
X444777Y188978D01*
X444627Y189017D01*
X444479Y189065D01*
X444319Y189096D01*
X444160Y189137D01*
X444006Y189157D01*
X443854Y189187D01*
X443695Y189197D01*
X443528Y189218D01*
X443359Y189219D01*
X443200Y189229D01*
X443045Y189219D01*
X442891Y189219D01*
X442890Y189219D01*
X442727Y189199D01*
X442564Y189189D01*
X442412Y189160D01*
X442258Y189141D01*
X442099Y189100D01*
X441938Y189070D01*
X441791Y189022D01*
X441641Y188984D01*
X441488Y188924D01*
X441332Y188873D01*
X441192Y188807D01*
X441048Y188750D01*
X440904Y188672D01*
X440755Y188602D01*
X440625Y188519D01*
X440489Y188445D01*
X440356Y188349D01*
X440217Y188261D01*
X440098Y188162D01*
X439972Y188072D01*
X439852Y187960D01*
X439726Y187855D01*
X439620Y187742D01*
X439507Y187637D01*
X439402Y187511D01*
X439289Y187391D01*
X439198Y187266D01*
X439099Y187147D01*
X439011Y187009D01*
X438914Y186876D01*
X438840Y186741D01*
X438756Y186610D01*
X438686Y186462D01*
X438607Y186318D01*
X438550Y186174D01*
X438483Y186034D01*
X438432Y185878D01*
X438371Y185726D01*
X438333Y185576D01*
X438284Y185429D01*
X438253Y185268D01*
X438212Y185109D01*
X438192Y184956D01*
X438163Y184804D01*
X438153Y184645D01*
X438131Y184477D01*
X438131Y184309D01*
X438121Y184150D01*
X438121Y172609D01*
X434950Y172609D01*
X434459Y172707D01*
X433997Y172898D01*
X433580Y173177D01*
X433324Y173432D01*
X433208Y173535D01*
X433099Y173645D01*
X432969Y173746D01*
X432847Y173854D01*
X432718Y173941D01*
X432596Y174036D01*
X432455Y174120D01*
X432320Y174212D01*
X432182Y174283D01*
X432048Y174362D01*
X431898Y174427D01*
X431752Y174502D01*
X431606Y174554D01*
X431464Y174616D01*
X431307Y174662D01*
X431153Y174718D01*
X431001Y174752D01*
X430853Y174795D01*
X430691Y174821D01*
X430531Y174857D01*
X430377Y174872D01*
X430224Y174896D01*
X430060Y174902D01*
X429897Y174918D01*
X429742Y174913D01*
X429587Y174918D01*
X429423Y174903D01*
X429260Y174898D01*
X429107Y174874D01*
X428952Y174860D01*
X428792Y174825D01*
X428631Y174799D01*
X428481Y174756D01*
X428330Y174723D01*
X428176Y174668D01*
X428018Y174622D01*
X427876Y174561D01*
X427730Y174509D01*
X427584Y174435D01*
X427433Y174370D01*
X427300Y174291D01*
X427161Y174221D01*
X427026Y174130D01*
X426884Y174047D01*
X426762Y173952D01*
X426633Y173865D01*
X426514Y173760D01*
X426380Y173657D01*
X426337Y173614D01*
X422951Y172211D01*
X404073Y172211D01*
X400712Y173603D01*
X399722Y174594D01*
X399544Y174750D01*
X399372Y174913D01*
X399305Y174961D01*
X399244Y175015D01*
X399048Y175148D01*
X398856Y175288D01*
X398785Y175327D01*
X398717Y175373D01*
X398506Y175481D01*
X398299Y175595D01*
X398222Y175626D01*
X398149Y175663D01*
X397926Y175743D01*
X397706Y175831D01*
X397627Y175851D01*
X397550Y175879D01*
X397319Y175931D01*
X397090Y175990D01*
X397008Y176001D01*
X396928Y176018D01*
X396693Y176041D01*
X396458Y176071D01*
X396375Y176071D01*
X396294Y176079D01*
X396058Y176072D01*
X395820Y176072D01*
X395739Y176062D01*
X395657Y176059D01*
X395424Y176023D01*
X395188Y175993D01*
X395109Y175973D01*
X395028Y175960D01*
X394800Y175895D01*
X394571Y175836D01*
X394494Y175806D01*
X394416Y175783D01*
X394199Y175690D01*
X393978Y175603D01*
X393906Y175564D01*
X393831Y175531D01*
X393627Y175411D01*
X393419Y175297D01*
X393352Y175249D01*
X393282Y175208D01*
X393095Y175063D01*
X392902Y174924D01*
X392842Y174868D01*
X392778Y174818D01*
X392610Y174651D01*
X392437Y174489D01*
X392384Y174426D01*
X392326Y174368D01*
X392181Y174182D01*
X392029Y174000D01*
X391985Y173930D01*
X391935Y173866D01*
X391814Y173662D01*
X391686Y173463D01*
X391651Y173389D01*
X391609Y173318D01*
X391515Y173101D01*
X391413Y172887D01*
X391388Y172809D01*
X391355Y172734D01*
X391288Y172507D01*
X391214Y172282D01*
X391199Y172201D01*
X391176Y172122D01*
X391138Y171888D01*
X391093Y171656D01*
X391088Y171576D01*
X391075Y171493D01*
X391066Y171233D01*
X391051Y171002D01*
X391051Y147889D01*
X391061Y147733D01*
X391060Y147576D01*
X391081Y147415D01*
X391091Y147253D01*
X391120Y147099D01*
X391139Y146944D01*
X391180Y146787D01*
X391210Y146627D01*
X391258Y146478D01*
X391297Y146326D01*
X391356Y146176D01*
X391407Y146021D01*
X391473Y145879D01*
X391531Y145734D01*
X391609Y145592D01*
X391678Y145445D01*
X391761Y145312D01*
X391837Y145175D01*
X391932Y145043D01*
X392019Y144907D01*
X392118Y144786D01*
X392210Y144659D01*
X392321Y144540D01*
X392424Y144415D01*
X392539Y144308D01*
X392646Y144193D01*
X392770Y144090D01*
X392888Y143979D01*
X393015Y143886D01*
X393136Y143786D01*
X393272Y143699D01*
X393403Y143604D01*
X393541Y143528D01*
X393673Y143444D01*
X393819Y143374D01*
X393961Y143296D01*
X394107Y143238D01*
X394249Y143171D01*
X394403Y143121D01*
X394554Y143061D01*
X394705Y143022D01*
X394854Y142973D01*
X395013Y142942D01*
X395170Y142901D01*
X395326Y142881D01*
X395480Y142852D01*
X395642Y142841D01*
X395802Y142820D01*
X395959Y142820D01*
X396115Y142810D01*
X396277Y142820D01*
X396440Y142819D01*
X396595Y142839D01*
X396751Y142848D01*
X396911Y142878D01*
X397072Y142898D01*
X397224Y142937D01*
X397378Y142966D01*
X397532Y143015D01*
X397689Y143055D01*
X397835Y143112D01*
X397984Y143160D01*
X398131Y143229D01*
X398282Y143288D01*
X398420Y143364D01*
X398562Y143430D01*
X398695Y143514D01*
X398841Y143594D01*
X398980Y143694D01*
X399115Y143780D01*
X400567Y144834D01*
X401992Y145560D01*
X403513Y146055D01*
X405092Y146305D01*
X408433Y146305D01*
X408433Y136144D01*
X408433Y125983D01*
X405092Y125983D01*
X403513Y126233D01*
X401992Y126728D01*
X400567Y127454D01*
X399115Y128508D01*
X398983Y128592D01*
X398856Y128684D01*
X398714Y128763D01*
X398578Y128849D01*
X398436Y128916D01*
X398299Y128992D01*
X398148Y129052D01*
X398001Y129121D01*
X397852Y129169D01*
X397706Y129227D01*
X397549Y129268D01*
X397395Y129318D01*
X397241Y129347D01*
X397090Y129387D01*
X396929Y129407D01*
X396769Y129438D01*
X396613Y129448D01*
X396458Y129468D01*
X396295Y129468D01*
X396134Y129478D01*
X395977Y129468D01*
X395820Y129469D01*
X395660Y129449D01*
X395498Y129439D01*
X395344Y129409D01*
X395188Y129390D01*
X395031Y129350D01*
X394872Y129320D01*
X394723Y129272D01*
X394571Y129233D01*
X394420Y129173D01*
X394266Y129124D01*
X394124Y129057D01*
X393978Y129000D01*
X393835Y128922D01*
X393689Y128853D01*
X393556Y128769D01*
X393419Y128694D01*
X393287Y128599D01*
X393150Y128512D01*
X393029Y128413D01*
X392902Y128321D01*
X392784Y128210D01*
X392659Y128107D01*
X392551Y127993D01*
X392437Y127886D01*
X392333Y127761D01*
X392222Y127643D01*
X392129Y127516D01*
X392029Y127396D01*
X391942Y127260D01*
X391846Y127128D01*
X391771Y126991D01*
X391686Y126859D01*
X391617Y126712D01*
X391538Y126571D01*
X391481Y126425D01*
X391413Y126283D01*
X391363Y126129D01*
X391303Y125979D01*
X391263Y125827D01*
X391214Y125678D01*
X391184Y125519D01*
X391143Y125362D01*
X391123Y125207D01*
X391093Y125053D01*
X391083Y124895D01*
X391062Y124730D01*
X391061Y124560D01*
X391051Y124399D01*
X391051Y116901D01*
X391061Y116745D01*
X391060Y116588D01*
X391081Y116427D01*
X391091Y116265D01*
X391120Y116111D01*
X391139Y115956D01*
X391180Y115799D01*
X391210Y115639D01*
X391258Y115490D01*
X391297Y115338D01*
X391356Y115188D01*
X391407Y115033D01*
X391473Y114891D01*
X391531Y114746D01*
X391609Y114604D01*
X391678Y114457D01*
X391761Y114324D01*
X391837Y114187D01*
X391932Y114055D01*
X392019Y113919D01*
X392118Y113798D01*
X392210Y113671D01*
X392321Y113552D01*
X392424Y113427D01*
X392539Y113320D01*
X392646Y113205D01*
X392770Y113102D01*
X392888Y112991D01*
X393015Y112898D01*
X393136Y112798D01*
X393272Y112711D01*
X393403Y112616D01*
X393541Y112540D01*
X393673Y112456D01*
X393819Y112386D01*
X393961Y112308D01*
X394107Y112250D01*
X394249Y112183D01*
X394403Y112133D01*
X394554Y112073D01*
X394705Y112034D01*
X394854Y111985D01*
X395013Y111954D01*
X395170Y111913D01*
X395326Y111893D01*
X395480Y111864D01*
X395642Y111853D01*
X395802Y111832D01*
X395959Y111832D01*
X396115Y111822D01*
X396277Y111832D01*
X396440Y111831D01*
X396595Y111851D01*
X396751Y111860D01*
X396911Y111890D01*
X397072Y111910D01*
X397224Y111949D01*
X397378Y111978D01*
X397532Y112027D01*
X397689Y112067D01*
X397835Y112124D01*
X397984Y112172D01*
X398131Y112241D01*
X398282Y112300D01*
X398420Y112376D01*
X398562Y112442D01*
X398695Y112526D01*
X398841Y112606D01*
X398980Y112706D01*
X399115Y112792D01*
X400567Y113846D01*
X401992Y114572D01*
X403513Y115067D01*
X405092Y115317D01*
X408433Y115317D01*
X408433Y110235D01*
X393350Y110235D01*
X393171Y110334D01*
X392968Y110455D01*
X392893Y110488D01*
X392821Y110527D01*
X392600Y110615D01*
X392383Y110709D01*
X392305Y110732D01*
X392228Y110763D01*
X391999Y110822D01*
X391772Y110889D01*
X391691Y110902D01*
X391612Y110922D01*
X391377Y110952D01*
X391143Y110990D01*
X391061Y110993D01*
X390980Y111003D01*
X390743Y111003D01*
X390506Y111011D01*
X390425Y111004D01*
X390342Y111004D01*
X390107Y110975D01*
X389872Y110953D01*
X389792Y110936D01*
X389710Y110925D01*
X389480Y110867D01*
X389250Y110816D01*
X389172Y110789D01*
X389093Y110768D01*
X388872Y110682D01*
X388649Y110602D01*
X388576Y110565D01*
X388500Y110535D01*
X388291Y110421D01*
X388081Y110315D01*
X388013Y110269D01*
X387941Y110229D01*
X387749Y110091D01*
X387553Y109958D01*
X387492Y109905D01*
X387424Y109856D01*
X387234Y109678D01*
X387060Y109526D01*
X364745Y87210D01*
X362691Y86359D01*
X346167Y86359D01*
X346094Y86355D01*
X346021Y86357D01*
X345776Y86335D01*
X345531Y86319D01*
X345459Y86306D01*
X345387Y86299D01*
X345146Y86246D01*
X344905Y86200D01*
X344836Y86178D01*
X344764Y86162D01*
X344533Y86079D01*
X344299Y86003D01*
X344233Y85972D01*
X344164Y85948D01*
X343945Y85837D01*
X343722Y85732D01*
X343661Y85693D01*
X343596Y85660D01*
X343392Y85523D01*
X343184Y85391D01*
X343128Y85345D01*
X343068Y85304D01*
X342894Y85151D01*
X342693Y84986D01*
X342686Y84978D01*
X342683Y84976D01*
X342632Y84922D01*
X342575Y84872D01*
X340362Y82659D01*
X340314Y82604D01*
X340261Y82554D01*
X340104Y82365D01*
X339941Y82181D01*
X339900Y82120D01*
X339853Y82064D01*
X339721Y81857D01*
X339583Y81654D01*
X339550Y81589D01*
X339510Y81527D01*
X339405Y81305D01*
X339293Y81086D01*
X339269Y81018D01*
X339237Y80952D01*
X339160Y80718D01*
X339077Y80487D01*
X339061Y80416D01*
X339038Y80346D01*
X338992Y80105D01*
X338938Y79865D01*
X338931Y79793D01*
X338917Y79721D01*
X338902Y79490D01*
X338877Y79231D01*
X338880Y79148D01*
X338875Y79067D01*
X338875Y76747D01*
X338612Y76112D01*
X338548Y75926D01*
X338476Y75744D01*
X338445Y75625D01*
X338405Y75509D01*
X338366Y75317D01*
X338317Y75128D01*
X338301Y75005D01*
X338276Y74885D01*
X338261Y74690D01*
X338236Y74496D01*
X338235Y74373D01*
X338226Y74250D01*
X338235Y74054D01*
X338234Y73858D01*
X338250Y73736D01*
X338255Y73614D01*
X338289Y73421D01*
X338313Y73226D01*
X338343Y73107D01*
X338365Y72986D01*
X338422Y72799D01*
X338470Y72609D01*
X338515Y72494D01*
X338551Y72377D01*
X338632Y72198D01*
X338704Y72016D01*
X338763Y71908D01*
X338813Y71796D01*
X338915Y71629D01*
X339009Y71457D01*
X339081Y71357D01*
X339145Y71252D01*
X339268Y71099D01*
X339382Y70940D01*
X339466Y70851D01*
X339543Y70755D01*
X339684Y70618D01*
X339817Y70475D01*
X339912Y70396D01*
X340000Y70310D01*
X340156Y70193D01*
X340307Y70067D01*
X340411Y70001D01*
X340509Y69927D01*
X340679Y69830D01*
X340844Y69724D01*
X340955Y69672D01*
X341062Y69611D01*
X341242Y69535D01*
X341420Y69451D01*
X341537Y69413D01*
X341650Y69366D01*
X341839Y69314D01*
X342025Y69252D01*
X342146Y69229D01*
X342264Y69196D01*
X342458Y69168D01*
X342650Y69131D01*
X342770Y69123D01*
X342895Y69105D01*
X343108Y69101D01*
X343304Y69089D01*
X357927Y69089D01*
X361288Y67697D01*
X363861Y65124D01*
X365253Y61763D01*
X365253Y58125D01*
X363861Y54764D01*
X361288Y52191D01*
X357927Y50799D01*
X339049Y50799D01*
X335688Y52191D01*
X333115Y54764D01*
X332955Y55152D01*
X332869Y55328D01*
X332791Y55508D01*
X332728Y55614D01*
X332674Y55724D01*
X332567Y55888D01*
X332467Y56057D01*
X332392Y56154D01*
X332325Y56257D01*
X332198Y56406D01*
X332078Y56561D01*
X331991Y56648D01*
X331911Y56742D01*
X331766Y56874D01*
X331628Y57012D01*
X331531Y57088D01*
X331440Y57171D01*
X331280Y57283D01*
X331125Y57404D01*
X331019Y57467D01*
X330919Y57537D01*
X330746Y57629D01*
X330578Y57729D01*
X330465Y57778D01*
X330356Y57836D01*
X330173Y57905D01*
X329993Y57984D01*
X329876Y58018D01*
X329760Y58062D01*
X329570Y58108D01*
X329382Y58163D01*
X329260Y58182D01*
X329141Y58211D01*
X328947Y58233D01*
X328753Y58264D01*
X328630Y58268D01*
X328508Y58282D01*
X328312Y58279D01*
X328116Y58286D01*
X327994Y58275D01*
X327871Y58273D01*
X327677Y58245D01*
X327482Y58228D01*
X327362Y58201D01*
X327240Y58184D01*
X327051Y58132D01*
X326860Y58090D01*
X326744Y58049D01*
X326625Y58017D01*
X326444Y57942D01*
X326259Y57876D01*
X326150Y57821D01*
X326036Y57774D01*
X325865Y57677D01*
X325691Y57589D01*
X325589Y57520D01*
X325482Y57459D01*
X325325Y57342D01*
X325163Y57233D01*
X325072Y57153D01*
X324972Y57078D01*
X324818Y56930D01*
X324670Y56800D01*
X318706Y50836D01*
X318549Y50658D01*
X318387Y50486D01*
X318339Y50419D01*
X318284Y50358D01*
X318151Y50162D01*
X318012Y49970D01*
X317972Y49899D01*
X317926Y49831D01*
X317819Y49620D01*
X317704Y49413D01*
X317674Y49336D01*
X317637Y49263D01*
X317556Y49040D01*
X317469Y48820D01*
X317448Y48741D01*
X317421Y48664D01*
X317369Y48433D01*
X317310Y48204D01*
X317299Y48122D01*
X317281Y48042D01*
X317259Y47807D01*
X317229Y47572D01*
X317229Y47489D01*
X317221Y47408D01*
X317228Y47172D01*
X317228Y46934D01*
X317238Y46853D01*
X317240Y46771D01*
X317277Y46537D01*
X317306Y46302D01*
X317326Y46223D01*
X317339Y46142D01*
X317405Y45914D01*
X317463Y45685D01*
X317493Y45609D01*
X317516Y45530D01*
X317610Y45312D01*
X317697Y45092D01*
X317736Y45020D01*
X317768Y44945D01*
X317889Y44741D01*
X318002Y44533D01*
X318050Y44466D01*
X318092Y44396D01*
X318237Y44208D01*
X318375Y44016D01*
X318431Y43957D01*
X318482Y43892D01*
X318649Y43724D01*
X318810Y43551D01*
X318874Y43498D01*
X318931Y43440D01*
X319118Y43295D01*
X319300Y43143D01*
X319369Y43099D01*
X319434Y43049D01*
X319638Y42928D01*
X319837Y42800D01*
X319911Y42765D01*
X319982Y42723D01*
X320198Y42629D01*
X320413Y42527D01*
X320491Y42502D01*
X320566Y42469D01*
X320793Y42402D01*
X321018Y42328D01*
X321099Y42313D01*
X321177Y42290D01*
X321411Y42252D01*
X321644Y42207D01*
X321724Y42202D01*
X321806Y42189D01*
X322066Y42180D01*
X322297Y42165D01*
X325669Y42165D01*
X329030Y40773D01*
X331603Y38200D01*
X332995Y34839D01*
X332995Y15240D01*
X333004Y15085D01*
X333004Y14930D01*
X333024Y14768D01*
X333035Y14604D01*
X333064Y14452D01*
X333083Y14298D01*
X333123Y14139D01*
X333154Y13978D01*
X333202Y13831D01*
X333240Y13681D01*
X333300Y13528D01*
X333351Y13372D01*
X333416Y13232D01*
X333473Y13088D01*
X333552Y12944D01*
X333622Y12796D01*
X333704Y12665D01*
X333779Y12529D01*
X333875Y12396D01*
X333963Y12257D01*
X334061Y12138D01*
X334152Y12012D01*
X334264Y11893D01*
X334368Y11766D01*
X334481Y11660D01*
X334587Y11547D01*
X334713Y11442D01*
X334832Y11330D01*
X334958Y11238D01*
X335077Y11139D01*
X335215Y11051D01*
X335347Y10955D01*
X335483Y10880D01*
X335614Y10796D01*
X335762Y10726D01*
X335905Y10647D01*
X336049Y10590D01*
X336189Y10523D01*
X336345Y10472D01*
X336498Y10412D01*
X336648Y10373D01*
X336795Y10324D01*
X336956Y10293D01*
X337114Y10252D01*
X337268Y10233D01*
X337420Y10203D01*
X337579Y10193D01*
X337746Y10171D01*
X337915Y10171D01*
X338074Y10161D01*
X397065Y10161D01*
X397302Y10176D01*
G37*
G36*
X324159Y88688D02*
X324159Y88688D01*
X324404Y88699D01*
X324476Y88712D01*
X324549Y88717D01*
X324790Y88766D01*
X325032Y88809D01*
X325102Y88830D01*
X325174Y88845D01*
X325393Y88919D01*
X325641Y88995D01*
X325717Y89030D01*
X325794Y89056D01*
X327047Y89575D01*
X329367Y89575D01*
X329440Y89579D01*
X329513Y89577D01*
X329758Y89599D01*
X330003Y89615D01*
X330075Y89628D01*
X330147Y89635D01*
X330388Y89688D01*
X330629Y89734D01*
X330698Y89757D01*
X330770Y89772D01*
X331001Y89855D01*
X331235Y89931D01*
X331301Y89962D01*
X331370Y89986D01*
X331589Y90097D01*
X331812Y90202D01*
X331873Y90241D01*
X331938Y90274D01*
X332142Y90411D01*
X332350Y90543D01*
X332406Y90589D01*
X332467Y90630D01*
X332640Y90783D01*
X332841Y90948D01*
X332898Y91009D01*
X332959Y91062D01*
X333184Y91288D01*
X333286Y91404D01*
X333396Y91513D01*
X333497Y91642D01*
X333605Y91765D01*
X333692Y91893D01*
X333788Y92016D01*
X333871Y92157D01*
X333963Y92292D01*
X334034Y92430D01*
X334113Y92563D01*
X334178Y92713D01*
X334253Y92860D01*
X334306Y93006D01*
X334367Y93148D01*
X334413Y93305D01*
X334469Y93459D01*
X334503Y93610D01*
X334547Y93759D01*
X334573Y93921D01*
X334608Y94081D01*
X334623Y94235D01*
X334648Y94388D01*
X334653Y94552D01*
X334669Y94715D01*
X334664Y94870D01*
X334669Y95025D01*
X334654Y95188D01*
X334649Y95352D01*
X334625Y95505D01*
X334611Y95659D01*
X334576Y95819D01*
X334550Y95981D01*
X334507Y96130D01*
X334474Y96282D01*
X334419Y96436D01*
X334373Y96593D01*
X334312Y96736D01*
X334260Y96882D01*
X334186Y97028D01*
X334121Y97179D01*
X334042Y97312D01*
X333973Y97450D01*
X333881Y97586D01*
X333798Y97727D01*
X333703Y97850D01*
X333616Y97978D01*
X333511Y98098D01*
X333408Y98232D01*
X333289Y98351D01*
X333184Y98471D01*
X333118Y98537D01*
X332178Y99831D01*
X332052Y100077D01*
X348488Y100077D01*
X348642Y100086D01*
X348797Y100086D01*
X348960Y100106D01*
X349124Y100117D01*
X349275Y100145D01*
X349429Y100165D01*
X349589Y100205D01*
X349749Y100236D01*
X349897Y100284D01*
X350047Y100322D01*
X350199Y100382D01*
X350355Y100432D01*
X350496Y100498D01*
X350640Y100555D01*
X350784Y100634D01*
X350932Y100703D01*
X351063Y100786D01*
X351199Y100861D01*
X351332Y100957D01*
X351470Y101044D01*
X351590Y101143D01*
X351715Y101234D01*
X351835Y101346D01*
X351961Y101450D01*
X352068Y101563D01*
X352181Y101669D01*
X352286Y101795D01*
X352314Y101824D01*
X352399Y101915D01*
X352490Y102040D01*
X352589Y102159D01*
X352677Y102297D01*
X352774Y102430D01*
X352848Y102565D01*
X352932Y102696D01*
X353002Y102844D01*
X353081Y102988D01*
X353138Y103131D01*
X353205Y103272D01*
X353256Y103427D01*
X353317Y103580D01*
X353355Y103730D01*
X353404Y103877D01*
X353435Y104038D01*
X353476Y104197D01*
X353496Y104350D01*
X353525Y104502D01*
X353535Y104661D01*
X353557Y104829D01*
X353557Y104997D01*
X353567Y105156D01*
X353567Y115317D01*
X356908Y115317D01*
X358487Y115067D01*
X360008Y114572D01*
X361433Y113846D01*
X362727Y112906D01*
X363858Y111775D01*
X364421Y111001D01*
X364571Y110819D01*
X364714Y110634D01*
X364774Y110574D01*
X364827Y110510D01*
X364999Y110349D01*
X365164Y110182D01*
X365230Y110131D01*
X365291Y110073D01*
X365481Y109935D01*
X365667Y109791D01*
X365739Y109748D01*
X365807Y109699D01*
X366013Y109585D01*
X366215Y109465D01*
X366291Y109432D01*
X366365Y109391D01*
X366583Y109305D01*
X366799Y109211D01*
X366879Y109187D01*
X366957Y109157D01*
X367185Y109098D01*
X367410Y109032D01*
X367493Y109019D01*
X367574Y108998D01*
X367807Y108968D01*
X368039Y108931D01*
X368123Y108928D01*
X368206Y108917D01*
X368441Y108917D01*
X368676Y108909D01*
X368759Y108917D01*
X368843Y108916D01*
X369076Y108946D01*
X369310Y108967D01*
X369392Y108985D01*
X369476Y108996D01*
X369703Y109054D01*
X369933Y109104D01*
X370012Y109132D01*
X370093Y109153D01*
X370312Y109239D01*
X370533Y109318D01*
X370608Y109356D01*
X370686Y109387D01*
X370892Y109500D01*
X371101Y109606D01*
X371171Y109653D01*
X371244Y109693D01*
X371435Y109831D01*
X371630Y109962D01*
X371691Y110016D01*
X371761Y110066D01*
X371949Y110243D01*
X372122Y110395D01*
X378386Y116658D01*
X378434Y116713D01*
X378487Y116763D01*
X378645Y116952D01*
X378807Y117136D01*
X378848Y117197D01*
X378895Y117253D01*
X379027Y117460D01*
X379165Y117663D01*
X379198Y117728D01*
X379238Y117790D01*
X379343Y118012D01*
X379455Y118231D01*
X379479Y118299D01*
X379511Y118365D01*
X379587Y118599D01*
X379671Y118830D01*
X379687Y118901D01*
X379710Y118971D01*
X379756Y119212D01*
X379810Y119452D01*
X379817Y119524D01*
X379831Y119596D01*
X379846Y119827D01*
X379871Y120086D01*
X379868Y120169D01*
X379873Y120250D01*
X379873Y222774D01*
X380724Y224828D01*
X388038Y232141D01*
X388086Y232196D01*
X388139Y232246D01*
X388297Y232435D01*
X388459Y232619D01*
X388500Y232679D01*
X388547Y232736D01*
X388679Y232943D01*
X388817Y233146D01*
X388850Y233211D01*
X388890Y233273D01*
X388995Y233495D01*
X389107Y233714D01*
X389131Y233782D01*
X389163Y233848D01*
X389239Y234082D01*
X389323Y234313D01*
X389339Y234384D01*
X389362Y234454D01*
X389408Y234695D01*
X389462Y234935D01*
X389469Y235007D01*
X389483Y235079D01*
X389498Y235310D01*
X389523Y235569D01*
X389520Y235652D01*
X389525Y235733D01*
X389525Y244553D01*
X389757Y245114D01*
X390186Y245543D01*
X390747Y245775D01*
X392446Y245775D01*
X392601Y245784D01*
X392756Y245784D01*
X392918Y245804D01*
X393082Y245815D01*
X393234Y245844D01*
X393388Y245863D01*
X393547Y245903D01*
X393708Y245934D01*
X393855Y245982D01*
X394005Y246020D01*
X394158Y246080D01*
X394314Y246131D01*
X394454Y246196D01*
X394598Y246253D01*
X394742Y246332D01*
X394890Y246402D01*
X395021Y246484D01*
X395157Y246559D01*
X395290Y246655D01*
X395429Y246743D01*
X395548Y246841D01*
X395674Y246932D01*
X395793Y247044D01*
X395920Y247148D01*
X396026Y247261D01*
X396139Y247367D01*
X396244Y247493D01*
X396356Y247612D01*
X396448Y247738D01*
X396547Y247857D01*
X396635Y247995D01*
X396731Y248127D01*
X396806Y248263D01*
X396890Y248394D01*
X396960Y248542D01*
X397039Y248685D01*
X397096Y248829D01*
X397163Y248969D01*
X397214Y249125D01*
X397274Y249278D01*
X397313Y249428D01*
X397362Y249575D01*
X397393Y249736D01*
X397434Y249894D01*
X397453Y250048D01*
X397483Y250200D01*
X397493Y250359D01*
X397515Y250526D01*
X397515Y250695D01*
X397525Y250854D01*
X397525Y255612D01*
X397516Y255767D01*
X397516Y255922D01*
X397496Y256084D01*
X397485Y256248D01*
X397456Y256400D01*
X397437Y256554D01*
X397397Y256713D01*
X397366Y256874D01*
X397318Y257021D01*
X397280Y257171D01*
X397220Y257324D01*
X397169Y257480D01*
X397104Y257620D01*
X397047Y257764D01*
X396968Y257908D01*
X396898Y258056D01*
X396816Y258187D01*
X396741Y258323D01*
X396645Y258456D01*
X396557Y258595D01*
X396459Y258714D01*
X396368Y258840D01*
X396256Y258959D01*
X396152Y259086D01*
X396039Y259192D01*
X395933Y259305D01*
X395807Y259410D01*
X395688Y259522D01*
X395562Y259614D01*
X395443Y259713D01*
X395305Y259801D01*
X395173Y259897D01*
X395037Y259972D01*
X394906Y260056D01*
X394758Y260126D01*
X394615Y260205D01*
X394471Y260262D01*
X394331Y260329D01*
X394175Y260380D01*
X394022Y260440D01*
X393872Y260479D01*
X393725Y260528D01*
X393564Y260559D01*
X393406Y260600D01*
X393252Y260619D01*
X393100Y260649D01*
X392941Y260659D01*
X392774Y260681D01*
X392605Y260681D01*
X392446Y260691D01*
X386229Y260691D01*
X384976Y261210D01*
X384907Y261234D01*
X384840Y261264D01*
X384606Y261337D01*
X384373Y261417D01*
X384301Y261432D01*
X384232Y261453D01*
X383990Y261496D01*
X383749Y261546D01*
X383676Y261552D01*
X383604Y261565D01*
X383359Y261577D01*
X383114Y261596D01*
X383041Y261593D01*
X382968Y261597D01*
X382723Y261578D01*
X382478Y261567D01*
X382405Y261554D01*
X382333Y261549D01*
X382092Y261500D01*
X381850Y261457D01*
X381780Y261436D01*
X381708Y261421D01*
X381489Y261347D01*
X381241Y261271D01*
X381165Y261236D01*
X381088Y261210D01*
X379835Y260691D01*
X370454Y260691D01*
X370299Y260682D01*
X370144Y260682D01*
X369982Y260662D01*
X369818Y260651D01*
X369666Y260622D01*
X369512Y260603D01*
X369353Y260563D01*
X369192Y260532D01*
X369045Y260484D01*
X368895Y260446D01*
X368742Y260386D01*
X368586Y260335D01*
X368446Y260270D01*
X368302Y260213D01*
X368158Y260134D01*
X368010Y260064D01*
X367879Y259982D01*
X367743Y259907D01*
X367610Y259811D01*
X367471Y259723D01*
X367352Y259625D01*
X367226Y259534D01*
X367107Y259422D01*
X366980Y259318D01*
X366874Y259205D01*
X366761Y259099D01*
X366656Y258973D01*
X366544Y258854D01*
X366452Y258728D01*
X366353Y258609D01*
X366265Y258471D01*
X366169Y258339D01*
X366094Y258203D01*
X366010Y258072D01*
X365940Y257924D01*
X365861Y257781D01*
X365804Y257637D01*
X365737Y257497D01*
X365686Y257341D01*
X365626Y257188D01*
X365587Y257038D01*
X365554Y256938D01*
X363887Y252913D01*
X361137Y250163D01*
X357544Y248675D01*
X353656Y248675D01*
X350063Y250163D01*
X347127Y253099D01*
X347059Y253212D01*
X347008Y253275D01*
X346963Y253344D01*
X346809Y253524D01*
X346661Y253709D01*
X346602Y253766D01*
X346549Y253828D01*
X346374Y253988D01*
X346204Y254153D01*
X346139Y254202D01*
X346078Y254257D01*
X345884Y254394D01*
X345695Y254536D01*
X345624Y254577D01*
X345557Y254624D01*
X345348Y254735D01*
X345142Y254853D01*
X345066Y254884D01*
X344994Y254923D01*
X344772Y255007D01*
X344554Y255098D01*
X344475Y255119D01*
X344398Y255148D01*
X344168Y255204D01*
X343939Y255267D01*
X343858Y255279D01*
X343779Y255298D01*
X343544Y255324D01*
X343309Y255358D01*
X343227Y255359D01*
X343146Y255368D01*
X342909Y255365D01*
X342672Y255369D01*
X342590Y255361D01*
X342509Y255359D01*
X342274Y255326D01*
X342038Y255301D01*
X341959Y255282D01*
X341878Y255271D01*
X341649Y255208D01*
X341418Y255154D01*
X341342Y255125D01*
X341263Y255103D01*
X341044Y255013D01*
X340822Y254930D01*
X340749Y254892D01*
X340674Y254861D01*
X340468Y254744D01*
X340258Y254633D01*
X340191Y254586D01*
X340120Y254546D01*
X339930Y254404D01*
X339736Y254268D01*
X339675Y254214D01*
X339610Y254165D01*
X339439Y254000D01*
X339263Y253841D01*
X339210Y253779D01*
X339151Y253722D01*
X339002Y253538D01*
X338848Y253358D01*
X338803Y253289D01*
X338752Y253226D01*
X338675Y253101D01*
X335737Y250163D01*
X332144Y248675D01*
X328256Y248675D01*
X327048Y249176D01*
X326863Y249239D01*
X326680Y249311D01*
X326561Y249342D01*
X326445Y249382D01*
X326253Y249422D01*
X326064Y249471D01*
X325942Y249486D01*
X325821Y249511D01*
X325626Y249527D01*
X325432Y249552D01*
X325308Y249552D01*
X325186Y249562D01*
X324990Y249552D01*
X324794Y249553D01*
X324672Y249538D01*
X324550Y249532D01*
X324357Y249498D01*
X324162Y249474D01*
X324043Y249444D01*
X323922Y249423D01*
X323735Y249365D01*
X323545Y249317D01*
X323430Y249272D01*
X323313Y249236D01*
X323134Y249156D01*
X322952Y249084D01*
X322844Y249025D01*
X322732Y248974D01*
X322565Y248872D01*
X322393Y248778D01*
X322293Y248706D01*
X322188Y248642D01*
X322035Y248520D01*
X321876Y248405D01*
X321787Y248321D01*
X321690Y248244D01*
X321554Y248104D01*
X321411Y247970D01*
X321332Y247876D01*
X321246Y247787D01*
X321128Y247631D01*
X321003Y247480D01*
X320937Y247377D01*
X320863Y247278D01*
X320766Y247108D01*
X320660Y246943D01*
X320608Y246832D01*
X320547Y246725D01*
X320471Y246545D01*
X320387Y246368D01*
X320349Y246251D01*
X320302Y246137D01*
X320250Y245948D01*
X320188Y245762D01*
X320165Y245642D01*
X320132Y245523D01*
X320104Y245329D01*
X320067Y245137D01*
X320059Y245017D01*
X320041Y244892D01*
X320037Y244680D01*
X320025Y244483D01*
X320025Y242084D01*
X320029Y242011D01*
X320027Y241938D01*
X320049Y241693D01*
X320065Y241448D01*
X320078Y241377D01*
X320085Y241304D01*
X320138Y241064D01*
X320184Y240822D01*
X320207Y240753D01*
X320222Y240682D01*
X320305Y240451D01*
X320381Y240216D01*
X320412Y240150D01*
X320436Y240081D01*
X320547Y239862D01*
X320652Y239640D01*
X320691Y239578D01*
X320724Y239513D01*
X320861Y239309D01*
X320993Y239101D01*
X321039Y239045D01*
X321080Y238985D01*
X321233Y238811D01*
X321398Y238610D01*
X321459Y238553D01*
X321512Y238492D01*
X321999Y238006D01*
X322807Y236056D01*
X322807Y233944D01*
X321629Y231100D01*
X321540Y230842D01*
X321447Y230583D01*
X321437Y230540D01*
X321422Y230498D01*
X321367Y230230D01*
X321306Y229962D01*
X321302Y229917D01*
X321293Y229874D01*
X321271Y229601D01*
X321245Y229328D01*
X321246Y229283D01*
X321243Y229239D01*
X321256Y228964D01*
X321263Y228691D01*
X321270Y228647D01*
X321272Y228602D01*
X321319Y228332D01*
X321362Y228061D01*
X321374Y228018D01*
X321382Y227974D01*
X321462Y227712D01*
X321538Y227449D01*
X321555Y227408D01*
X321568Y227365D01*
X321681Y227115D01*
X321789Y226864D01*
X321812Y226825D01*
X321830Y226784D01*
X321973Y226550D01*
X322112Y226314D01*
X322139Y226279D01*
X322162Y226241D01*
X322334Y226026D01*
X322501Y225810D01*
X322532Y225778D01*
X322560Y225743D01*
X322757Y225552D01*
X322950Y225358D01*
X322985Y225330D01*
X323017Y225299D01*
X323236Y225134D01*
X323452Y224965D01*
X323490Y224943D01*
X323526Y224916D01*
X323799Y224759D01*
X324015Y224631D01*
X324096Y224590D01*
X325389Y223650D01*
X326520Y222519D01*
X327460Y221225D01*
X327586Y220979D01*
X311150Y220979D01*
X294714Y220979D01*
X294840Y221225D01*
X295780Y222519D01*
X296911Y223650D01*
X298021Y224457D01*
X298022Y224457D01*
X298205Y224590D01*
X299630Y225316D01*
X301151Y225811D01*
X302730Y226061D01*
X307857Y226061D01*
X308052Y226073D01*
X308249Y226076D01*
X308370Y226093D01*
X308493Y226101D01*
X308685Y226137D01*
X308879Y226165D01*
X308998Y226197D01*
X309119Y226220D01*
X309305Y226280D01*
X309494Y226332D01*
X309608Y226379D01*
X309725Y226417D01*
X309902Y226500D01*
X310083Y226575D01*
X310190Y226635D01*
X310302Y226688D01*
X310467Y226792D01*
X310637Y226889D01*
X310736Y226963D01*
X310840Y227029D01*
X310991Y227153D01*
X311148Y227271D01*
X311236Y227356D01*
X311331Y227434D01*
X311465Y227577D01*
X311606Y227713D01*
X311683Y227809D01*
X311768Y227898D01*
X311883Y228057D01*
X312006Y228209D01*
X312070Y228314D01*
X312143Y228413D01*
X312237Y228585D01*
X312340Y228752D01*
X312391Y228864D01*
X312450Y228971D01*
X312522Y229153D01*
X312604Y229332D01*
X312640Y229449D01*
X312686Y229564D01*
X312734Y229753D01*
X312793Y229940D01*
X312814Y230061D01*
X312845Y230180D01*
X312870Y230375D01*
X312904Y230568D01*
X312910Y230690D01*
X312926Y230812D01*
X312926Y231009D01*
X312936Y231204D01*
X312927Y231326D01*
X312927Y231450D01*
X312903Y231644D01*
X312888Y231839D01*
X312864Y231960D01*
X312848Y232082D01*
X312800Y232272D01*
X312761Y232464D01*
X312722Y232577D01*
X312691Y232699D01*
X312613Y232897D01*
X312550Y233084D01*
X312193Y233944D01*
X312193Y236056D01*
X313001Y238006D01*
X313488Y238492D01*
X313536Y238547D01*
X313589Y238597D01*
X313746Y238786D01*
X313909Y238970D01*
X313950Y239031D01*
X313997Y239087D01*
X314129Y239294D01*
X314267Y239497D01*
X314300Y239562D01*
X314340Y239624D01*
X314445Y239846D01*
X314557Y240065D01*
X314581Y240133D01*
X314613Y240199D01*
X314689Y240433D01*
X314773Y240664D01*
X314789Y240735D01*
X314812Y240805D01*
X314858Y241046D01*
X314912Y241286D01*
X314919Y241359D01*
X314933Y241430D01*
X314948Y241661D01*
X314973Y241920D01*
X314970Y242004D01*
X314975Y242084D01*
X314975Y243419D01*
X314956Y243723D01*
X314936Y244048D01*
X314936Y244051D01*
X314935Y244055D01*
X314877Y244359D01*
X314818Y244674D01*
X314817Y244677D01*
X314816Y244681D01*
X314720Y244978D01*
X314622Y245280D01*
X314621Y245283D01*
X314619Y245287D01*
X314485Y245572D01*
X314352Y245857D01*
X314350Y245860D01*
X314348Y245864D01*
X314180Y246130D01*
X314012Y246396D01*
X314009Y246399D01*
X314007Y246402D01*
X313812Y246638D01*
X313607Y246888D01*
X313604Y246890D01*
X313602Y246893D01*
X313369Y247112D01*
X313143Y247325D01*
X313140Y247327D01*
X313138Y247330D01*
X312879Y247518D01*
X312629Y247701D01*
X312625Y247702D01*
X312623Y247705D01*
X312349Y247856D01*
X312071Y248009D01*
X312068Y248010D01*
X312065Y248012D01*
X311778Y248126D01*
X311479Y248245D01*
X311476Y248246D01*
X311472Y248248D01*
X311171Y248325D01*
X310863Y248406D01*
X310859Y248406D01*
X310856Y248407D01*
X310534Y248448D01*
X310231Y248487D01*
X310227Y248487D01*
X310224Y248488D01*
X309900Y248488D01*
X309879Y248488D01*
X309879Y266700D01*
X309879Y284803D01*
X309885Y284802D01*
X309929Y284797D01*
X310203Y284797D01*
X310477Y284792D01*
X310522Y284797D01*
X310566Y284797D01*
X310838Y284831D01*
X311111Y284860D01*
X311154Y284871D01*
X311198Y284876D01*
X311464Y284944D01*
X311731Y285008D01*
X311772Y285023D01*
X311816Y285034D01*
X312071Y285135D01*
X312327Y285231D01*
X312367Y285252D01*
X312408Y285268D01*
X312648Y285400D01*
X312891Y285528D01*
X312928Y285553D01*
X312967Y285575D01*
X313189Y285736D01*
X313413Y285893D01*
X313447Y285923D01*
X313483Y285949D01*
X313683Y286136D01*
X313886Y286320D01*
X313915Y286354D01*
X313948Y286384D01*
X314123Y286595D01*
X314301Y286803D01*
X314326Y286840D01*
X314354Y286875D01*
X314502Y287106D01*
X314653Y287334D01*
X314672Y287374D01*
X314697Y287412D01*
X314831Y287697D01*
X314942Y287922D01*
X315360Y288930D01*
X316784Y290355D01*
X320286Y293856D01*
X320416Y294004D01*
X320552Y294144D01*
X320626Y294242D01*
X320707Y294334D01*
X320817Y294496D01*
X320935Y294653D01*
X320996Y294760D01*
X321066Y294861D01*
X321155Y295036D01*
X321252Y295206D01*
X321299Y295319D01*
X321355Y295429D01*
X321421Y295613D01*
X321497Y295794D01*
X321529Y295912D01*
X321571Y296028D01*
X321614Y296219D01*
X321666Y296408D01*
X321684Y296530D01*
X321711Y296650D01*
X321729Y296845D01*
X321757Y297039D01*
X321759Y297162D01*
X321771Y297284D01*
X321765Y297480D01*
X321769Y297676D01*
X321755Y297798D01*
X321752Y297921D01*
X321721Y298115D01*
X321700Y298309D01*
X321672Y298429D01*
X321653Y298550D01*
X321598Y298739D01*
X321553Y298929D01*
X321510Y299044D01*
X321476Y299162D01*
X321398Y299342D01*
X321329Y299526D01*
X321272Y299635D01*
X321223Y299747D01*
X321124Y299916D01*
X321033Y300090D01*
X320962Y300190D01*
X320900Y300296D01*
X320780Y300452D01*
X320668Y300612D01*
X320585Y300703D01*
X320510Y300800D01*
X320372Y300939D01*
X320240Y301085D01*
X320147Y301165D01*
X320060Y301252D01*
X319906Y301372D01*
X319757Y301500D01*
X319655Y301568D01*
X319558Y301643D01*
X319389Y301743D01*
X319226Y301851D01*
X319118Y301904D01*
X319010Y301969D01*
X318815Y302054D01*
X318675Y302123D01*
X316097Y304700D01*
X315843Y305315D01*
X315738Y305528D01*
X315641Y305744D01*
X315598Y305814D01*
X315562Y305887D01*
X315433Y306085D01*
X315309Y306287D01*
X315258Y306352D01*
X315213Y306420D01*
X315059Y306600D01*
X314911Y306785D01*
X314852Y306842D01*
X314799Y306905D01*
X314624Y307064D01*
X314454Y307229D01*
X314389Y307278D01*
X314328Y307334D01*
X314134Y307470D01*
X313945Y307612D01*
X313874Y307653D01*
X313807Y307700D01*
X313597Y307812D01*
X313392Y307929D01*
X313317Y307960D01*
X313244Y307999D01*
X313022Y308083D01*
X312804Y308174D01*
X312725Y308196D01*
X312648Y308225D01*
X312418Y308280D01*
X312190Y308343D01*
X312109Y308355D01*
X312029Y308374D01*
X311793Y308400D01*
X311559Y308434D01*
X311477Y308436D01*
X311396Y308445D01*
X311159Y308441D01*
X310922Y308446D01*
X310841Y308437D01*
X310759Y308436D01*
X310525Y308403D01*
X310289Y308377D01*
X310209Y308358D01*
X310128Y308347D01*
X309900Y308285D01*
X309669Y308230D01*
X309592Y308201D01*
X309513Y308180D01*
X309294Y308089D01*
X309072Y308006D01*
X309000Y307968D01*
X308924Y307937D01*
X308718Y307820D01*
X308508Y307710D01*
X308441Y307663D01*
X308370Y307622D01*
X308180Y307480D01*
X307986Y307345D01*
X307925Y307290D01*
X307860Y307241D01*
X307689Y307076D01*
X307513Y306918D01*
X307460Y306855D01*
X307401Y306798D01*
X307252Y306614D01*
X307098Y306434D01*
X307053Y306366D01*
X307001Y306302D01*
X306877Y306100D01*
X306747Y305903D01*
X306711Y305831D01*
X306667Y305760D01*
X306560Y305523D01*
X306457Y305315D01*
X306202Y304700D01*
X303630Y302127D01*
X300269Y300735D01*
X298910Y300735D01*
X298837Y300731D01*
X298764Y300733D01*
X298519Y300711D01*
X298274Y300695D01*
X298202Y300682D01*
X298129Y300675D01*
X297889Y300622D01*
X297648Y300576D01*
X297579Y300554D01*
X297507Y300538D01*
X297276Y300455D01*
X297042Y300379D01*
X296976Y300348D01*
X296907Y300324D01*
X296688Y300213D01*
X296465Y300108D01*
X296404Y300069D01*
X296339Y300036D01*
X296135Y299899D01*
X295927Y299767D01*
X295871Y299721D01*
X295810Y299680D01*
X295637Y299527D01*
X295436Y299362D01*
X295379Y299301D01*
X295318Y299248D01*
X284129Y288059D01*
X284027Y287943D01*
X283917Y287833D01*
X283816Y287704D01*
X283708Y287581D01*
X283621Y287453D01*
X283526Y287330D01*
X283442Y287190D01*
X283350Y287054D01*
X283279Y286916D01*
X283200Y286783D01*
X283135Y286633D01*
X283060Y286486D01*
X283008Y286341D01*
X282946Y286199D01*
X282900Y286041D01*
X282844Y285887D01*
X282810Y285736D01*
X282767Y285587D01*
X282741Y285425D01*
X282705Y285265D01*
X282690Y285111D01*
X282665Y284958D01*
X282660Y284794D01*
X282644Y284631D01*
X282649Y284476D01*
X282644Y284321D01*
X282659Y284158D01*
X282664Y283994D01*
X282688Y283841D01*
X282702Y283687D01*
X282737Y283527D01*
X282763Y283365D01*
X282806Y283216D01*
X282839Y283065D01*
X282894Y282910D01*
X282940Y282753D01*
X283001Y282610D01*
X283053Y282465D01*
X283127Y282318D01*
X283192Y282168D01*
X283271Y282034D01*
X283340Y281896D01*
X283432Y281760D01*
X283515Y281619D01*
X283610Y281496D01*
X283697Y281368D01*
X283792Y281259D01*
X283826Y281213D01*
X283846Y281191D01*
X283905Y281115D01*
X284024Y280995D01*
X284129Y280876D01*
X284499Y280506D01*
X285260Y278668D01*
X285312Y278562D01*
X285355Y278453D01*
X285452Y278276D01*
X285540Y278096D01*
X285605Y277997D01*
X285662Y277894D01*
X285780Y277731D01*
X285890Y277563D01*
X285967Y277473D01*
X286036Y277378D01*
X286173Y277232D01*
X286304Y277078D01*
X286391Y276999D01*
X286471Y276913D01*
X286626Y276785D01*
X286775Y276649D01*
X286871Y276582D01*
X286888Y276567D01*
X286852Y276554D01*
X286816Y276535D01*
X286778Y276520D01*
X286534Y276386D01*
X286288Y276257D01*
X286255Y276234D01*
X286219Y276214D01*
X285994Y276052D01*
X285766Y275892D01*
X285735Y275865D01*
X285702Y275841D01*
X285500Y275652D01*
X285293Y275465D01*
X285267Y275434D01*
X285237Y275406D01*
X285059Y275193D01*
X284878Y274982D01*
X284856Y274948D01*
X284829Y274916D01*
X284679Y274681D01*
X284666Y274661D01*
X284012Y274008D01*
X283964Y273953D01*
X283911Y273903D01*
X283754Y273714D01*
X283591Y273530D01*
X283550Y273469D01*
X283503Y273413D01*
X283371Y273206D01*
X283233Y273003D01*
X283200Y272938D01*
X283160Y272876D01*
X283055Y272654D01*
X282943Y272435D01*
X282919Y272367D01*
X282887Y272301D01*
X282811Y272067D01*
X282727Y271836D01*
X282711Y271765D01*
X282688Y271695D01*
X282642Y271454D01*
X282588Y271214D01*
X282581Y271142D01*
X282567Y271070D01*
X282552Y270838D01*
X282527Y270580D01*
X282530Y270496D01*
X282525Y270416D01*
X282525Y200650D01*
X282529Y200577D01*
X282527Y200504D01*
X282549Y200259D01*
X282565Y200014D01*
X282578Y199942D01*
X282585Y199869D01*
X282638Y199629D01*
X282684Y199388D01*
X282707Y199318D01*
X282722Y199247D01*
X282805Y199016D01*
X282881Y198782D01*
X282912Y198716D01*
X282936Y198647D01*
X283047Y198428D01*
X283152Y198205D01*
X283191Y198144D01*
X283224Y198079D01*
X283361Y197875D01*
X283493Y197667D01*
X283539Y197611D01*
X283580Y197550D01*
X283733Y197377D01*
X283898Y197176D01*
X283959Y197119D01*
X284012Y197058D01*
X287360Y193711D01*
X287507Y193581D01*
X287647Y193444D01*
X287746Y193370D01*
X287838Y193289D01*
X288000Y193179D01*
X288156Y193061D01*
X288263Y193000D01*
X288365Y192931D01*
X288539Y192842D01*
X288709Y192745D01*
X288823Y192697D01*
X288932Y192641D01*
X289117Y192575D01*
X289298Y192500D01*
X289416Y192467D01*
X289532Y192425D01*
X289723Y192382D01*
X289912Y192330D01*
X290033Y192313D01*
X290153Y192286D01*
X290348Y192267D01*
X290542Y192239D01*
X290666Y192237D01*
X290788Y192225D01*
X290984Y192231D01*
X291179Y192228D01*
X291302Y192241D01*
X291425Y192245D01*
X291618Y192275D01*
X291813Y192296D01*
X291933Y192325D01*
X292054Y192344D01*
X292242Y192398D01*
X292433Y192444D01*
X292548Y192487D01*
X292666Y192521D01*
X292846Y192599D01*
X293029Y192667D01*
X293138Y192724D01*
X293251Y192773D01*
X293420Y192873D01*
X293593Y192964D01*
X293694Y193034D01*
X293800Y193097D01*
X293955Y193217D01*
X294116Y193329D01*
X294207Y193411D01*
X294304Y193486D01*
X294443Y193624D01*
X294588Y193756D01*
X294668Y193849D01*
X294755Y193936D01*
X294876Y194091D01*
X295003Y194239D01*
X295071Y194342D01*
X295147Y194439D01*
X295247Y194607D01*
X295355Y194771D01*
X295408Y194878D01*
X295472Y194986D01*
X295557Y195181D01*
X295644Y195358D01*
X295778Y195680D01*
X298456Y198359D01*
X298657Y198495D01*
X298892Y198649D01*
X298921Y198674D01*
X298952Y198695D01*
X299163Y198880D01*
X299377Y199063D01*
X299402Y199091D01*
X299430Y199116D01*
X299616Y199326D01*
X299806Y199534D01*
X299827Y199565D01*
X299852Y199593D01*
X300011Y199825D01*
X300172Y200055D01*
X300190Y200088D01*
X300211Y200119D01*
X300339Y200370D01*
X300471Y200618D01*
X300484Y200653D01*
X300502Y200686D01*
X300598Y200952D01*
X300697Y201214D01*
X300706Y201250D01*
X300718Y201285D01*
X300781Y201561D01*
X300846Y201833D01*
X300850Y201870D01*
X300859Y201907D01*
X300886Y202188D01*
X300917Y202466D01*
X300916Y202504D01*
X300920Y202541D01*
X300912Y202822D01*
X300908Y203103D01*
X300903Y203140D01*
X300902Y203178D01*
X300858Y203456D01*
X300819Y203734D01*
X300809Y203770D01*
X300803Y203808D01*
X300726Y204077D01*
X300652Y204349D01*
X300638Y204384D01*
X300627Y204420D01*
X300517Y204677D01*
X300409Y204938D01*
X300391Y204971D01*
X300376Y205005D01*
X300233Y205248D01*
X300095Y205492D01*
X300072Y205522D01*
X300053Y205555D01*
X299881Y205778D01*
X299713Y206002D01*
X299687Y206029D01*
X299664Y206059D01*
X299466Y206258D01*
X299271Y206461D01*
X299241Y206485D01*
X299215Y206511D01*
X298994Y206684D01*
X298775Y206860D01*
X298743Y206880D01*
X298713Y206903D01*
X298497Y207032D01*
X298232Y207195D01*
X298214Y207203D01*
X296911Y208150D01*
X295780Y209281D01*
X294840Y210575D01*
X294714Y210821D01*
X311150Y210821D01*
X327586Y210821D01*
X327460Y210575D01*
X326520Y209281D01*
X325389Y208150D01*
X324197Y207284D01*
X324197Y207283D01*
X324091Y207206D01*
X324084Y207203D01*
X323844Y207057D01*
X323602Y206914D01*
X323572Y206891D01*
X323540Y206871D01*
X323321Y206696D01*
X323099Y206523D01*
X323072Y206496D01*
X323043Y206473D01*
X322847Y206272D01*
X322648Y206073D01*
X322625Y206043D01*
X322599Y206016D01*
X322429Y205791D01*
X322257Y205570D01*
X322238Y205537D01*
X322215Y205507D01*
X322076Y205264D01*
X321932Y205021D01*
X321917Y204987D01*
X321899Y204954D01*
X321790Y204694D01*
X321679Y204437D01*
X321668Y204401D01*
X321654Y204366D01*
X321579Y204094D01*
X321501Y203825D01*
X321495Y203788D01*
X321485Y203752D01*
X321444Y203473D01*
X321400Y203196D01*
X321399Y203158D01*
X321394Y203121D01*
X321389Y202840D01*
X321379Y202559D01*
X321383Y202522D01*
X321382Y202484D01*
X321412Y202205D01*
X321438Y201925D01*
X321447Y201888D01*
X321451Y201851D01*
X321516Y201576D01*
X321576Y201303D01*
X321589Y201268D01*
X321598Y201231D01*
X321697Y200967D01*
X321791Y200703D01*
X321808Y200670D01*
X321822Y200634D01*
X321952Y200385D01*
X322080Y200135D01*
X322101Y200104D01*
X322118Y200070D01*
X322279Y199840D01*
X322437Y199607D01*
X322461Y199579D01*
X322483Y199548D01*
X322672Y199339D01*
X322857Y199128D01*
X322885Y199104D01*
X322910Y199076D01*
X323124Y198892D01*
X323334Y198706D01*
X323365Y198685D01*
X323394Y198660D01*
X323628Y198505D01*
X323847Y198355D01*
X326523Y195680D01*
X328244Y191523D01*
X328313Y191384D01*
X328372Y191241D01*
X328452Y191098D01*
X328525Y190951D01*
X328610Y190821D01*
X328686Y190687D01*
X328784Y190555D01*
X328874Y190418D01*
X328975Y190301D01*
X329068Y190176D01*
X329182Y190058D01*
X329288Y189934D01*
X329402Y189830D01*
X329510Y189718D01*
X329638Y189615D01*
X329759Y189505D01*
X329886Y189415D01*
X330006Y189318D01*
X330146Y189232D01*
X330280Y189138D01*
X330417Y189065D01*
X330549Y188984D01*
X330698Y188916D01*
X330843Y188839D01*
X330988Y188784D01*
X331129Y188720D01*
X331285Y188672D01*
X331439Y188614D01*
X331589Y188577D01*
X331737Y188531D01*
X331898Y188503D01*
X332058Y188464D01*
X332212Y188447D01*
X332365Y188420D01*
X332528Y188412D01*
X332691Y188393D01*
X332846Y188396D01*
X333001Y188388D01*
X333164Y188400D01*
X333328Y188403D01*
X333482Y188424D01*
X333636Y188436D01*
X333797Y188469D01*
X333959Y188491D01*
X334109Y188532D01*
X334261Y188563D01*
X334411Y188614D01*
X334574Y188659D01*
X334730Y188723D01*
X334881Y188774D01*
X339049Y190501D01*
X357927Y190501D01*
X361288Y189109D01*
X363861Y186536D01*
X365253Y183175D01*
X365253Y179537D01*
X363861Y176176D01*
X361288Y173603D01*
X357927Y172211D01*
X339049Y172211D01*
X335673Y173610D01*
X335539Y173727D01*
X335334Y173914D01*
X335301Y173938D01*
X335270Y173965D01*
X335040Y174122D01*
X334813Y174281D01*
X334777Y174300D01*
X334743Y174323D01*
X334495Y174450D01*
X334250Y174580D01*
X334212Y174594D01*
X334175Y174613D01*
X333914Y174707D01*
X333654Y174805D01*
X333615Y174815D01*
X333576Y174829D01*
X333306Y174890D01*
X333035Y174955D01*
X332994Y174959D01*
X332954Y174968D01*
X332679Y174995D01*
X332402Y175026D01*
X332361Y175025D01*
X332320Y175029D01*
X332043Y175020D01*
X331765Y175016D01*
X331724Y175011D01*
X331683Y175009D01*
X331408Y174966D01*
X331134Y174928D01*
X331094Y174917D01*
X331054Y174910D01*
X330787Y174833D01*
X330519Y174760D01*
X330481Y174745D01*
X330442Y174733D01*
X330186Y174623D01*
X329930Y174518D01*
X329895Y174498D01*
X329857Y174481D01*
X329617Y174340D01*
X329376Y174203D01*
X329343Y174178D01*
X329308Y174158D01*
X329089Y173988D01*
X328866Y173822D01*
X328836Y173793D01*
X328804Y173768D01*
X328608Y173573D01*
X328407Y173379D01*
X328381Y173347D01*
X328352Y173318D01*
X328182Y173100D01*
X328008Y172883D01*
X327986Y172848D01*
X327961Y172816D01*
X327819Y172577D01*
X327673Y172340D01*
X327656Y172303D01*
X327635Y172268D01*
X327524Y172012D01*
X327410Y171760D01*
X327398Y171721D01*
X327381Y171684D01*
X327303Y171416D01*
X327221Y171152D01*
X327213Y171112D01*
X327202Y171072D01*
X327158Y170798D01*
X327109Y170525D01*
X327107Y170484D01*
X327101Y170443D01*
X327091Y170166D01*
X327077Y169888D01*
X327080Y169847D01*
X327079Y169807D01*
X327104Y169531D01*
X327125Y169253D01*
X327133Y169213D01*
X327137Y169172D01*
X327197Y168901D01*
X327252Y168629D01*
X327265Y168591D01*
X327274Y168550D01*
X327383Y168246D01*
X327463Y168008D01*
X327915Y166919D01*
X327915Y163281D01*
X326523Y159920D01*
X323950Y157347D01*
X320589Y155955D01*
X301711Y155955D01*
X298350Y157347D01*
X295777Y159920D01*
X294385Y163281D01*
X294385Y166919D01*
X295777Y170280D01*
X296122Y170624D01*
X296224Y170741D01*
X296334Y170850D01*
X296435Y170979D01*
X296543Y171102D01*
X296630Y171230D01*
X296726Y171353D01*
X296809Y171493D01*
X296901Y171629D01*
X296972Y171767D01*
X297051Y171900D01*
X297116Y172050D01*
X297191Y172197D01*
X297244Y172343D01*
X297305Y172485D01*
X297351Y172642D01*
X297407Y172796D01*
X297441Y172947D01*
X297485Y173096D01*
X297511Y173258D01*
X297546Y173418D01*
X297561Y173572D01*
X297586Y173725D01*
X297591Y173889D01*
X297607Y174052D01*
X297602Y174207D01*
X297607Y174362D01*
X297592Y174525D01*
X297587Y174689D01*
X297563Y174842D01*
X297549Y174996D01*
X297514Y175157D01*
X297488Y175318D01*
X297445Y175467D01*
X297412Y175618D01*
X297357Y175773D01*
X297311Y175930D01*
X297250Y176073D01*
X297198Y176219D01*
X297124Y176365D01*
X297059Y176515D01*
X296980Y176649D01*
X296911Y176787D01*
X296819Y176923D01*
X296736Y177064D01*
X296641Y177187D01*
X296554Y177315D01*
X296449Y177435D01*
X296346Y177568D01*
X296227Y177688D01*
X296122Y177808D01*
X277860Y196070D01*
X277347Y197308D01*
X277225Y197557D01*
X277106Y197809D01*
X277084Y197844D01*
X277066Y197881D01*
X276914Y198112D01*
X276765Y198347D01*
X276739Y198379D01*
X276717Y198413D01*
X276537Y198624D01*
X276360Y198839D01*
X276330Y198867D01*
X276303Y198898D01*
X276098Y199085D01*
X275896Y199275D01*
X275862Y199299D01*
X275832Y199327D01*
X275605Y199486D01*
X275380Y199650D01*
X275345Y199670D01*
X275311Y199694D01*
X275066Y199824D01*
X274823Y199958D01*
X274784Y199973D01*
X274748Y199992D01*
X274489Y200090D01*
X274230Y200193D01*
X274191Y200203D01*
X274152Y200218D01*
X273883Y200283D01*
X273614Y200352D01*
X273573Y200358D01*
X273533Y200367D01*
X273257Y200398D01*
X272982Y200433D01*
X272941Y200433D01*
X272900Y200438D01*
X272622Y200434D01*
X272344Y200435D01*
X272304Y200429D01*
X272263Y200429D01*
X271988Y200390D01*
X271712Y200356D01*
X271672Y200346D01*
X271632Y200340D01*
X271364Y200267D01*
X271095Y200199D01*
X271057Y200184D01*
X271017Y200173D01*
X270761Y200068D01*
X270502Y199965D01*
X270466Y199946D01*
X270428Y199930D01*
X270187Y199794D01*
X269943Y199660D01*
X269910Y199636D01*
X269874Y199616D01*
X269651Y199449D01*
X269426Y199287D01*
X269396Y199259D01*
X269364Y199234D01*
X269164Y199041D01*
X268961Y198852D01*
X268934Y198820D01*
X268905Y198792D01*
X268731Y198575D01*
X268553Y198362D01*
X268531Y198327D01*
X268506Y198295D01*
X268359Y198058D01*
X268210Y197825D01*
X268193Y197788D01*
X268171Y197753D01*
X268057Y197501D01*
X267937Y197249D01*
X267924Y197210D01*
X267908Y197173D01*
X267825Y196908D01*
X267738Y196644D01*
X267731Y196604D01*
X267718Y196565D01*
X267670Y196291D01*
X267617Y196019D01*
X267614Y195978D01*
X267607Y195937D01*
X267591Y195616D01*
X267575Y195365D01*
X267575Y184566D01*
X267560Y184385D01*
X267564Y184308D01*
X267560Y184231D01*
X267575Y184040D01*
X267575Y171864D01*
X267560Y171683D01*
X267564Y171610D01*
X267560Y171537D01*
X267575Y171342D01*
X267575Y159164D01*
X267560Y158981D01*
X267564Y158908D01*
X267560Y158835D01*
X267575Y158642D01*
X267575Y146464D01*
X267560Y146281D01*
X267564Y146208D01*
X267560Y146135D01*
X267575Y145942D01*
X267575Y135982D01*
X267588Y135770D01*
X267592Y135559D01*
X267608Y135453D01*
X267615Y135346D01*
X267654Y135138D01*
X267685Y134928D01*
X267714Y134825D01*
X267734Y134720D01*
X267799Y134519D01*
X267856Y134315D01*
X267898Y134216D01*
X267931Y134114D01*
X268021Y133923D01*
X268103Y133727D01*
X268155Y133636D01*
X268202Y133538D01*
X268270Y133430D01*
X268634Y132550D01*
X268642Y132535D01*
X268647Y132520D01*
X268782Y132250D01*
X268915Y131978D01*
X268923Y131964D01*
X268931Y131950D01*
X269099Y131697D01*
X269264Y131445D01*
X269275Y131433D01*
X269284Y131419D01*
X269483Y131188D01*
X269678Y130960D01*
X269690Y130950D01*
X269700Y130937D01*
X269927Y130734D01*
X270149Y130531D01*
X270162Y130522D01*
X270174Y130511D01*
X270424Y130338D01*
X270670Y130165D01*
X270684Y130157D01*
X270697Y130148D01*
X270968Y130007D01*
X271233Y129866D01*
X271248Y129860D01*
X271262Y129853D01*
X271548Y129747D01*
X271829Y129640D01*
X271844Y129637D01*
X271859Y129631D01*
X272156Y129561D01*
X272448Y129491D01*
X272464Y129489D01*
X272480Y129485D01*
X272783Y129453D01*
X273081Y129420D01*
X273097Y129420D01*
X273113Y129419D01*
X273418Y129425D01*
X273718Y129429D01*
X273734Y129432D01*
X273750Y129432D01*
X274049Y129476D01*
X274349Y129518D01*
X274365Y129522D01*
X274381Y129525D01*
X274671Y129606D01*
X274964Y129685D01*
X274979Y129691D01*
X274994Y129696D01*
X275275Y129813D01*
X275553Y129928D01*
X275567Y129936D01*
X275582Y129942D01*
X275759Y130045D01*
X276359Y130293D01*
X276850Y130391D01*
X277021Y130391D01*
X277021Y121600D01*
X277030Y121446D01*
X277030Y121291D01*
X277050Y121128D01*
X277061Y120964D01*
X277089Y120813D01*
X277109Y120659D01*
X277149Y120499D01*
X277180Y120339D01*
X277228Y120191D01*
X277266Y120041D01*
X277326Y119889D01*
X277376Y119733D01*
X277442Y119592D01*
X277499Y119448D01*
X277578Y119304D01*
X277647Y119156D01*
X277730Y119025D01*
X277805Y118889D01*
X277901Y118756D01*
X277988Y118618D01*
X278087Y118498D01*
X278178Y118373D01*
X278290Y118253D01*
X278394Y118127D01*
X278507Y118020D01*
X278613Y117907D01*
X278739Y117802D01*
X278858Y117690D01*
X278984Y117599D01*
X279103Y117500D01*
X279241Y117411D01*
X279373Y117315D01*
X279509Y117240D01*
X279640Y117157D01*
X279788Y117086D01*
X279931Y117007D01*
X280075Y116950D01*
X280215Y116884D01*
X280371Y116832D01*
X280523Y116772D01*
X280673Y116733D01*
X280821Y116685D01*
X280981Y116654D01*
X281140Y116613D01*
X281294Y116593D01*
X281446Y116563D01*
X281605Y116553D01*
X281772Y116532D01*
X281941Y116531D01*
X282100Y116521D01*
X282255Y116531D01*
X282409Y116531D01*
X282410Y116531D01*
X282573Y116551D01*
X282736Y116561D01*
X282888Y116590D01*
X283042Y116609D01*
X283201Y116650D01*
X283362Y116680D01*
X283509Y116728D01*
X283659Y116766D01*
X283812Y116826D01*
X283968Y116877D01*
X284108Y116943D01*
X284252Y117000D01*
X284396Y117078D01*
X284545Y117148D01*
X284675Y117231D01*
X284811Y117305D01*
X284944Y117401D01*
X285083Y117489D01*
X285202Y117588D01*
X285328Y117678D01*
X285447Y117790D01*
X285574Y117895D01*
X285680Y118008D01*
X285793Y118113D01*
X285898Y118239D01*
X286011Y118359D01*
X286102Y118484D01*
X286201Y118603D01*
X286289Y118741D01*
X286386Y118874D01*
X286460Y119009D01*
X286544Y119140D01*
X286614Y119288D01*
X286693Y119432D01*
X286750Y119576D01*
X286817Y119716D01*
X286868Y119872D01*
X286929Y120024D01*
X286967Y120174D01*
X287016Y120321D01*
X287047Y120482D01*
X287088Y120641D01*
X287108Y120794D01*
X287137Y120946D01*
X287147Y121105D01*
X287169Y121273D01*
X287169Y121441D01*
X287179Y121600D01*
X287179Y130391D01*
X287350Y130391D01*
X287841Y130293D01*
X288303Y130102D01*
X288720Y129823D01*
X289227Y129316D01*
X289343Y129214D01*
X289453Y129104D01*
X289582Y129003D01*
X289705Y128895D01*
X289833Y128808D01*
X289955Y128713D01*
X290096Y128629D01*
X290232Y128537D01*
X290369Y128466D01*
X290503Y128387D01*
X290654Y128321D01*
X290799Y128247D01*
X290945Y128195D01*
X291087Y128133D01*
X291244Y128087D01*
X291398Y128031D01*
X291550Y127997D01*
X291699Y127954D01*
X291860Y127928D01*
X292020Y127892D01*
X292175Y127877D01*
X292328Y127852D01*
X292491Y127847D01*
X292654Y127831D01*
X292809Y127836D01*
X292964Y127831D01*
X293128Y127846D01*
X293291Y127851D01*
X293444Y127875D01*
X293599Y127889D01*
X293759Y127924D01*
X293921Y127950D01*
X294070Y127993D01*
X294221Y128026D01*
X294375Y128081D01*
X294533Y128127D01*
X294675Y128188D01*
X294821Y128240D01*
X294967Y128314D01*
X295118Y128379D01*
X295251Y128457D01*
X295390Y128528D01*
X295526Y128619D01*
X295667Y128702D01*
X295789Y128797D01*
X295918Y128884D01*
X296037Y128989D01*
X296171Y129092D01*
X296211Y129132D01*
X296797Y129375D01*
X308130Y129375D01*
X308285Y129384D01*
X308440Y129384D01*
X308602Y129404D01*
X308766Y129415D01*
X308918Y129444D01*
X309072Y129463D01*
X309231Y129503D01*
X309392Y129534D01*
X309539Y129582D01*
X309689Y129620D01*
X309842Y129680D01*
X309998Y129731D01*
X310138Y129796D01*
X310282Y129853D01*
X310426Y129932D01*
X310574Y130002D01*
X310705Y130084D01*
X310841Y130159D01*
X310974Y130255D01*
X311113Y130343D01*
X311232Y130441D01*
X311358Y130532D01*
X311477Y130644D01*
X311604Y130748D01*
X311710Y130861D01*
X311823Y130967D01*
X311928Y131093D01*
X312040Y131212D01*
X312132Y131338D01*
X312231Y131457D01*
X312319Y131595D01*
X312415Y131727D01*
X312490Y131863D01*
X312574Y131994D01*
X312644Y132142D01*
X312723Y132285D01*
X312780Y132429D01*
X312847Y132569D01*
X312898Y132725D01*
X312958Y132878D01*
X312997Y133028D01*
X313046Y133175D01*
X313077Y133336D01*
X313118Y133494D01*
X313137Y133648D01*
X313167Y133800D01*
X313177Y133959D01*
X313199Y134126D01*
X314017Y136102D01*
X315510Y137595D01*
X317460Y138403D01*
X319572Y138403D01*
X321522Y137595D01*
X322555Y136562D01*
X322612Y136511D01*
X322665Y136455D01*
X322851Y136301D01*
X323033Y136141D01*
X323096Y136097D01*
X323155Y136049D01*
X323359Y135918D01*
X323560Y135782D01*
X323628Y135747D01*
X323693Y135706D01*
X323911Y135603D01*
X324127Y135493D01*
X324200Y135467D01*
X324269Y135434D01*
X324499Y135359D01*
X324727Y135277D01*
X324801Y135260D01*
X324874Y135236D01*
X325112Y135190D01*
X325348Y135137D01*
X325425Y135130D01*
X325500Y135116D01*
X325742Y135100D01*
X325983Y135077D01*
X326059Y135079D01*
X326136Y135074D01*
X326378Y135089D01*
X326619Y135096D01*
X326695Y135108D01*
X326772Y135113D01*
X327010Y135158D01*
X327249Y135195D01*
X327322Y135217D01*
X327398Y135231D01*
X327628Y135305D01*
X327861Y135372D01*
X327931Y135403D01*
X328004Y135426D01*
X328224Y135529D01*
X328446Y135625D01*
X328512Y135664D01*
X328581Y135696D01*
X328786Y135825D01*
X328995Y135948D01*
X329056Y135995D01*
X329120Y136036D01*
X329307Y136189D01*
X329499Y136338D01*
X329553Y136392D01*
X329612Y136441D01*
X329779Y136616D01*
X329950Y136787D01*
X329997Y136848D01*
X330050Y136904D01*
X330193Y137099D01*
X330342Y137290D01*
X330381Y137356D01*
X330426Y137418D01*
X330543Y137630D01*
X330667Y137838D01*
X330698Y137908D01*
X330735Y137975D01*
X330820Y138188D01*
X330922Y138422D01*
X330946Y138506D01*
X330977Y138584D01*
X331452Y140045D01*
X332178Y141469D01*
X333118Y142763D01*
X334249Y143894D01*
X335543Y144834D01*
X336968Y145560D01*
X338489Y146055D01*
X340068Y146305D01*
X343409Y146305D01*
X343409Y136144D01*
X343409Y125983D01*
X340068Y125983D01*
X338489Y126233D01*
X336968Y126728D01*
X335543Y127454D01*
X334249Y128394D01*
X333118Y129525D01*
X332079Y130954D01*
X331968Y131143D01*
X331945Y131172D01*
X331925Y131204D01*
X331750Y131424D01*
X331577Y131646D01*
X331551Y131673D01*
X331527Y131702D01*
X331326Y131898D01*
X331127Y132097D01*
X331097Y132120D01*
X331070Y132146D01*
X330845Y132316D01*
X330624Y132488D01*
X330592Y132507D01*
X330562Y132529D01*
X330318Y132669D01*
X330076Y132812D01*
X330041Y132827D01*
X330009Y132846D01*
X329750Y132954D01*
X329491Y133066D01*
X329455Y133076D01*
X329420Y133091D01*
X329150Y133165D01*
X328880Y133244D01*
X328842Y133250D01*
X328806Y133260D01*
X328527Y133300D01*
X328250Y133345D01*
X328213Y133346D01*
X328176Y133351D01*
X327894Y133356D01*
X327614Y133365D01*
X327576Y133362D01*
X327539Y133363D01*
X327259Y133332D01*
X326979Y133306D01*
X326942Y133298D01*
X326905Y133294D01*
X326631Y133229D01*
X326357Y133168D01*
X326322Y133156D01*
X326285Y133147D01*
X326021Y133048D01*
X325757Y132954D01*
X325724Y132937D01*
X325689Y132923D01*
X325439Y132792D01*
X325189Y132665D01*
X325158Y132644D01*
X325125Y132627D01*
X324895Y132466D01*
X324661Y132308D01*
X324633Y132283D01*
X324602Y132262D01*
X324394Y132073D01*
X324183Y131888D01*
X324158Y131860D01*
X324130Y131835D01*
X323946Y131620D01*
X323760Y131411D01*
X323739Y131380D01*
X323715Y131351D01*
X323560Y131117D01*
X323401Y130885D01*
X323384Y130851D01*
X323363Y130820D01*
X323253Y130596D01*
X323110Y130318D01*
X323094Y130273D01*
X323074Y130232D01*
X323015Y130090D01*
X321522Y128597D01*
X319572Y127789D01*
X317460Y127789D01*
X315648Y128540D01*
X315462Y128604D01*
X315280Y128676D01*
X315161Y128707D01*
X315045Y128747D01*
X314853Y128786D01*
X314664Y128835D01*
X314541Y128851D01*
X314421Y128876D01*
X314226Y128891D01*
X314032Y128916D01*
X313908Y128916D01*
X313786Y128926D01*
X313590Y128917D01*
X313394Y128917D01*
X313272Y128902D01*
X313149Y128896D01*
X312957Y128863D01*
X312762Y128839D01*
X312643Y128808D01*
X312522Y128787D01*
X312335Y128730D01*
X312145Y128681D01*
X312030Y128636D01*
X311913Y128600D01*
X311734Y128520D01*
X311552Y128448D01*
X311444Y128389D01*
X311332Y128339D01*
X311165Y128237D01*
X310993Y128143D01*
X310893Y128070D01*
X310788Y128006D01*
X310635Y127884D01*
X310476Y127769D01*
X310386Y127685D01*
X310290Y127609D01*
X310154Y127468D01*
X310011Y127334D01*
X309932Y127240D01*
X309846Y127152D01*
X309728Y126995D01*
X309603Y126845D01*
X309537Y126741D01*
X309463Y126643D01*
X309366Y126473D01*
X309260Y126308D01*
X309208Y126197D01*
X309147Y126090D01*
X309071Y125909D01*
X308987Y125732D01*
X308949Y125615D01*
X308902Y125502D01*
X308850Y125313D01*
X308788Y125127D01*
X308765Y125006D01*
X308732Y124887D01*
X308704Y124694D01*
X308667Y124501D01*
X308659Y124381D01*
X308641Y124257D01*
X308637Y124044D01*
X308625Y123847D01*
X308625Y115047D01*
X308063Y113691D01*
X308013Y113545D01*
X307954Y113402D01*
X307910Y113243D01*
X307857Y113089D01*
X307825Y112937D01*
X307784Y112787D01*
X307761Y112625D01*
X307728Y112465D01*
X307715Y112310D01*
X307693Y112157D01*
X307690Y111993D01*
X307677Y111830D01*
X307685Y111675D01*
X307682Y111520D01*
X307691Y111437D01*
X307691Y111436D01*
X307691Y111430D01*
X307699Y111357D01*
X307707Y111193D01*
X307734Y111040D01*
X307750Y110886D01*
X307769Y110808D01*
X307769Y110804D01*
X307776Y110778D01*
X307788Y110727D01*
X307816Y110565D01*
X307862Y110417D01*
X307897Y110266D01*
X307925Y110193D01*
X307927Y110187D01*
X307945Y110141D01*
X307955Y110113D01*
X308003Y109956D01*
X308067Y109815D01*
X308121Y109670D01*
X308156Y109604D01*
X308160Y109594D01*
X308198Y109525D01*
X308265Y109375D01*
X308346Y109243D01*
X308418Y109106D01*
X308458Y109049D01*
X308465Y109035D01*
X308515Y108966D01*
X308597Y108832D01*
X308694Y108711D01*
X308783Y108584D01*
X308826Y108535D01*
X308839Y108518D01*
X308901Y108451D01*
X308995Y108334D01*
X309106Y108226D01*
X309210Y108111D01*
X309255Y108072D01*
X309274Y108053D01*
X309350Y107989D01*
X309452Y107890D01*
X309576Y107797D01*
X309693Y107696D01*
X309739Y107666D01*
X309763Y107645D01*
X309853Y107588D01*
X309961Y107507D01*
X310095Y107430D01*
X310224Y107344D01*
X310268Y107323D01*
X310300Y107302D01*
X310404Y107253D01*
X310514Y107190D01*
X310669Y107125D01*
X310812Y107055D01*
X311304Y106851D01*
X311561Y106679D01*
X309866Y106679D01*
X309711Y106670D01*
X309556Y106670D01*
X309394Y106650D01*
X309230Y106639D01*
X309078Y106610D01*
X308924Y106591D01*
X308765Y106551D01*
X308604Y106520D01*
X308457Y106472D01*
X308307Y106434D01*
X308154Y106374D01*
X307998Y106324D01*
X307858Y106258D01*
X307714Y106201D01*
X307570Y106122D01*
X307422Y106053D01*
X307291Y105970D01*
X307155Y105895D01*
X307022Y105799D01*
X306883Y105711D01*
X306764Y105613D01*
X306638Y105522D01*
X306519Y105410D01*
X306392Y105306D01*
X306286Y105193D01*
X306173Y105087D01*
X306068Y104961D01*
X305956Y104842D01*
X305864Y104716D01*
X305765Y104597D01*
X305677Y104459D01*
X305581Y104327D01*
X305506Y104191D01*
X305422Y104060D01*
X305352Y103912D01*
X305273Y103769D01*
X305216Y103625D01*
X305149Y103485D01*
X305098Y103329D01*
X305038Y103177D01*
X304999Y103027D01*
X304950Y102879D01*
X304919Y102719D01*
X304878Y102560D01*
X304859Y102406D01*
X304829Y102254D01*
X304819Y102095D01*
X304797Y101928D01*
X304797Y101759D01*
X304787Y101600D01*
X304796Y101445D01*
X304796Y101291D01*
X304796Y101290D01*
X304816Y101127D01*
X304827Y100964D01*
X304856Y100812D01*
X304875Y100658D01*
X304915Y100499D01*
X304946Y100338D01*
X304994Y100191D01*
X305032Y100041D01*
X305092Y99888D01*
X305143Y99732D01*
X305208Y99592D01*
X305265Y99448D01*
X305344Y99304D01*
X305414Y99155D01*
X305496Y99025D01*
X305571Y98889D01*
X305667Y98756D01*
X305755Y98617D01*
X305853Y98498D01*
X305944Y98372D01*
X306056Y98252D01*
X306160Y98126D01*
X306273Y98020D01*
X306379Y97907D01*
X306505Y97802D01*
X306624Y97689D01*
X306750Y97598D01*
X306869Y97499D01*
X307007Y97411D01*
X307139Y97314D01*
X307275Y97240D01*
X307406Y97156D01*
X307554Y97086D01*
X307697Y97007D01*
X307841Y96950D01*
X307981Y96883D01*
X308137Y96832D01*
X308290Y96771D01*
X308440Y96733D01*
X308587Y96684D01*
X308748Y96653D01*
X308906Y96612D01*
X309060Y96592D01*
X309212Y96563D01*
X309371Y96553D01*
X309538Y96531D01*
X309707Y96531D01*
X309866Y96521D01*
X311913Y96521D01*
X311836Y96339D01*
X311820Y96284D01*
X311799Y96230D01*
X311734Y95977D01*
X311663Y95725D01*
X311654Y95669D01*
X311640Y95614D01*
X311607Y95354D01*
X311568Y95095D01*
X311566Y95038D01*
X311559Y94982D01*
X311559Y94720D01*
X311552Y94459D01*
X311558Y94402D01*
X311558Y94344D01*
X311590Y94085D01*
X311617Y93825D01*
X311630Y93769D01*
X311637Y93712D01*
X311701Y93459D01*
X311760Y93204D01*
X311780Y93150D01*
X311794Y93095D01*
X311889Y92851D01*
X311980Y92606D01*
X312006Y92555D01*
X312027Y92502D01*
X312153Y92272D01*
X312273Y92040D01*
X312305Y91993D01*
X312333Y91943D01*
X312486Y91731D01*
X312634Y91515D01*
X312672Y91473D01*
X312706Y91426D01*
X312885Y91235D01*
X313059Y91040D01*
X313102Y91002D01*
X313141Y90961D01*
X313342Y90793D01*
X313539Y90622D01*
X313587Y90590D01*
X313631Y90553D01*
X313851Y90412D01*
X314068Y90267D01*
X314119Y90241D01*
X314168Y90210D01*
X314405Y90098D01*
X314638Y89981D01*
X314691Y89962D01*
X314743Y89937D01*
X314992Y89856D01*
X315238Y89768D01*
X315294Y89756D01*
X315349Y89738D01*
X315606Y89689D01*
X315861Y89633D01*
X315918Y89628D01*
X315974Y89617D01*
X316216Y89601D01*
X316495Y89576D01*
X316563Y89579D01*
X316628Y89575D01*
X320653Y89575D01*
X321906Y89056D01*
X321975Y89032D01*
X322042Y89002D01*
X322277Y88929D01*
X322509Y88849D01*
X322580Y88835D01*
X322650Y88813D01*
X322892Y88770D01*
X323133Y88720D01*
X323206Y88714D01*
X323278Y88701D01*
X323522Y88689D01*
X323768Y88670D01*
X323841Y88673D01*
X323914Y88669D01*
X324159Y88688D01*
G37*
G36*
X54601Y274160D02*
X54601Y274160D01*
X54756Y274160D01*
X54918Y274180D01*
X55082Y274191D01*
X55234Y274220D01*
X55388Y274239D01*
X55547Y274279D01*
X55708Y274310D01*
X55855Y274358D01*
X56005Y274396D01*
X56158Y274456D01*
X56314Y274507D01*
X56454Y274572D01*
X56598Y274629D01*
X56742Y274708D01*
X56890Y274778D01*
X57021Y274860D01*
X57157Y274935D01*
X57290Y275031D01*
X57429Y275119D01*
X57548Y275217D01*
X57674Y275308D01*
X57793Y275420D01*
X57920Y275524D01*
X58026Y275637D01*
X58139Y275743D01*
X58244Y275869D01*
X58356Y275988D01*
X58448Y276114D01*
X58547Y276233D01*
X58635Y276371D01*
X58731Y276503D01*
X58806Y276639D01*
X58890Y276770D01*
X58960Y276918D01*
X59039Y277061D01*
X59096Y277205D01*
X59163Y277345D01*
X59214Y277501D01*
X59274Y277654D01*
X59313Y277804D01*
X59362Y277951D01*
X59393Y278112D01*
X59434Y278270D01*
X59453Y278424D01*
X59483Y278576D01*
X59493Y278735D01*
X59515Y278902D01*
X59515Y279071D01*
X59525Y279230D01*
X59525Y303210D01*
X59989Y304331D01*
X70917Y315259D01*
X72038Y315723D01*
X104746Y315723D01*
X105867Y315259D01*
X113623Y307502D01*
X113678Y307454D01*
X113728Y307401D01*
X113917Y307243D01*
X114101Y307081D01*
X114161Y307040D01*
X114218Y306993D01*
X114425Y306861D01*
X114628Y306723D01*
X114693Y306690D01*
X114754Y306650D01*
X114976Y306545D01*
X115196Y306433D01*
X115264Y306409D01*
X115330Y306377D01*
X115564Y306301D01*
X115795Y306217D01*
X115866Y306201D01*
X115935Y306178D01*
X116177Y306132D01*
X116417Y306078D01*
X116489Y306071D01*
X116561Y306057D01*
X116792Y306042D01*
X117051Y306017D01*
X117134Y306020D01*
X117215Y306015D01*
X119255Y306015D01*
X122035Y304863D01*
X124163Y302735D01*
X125315Y299955D01*
X125315Y296604D01*
X125324Y296449D01*
X125324Y296294D01*
X125344Y296132D01*
X125355Y295968D01*
X125384Y295816D01*
X125403Y295662D01*
X125443Y295503D01*
X125474Y295342D01*
X125522Y295195D01*
X125560Y295045D01*
X125620Y294892D01*
X125671Y294736D01*
X125736Y294596D01*
X125793Y294452D01*
X125872Y294308D01*
X125942Y294160D01*
X126024Y294029D01*
X126099Y293893D01*
X126195Y293760D01*
X126283Y293621D01*
X126381Y293502D01*
X126472Y293376D01*
X126584Y293257D01*
X126688Y293130D01*
X126801Y293024D01*
X126907Y292911D01*
X127033Y292806D01*
X127152Y292694D01*
X127278Y292602D01*
X127397Y292503D01*
X127535Y292415D01*
X127667Y292319D01*
X127803Y292244D01*
X127934Y292160D01*
X128082Y292090D01*
X128225Y292011D01*
X128369Y291954D01*
X128509Y291887D01*
X128665Y291836D01*
X128818Y291776D01*
X128968Y291737D01*
X129115Y291688D01*
X129276Y291657D01*
X129434Y291616D01*
X129588Y291597D01*
X129740Y291567D01*
X129899Y291557D01*
X130066Y291535D01*
X130235Y291535D01*
X130394Y291525D01*
X131826Y291525D01*
X132009Y291449D01*
X132117Y291412D01*
X132222Y291366D01*
X132419Y291309D01*
X132612Y291242D01*
X132724Y291219D01*
X132833Y291187D01*
X133036Y291154D01*
X133236Y291113D01*
X133350Y291104D01*
X133462Y291086D01*
X133667Y291079D01*
X133871Y291063D01*
X133985Y291068D01*
X134099Y291064D01*
X134303Y291083D01*
X134508Y291092D01*
X134620Y291112D01*
X134734Y291122D01*
X134934Y291166D01*
X135135Y291201D01*
X135245Y291235D01*
X135356Y291259D01*
X135548Y291328D01*
X135744Y291388D01*
X135849Y291435D01*
X135956Y291473D01*
X136139Y291566D01*
X136325Y291650D01*
X136423Y291709D01*
X136524Y291761D01*
X136694Y291876D01*
X136869Y291982D01*
X136958Y292053D01*
X137053Y292117D01*
X137201Y292247D01*
X137367Y292380D01*
X137455Y292470D01*
X137545Y292550D01*
X139686Y294691D01*
X139789Y294807D01*
X139898Y294917D01*
X139999Y295046D01*
X140108Y295169D01*
X140195Y295297D01*
X140290Y295419D01*
X140374Y295560D01*
X140466Y295696D01*
X140536Y295834D01*
X140615Y295967D01*
X140681Y296117D01*
X140755Y296263D01*
X140808Y296409D01*
X140870Y296551D01*
X140916Y296709D01*
X140971Y296863D01*
X141005Y297014D01*
X141049Y297163D01*
X141075Y297324D01*
X141111Y297485D01*
X141126Y297639D01*
X141150Y297792D01*
X141156Y297955D01*
X141171Y298119D01*
X141167Y298274D01*
X141172Y298429D01*
X141157Y298592D01*
X141152Y298756D01*
X141128Y298909D01*
X141114Y299063D01*
X141078Y299223D01*
X141053Y299385D01*
X141010Y299534D01*
X140976Y299685D01*
X140921Y299839D01*
X140876Y299997D01*
X140814Y300140D01*
X140762Y300285D01*
X140689Y300431D01*
X140624Y300582D01*
X140545Y300716D01*
X140475Y300854D01*
X140383Y300990D01*
X140300Y301131D01*
X140205Y301254D01*
X140119Y301382D01*
X140014Y301502D01*
X139910Y301635D01*
X139791Y301755D01*
X139686Y301874D01*
X138300Y303261D01*
X137360Y304555D01*
X136634Y305980D01*
X136139Y307501D01*
X135889Y309080D01*
X135889Y312421D01*
X146050Y312421D01*
X146204Y312430D01*
X146359Y312430D01*
X146522Y312450D01*
X146686Y312461D01*
X146837Y312489D01*
X146991Y312509D01*
X147151Y312549D01*
X147311Y312580D01*
X147459Y312628D01*
X147609Y312666D01*
X147761Y312726D01*
X147917Y312776D01*
X148058Y312842D01*
X148202Y312899D01*
X148346Y312978D01*
X148494Y313047D01*
X148625Y313130D01*
X148761Y313205D01*
X148894Y313301D01*
X149032Y313388D01*
X149152Y313487D01*
X149277Y313578D01*
X149397Y313690D01*
X149523Y313794D01*
X149630Y313907D01*
X149743Y314013D01*
X149848Y314139D01*
X149960Y314258D01*
X150051Y314384D01*
X150150Y314503D01*
X150239Y314641D01*
X150335Y314773D01*
X150410Y314909D01*
X150493Y315040D01*
X150564Y315188D01*
X150643Y315331D01*
X150700Y315475D01*
X150766Y315615D01*
X150818Y315771D01*
X150878Y315923D01*
X150917Y316073D01*
X150965Y316221D01*
X150996Y316381D01*
X151037Y316540D01*
X151057Y316694D01*
X151087Y316846D01*
X151097Y317005D01*
X151118Y317172D01*
X151119Y317341D01*
X151129Y317500D01*
X151119Y317655D01*
X151119Y317810D01*
X151099Y317973D01*
X151089Y318136D01*
X151060Y318288D01*
X151041Y318442D01*
X151000Y318601D01*
X150970Y318762D01*
X150922Y318909D01*
X150884Y319059D01*
X150824Y319212D01*
X150773Y319368D01*
X150707Y319508D01*
X150650Y319652D01*
X150572Y319796D01*
X150502Y319945D01*
X150419Y320075D01*
X150345Y320211D01*
X150249Y320344D01*
X150161Y320483D01*
X150062Y320602D01*
X149972Y320728D01*
X149860Y320847D01*
X149755Y320974D01*
X149642Y321080D01*
X149537Y321193D01*
X149411Y321298D01*
X149291Y321411D01*
X149166Y321502D01*
X149047Y321601D01*
X148909Y321689D01*
X148776Y321786D01*
X148641Y321860D01*
X148510Y321944D01*
X148362Y322014D01*
X148218Y322093D01*
X148074Y322150D01*
X147934Y322217D01*
X147778Y322268D01*
X147626Y322329D01*
X147476Y322367D01*
X147329Y322416D01*
X147168Y322447D01*
X147009Y322488D01*
X146856Y322508D01*
X146704Y322537D01*
X146545Y322547D01*
X146377Y322569D01*
X146209Y322569D01*
X146050Y322579D01*
X135889Y322579D01*
X135889Y325920D01*
X136139Y327499D01*
X136364Y328190D01*
X136444Y328502D01*
X136521Y328800D01*
X136522Y328804D01*
X136523Y328808D01*
X136562Y329116D01*
X136602Y329432D01*
X136602Y329436D01*
X136602Y329440D01*
X136603Y329749D01*
X136603Y330070D01*
X136603Y330073D01*
X136603Y330077D01*
X136564Y330383D01*
X136525Y330702D01*
X136524Y330706D01*
X136523Y330709D01*
X136451Y330991D01*
X136367Y331319D01*
X136366Y331323D01*
X136365Y331326D01*
X136251Y331615D01*
X136134Y331912D01*
X136132Y331916D01*
X136131Y331919D01*
X135985Y332184D01*
X135829Y332471D01*
X135826Y332474D01*
X135825Y332477D01*
X135637Y332736D01*
X135455Y332988D01*
X135453Y332990D01*
X135451Y332993D01*
X135234Y333224D01*
X135020Y333453D01*
X135018Y333456D01*
X135015Y333458D01*
X134772Y333660D01*
X134531Y333861D01*
X134528Y333863D01*
X134525Y333865D01*
X134257Y334036D01*
X133994Y334204D01*
X133990Y334205D01*
X133987Y334207D01*
X133711Y334338D01*
X133418Y334477D01*
X133414Y334478D01*
X133411Y334479D01*
X133120Y334574D01*
X132813Y334676D01*
X132809Y334676D01*
X132806Y334677D01*
X132503Y334736D01*
X132187Y334797D01*
X132184Y334797D01*
X132180Y334798D01*
X131544Y334839D01*
X131539Y334839D01*
X131533Y334839D01*
X50935Y334839D01*
X50698Y334824D01*
X50462Y334817D01*
X50381Y334804D01*
X50299Y334799D01*
X50066Y334755D01*
X49832Y334718D01*
X49753Y334695D01*
X49673Y334680D01*
X49448Y334607D01*
X49220Y334541D01*
X49145Y334509D01*
X49067Y334483D01*
X48852Y334383D01*
X48635Y334289D01*
X48564Y334247D01*
X48490Y334212D01*
X48290Y334086D01*
X48086Y333965D01*
X48021Y333915D01*
X47952Y333871D01*
X47769Y333720D01*
X47582Y333576D01*
X47524Y333518D01*
X47461Y333466D01*
X47298Y333293D01*
X47131Y333126D01*
X47080Y333061D01*
X47024Y333002D01*
X46885Y332810D01*
X46739Y332623D01*
X46697Y332553D01*
X46649Y332487D01*
X46535Y332279D01*
X46414Y332075D01*
X46381Y332000D01*
X46342Y331929D01*
X46254Y331709D01*
X46160Y331491D01*
X46137Y331413D01*
X46106Y331336D01*
X46047Y331107D01*
X45980Y330880D01*
X45967Y330799D01*
X45947Y330720D01*
X45917Y330484D01*
X45879Y330251D01*
X45876Y330169D01*
X45866Y330088D01*
X45866Y329850D01*
X45858Y329614D01*
X45865Y329532D01*
X45865Y329450D01*
X45894Y329215D01*
X45916Y328980D01*
X45933Y328900D01*
X45943Y328818D01*
X46002Y328589D01*
X46053Y328357D01*
X46080Y328280D01*
X46101Y328201D01*
X46187Y327980D01*
X46267Y327757D01*
X46304Y327684D01*
X46334Y327608D01*
X46448Y327400D01*
X46554Y327189D01*
X46600Y327121D01*
X46640Y327049D01*
X46778Y326857D01*
X46911Y326661D01*
X46964Y326600D01*
X47013Y326532D01*
X47071Y326471D01*
X50161Y319010D01*
X50161Y310990D01*
X47091Y303580D01*
X41420Y297909D01*
X34010Y294839D01*
X25990Y294839D01*
X18580Y297909D01*
X17832Y298657D01*
X17654Y298813D01*
X17482Y298976D01*
X17415Y299024D01*
X17354Y299078D01*
X17158Y299211D01*
X16966Y299351D01*
X16895Y299390D01*
X16827Y299436D01*
X16616Y299544D01*
X16409Y299658D01*
X16332Y299689D01*
X16259Y299726D01*
X16036Y299806D01*
X15816Y299894D01*
X15737Y299914D01*
X15660Y299942D01*
X15429Y299994D01*
X15200Y300053D01*
X15118Y300064D01*
X15038Y300081D01*
X14803Y300104D01*
X14568Y300134D01*
X14485Y300134D01*
X14404Y300142D01*
X14168Y300135D01*
X13930Y300135D01*
X13849Y300125D01*
X13767Y300123D01*
X13534Y300086D01*
X13298Y300057D01*
X13219Y300036D01*
X13138Y300024D01*
X12911Y299958D01*
X12681Y299899D01*
X12604Y299869D01*
X12526Y299847D01*
X12308Y299753D01*
X12088Y299666D01*
X12016Y299627D01*
X11941Y299594D01*
X11737Y299474D01*
X11529Y299360D01*
X11462Y299312D01*
X11392Y299271D01*
X11204Y299126D01*
X11012Y298987D01*
X10953Y298931D01*
X10888Y298881D01*
X10720Y298714D01*
X10547Y298552D01*
X10494Y298489D01*
X10436Y298431D01*
X10291Y298245D01*
X10139Y298063D01*
X10095Y297994D01*
X10045Y297929D01*
X9924Y297725D01*
X9796Y297526D01*
X9761Y297452D01*
X9719Y297381D01*
X9625Y297164D01*
X9523Y296950D01*
X9498Y296872D01*
X9465Y296797D01*
X9398Y296570D01*
X9324Y296345D01*
X9309Y296264D01*
X9286Y296185D01*
X9248Y295952D01*
X9203Y295719D01*
X9198Y295639D01*
X9185Y295556D01*
X9176Y295296D01*
X9161Y295065D01*
X9161Y279230D01*
X9170Y279079D01*
X9170Y279051D01*
X9170Y279050D01*
X9170Y278920D01*
X9190Y278758D01*
X9201Y278594D01*
X9230Y278442D01*
X9249Y278288D01*
X9289Y278129D01*
X9320Y277968D01*
X9368Y277821D01*
X9406Y277671D01*
X9466Y277518D01*
X9517Y277362D01*
X9582Y277222D01*
X9639Y277078D01*
X9718Y276934D01*
X9788Y276786D01*
X9870Y276655D01*
X9945Y276519D01*
X10041Y276386D01*
X10129Y276247D01*
X10227Y276128D01*
X10318Y276002D01*
X10430Y275883D01*
X10534Y275756D01*
X10647Y275650D01*
X10753Y275537D01*
X10879Y275432D01*
X10998Y275320D01*
X11124Y275228D01*
X11243Y275129D01*
X11381Y275041D01*
X11513Y274945D01*
X11649Y274870D01*
X11780Y274786D01*
X11928Y274716D01*
X12071Y274637D01*
X12215Y274580D01*
X12355Y274513D01*
X12511Y274462D01*
X12664Y274402D01*
X12814Y274363D01*
X12961Y274314D01*
X13122Y274283D01*
X13280Y274242D01*
X13434Y274223D01*
X13586Y274193D01*
X13745Y274183D01*
X13912Y274161D01*
X14081Y274161D01*
X14240Y274151D01*
X54446Y274151D01*
X54601Y274160D01*
G37*
G36*
X19205Y20331D02*
X19205Y20331D01*
X19359Y20331D01*
X19360Y20331D01*
X19523Y20351D01*
X19686Y20361D01*
X19838Y20390D01*
X19992Y20409D01*
X20151Y20450D01*
X20312Y20480D01*
X20459Y20528D01*
X20609Y20566D01*
X20762Y20626D01*
X20918Y20677D01*
X21058Y20743D01*
X21202Y20800D01*
X21346Y20878D01*
X21495Y20948D01*
X21625Y21031D01*
X21761Y21105D01*
X21894Y21201D01*
X22033Y21289D01*
X22152Y21388D01*
X22278Y21478D01*
X22397Y21590D01*
X22524Y21695D01*
X22630Y21808D01*
X22743Y21913D01*
X22848Y22039D01*
X22961Y22159D01*
X23052Y22284D01*
X23151Y22403D01*
X23239Y22541D01*
X23336Y22674D01*
X23410Y22809D01*
X23494Y22940D01*
X23564Y23088D01*
X23643Y23232D01*
X23700Y23376D01*
X23767Y23516D01*
X23818Y23672D01*
X23879Y23824D01*
X23917Y23974D01*
X23966Y24121D01*
X23997Y24282D01*
X24038Y24441D01*
X24058Y24594D01*
X24087Y24746D01*
X24097Y24905D01*
X24119Y25073D01*
X24119Y25241D01*
X24129Y25400D01*
X24129Y41836D01*
X24375Y41710D01*
X25669Y40770D01*
X26800Y39639D01*
X27744Y38341D01*
X27747Y38334D01*
X27893Y38094D01*
X28036Y37852D01*
X28059Y37822D01*
X28079Y37790D01*
X28254Y37571D01*
X28427Y37349D01*
X28454Y37322D01*
X28477Y37293D01*
X28678Y37097D01*
X28877Y36898D01*
X28907Y36875D01*
X28934Y36849D01*
X29159Y36679D01*
X29380Y36507D01*
X29413Y36488D01*
X29443Y36465D01*
X29686Y36326D01*
X29929Y36182D01*
X29963Y36167D01*
X29996Y36149D01*
X30256Y36041D01*
X30513Y35929D01*
X30549Y35918D01*
X30584Y35904D01*
X30856Y35829D01*
X31125Y35751D01*
X31162Y35745D01*
X31198Y35735D01*
X31477Y35694D01*
X31754Y35650D01*
X31792Y35649D01*
X31829Y35644D01*
X32110Y35639D01*
X32391Y35629D01*
X32428Y35633D01*
X32466Y35632D01*
X32745Y35662D01*
X33025Y35688D01*
X33062Y35697D01*
X33099Y35701D01*
X33374Y35766D01*
X33647Y35826D01*
X33682Y35839D01*
X33719Y35848D01*
X33983Y35947D01*
X34247Y36041D01*
X34280Y36058D01*
X34316Y36072D01*
X34565Y36202D01*
X34815Y36330D01*
X34846Y36351D01*
X34880Y36368D01*
X35109Y36529D01*
X35343Y36687D01*
X35371Y36711D01*
X35402Y36733D01*
X35611Y36922D01*
X35822Y37107D01*
X35846Y37135D01*
X35874Y37160D01*
X36058Y37374D01*
X36244Y37584D01*
X36265Y37615D01*
X36290Y37644D01*
X36445Y37878D01*
X36595Y38097D01*
X39270Y40773D01*
X42631Y42165D01*
X46269Y42165D01*
X49630Y40773D01*
X52202Y38200D01*
X52457Y37585D01*
X52562Y37372D01*
X52659Y37156D01*
X52702Y37086D01*
X52738Y37013D01*
X52868Y36815D01*
X52991Y36613D01*
X53042Y36549D01*
X53087Y36480D01*
X53241Y36300D01*
X53389Y36115D01*
X53448Y36058D01*
X53501Y35995D01*
X53676Y35836D01*
X53846Y35671D01*
X53911Y35621D01*
X53972Y35566D01*
X54165Y35430D01*
X54355Y35288D01*
X54426Y35247D01*
X54493Y35200D01*
X54702Y35089D01*
X54908Y34971D01*
X54983Y34939D01*
X55056Y34901D01*
X55277Y34817D01*
X55496Y34726D01*
X55575Y34704D01*
X55652Y34675D01*
X55882Y34620D01*
X56110Y34557D01*
X56191Y34545D01*
X56271Y34526D01*
X56506Y34500D01*
X56741Y34466D01*
X56823Y34464D01*
X56904Y34455D01*
X57140Y34459D01*
X57378Y34454D01*
X57459Y34463D01*
X57541Y34464D01*
X57775Y34497D01*
X58011Y34523D01*
X58091Y34542D01*
X58172Y34553D01*
X58401Y34615D01*
X58631Y34670D01*
X58708Y34699D01*
X58787Y34720D01*
X59006Y34810D01*
X59228Y34894D01*
X59300Y34932D01*
X59376Y34963D01*
X59582Y35080D01*
X59792Y35190D01*
X59859Y35237D01*
X59930Y35278D01*
X60120Y35419D01*
X60314Y35555D01*
X60375Y35610D01*
X60440Y35659D01*
X60611Y35824D01*
X60786Y35982D01*
X60840Y36045D01*
X60899Y36101D01*
X61047Y36286D01*
X61202Y36466D01*
X61247Y36534D01*
X61298Y36598D01*
X61423Y36800D01*
X61553Y36997D01*
X61589Y37069D01*
X61633Y37140D01*
X61740Y37377D01*
X61843Y37585D01*
X62097Y38200D01*
X62577Y38679D01*
X62744Y38869D01*
X62916Y39054D01*
X62955Y39108D01*
X62998Y39157D01*
X63140Y39366D01*
X63288Y39572D01*
X63320Y39630D01*
X63357Y39684D01*
X63471Y39909D01*
X63592Y40132D01*
X63616Y40193D01*
X63646Y40252D01*
X63732Y40490D01*
X63824Y40725D01*
X63840Y40789D01*
X63862Y40851D01*
X63917Y41098D01*
X63979Y41343D01*
X63987Y41409D01*
X64002Y41473D01*
X64025Y41724D01*
X64056Y41975D01*
X64056Y42041D01*
X64062Y42107D01*
X64054Y42360D01*
X64053Y42613D01*
X64045Y42677D01*
X64043Y42744D01*
X64009Y42956D01*
X64009Y45721D01*
X73050Y45721D01*
X73204Y45730D01*
X73359Y45730D01*
X73522Y45750D01*
X73686Y45761D01*
X73837Y45789D01*
X73991Y45809D01*
X74151Y45849D01*
X74311Y45880D01*
X74459Y45928D01*
X74609Y45966D01*
X74761Y46026D01*
X74917Y46076D01*
X75058Y46142D01*
X75202Y46199D01*
X75346Y46278D01*
X75494Y46347D01*
X75625Y46430D01*
X75761Y46505D01*
X75894Y46601D01*
X76032Y46688D01*
X76152Y46787D01*
X76277Y46878D01*
X76397Y46990D01*
X76523Y47094D01*
X76630Y47207D01*
X76743Y47313D01*
X76848Y47439D01*
X76960Y47558D01*
X77051Y47684D01*
X77150Y47803D01*
X77239Y47941D01*
X77335Y48073D01*
X77410Y48209D01*
X77493Y48340D01*
X77564Y48488D01*
X77643Y48631D01*
X77700Y48775D01*
X77766Y48915D01*
X77818Y49071D01*
X77878Y49223D01*
X77917Y49373D01*
X77965Y49521D01*
X77996Y49681D01*
X78037Y49840D01*
X78057Y49994D01*
X78087Y50146D01*
X78097Y50305D01*
X78118Y50472D01*
X78119Y50641D01*
X78129Y50800D01*
X78119Y50955D01*
X78119Y51089D01*
X78119Y51110D01*
X78099Y51273D01*
X78089Y51436D01*
X78060Y51588D01*
X78041Y51742D01*
X78000Y51901D01*
X77970Y52062D01*
X77922Y52209D01*
X77884Y52359D01*
X77824Y52512D01*
X77773Y52668D01*
X77707Y52808D01*
X77650Y52952D01*
X77572Y53096D01*
X77502Y53245D01*
X77419Y53375D01*
X77345Y53511D01*
X77249Y53644D01*
X77161Y53783D01*
X77062Y53902D01*
X76972Y54028D01*
X76860Y54147D01*
X76755Y54274D01*
X76642Y54380D01*
X76537Y54493D01*
X76411Y54598D01*
X76291Y54711D01*
X76166Y54802D01*
X76047Y54901D01*
X75909Y54989D01*
X75776Y55086D01*
X75641Y55160D01*
X75510Y55244D01*
X75362Y55314D01*
X75218Y55393D01*
X75074Y55450D01*
X74934Y55517D01*
X74778Y55568D01*
X74626Y55629D01*
X74476Y55667D01*
X74329Y55716D01*
X74168Y55747D01*
X74009Y55788D01*
X73856Y55808D01*
X73704Y55837D01*
X73545Y55847D01*
X73377Y55869D01*
X73209Y55869D01*
X73050Y55879D01*
X62919Y55879D01*
X62903Y55901D01*
X62766Y56053D01*
X62636Y56211D01*
X62553Y56289D01*
X62476Y56374D01*
X62321Y56507D01*
X62172Y56647D01*
X62079Y56715D01*
X61993Y56789D01*
X61822Y56902D01*
X61657Y57022D01*
X61557Y57077D01*
X61462Y57140D01*
X61285Y57227D01*
X61099Y57330D01*
X60982Y57377D01*
X60874Y57430D01*
X59494Y58001D01*
X58001Y59494D01*
X57193Y61444D01*
X57193Y63556D01*
X58005Y65516D01*
X58012Y65523D01*
X58065Y65573D01*
X58223Y65762D01*
X58385Y65946D01*
X58426Y66007D01*
X58473Y66063D01*
X58605Y66270D01*
X58743Y66473D01*
X58776Y66538D01*
X58816Y66600D01*
X58921Y66822D01*
X59033Y67041D01*
X59057Y67109D01*
X59089Y67175D01*
X59165Y67409D01*
X59249Y67640D01*
X59265Y67711D01*
X59288Y67781D01*
X59334Y68022D01*
X59388Y68262D01*
X59395Y68335D01*
X59409Y68406D01*
X59424Y68637D01*
X59449Y68896D01*
X59446Y68980D01*
X59451Y69060D01*
X59451Y89070D01*
X59442Y89225D01*
X59442Y89380D01*
X59422Y89542D01*
X59411Y89706D01*
X59382Y89858D01*
X59363Y90012D01*
X59323Y90171D01*
X59292Y90332D01*
X59244Y90479D01*
X59206Y90629D01*
X59146Y90782D01*
X59095Y90938D01*
X59030Y91078D01*
X58973Y91222D01*
X58894Y91366D01*
X58824Y91514D01*
X58742Y91645D01*
X58667Y91781D01*
X58571Y91914D01*
X58483Y92053D01*
X58385Y92172D01*
X58294Y92298D01*
X58182Y92417D01*
X58078Y92544D01*
X57965Y92650D01*
X57859Y92763D01*
X57733Y92868D01*
X57614Y92980D01*
X57488Y93072D01*
X57369Y93171D01*
X57231Y93259D01*
X57099Y93355D01*
X56963Y93430D01*
X56832Y93514D01*
X56684Y93584D01*
X56541Y93663D01*
X56397Y93720D01*
X56257Y93787D01*
X56101Y93838D01*
X55948Y93898D01*
X55798Y93937D01*
X55651Y93986D01*
X55490Y94017D01*
X55332Y94058D01*
X55178Y94077D01*
X55026Y94107D01*
X54867Y94117D01*
X54700Y94139D01*
X54531Y94139D01*
X54372Y94149D01*
X14240Y94149D01*
X14085Y94140D01*
X13930Y94140D01*
X13768Y94120D01*
X13604Y94109D01*
X13452Y94080D01*
X13298Y94061D01*
X13139Y94021D01*
X12978Y93990D01*
X12831Y93942D01*
X12681Y93904D01*
X12528Y93844D01*
X12372Y93793D01*
X12232Y93728D01*
X12088Y93671D01*
X11944Y93592D01*
X11796Y93522D01*
X11665Y93440D01*
X11529Y93365D01*
X11396Y93269D01*
X11257Y93181D01*
X11138Y93083D01*
X11012Y92992D01*
X10893Y92880D01*
X10766Y92776D01*
X10660Y92663D01*
X10547Y92557D01*
X10442Y92431D01*
X10330Y92312D01*
X10238Y92186D01*
X10139Y92067D01*
X10051Y91929D01*
X9955Y91797D01*
X9880Y91661D01*
X9796Y91530D01*
X9726Y91382D01*
X9647Y91239D01*
X9590Y91095D01*
X9523Y90955D01*
X9472Y90799D01*
X9412Y90646D01*
X9373Y90496D01*
X9324Y90349D01*
X9293Y90188D01*
X9252Y90030D01*
X9233Y89876D01*
X9203Y89724D01*
X9193Y89565D01*
X9171Y89398D01*
X9171Y89229D01*
X9161Y89070D01*
X9161Y47481D01*
X9180Y47173D01*
X9200Y46853D01*
X9200Y46849D01*
X9201Y46846D01*
X9261Y46528D01*
X9318Y46227D01*
X9319Y46223D01*
X9320Y46220D01*
X9419Y45915D01*
X9514Y45620D01*
X9515Y45617D01*
X9517Y45614D01*
X9653Y45324D01*
X9784Y45043D01*
X9786Y45040D01*
X9788Y45037D01*
X9963Y44760D01*
X10124Y44505D01*
X10127Y44502D01*
X10129Y44499D01*
X10338Y44245D01*
X10529Y44013D01*
X10532Y44010D01*
X10534Y44008D01*
X10766Y43790D01*
X10993Y43576D01*
X10996Y43573D01*
X10998Y43571D01*
X11251Y43387D01*
X11507Y43200D01*
X11511Y43198D01*
X11513Y43196D01*
X11781Y43048D01*
X12065Y42891D01*
X12068Y42890D01*
X12071Y42888D01*
X12358Y42775D01*
X12657Y42655D01*
X12660Y42654D01*
X12664Y42653D01*
X12971Y42574D01*
X13273Y42495D01*
X13277Y42495D01*
X13280Y42494D01*
X13597Y42453D01*
X13905Y42413D01*
X13909Y42413D01*
X13912Y42413D01*
X13971Y42413D01*
X13971Y25400D01*
X13980Y25246D01*
X13980Y25091D01*
X14000Y24928D01*
X14011Y24764D01*
X14039Y24613D01*
X14059Y24459D01*
X14099Y24299D01*
X14130Y24139D01*
X14178Y23991D01*
X14216Y23841D01*
X14276Y23689D01*
X14326Y23533D01*
X14392Y23392D01*
X14449Y23248D01*
X14528Y23104D01*
X14597Y22956D01*
X14680Y22825D01*
X14755Y22689D01*
X14851Y22556D01*
X14938Y22418D01*
X15037Y22298D01*
X15128Y22173D01*
X15240Y22053D01*
X15344Y21927D01*
X15457Y21820D01*
X15563Y21707D01*
X15689Y21602D01*
X15808Y21490D01*
X15934Y21399D01*
X16053Y21300D01*
X16191Y21211D01*
X16323Y21115D01*
X16459Y21040D01*
X16590Y20957D01*
X16738Y20886D01*
X16881Y20807D01*
X17025Y20750D01*
X17165Y20684D01*
X17321Y20632D01*
X17473Y20572D01*
X17623Y20533D01*
X17771Y20485D01*
X17931Y20454D01*
X18090Y20413D01*
X18244Y20393D01*
X18396Y20363D01*
X18555Y20353D01*
X18722Y20332D01*
X18891Y20331D01*
X19050Y20321D01*
X19205Y20331D01*
G37*
G36*
X269619Y52776D02*
X269619Y52776D01*
X269774Y52776D01*
X269936Y52796D01*
X270100Y52807D01*
X270252Y52836D01*
X270406Y52855D01*
X270565Y52895D01*
X270726Y52926D01*
X270873Y52974D01*
X271023Y53012D01*
X271176Y53072D01*
X271332Y53123D01*
X271472Y53188D01*
X271616Y53245D01*
X271760Y53324D01*
X271908Y53394D01*
X272039Y53476D01*
X272175Y53551D01*
X272308Y53647D01*
X272447Y53735D01*
X272566Y53833D01*
X272692Y53924D01*
X272811Y54036D01*
X272938Y54140D01*
X273044Y54253D01*
X273157Y54359D01*
X273262Y54485D01*
X273374Y54604D01*
X273466Y54730D01*
X273565Y54849D01*
X273653Y54987D01*
X273749Y55119D01*
X273824Y55255D01*
X273908Y55386D01*
X273978Y55534D01*
X274057Y55677D01*
X274114Y55821D01*
X274142Y55881D01*
X282334Y55881D01*
X282488Y55890D01*
X282643Y55890D01*
X282806Y55910D01*
X282970Y55921D01*
X283121Y55949D01*
X283275Y55969D01*
X283435Y56009D01*
X283595Y56040D01*
X283743Y56088D01*
X283893Y56126D01*
X284045Y56186D01*
X284201Y56236D01*
X284342Y56302D01*
X284486Y56359D01*
X284630Y56438D01*
X284778Y56507D01*
X284909Y56590D01*
X285045Y56665D01*
X285178Y56761D01*
X285316Y56848D01*
X285436Y56947D01*
X285561Y57038D01*
X285681Y57150D01*
X285807Y57254D01*
X285914Y57367D01*
X286027Y57473D01*
X286132Y57599D01*
X286244Y57718D01*
X286335Y57844D01*
X286434Y57963D01*
X286523Y58101D01*
X286619Y58233D01*
X286694Y58369D01*
X286777Y58500D01*
X286848Y58648D01*
X286927Y58791D01*
X286984Y58935D01*
X287050Y59075D01*
X287102Y59231D01*
X287162Y59383D01*
X287201Y59533D01*
X287249Y59681D01*
X287280Y59841D01*
X287321Y60000D01*
X287341Y60154D01*
X287371Y60306D01*
X287381Y60465D01*
X287402Y60632D01*
X287403Y60801D01*
X287413Y60960D01*
X287403Y61115D01*
X287403Y61270D01*
X287383Y61433D01*
X287373Y61596D01*
X287344Y61748D01*
X287325Y61902D01*
X287284Y62061D01*
X287254Y62222D01*
X287206Y62369D01*
X287168Y62519D01*
X287108Y62672D01*
X287057Y62828D01*
X286991Y62968D01*
X286934Y63112D01*
X286856Y63256D01*
X286786Y63405D01*
X286703Y63535D01*
X286629Y63671D01*
X286533Y63804D01*
X286445Y63943D01*
X286346Y64062D01*
X286256Y64188D01*
X286144Y64307D01*
X286039Y64434D01*
X285926Y64540D01*
X285821Y64653D01*
X285695Y64758D01*
X285575Y64871D01*
X285450Y64962D01*
X285331Y65061D01*
X285193Y65149D01*
X285060Y65246D01*
X284925Y65320D01*
X284794Y65404D01*
X284646Y65474D01*
X284502Y65553D01*
X284358Y65610D01*
X284218Y65677D01*
X284062Y65728D01*
X283910Y65789D01*
X283760Y65827D01*
X283613Y65876D01*
X283452Y65907D01*
X283293Y65948D01*
X283140Y65968D01*
X282988Y65997D01*
X282829Y66007D01*
X282661Y66029D01*
X282493Y66029D01*
X282334Y66039D01*
X274543Y66039D01*
X274543Y66610D01*
X274641Y67101D01*
X274832Y67564D01*
X275154Y68045D01*
X275211Y68143D01*
X275277Y68237D01*
X275371Y68419D01*
X275474Y68596D01*
X275519Y68701D01*
X275572Y68802D01*
X275643Y68994D01*
X275723Y69183D01*
X275754Y69293D01*
X275794Y69399D01*
X275840Y69598D01*
X275896Y69796D01*
X275913Y69909D01*
X275939Y70020D01*
X275960Y70223D01*
X275991Y70426D01*
X275994Y70540D01*
X276006Y70653D01*
X276002Y70858D01*
X276006Y71063D01*
X275995Y71176D01*
X275993Y71290D01*
X275963Y71493D01*
X275942Y71697D01*
X275916Y71808D01*
X275900Y71921D01*
X275845Y72118D01*
X275799Y72317D01*
X275759Y72424D01*
X275729Y72534D01*
X275649Y72723D01*
X275579Y72915D01*
X275527Y73017D01*
X275482Y73122D01*
X275384Y73293D01*
X275286Y73481D01*
X275214Y73585D01*
X275154Y73689D01*
X274848Y74147D01*
X274657Y74609D01*
X274559Y75100D01*
X274559Y76521D01*
X282100Y76521D01*
X282254Y76530D01*
X282409Y76530D01*
X282572Y76550D01*
X282736Y76561D01*
X282887Y76589D01*
X283041Y76609D01*
X283201Y76649D01*
X283361Y76680D01*
X283509Y76728D01*
X283659Y76766D01*
X283811Y76826D01*
X283967Y76876D01*
X284108Y76942D01*
X284252Y76999D01*
X284396Y77078D01*
X284544Y77147D01*
X284675Y77230D01*
X284811Y77305D01*
X284944Y77401D01*
X285082Y77488D01*
X285202Y77587D01*
X285327Y77678D01*
X285447Y77790D01*
X285573Y77894D01*
X285680Y78007D01*
X285793Y78113D01*
X285898Y78239D01*
X286010Y78358D01*
X286101Y78484D01*
X286200Y78603D01*
X286289Y78741D01*
X286385Y78873D01*
X286460Y79009D01*
X286543Y79140D01*
X286614Y79288D01*
X286693Y79431D01*
X286750Y79575D01*
X286816Y79715D01*
X286868Y79871D01*
X286928Y80023D01*
X286967Y80173D01*
X287015Y80321D01*
X287046Y80481D01*
X287087Y80640D01*
X287107Y80794D01*
X287137Y80946D01*
X287147Y81105D01*
X287168Y81272D01*
X287169Y81441D01*
X287179Y81600D01*
X287169Y81755D01*
X287169Y81802D01*
X287169Y81910D01*
X287149Y82073D01*
X287139Y82236D01*
X287110Y82388D01*
X287091Y82542D01*
X287050Y82701D01*
X287020Y82862D01*
X286972Y83009D01*
X286934Y83159D01*
X286874Y83312D01*
X286823Y83468D01*
X286757Y83608D01*
X286700Y83752D01*
X286622Y83896D01*
X286552Y84045D01*
X286469Y84175D01*
X286395Y84311D01*
X286299Y84444D01*
X286211Y84583D01*
X286112Y84702D01*
X286022Y84828D01*
X285910Y84947D01*
X285805Y85074D01*
X285692Y85180D01*
X285587Y85293D01*
X285461Y85398D01*
X285341Y85511D01*
X285216Y85602D01*
X285097Y85701D01*
X284959Y85789D01*
X284826Y85886D01*
X284691Y85960D01*
X284560Y86044D01*
X284412Y86114D01*
X284268Y86193D01*
X284124Y86250D01*
X283984Y86317D01*
X283828Y86368D01*
X283676Y86429D01*
X283526Y86467D01*
X283379Y86516D01*
X283218Y86547D01*
X283059Y86588D01*
X282906Y86608D01*
X282754Y86637D01*
X282595Y86647D01*
X282427Y86669D01*
X282259Y86669D01*
X282100Y86679D01*
X274559Y86679D01*
X274559Y88100D01*
X274657Y88591D01*
X274858Y89077D01*
X274972Y89277D01*
X275125Y89539D01*
X275131Y89554D01*
X275139Y89569D01*
X275255Y89846D01*
X275373Y90125D01*
X275378Y90141D01*
X275384Y90157D01*
X275464Y90447D01*
X275546Y90738D01*
X275549Y90755D01*
X275553Y90771D01*
X275596Y91070D01*
X275641Y91368D01*
X275642Y91385D01*
X275644Y91402D01*
X275650Y91707D01*
X275657Y92005D01*
X275655Y92022D01*
X275655Y92039D01*
X275623Y92340D01*
X275592Y92639D01*
X275589Y92656D01*
X275587Y92672D01*
X275517Y92965D01*
X275449Y93260D01*
X275443Y93275D01*
X275439Y93292D01*
X275334Y93574D01*
X275229Y93858D01*
X275221Y93873D01*
X275216Y93889D01*
X275076Y94154D01*
X274936Y94424D01*
X274927Y94438D01*
X274919Y94452D01*
X274746Y94701D01*
X274575Y94948D01*
X274564Y94961D01*
X274554Y94975D01*
X274352Y95198D01*
X274150Y95424D01*
X274138Y95435D01*
X274127Y95447D01*
X273898Y95643D01*
X273670Y95842D01*
X273656Y95851D01*
X273643Y95862D01*
X273390Y96030D01*
X273141Y96197D01*
X273126Y96204D01*
X273112Y96214D01*
X273060Y96239D01*
X272639Y96521D01*
X276100Y96521D01*
X280087Y96521D01*
X280064Y96430D01*
X280048Y96308D01*
X280023Y96187D01*
X280007Y95992D01*
X279983Y95798D01*
X279982Y95675D01*
X279973Y95552D01*
X279982Y95356D01*
X279981Y95160D01*
X279997Y95038D01*
X280002Y94916D01*
X280036Y94723D01*
X280060Y94528D01*
X280091Y94409D01*
X280112Y94288D01*
X280169Y94101D01*
X280217Y93911D01*
X280262Y93796D01*
X280298Y93679D01*
X280379Y93500D01*
X280451Y93318D01*
X280510Y93210D01*
X280560Y93098D01*
X280662Y92931D01*
X280756Y92759D01*
X280828Y92659D01*
X280892Y92554D01*
X281015Y92401D01*
X281129Y92242D01*
X281213Y92153D01*
X281290Y92056D01*
X281431Y91920D01*
X281564Y91777D01*
X281659Y91698D01*
X281747Y91612D01*
X281904Y91494D01*
X282054Y91369D01*
X282158Y91303D01*
X282256Y91229D01*
X282426Y91132D01*
X282591Y91026D01*
X282702Y90974D01*
X282809Y90913D01*
X282990Y90837D01*
X283167Y90753D01*
X283283Y90715D01*
X283397Y90668D01*
X283586Y90616D01*
X283772Y90554D01*
X283893Y90531D01*
X284011Y90498D01*
X284205Y90470D01*
X284397Y90433D01*
X284518Y90425D01*
X284642Y90407D01*
X284855Y90403D01*
X285051Y90391D01*
X287350Y90391D01*
X287841Y90293D01*
X288303Y90102D01*
X288720Y89823D01*
X289227Y89316D01*
X289343Y89214D01*
X289453Y89104D01*
X289582Y89003D01*
X289705Y88895D01*
X289833Y88808D01*
X289955Y88713D01*
X290096Y88629D01*
X290232Y88537D01*
X290369Y88466D01*
X290503Y88387D01*
X290654Y88321D01*
X290799Y88247D01*
X290945Y88195D01*
X291087Y88133D01*
X291244Y88087D01*
X291398Y88031D01*
X291550Y87997D01*
X291699Y87954D01*
X291860Y87928D01*
X292020Y87892D01*
X292175Y87877D01*
X292328Y87852D01*
X292491Y87847D01*
X292654Y87831D01*
X292809Y87836D01*
X292964Y87831D01*
X293128Y87846D01*
X293291Y87851D01*
X293444Y87875D01*
X293599Y87889D01*
X293759Y87924D01*
X293921Y87950D01*
X294070Y87993D01*
X294221Y88026D01*
X294375Y88081D01*
X294533Y88127D01*
X294675Y88188D01*
X294821Y88240D01*
X294967Y88314D01*
X295118Y88379D01*
X295251Y88457D01*
X295390Y88528D01*
X295526Y88619D01*
X295667Y88702D01*
X295789Y88797D01*
X295918Y88884D01*
X296037Y88989D01*
X296171Y89092D01*
X296211Y89132D01*
X297078Y89491D01*
X297180Y89541D01*
X297286Y89583D01*
X297466Y89682D01*
X297650Y89771D01*
X297745Y89834D01*
X297845Y89889D01*
X298012Y90009D01*
X298183Y90121D01*
X298269Y90195D01*
X298362Y90262D01*
X298511Y90402D01*
X298667Y90535D01*
X298744Y90619D01*
X298827Y90697D01*
X298958Y90854D01*
X299096Y91006D01*
X299162Y91099D01*
X299235Y91187D01*
X299345Y91359D01*
X299463Y91527D01*
X299516Y91628D01*
X299578Y91723D01*
X299665Y91909D01*
X299761Y92090D01*
X299802Y92196D01*
X299851Y92299D01*
X299915Y92494D01*
X299987Y92685D01*
X300014Y92796D01*
X300050Y92904D01*
X300088Y93105D01*
X300137Y93305D01*
X300149Y93418D01*
X300171Y93530D01*
X300184Y93727D01*
X300207Y93938D01*
X300206Y94064D01*
X300213Y94184D01*
X300213Y109016D01*
X300206Y109130D01*
X300208Y109244D01*
X300186Y109448D01*
X300173Y109652D01*
X300152Y109764D01*
X300140Y109877D01*
X300092Y110077D01*
X300054Y110278D01*
X300019Y110386D01*
X299993Y110497D01*
X299921Y110689D01*
X299857Y110884D01*
X299809Y110987D01*
X299769Y111094D01*
X299674Y111275D01*
X299586Y111461D01*
X299525Y111557D01*
X299472Y111658D01*
X299355Y111826D01*
X299245Y111999D01*
X299173Y112087D01*
X299108Y112180D01*
X298970Y112332D01*
X298840Y112490D01*
X298756Y112568D01*
X298680Y112653D01*
X298525Y112786D01*
X298376Y112927D01*
X298283Y112994D01*
X298197Y113068D01*
X298026Y113181D01*
X297861Y113302D01*
X297761Y113357D01*
X297666Y113420D01*
X297489Y113507D01*
X297303Y113609D01*
X297186Y113656D01*
X297078Y113709D01*
X296213Y114067D01*
X296184Y114096D01*
X296055Y114197D01*
X295932Y114305D01*
X295804Y114392D01*
X295682Y114487D01*
X295541Y114571D01*
X295405Y114663D01*
X295267Y114734D01*
X295134Y114813D01*
X294984Y114878D01*
X294838Y114953D01*
X294692Y115005D01*
X294550Y115067D01*
X294393Y115113D01*
X294238Y115169D01*
X294087Y115203D01*
X293938Y115246D01*
X293776Y115272D01*
X293617Y115308D01*
X293462Y115323D01*
X293309Y115348D01*
X293146Y115353D01*
X292982Y115369D01*
X292828Y115364D01*
X292673Y115369D01*
X292509Y115354D01*
X292346Y115349D01*
X292192Y115325D01*
X292038Y115311D01*
X291878Y115276D01*
X291716Y115250D01*
X291567Y115207D01*
X291416Y115174D01*
X291261Y115119D01*
X291104Y115073D01*
X290962Y115012D01*
X290816Y114960D01*
X290669Y114886D01*
X290519Y114821D01*
X290386Y114743D01*
X290247Y114673D01*
X290111Y114581D01*
X289970Y114498D01*
X289847Y114403D01*
X289719Y114316D01*
X289600Y114211D01*
X289466Y114108D01*
X289346Y113989D01*
X289227Y113884D01*
X288720Y113377D01*
X288303Y113098D01*
X287841Y112907D01*
X287350Y112809D01*
X285051Y112809D01*
X284856Y112797D01*
X284660Y112794D01*
X284538Y112777D01*
X284415Y112769D01*
X284223Y112733D01*
X284029Y112705D01*
X283910Y112673D01*
X283790Y112650D01*
X283603Y112590D01*
X283414Y112538D01*
X283301Y112491D01*
X283184Y112453D01*
X283006Y112370D01*
X282825Y112295D01*
X282718Y112235D01*
X282607Y112182D01*
X282442Y112078D01*
X282271Y111981D01*
X282173Y111907D01*
X282069Y111841D01*
X281918Y111717D01*
X281761Y111599D01*
X281672Y111514D01*
X281577Y111436D01*
X281443Y111293D01*
X281302Y111157D01*
X281225Y111061D01*
X281141Y110972D01*
X281026Y110813D01*
X280903Y110661D01*
X280838Y110556D01*
X280766Y110457D01*
X280671Y110285D01*
X280569Y110118D01*
X280518Y110006D01*
X280458Y109899D01*
X280386Y109717D01*
X280305Y109538D01*
X280268Y109421D01*
X280223Y109306D01*
X280174Y109117D01*
X280116Y108930D01*
X280094Y108809D01*
X280064Y108690D01*
X280039Y108495D01*
X280004Y108302D01*
X279998Y108180D01*
X279983Y108058D01*
X279982Y107861D01*
X279972Y107666D01*
X279982Y107544D01*
X279981Y107420D01*
X280006Y107226D01*
X280020Y107031D01*
X280045Y106910D01*
X280060Y106788D01*
X280088Y106679D01*
X276100Y106679D01*
X272639Y106679D01*
X273053Y106956D01*
X273096Y106977D01*
X273110Y106986D01*
X273125Y106994D01*
X273377Y107161D01*
X273629Y107327D01*
X273642Y107338D01*
X273655Y107347D01*
X273882Y107543D01*
X274114Y107740D01*
X274125Y107753D01*
X274137Y107764D01*
X274339Y107987D01*
X274543Y108211D01*
X274552Y108225D01*
X274563Y108237D01*
X274737Y108487D01*
X274910Y108732D01*
X274917Y108747D01*
X274927Y108761D01*
X275067Y109029D01*
X275208Y109295D01*
X275214Y109311D01*
X275222Y109325D01*
X275327Y109607D01*
X275434Y109891D01*
X275438Y109907D01*
X275444Y109923D01*
X275513Y110215D01*
X275584Y110510D01*
X275586Y110527D01*
X275589Y110543D01*
X275621Y110843D01*
X275655Y111143D01*
X275654Y111160D01*
X275656Y111177D01*
X275650Y111478D01*
X275646Y111780D01*
X275643Y111797D01*
X275643Y111814D01*
X275599Y112113D01*
X275557Y112411D01*
X275553Y112427D01*
X275550Y112444D01*
X275470Y112733D01*
X275390Y113026D01*
X275384Y113042D01*
X275379Y113058D01*
X275263Y113333D01*
X275147Y113615D01*
X275139Y113630D01*
X275133Y113645D01*
X275014Y113850D01*
X274855Y114130D01*
X274657Y114609D01*
X274559Y115100D01*
X274559Y115323D01*
X274547Y115518D01*
X274544Y115714D01*
X274527Y115836D01*
X274519Y115959D01*
X274483Y116151D01*
X274455Y116345D01*
X274423Y116464D01*
X274400Y116585D01*
X274340Y116771D01*
X274288Y116960D01*
X274241Y117074D01*
X274203Y117191D01*
X274120Y117368D01*
X274045Y117549D01*
X273985Y117656D01*
X273932Y117767D01*
X273828Y117933D01*
X273731Y118103D01*
X273657Y118202D01*
X273591Y118306D01*
X273467Y118457D01*
X273349Y118613D01*
X273264Y118702D01*
X273186Y118797D01*
X273043Y118931D01*
X272907Y119072D01*
X272811Y119149D01*
X272722Y119233D01*
X272563Y119349D01*
X272411Y119471D01*
X272306Y119536D01*
X272207Y119608D01*
X272035Y119703D01*
X271868Y119806D01*
X271756Y119857D01*
X271649Y119916D01*
X271467Y119988D01*
X271288Y120069D01*
X271171Y120106D01*
X271056Y120151D01*
X270867Y120200D01*
X270680Y120258D01*
X270559Y120280D01*
X270440Y120311D01*
X270245Y120336D01*
X270053Y120370D01*
X269930Y120376D01*
X269808Y120392D01*
X269611Y120392D01*
X269416Y120402D01*
X269294Y120393D01*
X269170Y120393D01*
X268976Y120369D01*
X268781Y120354D01*
X268660Y120329D01*
X268538Y120314D01*
X268348Y120266D01*
X268157Y120227D01*
X268043Y120188D01*
X267921Y120157D01*
X267723Y120079D01*
X267536Y120016D01*
X266791Y119707D01*
X266300Y119609D01*
X263629Y119609D01*
X263629Y127150D01*
X263620Y127304D01*
X263620Y127459D01*
X263600Y127622D01*
X263589Y127786D01*
X263560Y127937D01*
X263541Y128091D01*
X263501Y128251D01*
X263470Y128411D01*
X263422Y128559D01*
X263384Y128709D01*
X263324Y128861D01*
X263274Y129017D01*
X263208Y129158D01*
X263151Y129302D01*
X263072Y129446D01*
X263003Y129594D01*
X262920Y129725D01*
X262845Y129861D01*
X262749Y129994D01*
X262661Y130132D01*
X262563Y130252D01*
X262472Y130377D01*
X262360Y130497D01*
X262256Y130623D01*
X262143Y130730D01*
X262037Y130843D01*
X261911Y130948D01*
X261792Y131060D01*
X261666Y131151D01*
X261547Y131250D01*
X261409Y131339D01*
X261277Y131435D01*
X261141Y131510D01*
X261010Y131593D01*
X260862Y131664D01*
X260719Y131743D01*
X260575Y131800D01*
X260435Y131866D01*
X260279Y131918D01*
X260127Y131978D01*
X259977Y132017D01*
X259829Y132065D01*
X259669Y132096D01*
X259510Y132137D01*
X259356Y132157D01*
X259204Y132187D01*
X259045Y132197D01*
X258878Y132218D01*
X258709Y132219D01*
X258550Y132229D01*
X258395Y132219D01*
X258241Y132219D01*
X258240Y132219D01*
X258077Y132199D01*
X257914Y132189D01*
X257762Y132160D01*
X257608Y132141D01*
X257449Y132100D01*
X257288Y132070D01*
X257141Y132022D01*
X256991Y131984D01*
X256838Y131924D01*
X256682Y131873D01*
X256542Y131807D01*
X256398Y131750D01*
X256254Y131672D01*
X256105Y131602D01*
X255975Y131519D01*
X255839Y131445D01*
X255706Y131349D01*
X255567Y131261D01*
X255448Y131162D01*
X255322Y131072D01*
X255202Y130960D01*
X255076Y130855D01*
X254970Y130742D01*
X254857Y130637D01*
X254752Y130511D01*
X254639Y130391D01*
X254548Y130266D01*
X254449Y130147D01*
X254361Y130009D01*
X254264Y129876D01*
X254190Y129741D01*
X254106Y129610D01*
X254036Y129462D01*
X253957Y129318D01*
X253900Y129174D01*
X253833Y129034D01*
X253782Y128878D01*
X253721Y128726D01*
X253683Y128576D01*
X253634Y128429D01*
X253603Y128268D01*
X253562Y128109D01*
X253542Y127956D01*
X253513Y127804D01*
X253503Y127645D01*
X253481Y127477D01*
X253481Y127309D01*
X253471Y127150D01*
X253471Y119609D01*
X251476Y119609D01*
X251362Y119602D01*
X251248Y119604D01*
X251044Y119582D01*
X250840Y119569D01*
X250728Y119548D01*
X250614Y119536D01*
X250415Y119488D01*
X250214Y119450D01*
X250106Y119415D01*
X249995Y119388D01*
X249803Y119317D01*
X249608Y119253D01*
X249505Y119205D01*
X249398Y119165D01*
X249217Y119069D01*
X249032Y118982D01*
X248935Y118921D01*
X248834Y118868D01*
X248667Y118751D01*
X248493Y118641D01*
X248405Y118568D01*
X248312Y118503D01*
X248160Y118366D01*
X248002Y118236D01*
X247924Y118152D01*
X247839Y118076D01*
X247706Y117921D01*
X247566Y117772D01*
X247498Y117679D01*
X247424Y117593D01*
X247311Y117422D01*
X247191Y117257D01*
X247135Y117156D01*
X247085Y117080D01*
X246512Y116508D01*
X246464Y116453D01*
X246411Y116403D01*
X246253Y116214D01*
X246091Y116030D01*
X246050Y115969D01*
X246003Y115913D01*
X245871Y115706D01*
X245733Y115503D01*
X245700Y115438D01*
X245660Y115376D01*
X245555Y115154D01*
X245443Y114935D01*
X245419Y114867D01*
X245387Y114801D01*
X245311Y114567D01*
X245227Y114336D01*
X245211Y114265D01*
X245188Y114195D01*
X245142Y113954D01*
X245088Y113714D01*
X245081Y113642D01*
X245067Y113570D01*
X245052Y113338D01*
X245027Y113080D01*
X245030Y112996D01*
X245025Y112916D01*
X245025Y104535D01*
X245029Y104463D01*
X245027Y104390D01*
X245049Y104145D01*
X245065Y103900D01*
X245078Y103828D01*
X245085Y103755D01*
X245138Y103515D01*
X245184Y103274D01*
X245207Y103204D01*
X245222Y103133D01*
X245305Y102902D01*
X245381Y102668D01*
X245412Y102601D01*
X245436Y102533D01*
X245547Y102314D01*
X245652Y102091D01*
X245691Y102029D01*
X245724Y101964D01*
X245861Y101761D01*
X245993Y101553D01*
X246039Y101496D01*
X246080Y101436D01*
X246233Y101262D01*
X246398Y101062D01*
X246459Y101004D01*
X246512Y100944D01*
X247443Y100014D01*
X247675Y99453D01*
X247675Y83847D01*
X247443Y83286D01*
X247014Y82857D01*
X246046Y82457D01*
X245870Y82370D01*
X245690Y82293D01*
X245584Y82230D01*
X245474Y82176D01*
X245310Y82069D01*
X245141Y81969D01*
X245044Y81894D01*
X244941Y81827D01*
X244792Y81699D01*
X244637Y81580D01*
X244550Y81493D01*
X244457Y81413D01*
X244325Y81268D01*
X244186Y81130D01*
X244110Y81033D01*
X244028Y80942D01*
X243915Y80782D01*
X243794Y80627D01*
X243732Y80522D01*
X243661Y80421D01*
X243569Y80248D01*
X243469Y80080D01*
X243420Y79967D01*
X243362Y79858D01*
X243293Y79675D01*
X243215Y79495D01*
X243180Y79377D01*
X243137Y79262D01*
X243091Y79072D01*
X243036Y78884D01*
X243016Y78763D01*
X242987Y78643D01*
X242965Y78448D01*
X242934Y78255D01*
X242930Y78132D01*
X242916Y78010D01*
X242919Y77814D01*
X242913Y77618D01*
X242924Y77496D01*
X242926Y77373D01*
X242953Y77179D01*
X242971Y76984D01*
X242997Y76864D01*
X243014Y76742D01*
X243066Y76552D01*
X243108Y76362D01*
X243149Y76246D01*
X243182Y76127D01*
X243256Y75946D01*
X243322Y75761D01*
X243377Y75652D01*
X243424Y75538D01*
X243521Y75367D01*
X243609Y75193D01*
X243678Y75091D01*
X243739Y74984D01*
X243856Y74827D01*
X243966Y74665D01*
X244045Y74574D01*
X244120Y74474D01*
X244268Y74320D01*
X244398Y74172D01*
X249276Y69294D01*
X249331Y69246D01*
X249381Y69193D01*
X249570Y69035D01*
X249754Y68873D01*
X249814Y68832D01*
X249870Y68785D01*
X250078Y68653D01*
X250281Y68515D01*
X250346Y68482D01*
X250407Y68442D01*
X250629Y68337D01*
X250848Y68225D01*
X250917Y68201D01*
X250983Y68169D01*
X251217Y68093D01*
X251448Y68009D01*
X251519Y67993D01*
X251588Y67970D01*
X251830Y67924D01*
X252070Y67870D01*
X252142Y67863D01*
X252214Y67849D01*
X252445Y67834D01*
X252704Y67809D01*
X252787Y67812D01*
X252868Y67807D01*
X253556Y67807D01*
X255506Y66999D01*
X256999Y65506D01*
X257807Y63556D01*
X257807Y61444D01*
X257121Y59790D01*
X257058Y59604D01*
X256986Y59422D01*
X256955Y59303D01*
X256915Y59187D01*
X256875Y58995D01*
X256826Y58806D01*
X256811Y58684D01*
X256786Y58563D01*
X256770Y58368D01*
X256745Y58174D01*
X256745Y58050D01*
X256735Y57928D01*
X256744Y57732D01*
X256744Y57536D01*
X256759Y57414D01*
X256765Y57292D01*
X256799Y57099D01*
X256823Y56904D01*
X256853Y56785D01*
X256874Y56664D01*
X256932Y56477D01*
X256980Y56287D01*
X257025Y56172D01*
X257061Y56055D01*
X257142Y55876D01*
X257213Y55694D01*
X257272Y55586D01*
X257323Y55474D01*
X257425Y55307D01*
X257519Y55135D01*
X257591Y55035D01*
X257655Y54930D01*
X257777Y54777D01*
X257892Y54618D01*
X257976Y54529D01*
X258053Y54432D01*
X258193Y54296D01*
X258327Y54153D01*
X258422Y54074D01*
X258510Y53988D01*
X258666Y53871D01*
X258817Y53745D01*
X258921Y53679D01*
X259019Y53605D01*
X259188Y53508D01*
X259354Y53402D01*
X259465Y53350D01*
X259572Y53289D01*
X259752Y53213D01*
X259929Y53129D01*
X260046Y53091D01*
X260160Y53044D01*
X260349Y52992D01*
X260535Y52930D01*
X260655Y52907D01*
X260774Y52874D01*
X260968Y52846D01*
X261160Y52809D01*
X261280Y52801D01*
X261405Y52783D01*
X261617Y52779D01*
X261814Y52767D01*
X269464Y52767D01*
X269619Y52776D01*
G37*
%LPC*%
G36*
X163209Y154609D02*
X163209Y154609D01*
X163209Y176991D01*
X185591Y176991D01*
X185591Y156900D01*
X185493Y156409D01*
X185302Y155947D01*
X185023Y155530D01*
X184670Y155177D01*
X184253Y154898D01*
X183791Y154707D01*
X183300Y154609D01*
X163209Y154609D01*
G37*
%LPD*%
%LPC*%
G36*
X122800Y154609D02*
X122800Y154609D01*
X122309Y154707D01*
X121847Y154898D01*
X121430Y155177D01*
X121077Y155530D01*
X120798Y155947D01*
X120607Y156409D01*
X120509Y156900D01*
X120509Y176991D01*
X142891Y176991D01*
X142891Y154609D01*
X122800Y154609D01*
G37*
%LPD*%
G36*
X400205Y189262D02*
X400205Y189262D01*
X400359Y189262D01*
X400523Y189283D01*
X400688Y189293D01*
X400839Y189322D01*
X400992Y189341D01*
X401152Y189382D01*
X401313Y189412D01*
X401456Y189459D01*
X401609Y189498D01*
X401776Y189564D01*
X401936Y189616D01*
X401937Y189616D01*
X402067Y189678D01*
X402168Y189718D01*
X402202Y189731D01*
X402355Y189815D01*
X402512Y189889D01*
X402634Y189967D01*
X402761Y190037D01*
X402903Y190139D01*
X403049Y190233D01*
X403160Y190325D01*
X403278Y190410D01*
X403405Y190529D01*
X403539Y190640D01*
X403638Y190746D01*
X403743Y190845D01*
X403855Y190979D01*
X403973Y191106D01*
X404058Y191224D01*
X404151Y191335D01*
X404244Y191482D01*
X404346Y191623D01*
X404416Y191750D01*
X404494Y191872D01*
X404568Y192029D01*
X404652Y192182D01*
X404705Y192316D01*
X404767Y192448D01*
X404821Y192613D01*
X404885Y192775D01*
X404920Y192915D01*
X404966Y193053D01*
X404999Y193224D01*
X405042Y193392D01*
X405060Y193536D01*
X405087Y193678D01*
X405098Y193847D01*
X405120Y194025D01*
X405120Y194183D01*
X405129Y194332D01*
X405129Y208250D01*
X405120Y208404D01*
X405120Y208559D01*
X405100Y208722D01*
X405089Y208886D01*
X405060Y209037D01*
X405041Y209191D01*
X405001Y209351D01*
X404970Y209511D01*
X404922Y209659D01*
X404884Y209809D01*
X404824Y209961D01*
X404774Y210117D01*
X404708Y210258D01*
X404651Y210402D01*
X404572Y210546D01*
X404503Y210694D01*
X404420Y210825D01*
X404345Y210961D01*
X404249Y211094D01*
X404161Y211232D01*
X404063Y211352D01*
X403972Y211477D01*
X403860Y211597D01*
X403756Y211723D01*
X403643Y211830D01*
X403537Y211943D01*
X403411Y212048D01*
X403292Y212160D01*
X403166Y212251D01*
X403047Y212350D01*
X402909Y212439D01*
X402777Y212535D01*
X402641Y212610D01*
X402510Y212693D01*
X402362Y212764D01*
X402219Y212843D01*
X402075Y212900D01*
X401935Y212966D01*
X401779Y213018D01*
X401627Y213078D01*
X401477Y213117D01*
X401329Y213165D01*
X401169Y213196D01*
X401010Y213237D01*
X400856Y213257D01*
X400704Y213287D01*
X400545Y213297D01*
X400378Y213318D01*
X400209Y213319D01*
X400050Y213329D01*
X399895Y213319D01*
X399741Y213319D01*
X399740Y213319D01*
X399577Y213299D01*
X399414Y213289D01*
X399262Y213260D01*
X399108Y213241D01*
X398949Y213200D01*
X398788Y213170D01*
X398641Y213122D01*
X398491Y213084D01*
X398338Y213024D01*
X398182Y212973D01*
X398042Y212907D01*
X397898Y212850D01*
X397754Y212772D01*
X397605Y212702D01*
X397475Y212619D01*
X397339Y212545D01*
X397206Y212449D01*
X397067Y212361D01*
X396948Y212262D01*
X396822Y212172D01*
X396702Y212060D01*
X396576Y211955D01*
X396470Y211842D01*
X396357Y211737D01*
X396252Y211611D01*
X396139Y211491D01*
X396048Y211366D01*
X395949Y211247D01*
X395861Y211109D01*
X395764Y210976D01*
X395690Y210841D01*
X395606Y210710D01*
X395536Y210562D01*
X395457Y210418D01*
X395400Y210274D01*
X395333Y210134D01*
X395282Y209978D01*
X395221Y209826D01*
X395183Y209676D01*
X395134Y209529D01*
X395103Y209368D01*
X395062Y209209D01*
X395042Y209056D01*
X395013Y208904D01*
X395003Y208745D01*
X394981Y208577D01*
X394981Y208409D01*
X394971Y208250D01*
X394971Y194332D01*
X394981Y194168D01*
X394981Y194003D01*
X395001Y193850D01*
X395011Y193696D01*
X395041Y193534D01*
X395062Y193371D01*
X395101Y193222D01*
X395130Y193070D01*
X395181Y192913D01*
X395222Y192754D01*
X395279Y192611D01*
X395326Y192464D01*
X395397Y192315D01*
X395458Y192162D01*
X395532Y192027D01*
X395597Y191888D01*
X395686Y191748D01*
X395765Y191604D01*
X395856Y191480D01*
X395938Y191349D01*
X396044Y191222D01*
X396141Y191089D01*
X396246Y190977D01*
X396344Y190858D01*
X396464Y190745D01*
X396577Y190625D01*
X396696Y190527D01*
X396808Y190422D01*
X396942Y190324D01*
X397069Y190220D01*
X397199Y190137D01*
X397323Y190047D01*
X397468Y189967D01*
X397607Y189879D01*
X397746Y189813D01*
X397881Y189739D01*
X398035Y189678D01*
X398184Y189608D01*
X398330Y189561D01*
X398473Y189504D01*
X398633Y189462D01*
X398790Y189412D01*
X398941Y189383D01*
X399090Y189344D01*
X399254Y189323D01*
X399416Y189292D01*
X399569Y189283D01*
X399722Y189263D01*
X399887Y189263D01*
X400052Y189253D01*
X400205Y189262D01*
G37*
%LPC*%
G36*
X92670Y216943D02*
X92670Y216943D01*
X92238Y217122D01*
X91976Y217212D01*
X91714Y217307D01*
X91674Y217316D01*
X91635Y217329D01*
X91363Y217385D01*
X91092Y217446D01*
X91052Y217450D01*
X91011Y217458D01*
X90991Y217460D01*
X90843Y217628D01*
X89227Y219244D01*
X88419Y221194D01*
X88419Y223306D01*
X89227Y225256D01*
X90720Y226749D01*
X92670Y227557D01*
X94782Y227557D01*
X96732Y226749D01*
X98225Y225256D01*
X99033Y223306D01*
X99033Y221194D01*
X98225Y219244D01*
X96732Y217751D01*
X94782Y216943D01*
X92670Y216943D01*
G37*
%LPD*%
%LPC*%
G36*
X82764Y198909D02*
X82764Y198909D01*
X80814Y199717D01*
X79321Y201210D01*
X78513Y203160D01*
X78513Y205272D01*
X79321Y207222D01*
X80814Y208715D01*
X82764Y209523D01*
X84876Y209523D01*
X85308Y209344D01*
X85570Y209254D01*
X85832Y209159D01*
X85872Y209150D01*
X85911Y209137D01*
X86183Y209081D01*
X86454Y209020D01*
X86494Y209016D01*
X86535Y209008D01*
X86555Y209006D01*
X86703Y208838D01*
X88319Y207222D01*
X89127Y205272D01*
X89127Y203160D01*
X88319Y201210D01*
X86826Y199717D01*
X84876Y198909D01*
X82764Y198909D01*
G37*
%LPD*%
%LPC*%
G36*
X227798Y143283D02*
X227798Y143283D01*
X225848Y144091D01*
X224355Y145584D01*
X223547Y147534D01*
X223547Y149646D01*
X224355Y151596D01*
X225848Y153089D01*
X227798Y153897D01*
X229910Y153897D01*
X231860Y153089D01*
X233353Y151596D01*
X234161Y149646D01*
X234161Y147534D01*
X233353Y145584D01*
X231860Y144091D01*
X229910Y143283D01*
X227798Y143283D01*
G37*
%LPD*%
%LPC*%
G36*
X190714Y131853D02*
X190714Y131853D01*
X188764Y132661D01*
X187271Y134154D01*
X186463Y136104D01*
X186463Y138216D01*
X187271Y140166D01*
X188764Y141659D01*
X190714Y142467D01*
X192826Y142467D01*
X194776Y141659D01*
X196269Y140166D01*
X197077Y138216D01*
X197077Y136104D01*
X196269Y134154D01*
X194776Y132661D01*
X192826Y131853D01*
X190714Y131853D01*
G37*
%LPD*%
%LPC*%
G36*
X366228Y27205D02*
X366228Y27205D01*
X364278Y28013D01*
X362785Y29506D01*
X361977Y31456D01*
X361977Y33568D01*
X362785Y35518D01*
X364278Y37011D01*
X366228Y37819D01*
X368340Y37819D01*
X370290Y37011D01*
X371783Y35518D01*
X372591Y33568D01*
X372591Y31456D01*
X371783Y29506D01*
X370290Y28013D01*
X368340Y27205D01*
X366228Y27205D01*
G37*
%LPD*%
%LPC*%
G36*
X294009Y271779D02*
X294009Y271779D01*
X294009Y271919D01*
X293992Y272196D01*
X293979Y272474D01*
X293972Y272514D01*
X293969Y272555D01*
X293918Y272827D01*
X293870Y273102D01*
X293858Y273141D01*
X293850Y273181D01*
X293764Y273445D01*
X293683Y273711D01*
X293666Y273748D01*
X293653Y273787D01*
X293535Y274039D01*
X293421Y274292D01*
X293400Y274326D01*
X293382Y274363D01*
X293234Y274598D01*
X293089Y274835D01*
X293063Y274867D01*
X293041Y274902D01*
X292864Y275116D01*
X292691Y275333D01*
X292662Y275361D01*
X292636Y275393D01*
X292433Y275584D01*
X292234Y275777D01*
X292201Y275801D01*
X292172Y275829D01*
X291985Y275966D01*
X291993Y275969D01*
X292179Y276046D01*
X292281Y276104D01*
X292388Y276154D01*
X292558Y276261D01*
X292733Y276361D01*
X292827Y276431D01*
X292927Y276494D01*
X293082Y276622D01*
X293243Y276742D01*
X293328Y276824D01*
X293419Y276899D01*
X293557Y277045D01*
X293702Y277185D01*
X293776Y277276D01*
X293856Y277362D01*
X293975Y277524D01*
X294101Y277681D01*
X294163Y277781D01*
X294233Y277876D01*
X294330Y278052D01*
X294436Y278223D01*
X294484Y278330D01*
X294541Y278433D01*
X294613Y278613D01*
X294699Y278803D01*
X294738Y278927D01*
X294784Y279042D01*
X294800Y279092D01*
X295571Y280606D01*
X296569Y281980D01*
X297770Y283181D01*
X299144Y284179D01*
X299721Y284473D01*
X299721Y271779D01*
X294009Y271779D01*
G37*
%LPD*%
%LPC*%
G36*
X299144Y249221D02*
X299144Y249221D01*
X297770Y250219D01*
X296569Y251420D01*
X295571Y252794D01*
X294800Y254308D01*
X294275Y255923D01*
X294009Y257601D01*
X294009Y261621D01*
X299721Y261621D01*
X299721Y248927D01*
X299144Y249221D01*
G37*
%LPD*%
%LPC*%
G36*
X353567Y141223D02*
X353567Y141223D01*
X353567Y146305D01*
X356908Y146305D01*
X358487Y146055D01*
X360008Y145560D01*
X361433Y144834D01*
X362727Y143894D01*
X363858Y142763D01*
X364798Y141469D01*
X364924Y141223D01*
X353567Y141223D01*
G37*
%LPD*%
%LPC*%
G36*
X418591Y141223D02*
X418591Y141223D01*
X418591Y146305D01*
X421932Y146305D01*
X423511Y146055D01*
X425032Y145560D01*
X426457Y144834D01*
X427751Y143894D01*
X428882Y142763D01*
X429822Y141469D01*
X429948Y141223D01*
X418591Y141223D01*
G37*
%LPD*%
%LPC*%
G36*
X418591Y110235D02*
X418591Y110235D01*
X418591Y115317D01*
X421932Y115317D01*
X423511Y115067D01*
X425032Y114572D01*
X426457Y113846D01*
X427751Y112906D01*
X428882Y111775D01*
X429822Y110481D01*
X429948Y110235D01*
X418591Y110235D01*
G37*
%LPD*%
%LPC*%
G36*
X332052Y110235D02*
X332052Y110235D01*
X332178Y110481D01*
X333118Y111775D01*
X334249Y112906D01*
X335543Y113846D01*
X336968Y114572D01*
X338489Y115067D01*
X340068Y115317D01*
X343409Y115317D01*
X343409Y110235D01*
X332052Y110235D01*
G37*
%LPD*%
%LPC*%
G36*
X353567Y125983D02*
X353567Y125983D01*
X353567Y131065D01*
X364924Y131065D01*
X364798Y130819D01*
X363858Y129525D01*
X362727Y128394D01*
X361433Y127454D01*
X360008Y126728D01*
X358487Y126233D01*
X356908Y125983D01*
X353567Y125983D01*
G37*
%LPD*%
%LPC*%
G36*
X418591Y125983D02*
X418591Y125983D01*
X418591Y131065D01*
X429948Y131065D01*
X429822Y130819D01*
X428882Y129525D01*
X427751Y128394D01*
X426457Y127454D01*
X425032Y126728D01*
X423511Y126233D01*
X421932Y125983D01*
X418591Y125983D01*
G37*
%LPD*%
%LPC*%
G36*
X418591Y94995D02*
X418591Y94995D01*
X418591Y100077D01*
X429948Y100077D01*
X429822Y99831D01*
X428882Y98537D01*
X427751Y97406D01*
X426457Y96466D01*
X425032Y95740D01*
X423511Y95245D01*
X421932Y94995D01*
X418591Y94995D01*
G37*
%LPD*%
%LPC*%
G36*
X405092Y94995D02*
X405092Y94995D01*
X403513Y95245D01*
X401992Y95740D01*
X400567Y96466D01*
X399273Y97406D01*
X398142Y98537D01*
X397202Y99831D01*
X397076Y100077D01*
X408433Y100077D01*
X408433Y94995D01*
X405092Y94995D01*
G37*
%LPD*%
D10*
X91300Y69850D03*
X73800Y69850D03*
D11*
X92050Y50800D03*
X73050Y50800D03*
D12*
X471200Y184150D03*
X443200Y184150D03*
D13*
X400050Y236250D03*
X400050Y208250D03*
D14*
X427850Y209800D03*
X450850Y209800D03*
X473850Y209800D03*
D15*
X450850Y272800D03*
D16*
X453550Y107950D03*
D17*
X473550Y107950D03*
D18*
X76050Y91650D03*
X88750Y91650D03*
X101450Y91650D03*
X114150Y91650D03*
X126850Y91650D03*
X139550Y91650D03*
X152250Y91650D03*
X164950Y91650D03*
X177650Y91650D03*
X190350Y91650D03*
X203050Y91650D03*
X215750Y91650D03*
X228450Y91650D03*
X241150Y91650D03*
D19*
X258550Y127150D03*
X258550Y139850D03*
X258550Y152550D03*
X258550Y165250D03*
X258550Y177950D03*
X258550Y190650D03*
X258550Y203350D03*
X258550Y216050D03*
X258550Y228750D03*
X258550Y241450D03*
D18*
X241150Y276650D03*
X228450Y276650D03*
X215750Y276650D03*
X203050Y276650D03*
X190350Y276650D03*
X177650Y276650D03*
X164950Y276650D03*
X152250Y276650D03*
X139550Y276650D03*
X126850Y276650D03*
X114150Y276650D03*
X101450Y276650D03*
X88750Y276650D03*
X76050Y276650D03*
D20*
X153050Y187150D03*
D17*
X72750Y298450D03*
X87750Y298450D03*
X102750Y298450D03*
X117750Y298450D03*
D21*
X19050Y33020D02*
X19050Y17780D01*
X44450Y17780D02*
X44450Y33020D01*
X69850Y33020D02*
X69850Y17780D01*
X95250Y17780D02*
X95250Y33020D01*
X120650Y33020D02*
X120650Y17780D01*
X146050Y17780D02*
X146050Y33020D01*
X171450Y33020D02*
X171450Y17780D01*
X196850Y17780D02*
X196850Y33020D01*
X222250Y33020D02*
X222250Y17780D01*
X247650Y17780D02*
X247650Y33020D01*
X273050Y33020D02*
X273050Y17780D01*
X298450Y17780D02*
X298450Y33020D01*
X323850Y33020D02*
X323850Y17780D01*
D22*
X315350Y82550D03*
X332350Y82550D03*
D23*
X282100Y81600D03*
X282100Y121600D03*
X302100Y81600D03*
X302100Y121600D03*
D24*
X276100Y101600D03*
X308100Y101600D03*
D10*
X299834Y60960D03*
X282334Y60960D03*
D25*
X304800Y258450D02*
X304800Y274950D01*
X330200Y274950D02*
X330200Y258450D01*
X355600Y258450D02*
X355600Y274950D01*
D22*
X374532Y267716D03*
X391532Y267716D03*
D21*
X356108Y181356D02*
X340868Y181356D01*
X340868Y136144D02*
X356108Y136144D01*
X405892Y181356D02*
X421132Y181356D01*
X421132Y136144D02*
X405892Y136144D01*
X405892Y59944D02*
X421132Y59944D01*
X421132Y105156D02*
X405892Y105156D01*
X356108Y59944D02*
X340868Y59944D01*
X340868Y105156D02*
X356108Y105156D01*
X318770Y215900D02*
X303530Y215900D01*
X303530Y190500D02*
X318770Y190500D01*
X318770Y165100D02*
X303530Y165100D01*
X146050Y309880D02*
X146050Y325120D01*
X171450Y325120D02*
X171450Y309880D01*
X196850Y309880D02*
X196850Y325120D01*
X222250Y325120D02*
X222250Y309880D01*
X247650Y309880D02*
X247650Y325120D01*
X273050Y325120D02*
X273050Y309880D01*
X298450Y309880D02*
X298450Y325120D01*
X323850Y325120D02*
X323850Y309880D01*
X349250Y309880D02*
X349250Y325120D01*
X374650Y325120D02*
X374650Y309880D01*
X400050Y309880D02*
X400050Y325120D01*
X425450Y325120D02*
X425450Y309880D01*
X450850Y309880D02*
X450850Y325120D01*
X476250Y325120D02*
X476250Y309880D01*
D26*
X88750Y91650D02*
X88750Y72400D01*
X91300Y69850D01*
X91300Y51550D01*
X92050Y50800D01*
X307145Y47178D02*
X329967Y70000D01*
X307145Y47178D02*
X95672Y47178D01*
X92050Y50800D01*
X332350Y82550D02*
X341748Y91948D01*
X361579Y91948D01*
X385462Y115831D01*
D27*
X330000Y70000D02*
X329967Y70000D01*
X87500Y92500D02*
X85000Y95000D01*
D28*
X85000Y105000D01*
D27*
X87500Y92500D02*
X88750Y91650D01*
D29*
X330000Y70000D03*
X62500Y62500D03*
X85000Y105000D03*
D30*
X62500Y93445D02*
X62500Y62500D01*
X62500Y93445D02*
X62574Y93519D01*
X62574Y302604D02*
X72644Y312674D01*
X62574Y302604D02*
X62574Y93519D01*
X72644Y312674D02*
X104140Y312674D01*
X117750Y299064D01*
X117750Y298450D01*
D26*
X330000Y80200D02*
X330000Y70000D01*
X330000Y80200D02*
X332350Y82550D01*
D31*
X414300Y236250D02*
X450850Y272800D01*
X414300Y236250D02*
X400050Y236250D01*
X450850Y258826D02*
X450850Y209800D01*
X450850Y258826D02*
X450850Y272800D01*
D26*
X400050Y236250D02*
X385462Y221662D01*
X385462Y115831D01*
D32*
X400050Y236250D02*
X400050Y259198D01*
D33*
X424400Y236250D02*
X450850Y209800D01*
X424400Y236250D02*
X400050Y236250D01*
X424400Y236250D02*
X428752Y236250D01*
X435072Y236250D01*
X445008Y226314D01*
X450723Y232029D01*
X437515Y245237D01*
X433197Y245237D01*
X437515Y245491D02*
X450850Y258826D01*
X437515Y245491D02*
X437515Y245237D01*
D32*
X400050Y259198D02*
X391532Y267716D01*
D26*
X428752Y240792D02*
X433197Y245237D01*
X428752Y240792D02*
X428752Y236250D01*
D31*
X478282Y132682D02*
X453550Y107950D01*
X478282Y177068D02*
X471200Y184150D01*
X478282Y177068D02*
X478282Y132682D01*
X471200Y184150D02*
X471200Y207150D01*
X473850Y209800D01*
X473850Y249822D01*
X480696Y313054D02*
X476250Y317500D01*
X480696Y256668D02*
X473850Y249822D01*
X480696Y256668D02*
X480696Y313054D01*
D26*
X427500Y210000D02*
X402500Y210000D01*
D27*
X427500Y210000D02*
X427850Y209800D01*
X402500Y210000D02*
X400050Y208250D01*
D26*
X430000Y197500D02*
X442500Y185000D01*
X430000Y197500D02*
X430000Y207500D01*
D27*
X442500Y185000D02*
X443200Y184150D01*
X430000Y207500D02*
X427850Y209800D01*
X415000Y135000D02*
X415000Y107500D01*
X413512Y105156D01*
X415000Y135000D02*
X413512Y136144D01*
X415000Y155000D02*
X442500Y182500D01*
X415000Y155000D02*
X415000Y137500D01*
X442500Y182500D02*
X443200Y184150D01*
X415000Y137500D02*
X413512Y136144D01*
X310000Y217500D02*
X305000Y222500D01*
X305000Y265000D01*
X310000Y217500D02*
X311150Y215900D01*
X305000Y265000D02*
X304800Y266700D01*
X282500Y80000D02*
X282500Y61253D01*
X282334Y60960D01*
X282500Y80000D02*
X282100Y81600D01*
X277500Y102500D02*
X280000Y105000D01*
X280000Y120000D01*
X277500Y102500D02*
X276100Y101600D01*
X280000Y120000D02*
X282100Y121600D01*
D34*
X280000Y125000D02*
X260000Y125000D01*
D27*
X280000Y125000D02*
X280000Y122500D01*
X260000Y125000D02*
X258550Y127150D01*
X280000Y122500D02*
X282100Y121600D01*
X277500Y85000D02*
X280000Y82500D01*
X277500Y85000D02*
X277500Y100000D01*
X280000Y82500D02*
X282100Y81600D01*
X277500Y100000D02*
X276100Y101600D01*
X330000Y102500D02*
X347500Y102500D01*
X330000Y102500D02*
X310000Y102500D01*
X347500Y102500D02*
X347500Y105000D01*
X348488Y105156D01*
X350000Y107500D02*
X350000Y135000D01*
X348488Y136144D01*
X350000Y107500D02*
X348488Y105156D01*
D32*
X292500Y132500D02*
X282500Y122500D01*
X292500Y132500D02*
X310000Y132500D01*
D27*
X310000Y102500D01*
X282100Y121600D02*
X282500Y122500D01*
X308100Y101600D02*
X310000Y102500D01*
X330000Y197500D02*
X312500Y215000D01*
X330000Y197500D02*
X330000Y102500D01*
X312500Y215000D02*
X311150Y215900D01*
D35*
X75000Y67500D02*
X75000Y52500D01*
D27*
X75000Y67500D02*
X73800Y69850D01*
X75000Y52500D02*
X73050Y50800D01*
D35*
X75000Y70000D02*
X75000Y90000D01*
D27*
X76050Y91650D01*
X75000Y70000D02*
X73800Y69850D01*
X73050Y50800D02*
X72500Y50000D01*
D26*
X75000Y277500D02*
X75000Y297500D01*
D27*
X75000Y277500D02*
X76050Y276650D01*
D26*
X75000Y297500D02*
X72750Y298450D01*
D27*
X77500Y262500D02*
X152500Y187500D01*
X77500Y262500D02*
X77500Y275000D01*
X152500Y187500D02*
X153050Y187150D01*
X77500Y275000D02*
X76050Y276650D01*
D36*
X77500Y110000D02*
X77500Y92500D01*
D27*
X77500Y110000D02*
X153050Y185550D01*
X77500Y92500D02*
X76050Y91650D01*
D36*
X155000Y127500D02*
X257500Y127500D01*
D27*
X155000Y127500D02*
X155000Y185000D01*
X257500Y127500D02*
X258550Y127150D01*
X155000Y185000D02*
X153050Y187150D01*
X153050Y185550D01*
D34*
X400050Y199390D02*
X400050Y208250D01*
X400050Y199390D02*
X395478Y194818D01*
D29*
X395478Y194818D03*
X375412Y194818D03*
D36*
X19050Y34544D02*
X19050Y25400D01*
X19050Y34544D02*
X35306Y50800D01*
X71700Y50800D01*
X72500Y50000D01*
D27*
X137500Y277500D02*
X135000Y280000D01*
D28*
X135000Y285000D01*
X131270Y288730D01*
X111096Y288730D01*
D27*
X137500Y277500D02*
X139550Y276650D01*
D30*
X104238Y297822D02*
X102750Y298450D01*
D28*
X104238Y295588D02*
X111096Y288730D01*
X104238Y295588D02*
X104238Y297822D01*
D27*
X97500Y280000D02*
X100000Y277500D01*
D30*
X97500Y280000D02*
X97500Y290000D01*
X90000Y297500D01*
D27*
X100000Y277500D02*
X101450Y276650D01*
D30*
X90000Y297500D02*
X87750Y298450D01*
D32*
X115000Y275000D02*
X115000Y262500D01*
D27*
X115000Y275000D02*
X114150Y276650D01*
D32*
X280000Y197500D02*
X310000Y167500D01*
X280000Y197500D02*
X280000Y277500D01*
D27*
X310000Y167500D02*
X311150Y165100D01*
D29*
X115000Y262500D03*
X280000Y277500D03*
D27*
X130000Y272500D02*
X127500Y275000D01*
X130000Y272500D02*
X130000Y270000D01*
D32*
X247500Y265000D02*
X255000Y272500D01*
X255000Y312500D01*
X250000Y317500D01*
D27*
X127500Y275000D02*
X126850Y276650D01*
D32*
X247650Y317500D02*
X250000Y317500D01*
D29*
X245000Y220000D03*
D32*
X202184Y220000D02*
X180000Y220000D01*
X202500Y220000D02*
X245000Y220000D01*
X180000Y220000D02*
X130000Y270000D01*
X202500Y220000D02*
X247500Y265000D01*
X202500Y220000D02*
X202184Y220000D01*
X302500Y80000D02*
X302500Y63384D01*
D27*
X300404Y61478D01*
X299834Y60960D01*
X302500Y80000D02*
X302100Y81600D01*
D32*
X302500Y82500D02*
X315000Y82500D01*
D27*
X315350Y82550D01*
X302500Y82500D02*
X302500Y120000D01*
X302100Y121600D01*
X302500Y82500D02*
X302100Y81600D01*
D32*
X102500Y90000D02*
X102500Y62500D01*
D27*
X102500Y90000D02*
X101450Y91650D01*
D29*
X102500Y62500D03*
X291016Y71164D03*
D32*
X300404Y61776D01*
X300404Y61478D01*
X242500Y277500D02*
X247500Y282500D01*
X247500Y290000D01*
D27*
X242500Y277500D02*
X241150Y276650D01*
D32*
X395000Y287500D02*
X425000Y317500D01*
D27*
X425450Y317500D01*
D29*
X247500Y290000D03*
D32*
X335026Y280924D02*
X335026Y271526D01*
X335026Y280924D02*
X341602Y287500D01*
X395000Y287500D01*
X335026Y271526D02*
X330200Y266700D01*
X112500Y90000D02*
X112500Y62500D01*
D27*
X112500Y90000D02*
X114150Y91650D01*
D29*
X112500Y62500D03*
D32*
X125000Y62500D02*
X125000Y90000D01*
D27*
X126850Y91650D01*
D29*
X125000Y62500D03*
D32*
X140000Y62500D02*
X140000Y90000D01*
D27*
X139550Y91650D01*
D29*
X140000Y62500D03*
D32*
X152500Y62500D02*
X152500Y90000D01*
D27*
X152250Y91650D01*
D29*
X152500Y62500D03*
D32*
X165000Y62500D02*
X165000Y90000D01*
D27*
X164950Y91650D01*
D29*
X165000Y62500D03*
D27*
X180214Y89786D02*
X180000Y90000D01*
D32*
X180214Y89786D02*
X180214Y64492D01*
D27*
X180000Y90000D02*
X177650Y91650D01*
D29*
X180214Y64492D03*
D32*
X192206Y70508D02*
X192206Y90226D01*
D27*
X190350Y91650D01*
D29*
X192206Y70508D03*
D32*
X203690Y69746D02*
X203690Y91108D01*
D27*
X203050Y91650D01*
D29*
X203690Y69746D03*
D32*
X216698Y69492D02*
X216698Y90756D01*
D27*
X215750Y91650D01*
D29*
X216698Y69492D03*
D32*
X168476Y271524D02*
X165000Y275000D01*
X168476Y271524D02*
X168476Y262246D01*
X257500Y265000D02*
X297500Y305000D01*
X297500Y317500D01*
D27*
X164950Y276650D02*
X165000Y275000D01*
D32*
X297500Y317500D02*
X298450Y317500D01*
D29*
X168476Y262246D03*
X257500Y265000D03*
D32*
X180468Y274532D02*
X180000Y275000D01*
X180468Y274532D02*
X180468Y259746D01*
D27*
X180000Y275000D02*
X177650Y276650D01*
D29*
X180468Y259746D03*
D32*
X192500Y275000D02*
X192500Y242500D01*
D27*
X192500Y275000D02*
X190350Y276650D01*
D32*
X317500Y287500D02*
X347500Y317500D01*
X317500Y287500D02*
X317500Y235000D01*
D27*
X347500Y317500D02*
X349250Y317500D01*
D29*
X192500Y242500D03*
X317500Y235000D03*
D32*
X202500Y242500D02*
X202500Y275000D01*
D27*
X203050Y276650D01*
D29*
X202500Y242500D03*
D27*
X212500Y272500D02*
X215000Y275000D01*
D32*
X212500Y272500D02*
X212500Y242500D01*
X200000Y230000D01*
X195000Y230000D01*
D27*
X215000Y275000D02*
X215750Y276650D01*
D29*
X195000Y230000D03*
D27*
X92500Y272500D02*
X90000Y275000D01*
D32*
X92500Y272500D02*
X92500Y262500D01*
X142500Y290000D02*
X170000Y317500D01*
D27*
X90000Y275000D02*
X88750Y276650D01*
D32*
X170000Y317500D02*
X171450Y317500D01*
D29*
X92500Y262500D03*
X142500Y290000D03*
D27*
X230000Y90000D02*
X232500Y87500D01*
D32*
X232500Y82500D01*
X252500Y62500D01*
D27*
X230000Y90000D02*
X228450Y91650D01*
D29*
X252500Y62500D03*
D32*
X242500Y92500D02*
X242500Y120000D01*
D27*
X242500Y92500D02*
X241150Y91650D01*
D29*
X242500Y120000D03*
D32*
X357500Y267500D02*
X374114Y267500D01*
D27*
X374532Y267716D01*
X357500Y267500D02*
X355600Y266700D01*
D29*
X83820Y204216D03*
X150368Y228346D03*
X126746Y228854D03*
X93726Y222250D03*
X318516Y133096D03*
X228854Y148590D03*
X191770Y137160D03*
X367284Y32512D03*
M02*
