G04 EAGLE Gerber RS-274X export*
G75*
%MOMM*%
%FSLAX34Y34*%
%LPD*%
%INBottom Copper*%
%IPPOS*%
%AMOC8*
5,1,8,0,0,1.08239X$1,22.5*%
G01*
%ADD10R,1.208000X1.208000*%
%ADD11C,1.208000*%
%ADD12C,1.524000*%
%ADD13C,1.650000*%
%ADD14R,1.080000X1.050000*%
%ADD15R,1.100000X1.000000*%
%ADD16R,1.050000X1.080000*%
%ADD17R,1.000000X1.100000*%
%ADD18R,2.540000X1.270000*%
%ADD19C,0.304800*%
%ADD20C,0.152400*%
%ADD21C,0.756400*%
%ADD22C,0.200000*%
%ADD23C,0.508000*%

G36*
X397302Y10176D02*
X397302Y10176D01*
X397538Y10183D01*
X397619Y10196D01*
X397701Y10201D01*
X397934Y10245D01*
X398168Y10282D01*
X398247Y10305D01*
X398327Y10320D01*
X398552Y10393D01*
X398780Y10459D01*
X398855Y10491D01*
X398933Y10517D01*
X399148Y10617D01*
X399365Y10711D01*
X399436Y10753D01*
X399510Y10788D01*
X399710Y10914D01*
X399914Y11035D01*
X399979Y11085D01*
X400048Y11129D01*
X400231Y11280D01*
X400418Y11424D01*
X400476Y11482D01*
X400539Y11534D01*
X400702Y11707D01*
X400869Y11874D01*
X400920Y11939D01*
X400976Y11998D01*
X401115Y12190D01*
X401261Y12377D01*
X401303Y12447D01*
X401351Y12513D01*
X401465Y12721D01*
X401586Y12925D01*
X401619Y13000D01*
X401658Y13071D01*
X401746Y13291D01*
X401840Y13509D01*
X401863Y13587D01*
X401894Y13664D01*
X401953Y13893D01*
X402020Y14120D01*
X402033Y14201D01*
X402053Y14280D01*
X402083Y14516D01*
X402121Y14749D01*
X402124Y14831D01*
X402134Y14912D01*
X402134Y15150D01*
X402142Y15386D01*
X402135Y15468D01*
X402135Y15550D01*
X402106Y15785D01*
X402084Y16020D01*
X402067Y16100D01*
X402057Y16182D01*
X401998Y16411D01*
X401947Y16643D01*
X401920Y16720D01*
X401899Y16799D01*
X401813Y17020D01*
X401733Y17243D01*
X401696Y17316D01*
X401666Y17392D01*
X401552Y17600D01*
X401446Y17811D01*
X401400Y17879D01*
X401360Y17951D01*
X401222Y18143D01*
X401089Y18339D01*
X401036Y18400D01*
X400987Y18468D01*
X400929Y18529D01*
X397839Y25990D01*
X397839Y34010D01*
X400909Y41420D01*
X403092Y43604D01*
X403222Y43751D01*
X403358Y43891D01*
X403432Y43990D01*
X403514Y44082D01*
X403624Y44244D01*
X403742Y44400D01*
X403803Y44507D01*
X403872Y44609D01*
X403961Y44783D01*
X404058Y44953D01*
X404105Y45067D01*
X404161Y45176D01*
X404228Y45360D01*
X404303Y45541D01*
X404336Y45660D01*
X404377Y45776D01*
X404420Y45967D01*
X404472Y46155D01*
X404490Y46277D01*
X404517Y46397D01*
X404535Y46592D01*
X404563Y46786D01*
X404566Y46909D01*
X404577Y47032D01*
X404571Y47227D01*
X404575Y47423D01*
X404562Y47546D01*
X404558Y47668D01*
X404528Y47862D01*
X404506Y48057D01*
X404478Y48176D01*
X404459Y48298D01*
X404405Y48486D01*
X404359Y48676D01*
X404316Y48792D01*
X404282Y48910D01*
X404204Y49090D01*
X404136Y49273D01*
X404078Y49382D01*
X404030Y49495D01*
X403930Y49664D01*
X403839Y49837D01*
X403769Y49938D01*
X403706Y50044D01*
X403586Y50199D01*
X403474Y50359D01*
X403392Y50451D01*
X403316Y50548D01*
X403178Y50687D01*
X403047Y50832D01*
X402954Y50912D01*
X402867Y50999D01*
X402712Y51120D01*
X402564Y51247D01*
X402461Y51315D01*
X402364Y51391D01*
X402196Y51491D01*
X402032Y51599D01*
X401925Y51652D01*
X401816Y51716D01*
X401621Y51801D01*
X401444Y51888D01*
X400712Y52191D01*
X398068Y54835D01*
X398058Y54856D01*
X397996Y54951D01*
X397941Y55051D01*
X397821Y55217D01*
X397708Y55389D01*
X397634Y55475D01*
X397568Y55568D01*
X397428Y55717D01*
X397295Y55873D01*
X397210Y55950D01*
X397133Y56033D01*
X396975Y56164D01*
X396824Y56302D01*
X396731Y56368D01*
X396643Y56441D01*
X396470Y56551D01*
X396303Y56669D01*
X396202Y56722D01*
X396106Y56784D01*
X395921Y56871D01*
X395740Y56968D01*
X395633Y57008D01*
X395530Y57057D01*
X395336Y57121D01*
X395144Y57193D01*
X395033Y57220D01*
X394925Y57256D01*
X394724Y57295D01*
X394525Y57343D01*
X394412Y57355D01*
X394300Y57377D01*
X394103Y57390D01*
X393891Y57413D01*
X393766Y57412D01*
X393646Y57419D01*
X368354Y57419D01*
X368240Y57412D01*
X368126Y57414D01*
X367923Y57392D01*
X367718Y57379D01*
X367606Y57358D01*
X367493Y57346D01*
X367293Y57298D01*
X367092Y57260D01*
X366984Y57225D01*
X366873Y57198D01*
X366681Y57127D01*
X366486Y57063D01*
X366383Y57015D01*
X366276Y56975D01*
X366095Y56879D01*
X365910Y56792D01*
X365814Y56731D01*
X365713Y56678D01*
X365545Y56561D01*
X365372Y56451D01*
X365284Y56379D01*
X365190Y56313D01*
X365038Y56176D01*
X364880Y56046D01*
X364802Y55963D01*
X364718Y55886D01*
X364584Y55731D01*
X364444Y55582D01*
X364377Y55489D01*
X364302Y55403D01*
X364189Y55232D01*
X364069Y55067D01*
X364014Y54967D01*
X363951Y54871D01*
X363934Y54837D01*
X361288Y52191D01*
X357927Y50799D01*
X339049Y50799D01*
X335688Y52191D01*
X333115Y54764D01*
X331723Y58125D01*
X331723Y60148D01*
X331716Y60262D01*
X331718Y60376D01*
X331696Y60580D01*
X331683Y60784D01*
X331662Y60896D01*
X331650Y61010D01*
X331602Y61209D01*
X331564Y61410D01*
X331529Y61518D01*
X331503Y61629D01*
X331431Y61821D01*
X331367Y62016D01*
X331319Y62119D01*
X331279Y62226D01*
X331184Y62407D01*
X331096Y62593D01*
X331035Y62689D01*
X330982Y62790D01*
X330865Y62958D01*
X330755Y63131D01*
X330683Y63219D01*
X330617Y63312D01*
X330480Y63464D01*
X330350Y63622D01*
X330267Y63700D01*
X330190Y63785D01*
X330035Y63918D01*
X329886Y64059D01*
X329793Y64126D01*
X329707Y64200D01*
X329536Y64313D01*
X329371Y64434D01*
X329271Y64489D01*
X329176Y64552D01*
X328999Y64639D01*
X328813Y64741D01*
X328696Y64788D01*
X328588Y64841D01*
X326994Y65501D01*
X325501Y66994D01*
X324693Y68944D01*
X324693Y71056D01*
X325501Y73006D01*
X325988Y73492D01*
X326036Y73547D01*
X326089Y73597D01*
X326246Y73786D01*
X326409Y73970D01*
X326450Y74031D01*
X326497Y74087D01*
X326629Y74294D01*
X326767Y74497D01*
X326800Y74562D01*
X326840Y74624D01*
X326945Y74846D01*
X327057Y75065D01*
X327081Y75133D01*
X327113Y75199D01*
X327189Y75433D01*
X327273Y75664D01*
X327289Y75735D01*
X327312Y75805D01*
X327358Y76046D01*
X327412Y76286D01*
X327419Y76358D01*
X327433Y76430D01*
X327448Y76662D01*
X327473Y76920D01*
X327470Y77004D01*
X327475Y77084D01*
X327475Y111246D01*
X327860Y112174D01*
X329284Y113599D01*
X335737Y120052D01*
X335893Y120228D01*
X336054Y120399D01*
X336103Y120467D01*
X336159Y120530D01*
X336291Y120724D01*
X336429Y120914D01*
X336470Y120987D01*
X336517Y121057D01*
X336624Y121266D01*
X336737Y121472D01*
X336768Y121550D01*
X336806Y121624D01*
X336886Y121845D01*
X336973Y122064D01*
X336994Y122145D01*
X337023Y122224D01*
X337074Y122453D01*
X337133Y122680D01*
X337144Y122764D01*
X337162Y122845D01*
X337184Y123079D01*
X337214Y123312D01*
X337214Y123396D01*
X337222Y123480D01*
X337215Y123714D01*
X337216Y123949D01*
X337206Y124033D01*
X337203Y124116D01*
X337167Y124348D01*
X337138Y124582D01*
X337117Y124663D01*
X337104Y124746D01*
X337039Y124971D01*
X336981Y125199D01*
X336950Y125277D01*
X336927Y125358D01*
X336834Y125574D01*
X336748Y125792D01*
X336708Y125866D01*
X336675Y125943D01*
X336555Y126146D01*
X336443Y126352D01*
X336394Y126420D01*
X336351Y126492D01*
X336208Y126678D01*
X336070Y126868D01*
X336013Y126930D01*
X335962Y126996D01*
X335796Y127162D01*
X335635Y127334D01*
X335572Y127387D01*
X335512Y127447D01*
X335309Y127605D01*
X335131Y127753D01*
X334249Y128394D01*
X333118Y129525D01*
X332079Y130954D01*
X331968Y131143D01*
X331945Y131172D01*
X331925Y131204D01*
X331750Y131424D01*
X331577Y131646D01*
X331551Y131673D01*
X331527Y131702D01*
X331326Y131898D01*
X331127Y132097D01*
X331097Y132120D01*
X331070Y132146D01*
X330845Y132316D01*
X330624Y132488D01*
X330592Y132507D01*
X330562Y132529D01*
X330318Y132669D01*
X330076Y132812D01*
X330041Y132827D01*
X330009Y132846D01*
X329750Y132954D01*
X329491Y133066D01*
X329455Y133076D01*
X329420Y133091D01*
X329150Y133165D01*
X328880Y133244D01*
X328842Y133250D01*
X328806Y133260D01*
X328527Y133300D01*
X328250Y133345D01*
X328213Y133346D01*
X328176Y133351D01*
X327894Y133356D01*
X327614Y133365D01*
X327576Y133362D01*
X327539Y133363D01*
X327259Y133332D01*
X326979Y133306D01*
X326942Y133298D01*
X326905Y133294D01*
X326631Y133229D01*
X326357Y133168D01*
X326322Y133156D01*
X326285Y133147D01*
X326021Y133048D01*
X325757Y132954D01*
X325724Y132937D01*
X325689Y132923D01*
X325439Y132792D01*
X325189Y132665D01*
X325158Y132644D01*
X325125Y132627D01*
X324895Y132466D01*
X324661Y132308D01*
X324633Y132283D01*
X324602Y132262D01*
X324394Y132073D01*
X324183Y131888D01*
X324158Y131860D01*
X324130Y131835D01*
X323946Y131620D01*
X323760Y131411D01*
X323739Y131380D01*
X323715Y131351D01*
X323560Y131117D01*
X323401Y130885D01*
X323384Y130851D01*
X323363Y130820D01*
X323253Y130596D01*
X323110Y130318D01*
X323094Y130273D01*
X323074Y130232D01*
X323015Y130090D01*
X321522Y128597D01*
X319572Y127789D01*
X317460Y127789D01*
X315510Y128597D01*
X314017Y130090D01*
X313209Y132040D01*
X313209Y134152D01*
X314017Y136102D01*
X315510Y137595D01*
X317460Y138403D01*
X319572Y138403D01*
X321522Y137595D01*
X322555Y136562D01*
X322612Y136511D01*
X322665Y136455D01*
X322851Y136301D01*
X323033Y136141D01*
X323096Y136097D01*
X323155Y136049D01*
X323359Y135918D01*
X323560Y135782D01*
X323628Y135747D01*
X323693Y135706D01*
X323911Y135603D01*
X324127Y135493D01*
X324200Y135467D01*
X324269Y135434D01*
X324499Y135359D01*
X324727Y135277D01*
X324801Y135260D01*
X324874Y135236D01*
X325112Y135190D01*
X325348Y135137D01*
X325425Y135130D01*
X325500Y135116D01*
X325742Y135100D01*
X325983Y135077D01*
X326059Y135079D01*
X326136Y135074D01*
X326378Y135089D01*
X326619Y135096D01*
X326695Y135108D01*
X326772Y135113D01*
X327010Y135158D01*
X327249Y135195D01*
X327322Y135217D01*
X327398Y135231D01*
X327628Y135305D01*
X327861Y135372D01*
X327931Y135403D01*
X328004Y135426D01*
X328224Y135529D01*
X328446Y135625D01*
X328512Y135664D01*
X328581Y135696D01*
X328786Y135825D01*
X328995Y135948D01*
X329056Y135995D01*
X329120Y136036D01*
X329307Y136189D01*
X329499Y136338D01*
X329553Y136392D01*
X329612Y136441D01*
X329779Y136616D01*
X329950Y136787D01*
X329997Y136848D01*
X330050Y136904D01*
X330193Y137099D01*
X330342Y137290D01*
X330381Y137356D01*
X330426Y137418D01*
X330543Y137630D01*
X330667Y137838D01*
X330698Y137908D01*
X330735Y137975D01*
X330820Y138188D01*
X330922Y138422D01*
X330946Y138506D01*
X330977Y138584D01*
X331452Y140045D01*
X332178Y141469D01*
X333118Y142763D01*
X334249Y143894D01*
X335543Y144834D01*
X336968Y145560D01*
X338489Y146055D01*
X340068Y146305D01*
X343409Y146305D01*
X343409Y136144D01*
X343418Y135990D01*
X343418Y135835D01*
X343438Y135672D01*
X343449Y135508D01*
X343477Y135357D01*
X343497Y135203D01*
X343537Y135043D01*
X343568Y134883D01*
X343616Y134735D01*
X343654Y134585D01*
X343714Y134433D01*
X343764Y134277D01*
X343830Y134136D01*
X343887Y133992D01*
X343966Y133848D01*
X344035Y133700D01*
X344118Y133569D01*
X344193Y133433D01*
X344289Y133300D01*
X344376Y133162D01*
X344475Y133042D01*
X344566Y132917D01*
X344678Y132797D01*
X344782Y132671D01*
X344895Y132564D01*
X345001Y132451D01*
X345127Y132346D01*
X345246Y132234D01*
X345372Y132143D01*
X345491Y132044D01*
X345629Y131955D01*
X345761Y131859D01*
X345897Y131784D01*
X346028Y131701D01*
X346176Y131630D01*
X346319Y131551D01*
X346463Y131494D01*
X346603Y131428D01*
X346759Y131376D01*
X346911Y131316D01*
X347061Y131277D01*
X347209Y131229D01*
X347369Y131198D01*
X347528Y131157D01*
X347682Y131137D01*
X347834Y131107D01*
X347993Y131097D01*
X348160Y131076D01*
X348329Y131075D01*
X348488Y131065D01*
X348643Y131075D01*
X348797Y131075D01*
X348798Y131075D01*
X348961Y131095D01*
X349124Y131105D01*
X349276Y131134D01*
X349430Y131153D01*
X349589Y131194D01*
X349750Y131224D01*
X349897Y131272D01*
X350047Y131310D01*
X350200Y131370D01*
X350356Y131421D01*
X350496Y131487D01*
X350640Y131544D01*
X350784Y131622D01*
X350933Y131692D01*
X351063Y131775D01*
X351199Y131849D01*
X351332Y131945D01*
X351471Y132033D01*
X351590Y132132D01*
X351716Y132222D01*
X351835Y132334D01*
X351962Y132439D01*
X352068Y132552D01*
X352181Y132657D01*
X352286Y132783D01*
X352399Y132903D01*
X352490Y133028D01*
X352589Y133147D01*
X352677Y133285D01*
X352774Y133418D01*
X352848Y133553D01*
X352932Y133684D01*
X353002Y133832D01*
X353081Y133976D01*
X353138Y134120D01*
X353205Y134260D01*
X353256Y134415D01*
X353317Y134568D01*
X353355Y134718D01*
X353404Y134865D01*
X353435Y135026D01*
X353476Y135185D01*
X353496Y135338D01*
X353525Y135490D01*
X353535Y135649D01*
X353557Y135817D01*
X353557Y135985D01*
X353567Y136144D01*
X353567Y146305D01*
X356908Y146305D01*
X358487Y146055D01*
X360008Y145560D01*
X361433Y144834D01*
X362727Y143894D01*
X363858Y142763D01*
X364798Y141469D01*
X365524Y140045D01*
X366058Y138401D01*
X366086Y138330D01*
X366108Y138256D01*
X366204Y138034D01*
X366293Y137809D01*
X366330Y137741D01*
X366360Y137671D01*
X366483Y137462D01*
X366600Y137250D01*
X366645Y137188D01*
X366683Y137122D01*
X366832Y136930D01*
X366974Y136735D01*
X367026Y136679D01*
X367073Y136618D01*
X367244Y136447D01*
X367410Y136270D01*
X367469Y136221D01*
X367523Y136167D01*
X367714Y136018D01*
X367900Y135864D01*
X367965Y135822D01*
X368026Y135775D01*
X368234Y135652D01*
X368438Y135522D01*
X368507Y135489D01*
X368573Y135450D01*
X368795Y135353D01*
X369014Y135250D01*
X369087Y135226D01*
X369157Y135196D01*
X369390Y135128D01*
X369620Y135052D01*
X369695Y135038D01*
X369769Y135016D01*
X370008Y134978D01*
X370246Y134932D01*
X370322Y134927D01*
X370398Y134915D01*
X370640Y134907D01*
X370882Y134891D01*
X370958Y134896D01*
X371035Y134893D01*
X371276Y134916D01*
X371518Y134930D01*
X371593Y134945D01*
X371669Y134952D01*
X371906Y135004D01*
X372144Y135049D01*
X372217Y135072D01*
X372291Y135089D01*
X372519Y135170D01*
X372750Y135245D01*
X372819Y135277D01*
X372891Y135303D01*
X373108Y135412D01*
X373327Y135515D01*
X373392Y135556D01*
X373460Y135590D01*
X373661Y135726D01*
X373866Y135855D01*
X373925Y135904D01*
X373988Y135947D01*
X374160Y136097D01*
X374357Y136260D01*
X374417Y136324D01*
X374480Y136379D01*
X382648Y144546D01*
X382696Y144601D01*
X382749Y144651D01*
X382907Y144840D01*
X383069Y145024D01*
X383110Y145084D01*
X383157Y145140D01*
X383289Y145348D01*
X383427Y145551D01*
X383460Y145616D01*
X383500Y145677D01*
X383605Y145899D01*
X383717Y146118D01*
X383741Y146187D01*
X383773Y146253D01*
X383849Y146487D01*
X383933Y146718D01*
X383949Y146789D01*
X383972Y146858D01*
X384018Y147100D01*
X384072Y147340D01*
X384079Y147412D01*
X384093Y147484D01*
X384108Y147715D01*
X384133Y147974D01*
X384130Y148057D01*
X384135Y148138D01*
X384135Y151055D01*
X384134Y151071D01*
X384135Y151087D01*
X384114Y151391D01*
X384095Y151691D01*
X384092Y151706D01*
X384091Y151722D01*
X384033Y152020D01*
X383976Y152317D01*
X383971Y152332D01*
X383968Y152348D01*
X383873Y152634D01*
X383779Y152923D01*
X383773Y152937D01*
X383768Y152952D01*
X383637Y153226D01*
X383508Y153499D01*
X383500Y153513D01*
X383493Y153527D01*
X383330Y153780D01*
X383167Y154037D01*
X383157Y154050D01*
X383148Y154063D01*
X382954Y154295D01*
X382762Y154529D01*
X382750Y154540D01*
X382740Y154552D01*
X382517Y154758D01*
X382298Y154965D01*
X382285Y154975D01*
X382273Y154986D01*
X382028Y155162D01*
X381783Y155340D01*
X381768Y155348D01*
X381755Y155357D01*
X381488Y155503D01*
X381225Y155648D01*
X381210Y155654D01*
X381196Y155661D01*
X380913Y155772D01*
X380632Y155883D01*
X380617Y155887D01*
X380602Y155893D01*
X380309Y155967D01*
X380016Y156043D01*
X380000Y156045D01*
X379984Y156049D01*
X379687Y156085D01*
X379384Y156123D01*
X379367Y156124D01*
X379352Y156125D01*
X379052Y156124D01*
X378746Y156125D01*
X378730Y156123D01*
X378715Y156123D01*
X378482Y156092D01*
X378114Y156046D01*
X378089Y156040D01*
X378065Y156036D01*
X377506Y155925D01*
X376935Y155925D01*
X376935Y163716D01*
X376926Y163870D01*
X376926Y164025D01*
X376906Y164188D01*
X376895Y164352D01*
X376866Y164503D01*
X376847Y164657D01*
X376807Y164817D01*
X376776Y164977D01*
X376728Y165125D01*
X376690Y165275D01*
X376630Y165427D01*
X376580Y165583D01*
X376514Y165724D01*
X376457Y165868D01*
X376378Y166012D01*
X376309Y166160D01*
X376226Y166291D01*
X376151Y166427D01*
X376055Y166560D01*
X375967Y166698D01*
X375869Y166818D01*
X375778Y166943D01*
X375666Y167063D01*
X375562Y167189D01*
X375561Y167190D01*
X375449Y167296D01*
X375343Y167409D01*
X375217Y167514D01*
X375097Y167627D01*
X374972Y167718D01*
X374853Y167817D01*
X374715Y167905D01*
X374582Y168002D01*
X374447Y168076D01*
X374316Y168160D01*
X374168Y168230D01*
X374024Y168309D01*
X373880Y168366D01*
X373740Y168433D01*
X373584Y168484D01*
X373432Y168545D01*
X373282Y168583D01*
X373135Y168632D01*
X372974Y168663D01*
X372815Y168704D01*
X372662Y168724D01*
X372510Y168753D01*
X372351Y168763D01*
X372183Y168785D01*
X372015Y168785D01*
X371856Y168795D01*
X363629Y168795D01*
X363610Y168844D01*
X363559Y169000D01*
X363494Y169140D01*
X363437Y169284D01*
X363358Y169428D01*
X363288Y169576D01*
X363206Y169707D01*
X363131Y169843D01*
X363035Y169976D01*
X362947Y170115D01*
X362849Y170234D01*
X362758Y170360D01*
X362646Y170479D01*
X362542Y170606D01*
X362429Y170712D01*
X362323Y170825D01*
X362197Y170930D01*
X362078Y171042D01*
X361952Y171134D01*
X361833Y171233D01*
X361695Y171321D01*
X361563Y171417D01*
X361427Y171492D01*
X361296Y171576D01*
X361148Y171646D01*
X361005Y171725D01*
X360861Y171782D01*
X360721Y171849D01*
X360565Y171900D01*
X360413Y171960D01*
X360262Y171999D01*
X360115Y172048D01*
X359955Y172079D01*
X359796Y172120D01*
X359642Y172139D01*
X359490Y172169D01*
X359331Y172179D01*
X359164Y172201D01*
X358995Y172201D01*
X358836Y172211D01*
X339049Y172211D01*
X335673Y173610D01*
X335539Y173727D01*
X335334Y173914D01*
X335301Y173938D01*
X335270Y173965D01*
X335040Y174122D01*
X334813Y174281D01*
X334777Y174300D01*
X334743Y174323D01*
X334495Y174450D01*
X334250Y174580D01*
X334212Y174594D01*
X334175Y174613D01*
X333914Y174707D01*
X333654Y174805D01*
X333615Y174815D01*
X333576Y174829D01*
X333306Y174890D01*
X333035Y174955D01*
X332994Y174959D01*
X332954Y174968D01*
X332679Y174995D01*
X332402Y175026D01*
X332361Y175025D01*
X332320Y175029D01*
X332043Y175020D01*
X331765Y175016D01*
X331724Y175011D01*
X331683Y175009D01*
X331408Y174966D01*
X331134Y174928D01*
X331094Y174917D01*
X331054Y174910D01*
X330787Y174833D01*
X330519Y174760D01*
X330481Y174745D01*
X330442Y174733D01*
X330186Y174623D01*
X329930Y174518D01*
X329895Y174498D01*
X329857Y174481D01*
X329617Y174340D01*
X329376Y174203D01*
X329343Y174178D01*
X329308Y174158D01*
X329089Y173988D01*
X328866Y173822D01*
X328836Y173793D01*
X328804Y173768D01*
X328608Y173573D01*
X328407Y173379D01*
X328381Y173347D01*
X328352Y173318D01*
X328182Y173100D01*
X328008Y172883D01*
X327986Y172848D01*
X327961Y172816D01*
X327819Y172577D01*
X327673Y172340D01*
X327656Y172303D01*
X327635Y172268D01*
X327524Y172012D01*
X327410Y171760D01*
X327398Y171721D01*
X327381Y171684D01*
X327303Y171416D01*
X327221Y171152D01*
X327213Y171112D01*
X327202Y171072D01*
X327158Y170798D01*
X327109Y170525D01*
X327107Y170484D01*
X327101Y170443D01*
X327091Y170166D01*
X327077Y169888D01*
X327080Y169847D01*
X327079Y169807D01*
X327104Y169531D01*
X327125Y169253D01*
X327133Y169213D01*
X327137Y169172D01*
X327197Y168901D01*
X327252Y168629D01*
X327265Y168591D01*
X327274Y168550D01*
X327383Y168246D01*
X327463Y168008D01*
X327915Y166919D01*
X327915Y163281D01*
X326523Y159920D01*
X323950Y157347D01*
X320589Y155955D01*
X301711Y155955D01*
X298350Y157347D01*
X295762Y159935D01*
X295734Y159993D01*
X295656Y160173D01*
X295594Y160279D01*
X295540Y160390D01*
X295432Y160553D01*
X295333Y160722D01*
X295257Y160819D01*
X295190Y160922D01*
X295063Y161071D01*
X294943Y161226D01*
X294856Y161313D01*
X294776Y161407D01*
X294632Y161539D01*
X294493Y161677D01*
X294396Y161753D01*
X294305Y161836D01*
X294145Y161948D01*
X293991Y162069D01*
X293885Y162132D01*
X293784Y162203D01*
X293611Y162294D01*
X293443Y162394D01*
X293330Y162443D01*
X293222Y162501D01*
X293039Y162570D01*
X292859Y162649D01*
X292741Y162683D01*
X292626Y162727D01*
X292435Y162773D01*
X292247Y162828D01*
X292126Y162847D01*
X292006Y162876D01*
X291812Y162898D01*
X291618Y162929D01*
X291495Y162933D01*
X291373Y162947D01*
X291178Y162944D01*
X290982Y162951D01*
X290859Y162940D01*
X290736Y162938D01*
X290542Y162911D01*
X290347Y162893D01*
X290227Y162866D01*
X290105Y162849D01*
X289916Y162798D01*
X289725Y162755D01*
X289609Y162714D01*
X289490Y162682D01*
X289309Y162607D01*
X289125Y162541D01*
X289015Y162486D01*
X288901Y162439D01*
X288731Y162342D01*
X288556Y162254D01*
X288454Y162185D01*
X288347Y162125D01*
X288190Y162007D01*
X288028Y161898D01*
X287938Y161818D01*
X287837Y161743D01*
X287684Y161595D01*
X287536Y161465D01*
X249294Y123224D01*
X249246Y123169D01*
X249193Y123119D01*
X249035Y122930D01*
X248873Y122746D01*
X248832Y122686D01*
X248785Y122630D01*
X248653Y122422D01*
X248515Y122219D01*
X248482Y122154D01*
X248442Y122093D01*
X248337Y121870D01*
X248225Y121652D01*
X248201Y121583D01*
X248169Y121517D01*
X248092Y121283D01*
X248009Y121052D01*
X247993Y120981D01*
X247970Y120912D01*
X247924Y120670D01*
X247870Y120430D01*
X247863Y120358D01*
X247849Y120286D01*
X247834Y120055D01*
X247809Y119796D01*
X247812Y119713D01*
X247807Y119632D01*
X247807Y118944D01*
X246999Y116994D01*
X245506Y115501D01*
X243556Y114693D01*
X241444Y114693D01*
X239494Y115501D01*
X238001Y116994D01*
X237193Y118944D01*
X237193Y121056D01*
X238001Y123006D01*
X239494Y124499D01*
X241444Y125307D01*
X242132Y125307D01*
X242205Y125311D01*
X242278Y125309D01*
X242523Y125331D01*
X242768Y125347D01*
X242840Y125360D01*
X242913Y125367D01*
X243153Y125420D01*
X243394Y125466D01*
X243464Y125489D01*
X243535Y125504D01*
X243766Y125587D01*
X244000Y125663D01*
X244066Y125694D01*
X244135Y125718D01*
X244354Y125829D01*
X244577Y125934D01*
X244638Y125973D01*
X244703Y126006D01*
X244907Y126143D01*
X245115Y126275D01*
X245171Y126321D01*
X245232Y126362D01*
X245405Y126515D01*
X245606Y126680D01*
X245663Y126741D01*
X245724Y126794D01*
X296422Y177492D01*
X296524Y177609D01*
X296634Y177718D01*
X296735Y177847D01*
X296843Y177970D01*
X296930Y178098D01*
X297026Y178221D01*
X297109Y178362D01*
X297201Y178497D01*
X297272Y178635D01*
X297351Y178768D01*
X297416Y178918D01*
X297491Y179065D01*
X297544Y179211D01*
X297605Y179353D01*
X297651Y179510D01*
X297707Y179664D01*
X297741Y179815D01*
X297785Y179964D01*
X297811Y180126D01*
X297846Y180286D01*
X297861Y180440D01*
X297886Y180593D01*
X297891Y180757D01*
X297907Y180920D01*
X297902Y181075D01*
X297907Y181230D01*
X297892Y181393D01*
X297887Y181557D01*
X297863Y181710D01*
X297849Y181864D01*
X297814Y182024D01*
X297788Y182186D01*
X297745Y182335D01*
X297712Y182486D01*
X297657Y182640D01*
X297611Y182798D01*
X297550Y182941D01*
X297498Y183087D01*
X297424Y183233D01*
X297359Y183383D01*
X297280Y183517D01*
X297211Y183655D01*
X297119Y183791D01*
X297036Y183932D01*
X296941Y184055D01*
X296854Y184183D01*
X296749Y184303D01*
X296646Y184436D01*
X296527Y184556D01*
X296422Y184676D01*
X295777Y185320D01*
X294385Y188681D01*
X294385Y192319D01*
X295777Y195680D01*
X295922Y195824D01*
X296024Y195941D01*
X296134Y196050D01*
X296235Y196179D01*
X296343Y196302D01*
X296430Y196430D01*
X296526Y196553D01*
X296609Y196694D01*
X296701Y196829D01*
X296772Y196967D01*
X296851Y197100D01*
X296916Y197251D01*
X296991Y197397D01*
X297043Y197542D01*
X297105Y197685D01*
X297151Y197842D01*
X297207Y197996D01*
X297241Y198147D01*
X297285Y198296D01*
X297311Y198458D01*
X297346Y198618D01*
X297361Y198772D01*
X297386Y198925D01*
X297391Y199089D01*
X297407Y199252D01*
X297402Y199407D01*
X297407Y199562D01*
X297392Y199725D01*
X297387Y199889D01*
X297363Y200042D01*
X297349Y200196D01*
X297314Y200356D01*
X297289Y200518D01*
X297245Y200667D01*
X297212Y200818D01*
X297157Y200972D01*
X297112Y201130D01*
X297050Y201273D01*
X296998Y201419D01*
X296924Y201565D01*
X296859Y201715D01*
X296781Y201849D01*
X296711Y201987D01*
X296619Y202123D01*
X296536Y202264D01*
X296441Y202387D01*
X296354Y202515D01*
X296249Y202635D01*
X296146Y202768D01*
X296027Y202888D01*
X295922Y203008D01*
X282942Y215988D01*
X282887Y216036D01*
X282837Y216089D01*
X282648Y216247D01*
X282464Y216409D01*
X282404Y216450D01*
X282348Y216497D01*
X282140Y216629D01*
X281937Y216767D01*
X281872Y216800D01*
X281811Y216840D01*
X281589Y216945D01*
X281370Y217057D01*
X281301Y217081D01*
X281235Y217113D01*
X281001Y217189D01*
X280770Y217273D01*
X280699Y217289D01*
X280630Y217312D01*
X280388Y217358D01*
X280148Y217412D01*
X280076Y217419D01*
X280004Y217433D01*
X279773Y217448D01*
X279514Y217473D01*
X279431Y217470D01*
X279350Y217475D01*
X252084Y217475D01*
X252011Y217471D01*
X251938Y217473D01*
X251693Y217451D01*
X251448Y217435D01*
X251377Y217422D01*
X251304Y217415D01*
X251064Y217362D01*
X250822Y217316D01*
X250753Y217293D01*
X250682Y217278D01*
X250451Y217195D01*
X250216Y217119D01*
X250150Y217088D01*
X250081Y217064D01*
X249862Y216953D01*
X249640Y216848D01*
X249578Y216809D01*
X249513Y216776D01*
X249309Y216639D01*
X249101Y216507D01*
X249045Y216461D01*
X248985Y216420D01*
X248811Y216267D01*
X248610Y216102D01*
X248553Y216041D01*
X248492Y215988D01*
X248006Y215501D01*
X246056Y214693D01*
X243944Y214693D01*
X241994Y215501D01*
X240501Y216994D01*
X239693Y218944D01*
X239693Y219896D01*
X239684Y220051D01*
X239684Y220206D01*
X239664Y220368D01*
X239653Y220532D01*
X239624Y220684D01*
X239605Y220838D01*
X239565Y220997D01*
X239534Y221158D01*
X239486Y221305D01*
X239448Y221455D01*
X239388Y221608D01*
X239337Y221764D01*
X239272Y221904D01*
X239215Y222048D01*
X239136Y222192D01*
X239066Y222340D01*
X238984Y222471D01*
X238909Y222607D01*
X238813Y222740D01*
X238725Y222879D01*
X238627Y222998D01*
X238536Y223124D01*
X238424Y223243D01*
X238320Y223370D01*
X238207Y223476D01*
X238101Y223589D01*
X237975Y223694D01*
X237856Y223806D01*
X237730Y223898D01*
X237611Y223997D01*
X237473Y224085D01*
X237341Y224181D01*
X237205Y224256D01*
X237074Y224340D01*
X236926Y224410D01*
X236783Y224489D01*
X236639Y224546D01*
X236499Y224613D01*
X236343Y224664D01*
X236190Y224724D01*
X236040Y224763D01*
X235893Y224812D01*
X235732Y224843D01*
X235574Y224884D01*
X235420Y224903D01*
X235268Y224933D01*
X235109Y224943D01*
X234942Y224965D01*
X234773Y224965D01*
X234614Y224975D01*
X197747Y224975D01*
X197715Y224973D01*
X197683Y224975D01*
X197397Y224953D01*
X197111Y224935D01*
X197080Y224929D01*
X197048Y224927D01*
X196766Y224870D01*
X196485Y224816D01*
X196455Y224806D01*
X196423Y224800D01*
X196186Y224719D01*
X196107Y224693D01*
X193944Y224693D01*
X191994Y225501D01*
X190501Y226994D01*
X189693Y228944D01*
X189693Y231056D01*
X190370Y232690D01*
X190407Y232798D01*
X190453Y232903D01*
X190510Y233099D01*
X190577Y233293D01*
X190600Y233405D01*
X190632Y233514D01*
X190665Y233716D01*
X190706Y233917D01*
X190715Y234031D01*
X190733Y234143D01*
X190740Y234348D01*
X190756Y234552D01*
X190751Y234666D01*
X190755Y234780D01*
X190736Y234984D01*
X190727Y235189D01*
X190707Y235301D01*
X190697Y235414D01*
X190653Y235615D01*
X190618Y235816D01*
X190584Y235925D01*
X190560Y236037D01*
X190491Y236229D01*
X190431Y236425D01*
X190384Y236530D01*
X190346Y236637D01*
X190253Y236820D01*
X190169Y237006D01*
X190110Y237104D01*
X190058Y237205D01*
X189944Y237375D01*
X189837Y237550D01*
X189765Y237639D01*
X189702Y237734D01*
X189572Y237881D01*
X189439Y238048D01*
X189349Y238135D01*
X189269Y238226D01*
X188001Y239494D01*
X187193Y241444D01*
X187193Y243556D01*
X187621Y244588D01*
X187658Y244696D01*
X187703Y244801D01*
X187761Y244997D01*
X187827Y245191D01*
X187851Y245303D01*
X187883Y245412D01*
X187915Y245614D01*
X187957Y245815D01*
X187966Y245928D01*
X187984Y246041D01*
X187991Y246246D01*
X188007Y246450D01*
X188002Y246564D01*
X188006Y246678D01*
X187987Y246882D01*
X187977Y247086D01*
X187958Y247199D01*
X187947Y247312D01*
X187903Y247512D01*
X187868Y247714D01*
X187835Y247823D01*
X187810Y247934D01*
X187741Y248127D01*
X187681Y248323D01*
X187634Y248427D01*
X187596Y248535D01*
X187504Y248717D01*
X187420Y248904D01*
X187360Y249001D01*
X187309Y249103D01*
X187194Y249273D01*
X187087Y249448D01*
X187016Y249537D01*
X186952Y249631D01*
X186822Y249779D01*
X186690Y249945D01*
X186599Y250033D01*
X186520Y250124D01*
X183692Y252952D01*
X183637Y253000D01*
X183587Y253053D01*
X183398Y253211D01*
X183214Y253373D01*
X183154Y253414D01*
X183098Y253461D01*
X182890Y253593D01*
X182687Y253731D01*
X182622Y253764D01*
X182561Y253804D01*
X182339Y253909D01*
X182120Y254021D01*
X182051Y254045D01*
X181985Y254077D01*
X181751Y254153D01*
X181520Y254237D01*
X181449Y254253D01*
X181380Y254276D01*
X181138Y254322D01*
X180898Y254376D01*
X180826Y254383D01*
X180754Y254397D01*
X180523Y254412D01*
X180264Y254437D01*
X180181Y254434D01*
X180100Y254439D01*
X179412Y254439D01*
X177462Y255247D01*
X176343Y256367D01*
X176257Y256442D01*
X176178Y256524D01*
X176018Y256652D01*
X175865Y256788D01*
X175770Y256852D01*
X175682Y256924D01*
X175507Y257031D01*
X175338Y257146D01*
X175236Y257198D01*
X175139Y257258D01*
X174953Y257343D01*
X174770Y257436D01*
X174663Y257474D01*
X174559Y257522D01*
X174364Y257582D01*
X174171Y257652D01*
X174060Y257677D01*
X173951Y257711D01*
X173749Y257746D01*
X173549Y257791D01*
X173435Y257802D01*
X173323Y257822D01*
X173119Y257832D01*
X172915Y257852D01*
X172801Y257848D01*
X172687Y257854D01*
X172483Y257838D01*
X172278Y257832D01*
X172166Y257815D01*
X172052Y257806D01*
X171851Y257765D01*
X171649Y257733D01*
X171539Y257702D01*
X171427Y257679D01*
X171241Y257615D01*
X171037Y257556D01*
X170921Y257506D01*
X170807Y257468D01*
X169532Y256939D01*
X167420Y256939D01*
X165470Y257747D01*
X163977Y259240D01*
X163169Y261190D01*
X163169Y263354D01*
X163191Y263439D01*
X163231Y263555D01*
X163271Y263747D01*
X163320Y263936D01*
X163335Y264058D01*
X163360Y264179D01*
X163376Y264374D01*
X163401Y264568D01*
X163401Y264691D01*
X163411Y264814D01*
X163401Y265010D01*
X163402Y265206D01*
X163387Y265328D01*
X163381Y265450D01*
X163347Y265643D01*
X163323Y265838D01*
X163293Y265957D01*
X163272Y266078D01*
X163214Y266266D01*
X163166Y266455D01*
X163121Y266570D01*
X163085Y266687D01*
X163005Y266866D01*
X162933Y267048D01*
X162874Y267156D01*
X162823Y267268D01*
X162721Y267435D01*
X162627Y267607D01*
X162555Y267707D01*
X162491Y267812D01*
X162369Y267965D01*
X162254Y268124D01*
X162170Y268213D01*
X162093Y268309D01*
X161953Y268446D01*
X161819Y268589D01*
X161724Y268668D01*
X161636Y268753D01*
X161480Y268871D01*
X161329Y268997D01*
X161226Y269063D01*
X161127Y269137D01*
X160957Y269234D01*
X160792Y269340D01*
X160681Y269392D01*
X160575Y269453D01*
X160394Y269529D01*
X160217Y269613D01*
X160100Y269651D01*
X159986Y269698D01*
X159797Y269750D01*
X159611Y269812D01*
X159491Y269835D01*
X159372Y269868D01*
X159178Y269896D01*
X158986Y269933D01*
X158866Y269941D01*
X158742Y269959D01*
X158529Y269963D01*
X158332Y269975D01*
X138150Y269975D01*
X138077Y269971D01*
X138004Y269973D01*
X137759Y269951D01*
X137514Y269935D01*
X137442Y269922D01*
X137369Y269915D01*
X137129Y269862D01*
X136888Y269816D01*
X136818Y269793D01*
X136747Y269778D01*
X136516Y269695D01*
X136282Y269619D01*
X136216Y269588D01*
X136147Y269564D01*
X135928Y269453D01*
X135705Y269348D01*
X135644Y269309D01*
X135579Y269276D01*
X135375Y269139D01*
X135167Y269007D01*
X135111Y268961D01*
X135050Y268920D01*
X134877Y268767D01*
X134676Y268602D01*
X134619Y268541D01*
X134558Y268488D01*
X118930Y252860D01*
X118002Y252475D01*
X89498Y252475D01*
X88570Y252860D01*
X82860Y258570D01*
X82475Y259498D01*
X82475Y280502D01*
X82860Y281430D01*
X84284Y282855D01*
X85162Y283732D01*
X85291Y283879D01*
X85428Y284020D01*
X85502Y284118D01*
X85583Y284210D01*
X85693Y284372D01*
X85811Y284529D01*
X85872Y284636D01*
X85942Y284737D01*
X86031Y284912D01*
X86128Y285082D01*
X86175Y285195D01*
X86231Y285305D01*
X86298Y285489D01*
X86373Y285670D01*
X86405Y285788D01*
X86447Y285904D01*
X86490Y286095D01*
X86542Y286284D01*
X86560Y286406D01*
X86586Y286526D01*
X86605Y286721D01*
X86633Y286915D01*
X86635Y287038D01*
X86647Y287160D01*
X86641Y287356D01*
X86644Y287552D01*
X86631Y287674D01*
X86628Y287797D01*
X86597Y287990D01*
X86576Y288185D01*
X86548Y288305D01*
X86529Y288426D01*
X86474Y288615D01*
X86429Y288805D01*
X86386Y288920D01*
X86352Y289038D01*
X86274Y289219D01*
X86205Y289402D01*
X86148Y289510D01*
X86099Y289623D01*
X86000Y289793D01*
X85909Y289966D01*
X85838Y290066D01*
X85776Y290172D01*
X85656Y290328D01*
X85544Y290488D01*
X85461Y290579D01*
X85386Y290676D01*
X85248Y290815D01*
X85116Y290960D01*
X85023Y291041D01*
X84936Y291128D01*
X84782Y291248D01*
X84633Y291376D01*
X84531Y291444D01*
X84434Y291519D01*
X84265Y291619D01*
X84102Y291727D01*
X83994Y291780D01*
X83886Y291845D01*
X83691Y291930D01*
X83514Y292017D01*
X82945Y292253D01*
X82912Y292264D01*
X82882Y292278D01*
X82611Y292367D01*
X82342Y292459D01*
X82309Y292466D01*
X82277Y292476D01*
X81996Y292531D01*
X81718Y292588D01*
X81684Y292591D01*
X81651Y292597D01*
X81367Y292616D01*
X81083Y292638D01*
X81049Y292637D01*
X81015Y292639D01*
X80733Y292622D01*
X80446Y292609D01*
X80413Y292603D01*
X80379Y292601D01*
X80101Y292549D01*
X79819Y292500D01*
X79786Y292490D01*
X79753Y292483D01*
X79482Y292396D01*
X79209Y292313D01*
X79179Y292299D01*
X79146Y292289D01*
X78888Y292168D01*
X78629Y292051D01*
X78600Y292034D01*
X78569Y292019D01*
X78356Y291885D01*
X78085Y291719D01*
X78051Y291692D01*
X78015Y291669D01*
X77829Y291534D01*
X77829Y298450D01*
X77829Y305366D01*
X78015Y305231D01*
X78044Y305213D01*
X78070Y305192D01*
X78313Y305042D01*
X78553Y304890D01*
X78584Y304875D01*
X78613Y304857D01*
X78871Y304740D01*
X79130Y304618D01*
X79162Y304608D01*
X79193Y304594D01*
X79463Y304510D01*
X79735Y304421D01*
X79769Y304415D01*
X79801Y304405D01*
X80080Y304355D01*
X80361Y304301D01*
X80395Y304299D01*
X80428Y304293D01*
X80712Y304279D01*
X80997Y304261D01*
X81031Y304263D01*
X81065Y304261D01*
X81349Y304283D01*
X81633Y304300D01*
X81666Y304307D01*
X81700Y304309D01*
X81980Y304366D01*
X82259Y304419D01*
X82291Y304430D01*
X82324Y304436D01*
X82562Y304517D01*
X82865Y304615D01*
X82905Y304634D01*
X82945Y304648D01*
X86245Y306015D01*
X89878Y306015D01*
X90031Y306010D01*
X90235Y305993D01*
X90349Y305999D01*
X90464Y305995D01*
X90667Y306013D01*
X90871Y306023D01*
X90984Y306042D01*
X91099Y306053D01*
X91298Y306097D01*
X91499Y306132D01*
X91609Y306165D01*
X91721Y306190D01*
X91913Y306259D01*
X92108Y306318D01*
X92213Y306366D01*
X92321Y306404D01*
X92503Y306496D01*
X92689Y306580D01*
X92787Y306640D01*
X92889Y306692D01*
X93059Y306806D01*
X93233Y306912D01*
X93323Y306984D01*
X93418Y307048D01*
X93565Y307177D01*
X93731Y307310D01*
X93819Y307400D01*
X93910Y307480D01*
X96070Y309640D01*
X96998Y310025D01*
X123002Y310025D01*
X123930Y309640D01*
X125355Y308216D01*
X127218Y306352D01*
X127396Y306196D01*
X127568Y306033D01*
X127635Y305985D01*
X127696Y305931D01*
X127892Y305797D01*
X128084Y305658D01*
X128155Y305619D01*
X128223Y305572D01*
X128434Y305465D01*
X128641Y305351D01*
X128718Y305320D01*
X128791Y305283D01*
X129014Y305203D01*
X129234Y305115D01*
X129313Y305095D01*
X129390Y305067D01*
X129621Y305015D01*
X129850Y304956D01*
X129932Y304945D01*
X130012Y304927D01*
X130247Y304905D01*
X130482Y304875D01*
X130565Y304875D01*
X130646Y304867D01*
X130882Y304874D01*
X131120Y304874D01*
X131201Y304884D01*
X131283Y304886D01*
X131516Y304923D01*
X131752Y304952D01*
X131831Y304973D01*
X131912Y304985D01*
X132140Y305051D01*
X132369Y305110D01*
X132446Y305140D01*
X132524Y305162D01*
X132741Y305256D01*
X132962Y305343D01*
X133034Y305382D01*
X133109Y305415D01*
X133313Y305535D01*
X133521Y305648D01*
X133588Y305697D01*
X133658Y305738D01*
X133846Y305883D01*
X134038Y306022D01*
X134097Y306078D01*
X134162Y306128D01*
X134330Y306295D01*
X134503Y306457D01*
X134556Y306520D01*
X134614Y306578D01*
X134759Y306765D01*
X134911Y306946D01*
X134955Y307015D01*
X135005Y307080D01*
X135126Y307284D01*
X135254Y307483D01*
X135289Y307557D01*
X135331Y307628D01*
X135425Y307845D01*
X135527Y308059D01*
X135552Y308137D01*
X135585Y308212D01*
X135652Y308439D01*
X135726Y308664D01*
X135741Y308745D01*
X135764Y308824D01*
X135802Y309057D01*
X135847Y309290D01*
X135852Y309370D01*
X135865Y309453D01*
X135874Y309713D01*
X135889Y309944D01*
X135889Y312421D01*
X146050Y312421D01*
X146204Y312430D01*
X146359Y312430D01*
X146522Y312450D01*
X146686Y312461D01*
X146837Y312489D01*
X146991Y312509D01*
X147151Y312549D01*
X147311Y312580D01*
X147459Y312628D01*
X147609Y312666D01*
X147761Y312726D01*
X147917Y312776D01*
X148058Y312842D01*
X148202Y312899D01*
X148346Y312978D01*
X148494Y313047D01*
X148625Y313130D01*
X148761Y313205D01*
X148894Y313301D01*
X149032Y313388D01*
X149152Y313487D01*
X149277Y313578D01*
X149397Y313690D01*
X149523Y313794D01*
X149630Y313907D01*
X149743Y314013D01*
X149848Y314139D01*
X149960Y314258D01*
X150051Y314384D01*
X150150Y314503D01*
X150239Y314641D01*
X150335Y314773D01*
X150410Y314909D01*
X150493Y315040D01*
X150564Y315188D01*
X150643Y315331D01*
X150700Y315475D01*
X150766Y315615D01*
X150818Y315771D01*
X150878Y315923D01*
X150917Y316073D01*
X150965Y316221D01*
X150996Y316381D01*
X151037Y316540D01*
X151057Y316694D01*
X151087Y316846D01*
X151097Y317005D01*
X151118Y317172D01*
X151119Y317341D01*
X151129Y317500D01*
X151119Y317655D01*
X151119Y317810D01*
X151099Y317973D01*
X151089Y318136D01*
X151060Y318288D01*
X151041Y318442D01*
X151000Y318601D01*
X150970Y318762D01*
X150922Y318909D01*
X150884Y319059D01*
X150824Y319212D01*
X150773Y319368D01*
X150707Y319508D01*
X150650Y319652D01*
X150572Y319796D01*
X150502Y319945D01*
X150419Y320075D01*
X150345Y320211D01*
X150249Y320344D01*
X150161Y320483D01*
X150062Y320602D01*
X149972Y320728D01*
X149860Y320847D01*
X149755Y320974D01*
X149642Y321080D01*
X149537Y321193D01*
X149411Y321298D01*
X149291Y321411D01*
X149166Y321502D01*
X149047Y321601D01*
X148909Y321689D01*
X148776Y321786D01*
X148641Y321860D01*
X148510Y321944D01*
X148362Y322014D01*
X148218Y322093D01*
X148074Y322150D01*
X147934Y322217D01*
X147778Y322268D01*
X147626Y322329D01*
X147476Y322367D01*
X147329Y322416D01*
X147168Y322447D01*
X147009Y322488D01*
X146856Y322508D01*
X146704Y322537D01*
X146545Y322547D01*
X146377Y322569D01*
X146209Y322569D01*
X146050Y322579D01*
X135889Y322579D01*
X135889Y325920D01*
X136139Y327499D01*
X136364Y328190D01*
X136444Y328502D01*
X136521Y328800D01*
X136522Y328804D01*
X136523Y328808D01*
X136562Y329116D01*
X136602Y329432D01*
X136602Y329436D01*
X136602Y329440D01*
X136603Y329749D01*
X136603Y330070D01*
X136603Y330073D01*
X136603Y330077D01*
X136564Y330383D01*
X136525Y330702D01*
X136524Y330706D01*
X136523Y330709D01*
X136451Y330991D01*
X136367Y331319D01*
X136366Y331323D01*
X136365Y331326D01*
X136251Y331615D01*
X136134Y331912D01*
X136132Y331916D01*
X136131Y331919D01*
X135985Y332184D01*
X135829Y332471D01*
X135826Y332474D01*
X135825Y332477D01*
X135637Y332736D01*
X135455Y332988D01*
X135453Y332990D01*
X135451Y332993D01*
X135234Y333224D01*
X135020Y333453D01*
X135018Y333456D01*
X135015Y333458D01*
X134772Y333660D01*
X134531Y333861D01*
X134528Y333863D01*
X134525Y333865D01*
X134257Y334036D01*
X133994Y334204D01*
X133990Y334205D01*
X133987Y334207D01*
X133711Y334338D01*
X133418Y334477D01*
X133414Y334478D01*
X133411Y334479D01*
X133120Y334574D01*
X132813Y334676D01*
X132809Y334676D01*
X132806Y334677D01*
X132503Y334736D01*
X132187Y334797D01*
X132184Y334797D01*
X132180Y334798D01*
X131544Y334839D01*
X131539Y334839D01*
X131533Y334839D01*
X50935Y334839D01*
X50698Y334824D01*
X50462Y334817D01*
X50381Y334804D01*
X50299Y334799D01*
X50066Y334755D01*
X49832Y334718D01*
X49753Y334695D01*
X49673Y334680D01*
X49448Y334607D01*
X49220Y334541D01*
X49145Y334509D01*
X49067Y334483D01*
X48852Y334383D01*
X48635Y334289D01*
X48564Y334247D01*
X48490Y334212D01*
X48290Y334086D01*
X48086Y333965D01*
X48021Y333915D01*
X47952Y333871D01*
X47769Y333720D01*
X47582Y333576D01*
X47524Y333518D01*
X47461Y333466D01*
X47298Y333293D01*
X47131Y333126D01*
X47080Y333061D01*
X47024Y333002D01*
X46885Y332810D01*
X46739Y332623D01*
X46697Y332553D01*
X46649Y332487D01*
X46535Y332279D01*
X46414Y332075D01*
X46381Y332000D01*
X46342Y331929D01*
X46254Y331709D01*
X46160Y331491D01*
X46137Y331413D01*
X46106Y331336D01*
X46047Y331107D01*
X45980Y330880D01*
X45967Y330799D01*
X45947Y330720D01*
X45917Y330484D01*
X45879Y330251D01*
X45876Y330169D01*
X45866Y330088D01*
X45866Y329850D01*
X45858Y329614D01*
X45865Y329532D01*
X45865Y329450D01*
X45894Y329215D01*
X45916Y328980D01*
X45933Y328900D01*
X45943Y328818D01*
X46002Y328589D01*
X46053Y328357D01*
X46080Y328280D01*
X46101Y328201D01*
X46187Y327980D01*
X46267Y327757D01*
X46304Y327684D01*
X46334Y327608D01*
X46448Y327400D01*
X46554Y327189D01*
X46600Y327121D01*
X46640Y327049D01*
X46778Y326857D01*
X46911Y326661D01*
X46964Y326600D01*
X47013Y326532D01*
X47071Y326471D01*
X50161Y319010D01*
X50161Y310990D01*
X47091Y303580D01*
X41420Y297909D01*
X34010Y294839D01*
X25990Y294839D01*
X18580Y297909D01*
X17832Y298657D01*
X17654Y298813D01*
X17482Y298976D01*
X17415Y299024D01*
X17354Y299078D01*
X17158Y299211D01*
X16966Y299351D01*
X16895Y299390D01*
X16827Y299436D01*
X16616Y299544D01*
X16409Y299658D01*
X16332Y299689D01*
X16259Y299726D01*
X16036Y299806D01*
X15816Y299894D01*
X15737Y299914D01*
X15660Y299942D01*
X15429Y299994D01*
X15200Y300053D01*
X15118Y300064D01*
X15038Y300081D01*
X14803Y300104D01*
X14568Y300134D01*
X14485Y300134D01*
X14404Y300142D01*
X14168Y300135D01*
X13930Y300135D01*
X13849Y300125D01*
X13767Y300123D01*
X13534Y300086D01*
X13298Y300057D01*
X13219Y300036D01*
X13138Y300024D01*
X12911Y299958D01*
X12681Y299899D01*
X12604Y299869D01*
X12526Y299847D01*
X12308Y299753D01*
X12088Y299666D01*
X12016Y299627D01*
X11941Y299594D01*
X11737Y299474D01*
X11529Y299360D01*
X11462Y299312D01*
X11392Y299271D01*
X11204Y299126D01*
X11012Y298987D01*
X10953Y298931D01*
X10888Y298881D01*
X10720Y298714D01*
X10547Y298552D01*
X10494Y298489D01*
X10436Y298431D01*
X10291Y298245D01*
X10139Y298063D01*
X10095Y297994D01*
X10045Y297929D01*
X9924Y297725D01*
X9796Y297526D01*
X9761Y297452D01*
X9719Y297381D01*
X9625Y297164D01*
X9523Y296950D01*
X9498Y296872D01*
X9465Y296797D01*
X9398Y296570D01*
X9324Y296345D01*
X9309Y296264D01*
X9286Y296185D01*
X9248Y295952D01*
X9203Y295719D01*
X9198Y295639D01*
X9185Y295556D01*
X9176Y295296D01*
X9161Y295065D01*
X9161Y279230D01*
X9170Y279079D01*
X9170Y279051D01*
X9170Y279050D01*
X9170Y278920D01*
X9190Y278758D01*
X9201Y278594D01*
X9230Y278442D01*
X9249Y278288D01*
X9289Y278129D01*
X9320Y277968D01*
X9368Y277821D01*
X9406Y277671D01*
X9466Y277518D01*
X9517Y277362D01*
X9582Y277222D01*
X9639Y277078D01*
X9718Y276934D01*
X9788Y276786D01*
X9870Y276655D01*
X9945Y276519D01*
X10041Y276386D01*
X10129Y276247D01*
X10227Y276128D01*
X10318Y276002D01*
X10430Y275883D01*
X10534Y275756D01*
X10647Y275650D01*
X10753Y275537D01*
X10879Y275432D01*
X10998Y275320D01*
X11124Y275228D01*
X11243Y275129D01*
X11381Y275041D01*
X11513Y274945D01*
X11649Y274870D01*
X11780Y274786D01*
X11928Y274716D01*
X12071Y274637D01*
X12215Y274580D01*
X12355Y274513D01*
X12511Y274462D01*
X12664Y274402D01*
X12814Y274363D01*
X12961Y274314D01*
X13122Y274283D01*
X13280Y274242D01*
X13434Y274223D01*
X13586Y274193D01*
X13745Y274183D01*
X13912Y274161D01*
X14081Y274161D01*
X14240Y274151D01*
X61050Y274151D01*
X61051Y274150D01*
X61051Y94150D01*
X61050Y94149D01*
X14240Y94149D01*
X14085Y94140D01*
X13930Y94140D01*
X13768Y94120D01*
X13604Y94109D01*
X13452Y94080D01*
X13298Y94061D01*
X13139Y94021D01*
X12978Y93990D01*
X12831Y93942D01*
X12681Y93904D01*
X12528Y93844D01*
X12372Y93793D01*
X12232Y93728D01*
X12088Y93671D01*
X11944Y93592D01*
X11796Y93522D01*
X11665Y93440D01*
X11529Y93365D01*
X11396Y93269D01*
X11257Y93181D01*
X11138Y93083D01*
X11012Y92992D01*
X10893Y92880D01*
X10766Y92776D01*
X10660Y92663D01*
X10547Y92557D01*
X10442Y92431D01*
X10330Y92312D01*
X10238Y92186D01*
X10139Y92067D01*
X10051Y91929D01*
X9955Y91797D01*
X9880Y91661D01*
X9796Y91530D01*
X9726Y91382D01*
X9647Y91239D01*
X9590Y91095D01*
X9523Y90955D01*
X9472Y90799D01*
X9412Y90646D01*
X9373Y90496D01*
X9324Y90349D01*
X9293Y90188D01*
X9252Y90030D01*
X9233Y89876D01*
X9203Y89724D01*
X9193Y89565D01*
X9171Y89398D01*
X9171Y89229D01*
X9161Y89070D01*
X9161Y47481D01*
X9180Y47173D01*
X9200Y46853D01*
X9200Y46849D01*
X9201Y46846D01*
X9259Y46540D01*
X9318Y46227D01*
X9319Y46223D01*
X9320Y46220D01*
X9419Y45915D01*
X9514Y45620D01*
X9515Y45617D01*
X9517Y45614D01*
X9654Y45321D01*
X9784Y45043D01*
X9786Y45040D01*
X9788Y45037D01*
X9963Y44760D01*
X10124Y44505D01*
X10127Y44502D01*
X10129Y44499D01*
X10338Y44245D01*
X10529Y44013D01*
X10532Y44010D01*
X10534Y44008D01*
X10766Y43790D01*
X10993Y43576D01*
X10996Y43573D01*
X10998Y43571D01*
X11251Y43387D01*
X11507Y43200D01*
X11511Y43198D01*
X11513Y43196D01*
X11781Y43048D01*
X12065Y42891D01*
X12068Y42890D01*
X12071Y42888D01*
X12358Y42775D01*
X12657Y42655D01*
X12660Y42654D01*
X12664Y42653D01*
X12971Y42574D01*
X13273Y42495D01*
X13277Y42495D01*
X13280Y42494D01*
X13597Y42453D01*
X13905Y42413D01*
X13909Y42413D01*
X13912Y42413D01*
X13971Y42413D01*
X13971Y25400D01*
X13980Y25246D01*
X13980Y25091D01*
X14000Y24928D01*
X14011Y24764D01*
X14039Y24613D01*
X14059Y24459D01*
X14099Y24299D01*
X14130Y24139D01*
X14178Y23991D01*
X14216Y23841D01*
X14276Y23689D01*
X14326Y23533D01*
X14392Y23392D01*
X14449Y23248D01*
X14528Y23104D01*
X14597Y22956D01*
X14680Y22825D01*
X14755Y22689D01*
X14851Y22556D01*
X14938Y22418D01*
X15037Y22298D01*
X15128Y22173D01*
X15240Y22053D01*
X15344Y21927D01*
X15457Y21820D01*
X15563Y21707D01*
X15689Y21602D01*
X15808Y21490D01*
X15934Y21399D01*
X16053Y21300D01*
X16191Y21211D01*
X16323Y21115D01*
X16459Y21040D01*
X16590Y20957D01*
X16738Y20886D01*
X16881Y20807D01*
X17025Y20750D01*
X17165Y20684D01*
X17321Y20632D01*
X17473Y20572D01*
X17623Y20533D01*
X17771Y20485D01*
X17931Y20454D01*
X18090Y20413D01*
X18244Y20393D01*
X18396Y20363D01*
X18555Y20353D01*
X18722Y20332D01*
X18891Y20331D01*
X19050Y20321D01*
X19205Y20331D01*
X19359Y20331D01*
X19360Y20331D01*
X19523Y20351D01*
X19686Y20361D01*
X19838Y20390D01*
X19992Y20409D01*
X20151Y20450D01*
X20312Y20480D01*
X20459Y20528D01*
X20609Y20566D01*
X20762Y20626D01*
X20918Y20677D01*
X21058Y20743D01*
X21202Y20800D01*
X21346Y20878D01*
X21495Y20948D01*
X21625Y21031D01*
X21761Y21105D01*
X21894Y21201D01*
X22033Y21289D01*
X22152Y21388D01*
X22278Y21478D01*
X22397Y21590D01*
X22524Y21695D01*
X22630Y21808D01*
X22743Y21913D01*
X22848Y22039D01*
X22961Y22159D01*
X23052Y22284D01*
X23151Y22403D01*
X23239Y22541D01*
X23336Y22674D01*
X23410Y22809D01*
X23494Y22940D01*
X23564Y23088D01*
X23643Y23232D01*
X23700Y23376D01*
X23767Y23516D01*
X23818Y23672D01*
X23879Y23824D01*
X23917Y23974D01*
X23966Y24121D01*
X23997Y24282D01*
X24038Y24441D01*
X24058Y24594D01*
X24087Y24746D01*
X24097Y24905D01*
X24119Y25073D01*
X24119Y25241D01*
X24129Y25400D01*
X24129Y41836D01*
X24375Y41710D01*
X25669Y40770D01*
X26800Y39639D01*
X27744Y38341D01*
X27747Y38334D01*
X27893Y38094D01*
X28036Y37852D01*
X28059Y37822D01*
X28079Y37790D01*
X28254Y37571D01*
X28427Y37349D01*
X28454Y37322D01*
X28477Y37293D01*
X28678Y37097D01*
X28877Y36898D01*
X28907Y36875D01*
X28934Y36849D01*
X29159Y36679D01*
X29380Y36507D01*
X29413Y36488D01*
X29443Y36465D01*
X29686Y36326D01*
X29929Y36182D01*
X29963Y36167D01*
X29996Y36149D01*
X30256Y36041D01*
X30513Y35929D01*
X30549Y35918D01*
X30584Y35904D01*
X30856Y35829D01*
X31125Y35751D01*
X31162Y35745D01*
X31198Y35735D01*
X31477Y35694D01*
X31754Y35650D01*
X31792Y35649D01*
X31829Y35644D01*
X32110Y35639D01*
X32391Y35629D01*
X32428Y35633D01*
X32466Y35632D01*
X32745Y35662D01*
X33025Y35688D01*
X33062Y35697D01*
X33099Y35701D01*
X33374Y35766D01*
X33647Y35826D01*
X33682Y35839D01*
X33719Y35848D01*
X33983Y35947D01*
X34247Y36041D01*
X34280Y36058D01*
X34316Y36072D01*
X34565Y36202D01*
X34815Y36330D01*
X34846Y36351D01*
X34880Y36368D01*
X35110Y36529D01*
X35343Y36687D01*
X35371Y36711D01*
X35402Y36733D01*
X35611Y36922D01*
X35822Y37107D01*
X35846Y37135D01*
X35874Y37160D01*
X36058Y37374D01*
X36244Y37584D01*
X36265Y37615D01*
X36290Y37644D01*
X36445Y37878D01*
X36595Y38097D01*
X39270Y40773D01*
X42631Y42165D01*
X46269Y42165D01*
X49689Y40748D01*
X49723Y40722D01*
X49846Y40613D01*
X49974Y40526D01*
X50096Y40431D01*
X50237Y40347D01*
X50373Y40255D01*
X50511Y40185D01*
X50644Y40105D01*
X50794Y40040D01*
X50940Y39966D01*
X51086Y39913D01*
X51228Y39851D01*
X51385Y39805D01*
X51539Y39749D01*
X51691Y39716D01*
X51840Y39672D01*
X52001Y39646D01*
X52161Y39610D01*
X52316Y39595D01*
X52469Y39571D01*
X52632Y39565D01*
X52795Y39550D01*
X52950Y39554D01*
X53105Y39549D01*
X53269Y39564D01*
X53432Y39569D01*
X53585Y39593D01*
X53740Y39607D01*
X53900Y39643D01*
X54062Y39668D01*
X54211Y39711D01*
X54362Y39744D01*
X54516Y39800D01*
X54674Y39845D01*
X54816Y39906D01*
X54962Y39958D01*
X55109Y40032D01*
X55259Y40097D01*
X55392Y40176D01*
X55531Y40246D01*
X55667Y40337D01*
X55808Y40421D01*
X55931Y40516D01*
X56059Y40602D01*
X56178Y40707D01*
X56312Y40810D01*
X56431Y40929D01*
X56551Y41035D01*
X59190Y43673D01*
X59211Y43697D01*
X59235Y43719D01*
X59329Y43829D01*
X64024Y48523D01*
X64153Y48670D01*
X64290Y48811D01*
X64364Y48909D01*
X64445Y49001D01*
X64555Y49163D01*
X64673Y49320D01*
X64734Y49426D01*
X64803Y49528D01*
X64892Y49702D01*
X64990Y49872D01*
X65037Y49986D01*
X65093Y50096D01*
X65159Y50280D01*
X65234Y50461D01*
X65267Y50579D01*
X65309Y50695D01*
X65352Y50886D01*
X65404Y51075D01*
X65421Y51197D01*
X65448Y51317D01*
X65467Y51512D01*
X65495Y51706D01*
X65497Y51828D01*
X65509Y51951D01*
X65503Y52146D01*
X65506Y52343D01*
X65493Y52465D01*
X65489Y52588D01*
X65459Y52781D01*
X65438Y52976D01*
X65409Y53096D01*
X65390Y53217D01*
X65336Y53405D01*
X65291Y53596D01*
X65247Y53711D01*
X65213Y53829D01*
X65136Y54009D01*
X65067Y54192D01*
X65010Y54301D01*
X64961Y54414D01*
X64862Y54583D01*
X64770Y54756D01*
X64700Y54857D01*
X64638Y54963D01*
X64518Y55118D01*
X64406Y55279D01*
X64323Y55370D01*
X64248Y55467D01*
X64110Y55606D01*
X63978Y55751D01*
X63885Y55831D01*
X63798Y55919D01*
X63644Y56039D01*
X63495Y56167D01*
X63393Y56234D01*
X63296Y56310D01*
X63127Y56410D01*
X62964Y56518D01*
X62856Y56571D01*
X62748Y56636D01*
X62553Y56720D01*
X62376Y56807D01*
X59494Y58001D01*
X58001Y59494D01*
X57193Y61444D01*
X57193Y63556D01*
X58001Y65506D01*
X59494Y66999D01*
X61444Y67807D01*
X63556Y67807D01*
X65515Y66995D01*
X65523Y66988D01*
X65573Y66935D01*
X65762Y66778D01*
X65946Y66615D01*
X66007Y66574D01*
X66063Y66527D01*
X66270Y66395D01*
X66473Y66257D01*
X66538Y66224D01*
X66600Y66184D01*
X66822Y66079D01*
X67041Y65967D01*
X67109Y65943D01*
X67175Y65911D01*
X67409Y65834D01*
X67640Y65751D01*
X67711Y65735D01*
X67781Y65712D01*
X68022Y65666D01*
X68262Y65612D01*
X68334Y65605D01*
X68406Y65591D01*
X68638Y65576D01*
X68896Y65551D01*
X68980Y65554D01*
X69060Y65549D01*
X71743Y65549D01*
X71816Y65553D01*
X71889Y65551D01*
X72134Y65573D01*
X72379Y65589D01*
X72451Y65602D01*
X72524Y65609D01*
X72764Y65662D01*
X73005Y65708D01*
X73075Y65731D01*
X73146Y65746D01*
X73377Y65829D01*
X73611Y65905D01*
X73677Y65936D01*
X73746Y65960D01*
X73965Y66071D01*
X74188Y66176D01*
X74249Y66215D01*
X74314Y66248D01*
X74518Y66385D01*
X74726Y66517D01*
X74782Y66563D01*
X74843Y66604D01*
X75016Y66757D01*
X75217Y66922D01*
X75274Y66983D01*
X75335Y67036D01*
X80718Y72419D01*
X80766Y72474D01*
X80819Y72524D01*
X80977Y72713D01*
X81139Y72897D01*
X81180Y72957D01*
X81227Y73014D01*
X81359Y73221D01*
X81497Y73424D01*
X81530Y73489D01*
X81570Y73550D01*
X81675Y73772D01*
X81787Y73992D01*
X81811Y74060D01*
X81843Y74126D01*
X81919Y74360D01*
X82003Y74591D01*
X82019Y74662D01*
X82042Y74731D01*
X82088Y74973D01*
X82142Y75213D01*
X82149Y75285D01*
X82163Y75357D01*
X82178Y75588D01*
X82203Y75847D01*
X82200Y75930D01*
X82205Y76011D01*
X82205Y98186D01*
X82201Y98259D01*
X82203Y98332D01*
X82181Y98577D01*
X82165Y98822D01*
X82152Y98893D01*
X82145Y98966D01*
X82092Y99206D01*
X82046Y99448D01*
X82023Y99517D01*
X82008Y99588D01*
X81925Y99819D01*
X81849Y100054D01*
X81818Y100120D01*
X81794Y100189D01*
X81683Y100408D01*
X81578Y100630D01*
X81539Y100692D01*
X81506Y100757D01*
X81369Y100960D01*
X81237Y101169D01*
X81191Y101225D01*
X81150Y101285D01*
X80997Y101459D01*
X80832Y101660D01*
X80771Y101717D01*
X80718Y101778D01*
X80501Y101994D01*
X79693Y103944D01*
X79693Y106056D01*
X80501Y108006D01*
X81994Y109499D01*
X83944Y110307D01*
X86056Y110307D01*
X88006Y109499D01*
X89499Y108006D01*
X90307Y106056D01*
X90307Y103944D01*
X89468Y101920D01*
X89369Y101808D01*
X89328Y101747D01*
X89281Y101691D01*
X89149Y101484D01*
X89011Y101281D01*
X88978Y101216D01*
X88938Y101154D01*
X88833Y100932D01*
X88721Y100713D01*
X88697Y100645D01*
X88665Y100579D01*
X88589Y100345D01*
X88505Y100114D01*
X88489Y100043D01*
X88466Y99973D01*
X88420Y99732D01*
X88366Y99492D01*
X88359Y99419D01*
X88345Y99348D01*
X88330Y99117D01*
X88305Y98858D01*
X88308Y98774D01*
X88303Y98694D01*
X88303Y67627D01*
X88320Y67350D01*
X88333Y67072D01*
X88340Y67032D01*
X88343Y66991D01*
X88395Y66719D01*
X88442Y66445D01*
X88454Y66406D01*
X88462Y66365D01*
X88548Y66101D01*
X88629Y65836D01*
X88646Y65798D01*
X88659Y65759D01*
X88777Y65507D01*
X88891Y65255D01*
X88912Y65220D01*
X88930Y65183D01*
X89078Y64948D01*
X89223Y64711D01*
X89249Y64679D01*
X89271Y64644D01*
X89448Y64430D01*
X89621Y64213D01*
X89650Y64185D01*
X89676Y64153D01*
X89879Y63963D01*
X90078Y63769D01*
X90111Y63745D01*
X90140Y63717D01*
X90365Y63553D01*
X90587Y63386D01*
X90622Y63366D01*
X90655Y63342D01*
X90898Y63208D01*
X91140Y63070D01*
X91178Y63054D01*
X91213Y63034D01*
X91472Y62931D01*
X91728Y62825D01*
X91767Y62814D01*
X91806Y62799D01*
X92074Y62729D01*
X92342Y62655D01*
X92383Y62649D01*
X92422Y62639D01*
X92698Y62604D01*
X92973Y62564D01*
X93014Y62564D01*
X93054Y62558D01*
X93333Y62558D01*
X93610Y62553D01*
X93650Y62557D01*
X93692Y62557D01*
X93968Y62592D01*
X94243Y62621D01*
X94283Y62631D01*
X94324Y62636D01*
X94593Y62704D01*
X94863Y62769D01*
X94902Y62783D01*
X94941Y62793D01*
X95200Y62895D01*
X95460Y62992D01*
X95496Y63011D01*
X95534Y63026D01*
X95779Y63160D01*
X96024Y63289D01*
X96057Y63312D01*
X96093Y63332D01*
X96319Y63495D01*
X96546Y63654D01*
X96576Y63681D01*
X96610Y63705D01*
X96812Y63895D01*
X97019Y64081D01*
X97045Y64112D01*
X97075Y64140D01*
X97252Y64353D01*
X97434Y64564D01*
X97456Y64598D01*
X97483Y64630D01*
X97632Y64864D01*
X97785Y65096D01*
X97803Y65132D01*
X97826Y65167D01*
X97964Y65459D01*
X97974Y65479D01*
X99494Y66999D01*
X101444Y67807D01*
X102132Y67807D01*
X102205Y67811D01*
X102278Y67809D01*
X102523Y67831D01*
X102768Y67847D01*
X102840Y67860D01*
X102913Y67867D01*
X103153Y67920D01*
X103394Y67966D01*
X103464Y67989D01*
X103535Y68004D01*
X103766Y68087D01*
X104000Y68163D01*
X104066Y68194D01*
X104135Y68218D01*
X104354Y68329D01*
X104577Y68434D01*
X104638Y68473D01*
X104703Y68506D01*
X104907Y68643D01*
X105115Y68775D01*
X105171Y68821D01*
X105232Y68862D01*
X105405Y69015D01*
X105606Y69180D01*
X105663Y69241D01*
X105724Y69294D01*
X116070Y79640D01*
X116998Y80025D01*
X285182Y80025D01*
X286110Y79640D01*
X287792Y77958D01*
X287847Y77910D01*
X287897Y77857D01*
X288086Y77699D01*
X288270Y77537D01*
X288330Y77496D01*
X288386Y77449D01*
X288594Y77317D01*
X288797Y77179D01*
X288862Y77146D01*
X288923Y77106D01*
X289145Y77001D01*
X289364Y76889D01*
X289433Y76865D01*
X289499Y76833D01*
X289733Y76757D01*
X289964Y76673D01*
X290035Y76657D01*
X290104Y76634D01*
X290346Y76588D01*
X290586Y76534D01*
X290658Y76527D01*
X290730Y76513D01*
X290961Y76498D01*
X291220Y76473D01*
X291303Y76476D01*
X291384Y76471D01*
X292072Y76471D01*
X294022Y75663D01*
X295515Y74170D01*
X296323Y72220D01*
X296323Y70108D01*
X295515Y68158D01*
X294055Y66698D01*
X293953Y66582D01*
X293843Y66473D01*
X293742Y66343D01*
X293634Y66221D01*
X293547Y66092D01*
X293452Y65970D01*
X293368Y65829D01*
X293276Y65694D01*
X293205Y65556D01*
X293126Y65422D01*
X293061Y65272D01*
X292986Y65126D01*
X292934Y64980D01*
X292872Y64838D01*
X292826Y64681D01*
X292770Y64527D01*
X292736Y64376D01*
X292693Y64227D01*
X292667Y64065D01*
X292631Y63905D01*
X292616Y63751D01*
X292591Y63598D01*
X292586Y63434D01*
X292570Y63271D01*
X292575Y63116D01*
X292570Y62961D01*
X292585Y62798D01*
X292590Y62634D01*
X292614Y62481D01*
X292628Y62327D01*
X292663Y62166D01*
X292689Y62005D01*
X292732Y61856D01*
X292765Y61704D01*
X292820Y61550D01*
X292866Y61392D01*
X292927Y61250D01*
X292979Y61104D01*
X293053Y60958D01*
X293118Y60807D01*
X293197Y60674D01*
X293266Y60536D01*
X293358Y60400D01*
X293441Y60258D01*
X293536Y60136D01*
X293623Y60007D01*
X293728Y59888D01*
X293831Y59754D01*
X293950Y59635D01*
X294055Y59515D01*
X312142Y41428D01*
X312259Y41325D01*
X312369Y41215D01*
X312498Y41115D01*
X312620Y41007D01*
X312749Y40919D01*
X312872Y40824D01*
X313012Y40740D01*
X313147Y40649D01*
X313286Y40578D01*
X313420Y40498D01*
X313569Y40433D01*
X313715Y40359D01*
X313861Y40306D01*
X314004Y40244D01*
X314161Y40198D01*
X314314Y40143D01*
X314466Y40109D01*
X314615Y40065D01*
X314777Y40039D01*
X314936Y40004D01*
X315091Y39989D01*
X315244Y39964D01*
X315408Y39959D01*
X315570Y39943D01*
X315725Y39948D01*
X315881Y39943D01*
X316044Y39958D01*
X316207Y39963D01*
X316361Y39987D01*
X316516Y40001D01*
X316675Y40036D01*
X316836Y40062D01*
X316986Y40105D01*
X317138Y40138D01*
X317292Y40193D01*
X317448Y40239D01*
X317591Y40300D01*
X317738Y40352D01*
X317883Y40426D01*
X318033Y40491D01*
X318137Y40552D01*
X322031Y42165D01*
X325669Y42165D01*
X329030Y40773D01*
X331603Y38200D01*
X332995Y34839D01*
X332995Y15240D01*
X333004Y15085D01*
X333004Y14930D01*
X333024Y14768D01*
X333035Y14604D01*
X333064Y14452D01*
X333083Y14298D01*
X333123Y14139D01*
X333154Y13978D01*
X333202Y13831D01*
X333240Y13681D01*
X333300Y13528D01*
X333351Y13372D01*
X333416Y13232D01*
X333473Y13088D01*
X333552Y12944D01*
X333622Y12796D01*
X333704Y12665D01*
X333779Y12529D01*
X333875Y12396D01*
X333963Y12257D01*
X334061Y12138D01*
X334152Y12012D01*
X334264Y11893D01*
X334368Y11766D01*
X334481Y11660D01*
X334587Y11547D01*
X334713Y11442D01*
X334832Y11330D01*
X334958Y11238D01*
X335077Y11139D01*
X335215Y11051D01*
X335347Y10955D01*
X335483Y10880D01*
X335614Y10796D01*
X335762Y10726D01*
X335905Y10647D01*
X336049Y10590D01*
X336189Y10523D01*
X336345Y10472D01*
X336498Y10412D01*
X336648Y10373D01*
X336795Y10324D01*
X336956Y10293D01*
X337114Y10252D01*
X337268Y10233D01*
X337420Y10203D01*
X337579Y10193D01*
X337746Y10171D01*
X337915Y10171D01*
X338074Y10161D01*
X397065Y10161D01*
X397302Y10176D01*
G37*
G36*
X391970Y62484D02*
X391970Y62484D01*
X392207Y62491D01*
X392288Y62504D01*
X392370Y62509D01*
X392602Y62553D01*
X392836Y62590D01*
X392915Y62613D01*
X392996Y62628D01*
X393220Y62701D01*
X393448Y62767D01*
X393524Y62799D01*
X393602Y62825D01*
X393816Y62925D01*
X394033Y63019D01*
X394104Y63061D01*
X394178Y63096D01*
X394378Y63222D01*
X394582Y63343D01*
X394647Y63393D01*
X394716Y63437D01*
X394899Y63587D01*
X395086Y63732D01*
X395144Y63790D01*
X395208Y63842D01*
X395370Y64015D01*
X395538Y64182D01*
X395588Y64247D01*
X395644Y64306D01*
X395784Y64498D01*
X395929Y64685D01*
X395971Y64755D01*
X396019Y64821D01*
X396134Y65029D01*
X396255Y65233D01*
X396287Y65308D01*
X396327Y65379D01*
X396414Y65600D01*
X396509Y65817D01*
X396532Y65895D01*
X396562Y65972D01*
X396621Y66201D01*
X396688Y66428D01*
X396701Y66509D01*
X396722Y66588D01*
X396752Y66824D01*
X396789Y67057D01*
X396792Y67139D01*
X396802Y67220D01*
X396803Y67458D01*
X396811Y67694D01*
X396803Y67776D01*
X396804Y67858D01*
X396774Y68092D01*
X396753Y68328D01*
X396735Y68408D01*
X396725Y68490D01*
X396667Y68719D01*
X396616Y68951D01*
X396588Y69028D01*
X396568Y69107D01*
X396481Y69327D01*
X396402Y69551D01*
X396365Y69624D01*
X396335Y69700D01*
X396221Y69908D01*
X396114Y70119D01*
X396068Y70187D01*
X396029Y70259D01*
X395890Y70452D01*
X395758Y70647D01*
X395705Y70708D01*
X395656Y70776D01*
X395478Y70966D01*
X395325Y71140D01*
X395252Y71212D01*
X394974Y71629D01*
X394783Y72091D01*
X394685Y72582D01*
X394685Y73153D01*
X402476Y73153D01*
X402630Y73162D01*
X402785Y73162D01*
X402948Y73182D01*
X403112Y73193D01*
X403263Y73221D01*
X403417Y73241D01*
X403577Y73281D01*
X403737Y73312D01*
X403885Y73360D01*
X404035Y73398D01*
X404187Y73458D01*
X404343Y73508D01*
X404484Y73574D01*
X404628Y73631D01*
X404772Y73710D01*
X404920Y73779D01*
X405051Y73862D01*
X405187Y73937D01*
X405320Y74033D01*
X405458Y74120D01*
X405578Y74219D01*
X405703Y74310D01*
X405823Y74422D01*
X405949Y74526D01*
X406056Y74639D01*
X406169Y74745D01*
X406274Y74871D01*
X406386Y74990D01*
X406477Y75116D01*
X406576Y75235D01*
X406665Y75373D01*
X406761Y75505D01*
X406836Y75641D01*
X406919Y75772D01*
X406990Y75920D01*
X407069Y76063D01*
X407126Y76207D01*
X407192Y76347D01*
X407244Y76503D01*
X407304Y76655D01*
X407343Y76805D01*
X407391Y76953D01*
X407422Y77113D01*
X407463Y77272D01*
X407483Y77426D01*
X407513Y77578D01*
X407523Y77737D01*
X407544Y77904D01*
X407545Y78073D01*
X407555Y78232D01*
X407545Y78387D01*
X407545Y78542D01*
X407525Y78705D01*
X407515Y78868D01*
X407486Y79020D01*
X407467Y79174D01*
X407426Y79333D01*
X407396Y79494D01*
X407348Y79641D01*
X407310Y79791D01*
X407250Y79944D01*
X407199Y80100D01*
X407133Y80240D01*
X407076Y80384D01*
X406998Y80528D01*
X406928Y80677D01*
X406845Y80807D01*
X406771Y80943D01*
X406675Y81076D01*
X406587Y81215D01*
X406488Y81334D01*
X406398Y81460D01*
X406286Y81579D01*
X406181Y81706D01*
X406068Y81812D01*
X405963Y81925D01*
X405837Y82030D01*
X405717Y82143D01*
X405592Y82234D01*
X405473Y82333D01*
X405335Y82421D01*
X405202Y82518D01*
X405067Y82592D01*
X404936Y82676D01*
X404788Y82746D01*
X404644Y82825D01*
X404500Y82882D01*
X404360Y82949D01*
X404204Y83000D01*
X404052Y83061D01*
X403902Y83099D01*
X403755Y83148D01*
X403594Y83179D01*
X403435Y83220D01*
X403282Y83240D01*
X403130Y83269D01*
X402971Y83279D01*
X402803Y83301D01*
X402635Y83301D01*
X402476Y83311D01*
X394685Y83311D01*
X394685Y83882D01*
X394783Y84373D01*
X394974Y84835D01*
X395253Y85252D01*
X395606Y85605D01*
X396023Y85884D01*
X396485Y86075D01*
X396976Y86173D01*
X399611Y86173D01*
X399689Y86178D01*
X399768Y86175D01*
X400008Y86198D01*
X400247Y86213D01*
X400324Y86227D01*
X400402Y86235D01*
X400637Y86287D01*
X400873Y86332D01*
X400948Y86356D01*
X401024Y86373D01*
X401250Y86454D01*
X401479Y86529D01*
X401550Y86562D01*
X401624Y86588D01*
X401838Y86697D01*
X402056Y86800D01*
X402122Y86842D01*
X402192Y86877D01*
X402391Y87012D01*
X402594Y87141D01*
X402654Y87191D01*
X402719Y87235D01*
X402900Y87393D01*
X403085Y87546D01*
X403139Y87603D01*
X403198Y87655D01*
X403357Y87835D01*
X403522Y88010D01*
X403568Y88074D01*
X403620Y88133D01*
X403755Y88331D01*
X403897Y88525D01*
X403935Y88594D01*
X403979Y88659D01*
X404088Y88873D01*
X404204Y89083D01*
X404233Y89156D01*
X404269Y89226D01*
X404351Y89452D01*
X404440Y89676D01*
X404459Y89751D01*
X404486Y89825D01*
X404539Y90060D01*
X404599Y90292D01*
X404609Y90370D01*
X404626Y90447D01*
X404649Y90686D01*
X404680Y90924D01*
X404680Y91003D01*
X404688Y91081D01*
X404681Y91321D01*
X404681Y91562D01*
X404671Y91639D01*
X404669Y91718D01*
X404632Y91955D01*
X404602Y92194D01*
X404583Y92270D01*
X404571Y92347D01*
X404505Y92578D01*
X404445Y92811D01*
X404416Y92884D01*
X404395Y92960D01*
X404300Y93180D01*
X404212Y93404D01*
X404174Y93473D01*
X404143Y93545D01*
X404022Y93752D01*
X403906Y93963D01*
X403860Y94027D01*
X403821Y94094D01*
X403674Y94284D01*
X403533Y94480D01*
X403480Y94537D01*
X403432Y94599D01*
X403263Y94769D01*
X403098Y94945D01*
X403038Y94995D01*
X402983Y95051D01*
X402793Y95199D01*
X402608Y95353D01*
X402542Y95395D01*
X402481Y95443D01*
X402285Y95559D01*
X402072Y95696D01*
X401991Y95734D01*
X401917Y95778D01*
X400567Y96466D01*
X399273Y97406D01*
X398142Y98537D01*
X397202Y99831D01*
X397076Y100077D01*
X413512Y100077D01*
X429948Y100077D01*
X429822Y99831D01*
X428882Y98537D01*
X427751Y97406D01*
X426457Y96466D01*
X425032Y95740D01*
X423482Y95236D01*
X423324Y95201D01*
X423090Y95156D01*
X423014Y95131D01*
X422935Y95114D01*
X422711Y95033D01*
X422484Y94959D01*
X422411Y94925D01*
X422336Y94898D01*
X422123Y94790D01*
X421907Y94688D01*
X421840Y94646D01*
X421768Y94609D01*
X421570Y94475D01*
X421369Y94347D01*
X421307Y94296D01*
X421241Y94251D01*
X421062Y94094D01*
X420878Y93942D01*
X420823Y93883D01*
X420763Y93830D01*
X420605Y93651D01*
X420441Y93478D01*
X420394Y93413D01*
X420341Y93353D01*
X420207Y93156D01*
X420066Y92962D01*
X420027Y92892D01*
X419982Y92826D01*
X419874Y92614D01*
X419758Y92405D01*
X419729Y92330D01*
X419692Y92259D01*
X419611Y92034D01*
X419523Y91812D01*
X419503Y91735D01*
X419476Y91660D01*
X419424Y91427D01*
X419364Y91196D01*
X419354Y91116D01*
X419336Y91038D01*
X419313Y90801D01*
X419283Y90564D01*
X419283Y90483D01*
X419275Y90404D01*
X419282Y90166D01*
X419282Y89926D01*
X419292Y89847D01*
X419294Y89767D01*
X419331Y89532D01*
X419360Y89294D01*
X419380Y89216D01*
X419393Y89137D01*
X419459Y88908D01*
X419518Y88677D01*
X419547Y88602D01*
X419569Y88525D01*
X419663Y88306D01*
X419751Y88084D01*
X419789Y88013D01*
X419821Y87940D01*
X419942Y87735D01*
X420056Y87525D01*
X420103Y87460D01*
X420144Y87391D01*
X420290Y87202D01*
X420430Y87008D01*
X420484Y86950D01*
X420533Y86886D01*
X420701Y86717D01*
X420865Y86543D01*
X420926Y86492D01*
X420983Y86435D01*
X421171Y86288D01*
X421354Y86135D01*
X421422Y86092D01*
X421485Y86043D01*
X421690Y85921D01*
X421891Y85792D01*
X421964Y85758D01*
X422032Y85717D01*
X422251Y85622D01*
X422467Y85519D01*
X422543Y85494D01*
X422616Y85462D01*
X422845Y85395D01*
X423072Y85320D01*
X423151Y85305D01*
X423228Y85283D01*
X423464Y85244D01*
X423698Y85199D01*
X423776Y85194D01*
X423857Y85181D01*
X424119Y85172D01*
X424352Y85157D01*
X425529Y85157D01*
X426090Y84925D01*
X426519Y84496D01*
X426755Y83924D01*
X426809Y83815D01*
X426853Y83703D01*
X426949Y83530D01*
X427036Y83352D01*
X427102Y83251D01*
X427160Y83145D01*
X427277Y82985D01*
X427385Y82819D01*
X427464Y82727D01*
X427535Y82629D01*
X427670Y82485D01*
X427799Y82335D01*
X427888Y82253D01*
X427971Y82165D01*
X428124Y82039D01*
X428270Y81906D01*
X428369Y81836D01*
X428462Y81759D01*
X428629Y81653D01*
X428791Y81539D01*
X428898Y81482D01*
X429000Y81417D01*
X429179Y81333D01*
X429354Y81240D01*
X429467Y81198D01*
X429576Y81146D01*
X429765Y81085D01*
X429950Y81015D01*
X430067Y80986D01*
X430182Y80949D01*
X430376Y80912D01*
X430569Y80865D01*
X430689Y80852D01*
X430808Y80829D01*
X430998Y80817D01*
X431202Y80795D01*
X431336Y80797D01*
X431462Y80789D01*
X467150Y80888D01*
X467215Y80892D01*
X467281Y80890D01*
X467533Y80913D01*
X467785Y80930D01*
X467850Y80942D01*
X467916Y80948D01*
X468163Y81003D01*
X468411Y81051D01*
X468474Y81071D01*
X468538Y81085D01*
X468776Y81170D01*
X469016Y81249D01*
X469076Y81277D01*
X469138Y81299D01*
X469363Y81413D01*
X469592Y81522D01*
X469648Y81557D01*
X469707Y81587D01*
X469916Y81728D01*
X470130Y81864D01*
X470180Y81906D01*
X470235Y81943D01*
X470413Y82099D01*
X470620Y82271D01*
X470672Y82327D01*
X470727Y82376D01*
X478488Y90136D01*
X478536Y90191D01*
X478589Y90241D01*
X478747Y90430D01*
X478909Y90614D01*
X478950Y90674D01*
X478997Y90730D01*
X479129Y90938D01*
X479267Y91141D01*
X479300Y91206D01*
X479340Y91267D01*
X479445Y91489D01*
X479557Y91708D01*
X479581Y91777D01*
X479613Y91843D01*
X479689Y92077D01*
X479773Y92308D01*
X479789Y92379D01*
X479812Y92448D01*
X479858Y92690D01*
X479912Y92930D01*
X479919Y93002D01*
X479933Y93074D01*
X479948Y93305D01*
X479973Y93564D01*
X479970Y93647D01*
X479975Y93728D01*
X479975Y94333D01*
X479961Y94568D01*
X479953Y94803D01*
X479941Y94885D01*
X479935Y94969D01*
X479891Y95200D01*
X479855Y95432D01*
X479832Y95513D01*
X479816Y95595D01*
X479743Y95818D01*
X479678Y96044D01*
X479645Y96121D01*
X479619Y96201D01*
X479519Y96413D01*
X479426Y96630D01*
X479384Y96702D01*
X479348Y96777D01*
X479223Y96976D01*
X479103Y97179D01*
X479052Y97245D01*
X479007Y97316D01*
X478858Y97497D01*
X478714Y97683D01*
X478655Y97742D01*
X478629Y97773D01*
X478629Y107950D01*
X478629Y118128D01*
X478643Y118144D01*
X478702Y118203D01*
X478847Y118389D01*
X478997Y118570D01*
X479042Y118640D01*
X479093Y118706D01*
X479213Y118908D01*
X479340Y119107D01*
X479376Y119183D01*
X479418Y119254D01*
X479511Y119468D01*
X479613Y119682D01*
X479639Y119762D01*
X479672Y119839D01*
X479738Y120064D01*
X479812Y120288D01*
X479827Y120370D01*
X479851Y120450D01*
X479888Y120682D01*
X479933Y120913D01*
X479938Y120995D01*
X479952Y121079D01*
X479960Y121337D01*
X479975Y121567D01*
X479975Y131850D01*
X479971Y131923D01*
X479973Y131996D01*
X479951Y132241D01*
X479935Y132486D01*
X479922Y132558D01*
X479915Y132631D01*
X479862Y132871D01*
X479816Y133112D01*
X479793Y133182D01*
X479778Y133253D01*
X479695Y133484D01*
X479619Y133718D01*
X479588Y133784D01*
X479564Y133853D01*
X479453Y134072D01*
X479348Y134295D01*
X479309Y134356D01*
X479276Y134421D01*
X479139Y134625D01*
X479007Y134833D01*
X478961Y134889D01*
X478920Y134950D01*
X478767Y135123D01*
X478602Y135324D01*
X478541Y135381D01*
X478488Y135442D01*
X436857Y177072D01*
X436710Y177202D01*
X436570Y177338D01*
X436472Y177412D01*
X436379Y177493D01*
X436218Y177604D01*
X436061Y177722D01*
X435954Y177783D01*
X435853Y177852D01*
X435678Y177941D01*
X435508Y178038D01*
X435394Y178085D01*
X435285Y178141D01*
X435101Y178208D01*
X434920Y178283D01*
X434801Y178316D01*
X434686Y178357D01*
X434495Y178400D01*
X434305Y178452D01*
X434184Y178470D01*
X434064Y178497D01*
X433869Y178515D01*
X433675Y178543D01*
X433552Y178545D01*
X433430Y178557D01*
X433234Y178551D01*
X433038Y178555D01*
X432916Y178541D01*
X432793Y178538D01*
X432599Y178507D01*
X432404Y178486D01*
X432285Y178458D01*
X432163Y178439D01*
X431975Y178384D01*
X431784Y178339D01*
X431669Y178296D01*
X431551Y178262D01*
X431371Y178184D01*
X431188Y178115D01*
X431079Y178058D01*
X430966Y178009D01*
X430798Y177910D01*
X430624Y177819D01*
X430523Y177748D01*
X430417Y177686D01*
X430262Y177566D01*
X430102Y177454D01*
X430010Y177371D01*
X429913Y177296D01*
X429775Y177158D01*
X429629Y177026D01*
X429549Y176933D01*
X429462Y176847D01*
X429342Y176692D01*
X429214Y176543D01*
X429146Y176441D01*
X429134Y176425D01*
X426312Y173603D01*
X422951Y172211D01*
X403264Y172211D01*
X403109Y172202D01*
X402954Y172202D01*
X402792Y172182D01*
X402628Y172171D01*
X402476Y172142D01*
X402322Y172123D01*
X402163Y172083D01*
X402002Y172052D01*
X401855Y172004D01*
X401705Y171966D01*
X401552Y171906D01*
X401396Y171855D01*
X401256Y171790D01*
X401112Y171733D01*
X400968Y171654D01*
X400820Y171584D01*
X400689Y171502D01*
X400553Y171427D01*
X400420Y171331D01*
X400281Y171243D01*
X400162Y171145D01*
X400036Y171054D01*
X399917Y170942D01*
X399790Y170838D01*
X399684Y170725D01*
X399571Y170619D01*
X399466Y170493D01*
X399354Y170374D01*
X399262Y170248D01*
X399163Y170129D01*
X399075Y169991D01*
X398979Y169859D01*
X398904Y169723D01*
X398820Y169592D01*
X398750Y169444D01*
X398671Y169301D01*
X398614Y169157D01*
X398547Y169017D01*
X398496Y168861D01*
X398436Y168708D01*
X398397Y168558D01*
X398348Y168411D01*
X398317Y168250D01*
X398276Y168092D01*
X398257Y167938D01*
X398227Y167786D01*
X398217Y167627D01*
X398195Y167460D01*
X398195Y167291D01*
X398185Y167132D01*
X398185Y161185D01*
X397666Y159932D01*
X397642Y159863D01*
X397612Y159796D01*
X397539Y159561D01*
X397459Y159329D01*
X397445Y159258D01*
X397423Y159188D01*
X397380Y158946D01*
X397330Y158705D01*
X397324Y158632D01*
X397311Y158560D01*
X397299Y158316D01*
X397280Y158070D01*
X397283Y157997D01*
X397279Y157924D01*
X397298Y157678D01*
X397309Y157434D01*
X397322Y157362D01*
X397327Y157289D01*
X397376Y157048D01*
X397419Y156806D01*
X397440Y156736D01*
X397455Y156664D01*
X397529Y156445D01*
X397605Y156197D01*
X397640Y156121D01*
X397666Y156044D01*
X398185Y154791D01*
X398185Y151158D01*
X398199Y150923D01*
X398206Y150688D01*
X398219Y150606D01*
X398225Y150522D01*
X398269Y150291D01*
X398305Y150059D01*
X398328Y149978D01*
X398344Y149896D01*
X398416Y149672D01*
X398482Y149447D01*
X398515Y149370D01*
X398541Y149290D01*
X398641Y149077D01*
X398733Y148861D01*
X398776Y148789D01*
X398812Y148713D01*
X398937Y148515D01*
X399057Y148312D01*
X399108Y148246D01*
X399153Y148175D01*
X399302Y147994D01*
X399446Y147808D01*
X399505Y147749D01*
X399558Y147684D01*
X399729Y147523D01*
X399895Y147356D01*
X399961Y147305D01*
X400022Y147247D01*
X400212Y147109D01*
X400398Y146964D01*
X400470Y146922D01*
X400537Y146872D01*
X400743Y146759D01*
X400945Y146639D01*
X401022Y146605D01*
X401095Y146565D01*
X401314Y146478D01*
X401529Y146384D01*
X401610Y146360D01*
X401688Y146329D01*
X401915Y146271D01*
X402140Y146204D01*
X402223Y146191D01*
X402304Y146170D01*
X402537Y146140D01*
X402769Y146103D01*
X402853Y146100D01*
X402936Y146089D01*
X403172Y146089D01*
X403406Y146080D01*
X403488Y146088D01*
X403574Y146088D01*
X403830Y146120D01*
X404059Y146141D01*
X405092Y146305D01*
X408433Y146305D01*
X408433Y141223D01*
X394563Y141223D01*
X394551Y141239D01*
X394385Y141405D01*
X394225Y141577D01*
X394160Y141631D01*
X394101Y141690D01*
X393915Y141835D01*
X393735Y141985D01*
X393664Y142030D01*
X393598Y142081D01*
X393396Y142201D01*
X393198Y142328D01*
X393122Y142364D01*
X393050Y142406D01*
X392835Y142500D01*
X392622Y142601D01*
X392542Y142627D01*
X392466Y142660D01*
X392240Y142726D01*
X392017Y142800D01*
X391935Y142816D01*
X391854Y142839D01*
X391622Y142876D01*
X391391Y142921D01*
X391309Y142926D01*
X391225Y142940D01*
X390967Y142948D01*
X390738Y142963D01*
X390310Y142963D01*
X390237Y142959D01*
X390164Y142961D01*
X389919Y142939D01*
X389674Y142923D01*
X389602Y142910D01*
X389529Y142903D01*
X389289Y142850D01*
X389048Y142804D01*
X388978Y142781D01*
X388907Y142766D01*
X388676Y142683D01*
X388442Y142607D01*
X388376Y142576D01*
X388307Y142552D01*
X388088Y142441D01*
X387865Y142336D01*
X387804Y142297D01*
X387738Y142264D01*
X387535Y142127D01*
X387327Y141995D01*
X387271Y141949D01*
X387210Y141908D01*
X387037Y141755D01*
X386836Y141590D01*
X386778Y141529D01*
X386718Y141476D01*
X367209Y121966D01*
X365784Y120542D01*
X365247Y120319D01*
X365071Y120233D01*
X364891Y120155D01*
X364785Y120093D01*
X364674Y120039D01*
X364511Y119931D01*
X364342Y119832D01*
X364244Y119756D01*
X364142Y119689D01*
X363993Y119562D01*
X363838Y119442D01*
X363750Y119355D01*
X363657Y119275D01*
X363525Y119131D01*
X363386Y118992D01*
X363311Y118895D01*
X363228Y118804D01*
X363115Y118644D01*
X362995Y118490D01*
X362932Y118384D01*
X362861Y118283D01*
X362770Y118110D01*
X362669Y117942D01*
X362620Y117829D01*
X362563Y117721D01*
X362493Y117537D01*
X362415Y117358D01*
X362381Y117239D01*
X362337Y117125D01*
X362291Y116935D01*
X362236Y116746D01*
X362216Y116625D01*
X362188Y116505D01*
X362166Y116311D01*
X362135Y116117D01*
X362131Y115995D01*
X362117Y115872D01*
X362120Y115676D01*
X362113Y115480D01*
X362124Y115358D01*
X362126Y115235D01*
X362153Y115041D01*
X362171Y114846D01*
X362198Y114726D01*
X362215Y114604D01*
X362266Y114415D01*
X362309Y114224D01*
X362350Y114108D01*
X362382Y113989D01*
X362457Y113808D01*
X362523Y113624D01*
X362578Y113514D01*
X362625Y113400D01*
X362722Y113230D01*
X362810Y113055D01*
X362879Y112953D01*
X362939Y112846D01*
X363057Y112689D01*
X363166Y112527D01*
X363246Y112436D01*
X363321Y112336D01*
X363468Y112183D01*
X363599Y112035D01*
X363858Y111775D01*
X364798Y110481D01*
X364924Y110235D01*
X348488Y110235D01*
X348334Y110226D01*
X348179Y110226D01*
X348016Y110206D01*
X347852Y110195D01*
X347701Y110166D01*
X347547Y110147D01*
X347387Y110107D01*
X347227Y110076D01*
X347079Y110028D01*
X346929Y109990D01*
X346777Y109930D01*
X346621Y109880D01*
X346480Y109814D01*
X346336Y109757D01*
X346192Y109678D01*
X346044Y109609D01*
X345913Y109526D01*
X345777Y109451D01*
X345644Y109355D01*
X345506Y109267D01*
X345386Y109169D01*
X345261Y109078D01*
X345141Y108966D01*
X345015Y108862D01*
X344908Y108749D01*
X344795Y108643D01*
X344690Y108517D01*
X344578Y108398D01*
X344487Y108272D01*
X344388Y108153D01*
X344299Y108015D01*
X344203Y107883D01*
X344128Y107747D01*
X344045Y107616D01*
X343974Y107468D01*
X343895Y107325D01*
X343838Y107181D01*
X343772Y107041D01*
X343720Y106885D01*
X343660Y106733D01*
X343621Y106583D01*
X343573Y106435D01*
X343542Y106275D01*
X343501Y106116D01*
X343481Y105962D01*
X343451Y105810D01*
X343441Y105651D01*
X343420Y105484D01*
X343419Y105315D01*
X343409Y105156D01*
X343419Y105001D01*
X343419Y104847D01*
X343419Y104846D01*
X343439Y104683D01*
X343449Y104520D01*
X343478Y104368D01*
X343497Y104214D01*
X343538Y104055D01*
X343568Y103894D01*
X343616Y103747D01*
X343654Y103597D01*
X343714Y103444D01*
X343765Y103288D01*
X343831Y103148D01*
X343888Y103004D01*
X343966Y102860D01*
X344036Y102711D01*
X344119Y102581D01*
X344193Y102445D01*
X344289Y102312D01*
X344377Y102173D01*
X344476Y102054D01*
X344566Y101928D01*
X344678Y101808D01*
X344783Y101682D01*
X344896Y101576D01*
X345001Y101463D01*
X345127Y101358D01*
X345247Y101245D01*
X345372Y101154D01*
X345491Y101055D01*
X345629Y100967D01*
X345762Y100870D01*
X345897Y100796D01*
X346028Y100712D01*
X346176Y100642D01*
X346320Y100563D01*
X346464Y100506D01*
X346604Y100439D01*
X346760Y100388D01*
X346912Y100327D01*
X347062Y100289D01*
X347209Y100240D01*
X347370Y100209D01*
X347529Y100168D01*
X347682Y100148D01*
X347834Y100119D01*
X347993Y100109D01*
X348161Y100087D01*
X348329Y100087D01*
X348488Y100077D01*
X364924Y100077D01*
X364798Y99831D01*
X363802Y98460D01*
X363795Y98452D01*
X363722Y98355D01*
X363640Y98263D01*
X363530Y98100D01*
X363412Y97944D01*
X363351Y97837D01*
X363282Y97736D01*
X363193Y97561D01*
X363095Y97391D01*
X363048Y97277D01*
X362993Y97168D01*
X362926Y96984D01*
X362850Y96802D01*
X362818Y96684D01*
X362776Y96569D01*
X362733Y96378D01*
X362681Y96188D01*
X362664Y96067D01*
X362637Y95947D01*
X362618Y95752D01*
X362590Y95558D01*
X362588Y95435D01*
X362576Y95313D01*
X362582Y95117D01*
X362579Y94921D01*
X362592Y94799D01*
X362596Y94676D01*
X362626Y94482D01*
X362647Y94287D01*
X362675Y94168D01*
X362694Y94047D01*
X362749Y93858D01*
X362794Y93667D01*
X362837Y93553D01*
X362871Y93435D01*
X362949Y93254D01*
X363018Y93071D01*
X363075Y92962D01*
X363123Y92850D01*
X363223Y92681D01*
X363314Y92507D01*
X363385Y92406D01*
X363447Y92301D01*
X363567Y92145D01*
X363679Y91984D01*
X363762Y91893D01*
X363836Y91797D01*
X363975Y91657D01*
X364107Y91512D01*
X364200Y91432D01*
X364286Y91345D01*
X364441Y91225D01*
X364590Y91096D01*
X364692Y91029D01*
X364789Y90954D01*
X364957Y90853D01*
X365121Y90745D01*
X365229Y90692D01*
X365336Y90628D01*
X365532Y90543D01*
X365709Y90456D01*
X367170Y89851D01*
X367599Y89422D01*
X367831Y88861D01*
X367831Y82208D01*
X367835Y82135D01*
X367833Y82062D01*
X367855Y81817D01*
X367871Y81572D01*
X367884Y81500D01*
X367891Y81427D01*
X367944Y81187D01*
X367990Y80946D01*
X368013Y80876D01*
X368028Y80805D01*
X368111Y80574D01*
X368187Y80340D01*
X368218Y80274D01*
X368242Y80205D01*
X368353Y79986D01*
X368458Y79763D01*
X368497Y79702D01*
X368530Y79637D01*
X368667Y79433D01*
X368799Y79225D01*
X368845Y79169D01*
X368886Y79108D01*
X369039Y78935D01*
X369204Y78734D01*
X369265Y78677D01*
X369318Y78616D01*
X383978Y63956D01*
X384033Y63908D01*
X384083Y63855D01*
X384272Y63697D01*
X384456Y63535D01*
X384516Y63494D01*
X384572Y63447D01*
X384780Y63315D01*
X384983Y63177D01*
X385048Y63144D01*
X385109Y63104D01*
X385331Y62999D01*
X385550Y62887D01*
X385619Y62863D01*
X385685Y62831D01*
X385919Y62755D01*
X386150Y62671D01*
X386221Y62655D01*
X386290Y62632D01*
X386532Y62586D01*
X386772Y62532D01*
X386844Y62525D01*
X386916Y62511D01*
X387147Y62496D01*
X387406Y62471D01*
X387489Y62474D01*
X387570Y62469D01*
X391734Y62469D01*
X391970Y62484D01*
G37*
G36*
X393702Y183748D02*
X393702Y183748D01*
X393816Y183746D01*
X394019Y183768D01*
X394224Y183781D01*
X394335Y183802D01*
X394449Y183814D01*
X394649Y183862D01*
X394850Y183900D01*
X394958Y183935D01*
X395069Y183961D01*
X395261Y184033D01*
X395456Y184097D01*
X395559Y184145D01*
X395665Y184185D01*
X395847Y184280D01*
X396032Y184368D01*
X396128Y184429D01*
X396229Y184482D01*
X396397Y184599D01*
X396570Y184709D01*
X396658Y184781D01*
X396752Y184847D01*
X396903Y184984D01*
X397062Y185114D01*
X397140Y185198D01*
X397224Y185274D01*
X397358Y185429D01*
X397498Y185578D01*
X397565Y185671D01*
X397640Y185757D01*
X397752Y185928D01*
X397873Y186093D01*
X397928Y186193D01*
X397991Y186288D01*
X398078Y186465D01*
X398090Y186487D01*
X400845Y189241D01*
X400865Y189255D01*
X401035Y189355D01*
X401132Y189430D01*
X401234Y189497D01*
X401383Y189624D01*
X401539Y189744D01*
X401626Y189831D01*
X401719Y189911D01*
X401851Y190056D01*
X401990Y190194D01*
X402065Y190291D01*
X402148Y190382D01*
X402261Y190542D01*
X402382Y190697D01*
X402444Y190802D01*
X402515Y190903D01*
X402607Y191076D01*
X402707Y191244D01*
X402756Y191357D01*
X402814Y191466D01*
X402883Y191649D01*
X402961Y191829D01*
X402996Y191947D01*
X403039Y192061D01*
X403085Y192252D01*
X403140Y192440D01*
X403160Y192561D01*
X403189Y192681D01*
X403211Y192875D01*
X403242Y193069D01*
X403246Y193192D01*
X403260Y193314D01*
X403257Y193510D01*
X403263Y193706D01*
X403252Y193828D01*
X403250Y193951D01*
X403223Y194145D01*
X403205Y194340D01*
X403179Y194460D01*
X403162Y194582D01*
X403110Y194771D01*
X403068Y194963D01*
X403027Y195078D01*
X402995Y195197D01*
X402920Y195378D01*
X402854Y195563D01*
X402799Y195672D01*
X402752Y195786D01*
X402655Y195956D01*
X402567Y196131D01*
X402498Y196233D01*
X402437Y196340D01*
X402320Y196497D01*
X402210Y196659D01*
X402131Y196749D01*
X402056Y196850D01*
X401908Y197004D01*
X401778Y197152D01*
X398742Y200188D01*
X398687Y200236D01*
X398637Y200289D01*
X398448Y200447D01*
X398264Y200609D01*
X398204Y200650D01*
X398148Y200697D01*
X397940Y200829D01*
X397737Y200967D01*
X397672Y201000D01*
X397611Y201040D01*
X397389Y201145D01*
X397170Y201257D01*
X397101Y201281D01*
X397035Y201313D01*
X396801Y201389D01*
X396570Y201473D01*
X396499Y201489D01*
X396430Y201512D01*
X396188Y201558D01*
X395948Y201612D01*
X395876Y201619D01*
X395804Y201633D01*
X395573Y201648D01*
X395314Y201673D01*
X395231Y201670D01*
X395150Y201675D01*
X380697Y201675D01*
X380136Y201907D01*
X379707Y202336D01*
X379343Y203217D01*
X379238Y203430D01*
X379141Y203646D01*
X379098Y203715D01*
X379062Y203789D01*
X378932Y203987D01*
X378809Y204189D01*
X378758Y204253D01*
X378713Y204322D01*
X378559Y204502D01*
X378411Y204687D01*
X378352Y204744D01*
X378299Y204806D01*
X378124Y204966D01*
X377954Y205131D01*
X377889Y205180D01*
X377828Y205235D01*
X377634Y205372D01*
X377445Y205514D01*
X377374Y205555D01*
X377307Y205602D01*
X377098Y205713D01*
X376892Y205831D01*
X376817Y205862D01*
X376744Y205901D01*
X376523Y205985D01*
X376304Y206076D01*
X376225Y206097D01*
X376148Y206126D01*
X375918Y206182D01*
X375690Y206245D01*
X375609Y206257D01*
X375529Y206276D01*
X375293Y206302D01*
X375059Y206336D01*
X374977Y206337D01*
X374896Y206347D01*
X374659Y206343D01*
X374422Y206347D01*
X374341Y206339D01*
X374259Y206337D01*
X374024Y206304D01*
X373789Y206279D01*
X373709Y206260D01*
X373628Y206249D01*
X373400Y206187D01*
X373169Y206132D01*
X373092Y206103D01*
X373013Y206081D01*
X372794Y205991D01*
X372572Y205908D01*
X372500Y205870D01*
X372424Y205839D01*
X372218Y205722D01*
X372008Y205612D01*
X371941Y205565D01*
X371870Y205524D01*
X371680Y205382D01*
X371486Y205247D01*
X371425Y205192D01*
X371360Y205143D01*
X371189Y204978D01*
X371014Y204819D01*
X370960Y204757D01*
X370901Y204700D01*
X370753Y204516D01*
X370598Y204336D01*
X370553Y204268D01*
X370501Y204204D01*
X370378Y204003D01*
X370247Y203805D01*
X370211Y203732D01*
X370167Y203661D01*
X370060Y203425D01*
X369957Y203217D01*
X369593Y202336D01*
X369164Y201907D01*
X368603Y201675D01*
X367230Y201675D01*
X366993Y201660D01*
X366757Y201653D01*
X366675Y201640D01*
X366594Y201635D01*
X366362Y201591D01*
X366127Y201554D01*
X366048Y201531D01*
X365968Y201516D01*
X365743Y201443D01*
X365515Y201377D01*
X365440Y201345D01*
X365362Y201319D01*
X365147Y201218D01*
X364930Y201125D01*
X364860Y201083D01*
X364785Y201048D01*
X364585Y200921D01*
X364381Y200801D01*
X364316Y200751D01*
X364247Y200707D01*
X364064Y200556D01*
X363877Y200412D01*
X363819Y200354D01*
X363756Y200302D01*
X363593Y200129D01*
X363426Y199962D01*
X363375Y199897D01*
X363319Y199838D01*
X363180Y199646D01*
X363034Y199459D01*
X362992Y199389D01*
X362944Y199323D01*
X362830Y199115D01*
X362709Y198912D01*
X362676Y198836D01*
X362637Y198765D01*
X362549Y198545D01*
X362455Y198327D01*
X362432Y198249D01*
X362401Y198172D01*
X362342Y197943D01*
X362275Y197716D01*
X362262Y197635D01*
X362242Y197556D01*
X362212Y197321D01*
X362174Y197087D01*
X362171Y197005D01*
X362161Y196924D01*
X362161Y196687D01*
X362152Y196450D01*
X362160Y196369D01*
X362160Y196286D01*
X362189Y196052D01*
X362211Y195816D01*
X362228Y195736D01*
X362238Y195654D01*
X362297Y195425D01*
X362348Y195194D01*
X362375Y195116D01*
X362396Y195037D01*
X362482Y194816D01*
X362562Y194593D01*
X362599Y194520D01*
X362629Y194444D01*
X362743Y194236D01*
X362849Y194025D01*
X362895Y193957D01*
X362934Y193885D01*
X363073Y193693D01*
X363206Y193497D01*
X363259Y193436D01*
X363308Y193368D01*
X363485Y193179D01*
X363638Y193004D01*
X367164Y189478D01*
X367219Y189430D01*
X367269Y189377D01*
X367458Y189220D01*
X367642Y189057D01*
X367702Y189016D01*
X367758Y188969D01*
X367966Y188837D01*
X368169Y188699D01*
X368234Y188666D01*
X368295Y188626D01*
X368518Y188521D01*
X368737Y188409D01*
X368805Y188385D01*
X368871Y188353D01*
X369105Y188277D01*
X369336Y188193D01*
X369407Y188177D01*
X369476Y188154D01*
X369717Y188108D01*
X369958Y188054D01*
X370030Y188047D01*
X370102Y188033D01*
X370333Y188018D01*
X370592Y187993D01*
X370675Y187996D01*
X370756Y187991D01*
X377559Y187991D01*
X378120Y187759D01*
X378549Y187330D01*
X378736Y186876D01*
X378786Y186774D01*
X378828Y186668D01*
X378927Y186488D01*
X379017Y186304D01*
X379079Y186209D01*
X379134Y186109D01*
X379254Y185942D01*
X379366Y185771D01*
X379440Y185685D01*
X379507Y185592D01*
X379647Y185443D01*
X379780Y185287D01*
X379864Y185210D01*
X379942Y185127D01*
X380100Y184996D01*
X380251Y184858D01*
X380344Y184792D01*
X380432Y184719D01*
X380605Y184609D01*
X380772Y184491D01*
X380873Y184438D01*
X380969Y184376D01*
X381154Y184288D01*
X381335Y184193D01*
X381441Y184152D01*
X381544Y184103D01*
X381739Y184039D01*
X381931Y183967D01*
X382042Y183940D01*
X382150Y183904D01*
X382351Y183865D01*
X382550Y183817D01*
X382663Y183805D01*
X382775Y183783D01*
X382972Y183770D01*
X383183Y183747D01*
X383309Y183748D01*
X383429Y183741D01*
X393588Y183741D01*
X393702Y183748D01*
G37*
%LPC*%
G36*
X447207Y100385D02*
X447207Y100385D01*
X446646Y100617D01*
X446217Y101046D01*
X445985Y101607D01*
X445985Y114293D01*
X446217Y114854D01*
X446646Y115283D01*
X447207Y115515D01*
X459893Y115515D01*
X460454Y115283D01*
X461009Y114727D01*
X461126Y114624D01*
X461236Y114514D01*
X461365Y114414D01*
X461487Y114306D01*
X461615Y114218D01*
X461739Y114123D01*
X461879Y114039D01*
X462014Y113948D01*
X462153Y113877D01*
X462286Y113797D01*
X462436Y113732D01*
X462581Y113658D01*
X462728Y113605D01*
X462871Y113543D01*
X463027Y113497D01*
X463181Y113442D01*
X463333Y113408D01*
X463482Y113364D01*
X463643Y113338D01*
X463802Y113303D01*
X463957Y113288D01*
X464111Y113263D01*
X464275Y113258D01*
X464437Y113242D01*
X464592Y113247D01*
X464748Y113242D01*
X464911Y113257D01*
X465074Y113262D01*
X465227Y113286D01*
X465382Y113300D01*
X465542Y113335D01*
X465703Y113361D01*
X465852Y113404D01*
X466005Y113437D01*
X466159Y113492D01*
X466315Y113538D01*
X466458Y113599D01*
X466605Y113652D01*
X466750Y113725D01*
X466900Y113790D01*
X467034Y113869D01*
X467173Y113939D01*
X467308Y114030D01*
X467449Y114113D01*
X467572Y114209D01*
X467701Y114296D01*
X467775Y114361D01*
X468471Y114866D01*
X468471Y107950D01*
X468471Y101034D01*
X467784Y101533D01*
X467716Y101593D01*
X467587Y101681D01*
X467464Y101777D01*
X467324Y101860D01*
X467189Y101952D01*
X467050Y102022D01*
X466916Y102102D01*
X466767Y102167D01*
X466621Y102241D01*
X466475Y102294D01*
X466332Y102356D01*
X466175Y102402D01*
X466022Y102458D01*
X465870Y102492D01*
X465721Y102535D01*
X465559Y102561D01*
X465400Y102597D01*
X465245Y102612D01*
X465092Y102637D01*
X464929Y102642D01*
X464766Y102658D01*
X464610Y102653D01*
X464455Y102658D01*
X464292Y102644D01*
X464129Y102639D01*
X463975Y102614D01*
X463820Y102600D01*
X463661Y102565D01*
X463500Y102540D01*
X463350Y102497D01*
X463198Y102463D01*
X463045Y102408D01*
X462888Y102363D01*
X462744Y102301D01*
X462598Y102249D01*
X462453Y102176D01*
X462303Y102111D01*
X462168Y102032D01*
X462029Y101962D01*
X461894Y101870D01*
X461754Y101788D01*
X461630Y101692D01*
X461501Y101605D01*
X461382Y101500D01*
X461249Y101398D01*
X461129Y101279D01*
X461009Y101173D01*
X460454Y100617D01*
X459893Y100385D01*
X447207Y100385D01*
G37*
%LPD*%
%LPC*%
G36*
X92670Y216943D02*
X92670Y216943D01*
X92238Y217122D01*
X91975Y217212D01*
X91714Y217307D01*
X91674Y217316D01*
X91635Y217329D01*
X91364Y217385D01*
X91092Y217446D01*
X91051Y217450D01*
X91011Y217458D01*
X90991Y217460D01*
X90843Y217628D01*
X89227Y219244D01*
X88419Y221194D01*
X88419Y223306D01*
X89227Y225256D01*
X90720Y226749D01*
X92670Y227557D01*
X94782Y227557D01*
X96732Y226749D01*
X98225Y225256D01*
X99033Y223306D01*
X99033Y221194D01*
X98225Y219244D01*
X96732Y217751D01*
X94782Y216943D01*
X92670Y216943D01*
G37*
%LPD*%
%LPC*%
G36*
X82764Y198909D02*
X82764Y198909D01*
X80814Y199717D01*
X79321Y201210D01*
X78513Y203160D01*
X78513Y205272D01*
X79321Y207222D01*
X80814Y208715D01*
X82764Y209523D01*
X84876Y209523D01*
X85308Y209344D01*
X85571Y209254D01*
X85832Y209159D01*
X85872Y209150D01*
X85911Y209137D01*
X86182Y209081D01*
X86454Y209020D01*
X86495Y209016D01*
X86535Y209008D01*
X86555Y209006D01*
X86703Y208838D01*
X88319Y207222D01*
X89127Y205272D01*
X89127Y203160D01*
X88319Y201210D01*
X86826Y199717D01*
X84876Y198909D01*
X82764Y198909D01*
G37*
%LPD*%
%LPC*%
G36*
X125690Y223547D02*
X125690Y223547D01*
X123740Y224355D01*
X122247Y225848D01*
X121439Y227798D01*
X121439Y229910D01*
X122247Y231860D01*
X123740Y233353D01*
X125690Y234161D01*
X127802Y234161D01*
X129752Y233353D01*
X131245Y231860D01*
X132053Y229910D01*
X132053Y227798D01*
X131245Y225848D01*
X129752Y224355D01*
X127802Y223547D01*
X125690Y223547D01*
G37*
%LPD*%
%LPC*%
G36*
X149312Y223039D02*
X149312Y223039D01*
X147362Y223847D01*
X145869Y225340D01*
X145061Y227290D01*
X145061Y229402D01*
X145869Y231352D01*
X147362Y232845D01*
X149312Y233653D01*
X151424Y233653D01*
X153374Y232845D01*
X154867Y231352D01*
X155675Y229402D01*
X155675Y227290D01*
X154867Y225340D01*
X153374Y223847D01*
X151424Y223039D01*
X149312Y223039D01*
G37*
%LPD*%
%LPC*%
G36*
X227798Y143283D02*
X227798Y143283D01*
X225848Y144091D01*
X224355Y145584D01*
X223547Y147534D01*
X223547Y149646D01*
X224355Y151596D01*
X225848Y153089D01*
X227798Y153897D01*
X229910Y153897D01*
X231860Y153089D01*
X233353Y151596D01*
X234161Y149646D01*
X234161Y147534D01*
X233353Y145584D01*
X231860Y144091D01*
X229910Y143283D01*
X227798Y143283D01*
G37*
%LPD*%
%LPC*%
G36*
X190714Y131853D02*
X190714Y131853D01*
X188764Y132661D01*
X187271Y134154D01*
X186463Y136104D01*
X186463Y138216D01*
X187271Y140166D01*
X188764Y141659D01*
X190714Y142467D01*
X192826Y142467D01*
X194776Y141659D01*
X196269Y140166D01*
X197077Y138216D01*
X197077Y136104D01*
X196269Y134154D01*
X194776Y132661D01*
X192826Y131853D01*
X190714Y131853D01*
G37*
%LPD*%
%LPC*%
G36*
X366228Y27205D02*
X366228Y27205D01*
X364278Y28013D01*
X362785Y29506D01*
X361977Y31456D01*
X361977Y33568D01*
X362785Y35518D01*
X364278Y37011D01*
X366228Y37819D01*
X368340Y37819D01*
X370290Y37011D01*
X371783Y35518D01*
X372591Y33568D01*
X372591Y31456D01*
X371783Y29506D01*
X370290Y28013D01*
X368340Y27205D01*
X366228Y27205D01*
G37*
%LPD*%
%LPC*%
G36*
X418591Y141223D02*
X418591Y141223D01*
X418591Y146305D01*
X421932Y146305D01*
X423511Y146055D01*
X425032Y145560D01*
X426457Y144834D01*
X427751Y143894D01*
X428882Y142763D01*
X429822Y141469D01*
X429948Y141223D01*
X418591Y141223D01*
G37*
%LPD*%
%LPC*%
G36*
X418591Y110235D02*
X418591Y110235D01*
X418591Y115317D01*
X421932Y115317D01*
X423511Y115067D01*
X425032Y114572D01*
X426457Y113846D01*
X427751Y112906D01*
X428882Y111775D01*
X429822Y110481D01*
X429948Y110235D01*
X418591Y110235D01*
G37*
%LPD*%
%LPC*%
G36*
X397076Y110235D02*
X397076Y110235D01*
X397202Y110481D01*
X398142Y111775D01*
X399273Y112906D01*
X400567Y113846D01*
X401992Y114572D01*
X403513Y115067D01*
X405092Y115317D01*
X408433Y115317D01*
X408433Y110235D01*
X397076Y110235D01*
G37*
%LPD*%
%LPC*%
G36*
X418591Y125983D02*
X418591Y125983D01*
X418591Y131065D01*
X429948Y131065D01*
X429822Y130819D01*
X428882Y129525D01*
X427751Y128394D01*
X426457Y127454D01*
X425032Y126728D01*
X423511Y126233D01*
X421932Y125983D01*
X418591Y125983D01*
G37*
%LPD*%
%LPC*%
G36*
X405092Y125983D02*
X405092Y125983D01*
X403513Y126233D01*
X401992Y126728D01*
X400567Y127454D01*
X399273Y128394D01*
X398142Y129525D01*
X397202Y130819D01*
X397076Y131065D01*
X408433Y131065D01*
X408433Y125983D01*
X405092Y125983D01*
G37*
%LPD*%
%LPC*%
G36*
X366206Y155925D02*
X366206Y155925D01*
X365715Y156023D01*
X365253Y156214D01*
X364836Y156493D01*
X364483Y156846D01*
X364204Y157263D01*
X364013Y157725D01*
X363915Y158216D01*
X363915Y158637D01*
X366777Y158637D01*
X366777Y155925D01*
X366206Y155925D01*
G37*
%LPD*%
%LPC*%
G36*
X65834Y303529D02*
X65834Y303529D01*
X66205Y304040D01*
X67160Y304995D01*
X67671Y305366D01*
X67671Y303529D01*
X65834Y303529D01*
G37*
%LPD*%
%LPC*%
G36*
X67160Y291905D02*
X67160Y291905D01*
X66205Y292860D01*
X65834Y293371D01*
X67671Y293371D01*
X67671Y291534D01*
X67160Y291905D01*
G37*
%LPD*%
D10*
X453550Y107950D03*
D11*
X473550Y107950D03*
X72750Y298450D03*
X87750Y298450D03*
X102750Y298450D03*
X117750Y298450D03*
D12*
X19050Y33020D02*
X19050Y17780D01*
X44450Y17780D02*
X44450Y33020D01*
X69850Y33020D02*
X69850Y17780D01*
X95250Y17780D02*
X95250Y33020D01*
X120650Y33020D02*
X120650Y17780D01*
X146050Y17780D02*
X146050Y33020D01*
X171450Y33020D02*
X171450Y17780D01*
X196850Y17780D02*
X196850Y33020D01*
X222250Y33020D02*
X222250Y17780D01*
X247650Y17780D02*
X247650Y33020D01*
X273050Y33020D02*
X273050Y17780D01*
X298450Y17780D02*
X298450Y33020D01*
X323850Y33020D02*
X323850Y17780D01*
D13*
X304800Y258450D02*
X304800Y274950D01*
X330200Y274950D02*
X330200Y258450D01*
X355600Y258450D02*
X355600Y274950D01*
D12*
X356108Y181356D02*
X340868Y181356D01*
X340868Y136144D02*
X356108Y136144D01*
X405892Y181356D02*
X421132Y181356D01*
X421132Y136144D02*
X405892Y136144D01*
D14*
X371856Y181216D03*
X371856Y163716D03*
D15*
X391160Y166488D03*
X391160Y149488D03*
D12*
X405892Y59944D02*
X421132Y59944D01*
X421132Y105156D02*
X405892Y105156D01*
X356108Y59944D02*
X340868Y59944D01*
X340868Y105156D02*
X356108Y105156D01*
D16*
X419976Y78232D03*
X402476Y78232D03*
D17*
X361306Y83058D03*
X344306Y83058D03*
D18*
X355600Y234950D03*
X355600Y209550D03*
X393700Y234950D03*
X393700Y209550D03*
D12*
X318770Y215900D02*
X303530Y215900D01*
X303530Y190500D02*
X318770Y190500D01*
X318770Y165100D02*
X303530Y165100D01*
X146050Y309880D02*
X146050Y325120D01*
X171450Y325120D02*
X171450Y309880D01*
X196850Y309880D02*
X196850Y325120D01*
X222250Y325120D02*
X222250Y309880D01*
X247650Y309880D02*
X247650Y325120D01*
X273050Y325120D02*
X273050Y309880D01*
X298450Y309880D02*
X298450Y325120D01*
X323850Y325120D02*
X323850Y309880D01*
X349250Y309880D02*
X349250Y325120D01*
X374650Y325120D02*
X374650Y309880D01*
X400050Y309880D02*
X400050Y325120D01*
X425450Y325120D02*
X425450Y309880D01*
X450850Y309880D02*
X450850Y325120D01*
X476250Y325120D02*
X476250Y309880D01*
D19*
X85254Y104746D02*
X85254Y72644D01*
X85254Y65442D01*
D20*
X85254Y104746D02*
X85000Y105000D01*
D21*
X330000Y70000D03*
X62500Y62500D03*
X85000Y105000D03*
D22*
X62500Y42688D02*
X62500Y42672D01*
D19*
X62500Y42688D02*
X85254Y65442D01*
X62500Y42672D02*
X45228Y25400D01*
D22*
X44450Y25400D01*
X364354Y122682D02*
X391160Y149488D01*
X341938Y122682D02*
X330000Y110744D01*
X341938Y122682D02*
X364354Y122682D01*
X330000Y110744D02*
X330000Y70000D01*
X331248Y70000D02*
X344306Y83058D01*
X331248Y70000D02*
X330000Y70000D01*
D19*
X75110Y62500D02*
X62500Y62500D01*
X75110Y62500D02*
X85254Y72644D01*
D22*
X447500Y135000D02*
X472500Y110000D01*
X447500Y135000D02*
X415000Y135000D01*
X472500Y110000D02*
X473550Y107950D01*
X415000Y135000D02*
X413512Y136144D01*
D20*
X92500Y317500D02*
X75000Y300000D01*
X92500Y317500D02*
X146050Y317500D01*
X75000Y300000D02*
X72750Y298450D01*
D21*
X395478Y194818D03*
D23*
X375412Y194818D01*
D21*
X375412Y194818D03*
D22*
X371856Y163716D02*
X371856Y159512D01*
X348488Y136144D01*
X348488Y105156D02*
X413512Y105156D01*
X402476Y94120D02*
X402476Y78232D01*
X402476Y94120D02*
X413512Y105156D01*
X252500Y297500D02*
X272500Y317500D01*
X252500Y297500D02*
X245000Y297500D01*
X240000Y292500D01*
X275000Y282500D02*
X277500Y285000D01*
X282500Y285000D01*
X287500Y280000D01*
X262500Y270000D02*
X260000Y272500D01*
X135000Y272500D01*
X117500Y255000D01*
X90000Y255000D01*
X85000Y260000D01*
D20*
X272500Y317500D02*
X273050Y317500D01*
X102750Y298450D02*
X102500Y297500D01*
D22*
X85000Y280000D01*
X85000Y260000D01*
X262500Y270000D02*
X281684Y270000D01*
X287500Y275816D02*
X287500Y280000D01*
X287500Y275816D02*
X281684Y270000D01*
X275000Y282500D02*
X245820Y282500D01*
X240000Y288320D02*
X240000Y292500D01*
X240000Y288320D02*
X245820Y282500D01*
X195000Y317500D02*
X175000Y297500D01*
X132500Y297500D01*
X122500Y307500D01*
X97500Y307500D01*
X90000Y300000D01*
X195000Y317500D02*
X196850Y317500D01*
X90000Y300000D02*
X87750Y298450D01*
X115000Y262500D02*
X135000Y282500D01*
X187250Y282500D01*
X222250Y317500D01*
D20*
X279746Y277754D02*
X280000Y277500D01*
D21*
X115000Y262500D03*
X280000Y277500D03*
D22*
X211784Y282500D02*
X187250Y282500D01*
X211784Y282500D02*
X216530Y277754D01*
X279746Y277754D01*
X282500Y220000D02*
X310000Y192500D01*
X282500Y220000D02*
X245000Y220000D01*
X310000Y192500D02*
X311150Y190500D01*
D21*
X245000Y220000D03*
D22*
X102500Y62500D02*
X67500Y27500D01*
D20*
X69850Y25400D01*
D22*
X284680Y77500D02*
X291016Y71164D01*
X284680Y77500D02*
X117500Y77500D01*
X102500Y62500D01*
D21*
X102500Y62500D03*
X291016Y71164D03*
D22*
X307500Y290000D02*
X247500Y290000D01*
X307500Y290000D02*
X330000Y267500D01*
D20*
X330200Y266700D01*
D21*
X247500Y290000D03*
D22*
X110000Y40000D02*
X97500Y27500D01*
X95250Y25400D01*
D21*
X112500Y62500D03*
D22*
X112500Y42500D01*
X110000Y40000D01*
X125000Y27500D02*
X125000Y62500D01*
X125000Y27500D02*
X122500Y27500D01*
X120650Y25400D01*
D21*
X125000Y62500D03*
D22*
X140000Y62500D02*
X140000Y27500D01*
D20*
X145000Y27500D01*
X146050Y25400D01*
D21*
X140000Y62500D03*
D22*
X169306Y25400D02*
X171450Y25400D01*
X169306Y25400D02*
X152500Y42206D01*
X152500Y62500D01*
D21*
X152500Y62500D03*
D22*
X165000Y62500D02*
X195000Y32500D01*
X195000Y27500D01*
X196850Y25400D01*
D21*
X165000Y62500D03*
D22*
X180214Y64492D02*
X182479Y62519D01*
X222250Y25400D01*
D21*
X180214Y64492D03*
D22*
X192206Y70508D02*
X217714Y45000D01*
X230000Y45000D01*
X247500Y27500D01*
X247650Y25400D01*
D21*
X192206Y70508D03*
D22*
X203690Y69746D02*
X223436Y50000D01*
X250000Y50000D01*
X272500Y27500D01*
X273050Y25400D01*
D21*
X203690Y69746D03*
D22*
X216698Y69492D02*
X226190Y60000D01*
X245000Y60000D01*
X260000Y45000D01*
X280000Y45000D01*
X297500Y27500D01*
D20*
X298450Y25400D01*
D21*
X216698Y69492D03*
D20*
X168476Y262246D02*
X173730Y267500D01*
X255000Y267500D01*
X257500Y265000D01*
D21*
X168476Y262246D03*
X257500Y265000D03*
D22*
X190214Y250000D02*
X180468Y259746D01*
X190214Y250000D02*
X297500Y250000D01*
X300000Y247500D01*
X335000Y247500D01*
X342246Y254746D01*
X342246Y298182D01*
X323850Y313316D02*
X323850Y317500D01*
D21*
X180468Y259746D03*
D22*
X327112Y313316D02*
X342246Y298182D01*
X327112Y313316D02*
X323850Y313316D01*
X200000Y235000D02*
X192500Y242500D01*
X317500Y235000D02*
X355000Y235000D01*
X317500Y235000D02*
X200000Y235000D01*
D20*
X355000Y235000D02*
X355600Y234950D01*
D21*
X192500Y242500D03*
X317500Y235000D03*
D22*
X340000Y242500D02*
X202500Y242500D01*
D20*
X340000Y242500D02*
X342500Y245000D01*
X375000Y245000D02*
X382500Y245000D01*
X375000Y245000D02*
X342500Y245000D01*
X382500Y245000D02*
X392500Y235000D01*
X393700Y234950D01*
X375000Y245000D02*
X375000Y317500D01*
X374650Y317500D01*
D21*
X202500Y242500D03*
D20*
X195000Y230000D02*
X197500Y227500D01*
D22*
X340000Y227500D01*
X342500Y225000D01*
X407500Y225000D01*
X410000Y227500D01*
D21*
X195000Y230000D03*
D22*
X410000Y227500D02*
X410000Y307550D01*
X400050Y317500D01*
X120000Y290000D02*
X92500Y262500D01*
X120000Y290000D02*
X142500Y290000D01*
D21*
X92500Y262500D03*
X142500Y290000D03*
D20*
X252500Y62500D02*
X255000Y60000D01*
D22*
X290000Y60000D01*
X322500Y27500D01*
D20*
X323850Y25400D01*
D21*
X252500Y62500D03*
D22*
X242500Y120000D02*
X302500Y180000D01*
X322754Y180000D01*
X334666Y191912D01*
X340000Y220000D02*
X407500Y220000D01*
X450000Y262500D01*
X450000Y317500D01*
D20*
X450850Y317500D01*
D21*
X242500Y120000D03*
D22*
X334666Y214666D02*
X340000Y220000D01*
X334666Y214666D02*
X334666Y191912D01*
X355600Y197472D02*
X371856Y181216D01*
X413372Y181216D01*
X413512Y181356D01*
X371856Y181216D02*
X348628Y181216D01*
X348488Y181356D01*
X376432Y181216D02*
X391160Y166488D01*
X376432Y181216D02*
X371856Y181216D01*
X355600Y197472D02*
X355600Y209550D01*
X395000Y207500D02*
X410000Y192500D01*
X425000Y192500D01*
X482500Y135000D01*
D20*
X395000Y207500D02*
X393700Y209550D01*
D22*
X482500Y135000D02*
X482500Y90578D01*
X470294Y78372D02*
X419976Y78232D01*
X470294Y78372D02*
X482500Y90578D01*
X419976Y78232D02*
X419976Y66408D01*
X413512Y59944D01*
X384420Y59944D02*
X361306Y83058D01*
X384420Y59944D02*
X413512Y59944D01*
X384420Y59944D02*
X348488Y59944D01*
D21*
X83820Y204216D03*
X150368Y228346D03*
X126746Y228854D03*
X93726Y222250D03*
X318516Y133096D03*
X228854Y148590D03*
X191770Y137160D03*
X367284Y32512D03*
M02*
