G04 EAGLE Gerber RS-274X export*
G75*
%MOMM*%
%FSLAX34Y34*%
%LPD*%
%IN*%
%IPPOS*%
%AMOC8*
5,1,8,0,0,1.08239X$1,22.5*%
G01*
%ADD10C,0.254000*%


D10*
X-1000Y0D02*
X449000Y0D01*
X449000Y25400D01*
X499000Y25400D01*
X499000Y345000D01*
X-1000Y345000D01*
X-1000Y0D01*
X428000Y29563D02*
X427924Y28694D01*
X427772Y27834D01*
X427546Y26990D01*
X427248Y26170D01*
X426879Y25378D01*
X426442Y24622D01*
X425941Y23907D01*
X425380Y23238D01*
X424762Y22620D01*
X424093Y22059D01*
X423378Y21558D01*
X422622Y21121D01*
X421830Y20752D01*
X421010Y20454D01*
X420166Y20228D01*
X419307Y20076D01*
X418437Y20000D01*
X417563Y20000D01*
X416694Y20076D01*
X415834Y20228D01*
X414990Y20454D01*
X414170Y20752D01*
X413378Y21121D01*
X412622Y21558D01*
X411907Y22059D01*
X411238Y22620D01*
X410620Y23238D01*
X410059Y23907D01*
X409558Y24622D01*
X409121Y25378D01*
X408752Y26170D01*
X408454Y26990D01*
X408228Y27834D01*
X408076Y28694D01*
X408000Y29563D01*
X408000Y30437D01*
X408076Y31307D01*
X408228Y32166D01*
X408454Y33010D01*
X408752Y33830D01*
X409121Y34622D01*
X409558Y35378D01*
X410059Y36093D01*
X410620Y36762D01*
X411238Y37380D01*
X411907Y37941D01*
X412622Y38442D01*
X413378Y38879D01*
X414170Y39248D01*
X414990Y39546D01*
X415834Y39772D01*
X416694Y39924D01*
X417563Y40000D01*
X418437Y40000D01*
X419307Y39924D01*
X420166Y39772D01*
X421010Y39546D01*
X421830Y39248D01*
X422622Y38879D01*
X423378Y38442D01*
X424093Y37941D01*
X424762Y37380D01*
X425380Y36762D01*
X425941Y36093D01*
X426442Y35378D01*
X426879Y34622D01*
X427248Y33830D01*
X427546Y33010D01*
X427772Y32166D01*
X427924Y31307D01*
X428000Y30437D01*
X428000Y29563D01*
X40000Y314563D02*
X39924Y313694D01*
X39772Y312834D01*
X39546Y311990D01*
X39248Y311170D01*
X38879Y310378D01*
X38442Y309622D01*
X37941Y308907D01*
X37380Y308238D01*
X36762Y307620D01*
X36093Y307059D01*
X35378Y306558D01*
X34622Y306121D01*
X33830Y305752D01*
X33010Y305454D01*
X32166Y305228D01*
X31307Y305076D01*
X30437Y305000D01*
X29563Y305000D01*
X28694Y305076D01*
X27834Y305228D01*
X26990Y305454D01*
X26170Y305752D01*
X25378Y306121D01*
X24622Y306558D01*
X23907Y307059D01*
X23238Y307620D01*
X22620Y308238D01*
X22059Y308907D01*
X21558Y309622D01*
X21121Y310378D01*
X20752Y311170D01*
X20454Y311990D01*
X20228Y312834D01*
X20076Y313694D01*
X20000Y314563D01*
X20000Y315437D01*
X20076Y316307D01*
X20228Y317166D01*
X20454Y318010D01*
X20752Y318830D01*
X21121Y319622D01*
X21558Y320378D01*
X22059Y321093D01*
X22620Y321762D01*
X23238Y322380D01*
X23907Y322941D01*
X24622Y323442D01*
X25378Y323879D01*
X26170Y324248D01*
X26990Y324546D01*
X27834Y324772D01*
X28694Y324924D01*
X29563Y325000D01*
X30437Y325000D01*
X31307Y324924D01*
X32166Y324772D01*
X33010Y324546D01*
X33830Y324248D01*
X34622Y323879D01*
X35378Y323442D01*
X36093Y322941D01*
X36762Y322380D01*
X37380Y321762D01*
X37941Y321093D01*
X38442Y320378D01*
X38879Y319622D01*
X39248Y318830D01*
X39546Y318010D01*
X39772Y317166D01*
X39924Y316307D01*
X40000Y315437D01*
X40000Y314563D01*
M02*
