G04 EAGLE Gerber RS-274X export*
G75*
%MOMM*%
%FSLAX34Y34*%
%LPD*%
%INSilkscreen Top*%
%IPPOS*%
%AMOC8*
5,1,8,0,0,1.08239X$1,22.5*%
G01*
%ADD10C,0.076200*%
%ADD11C,0.200000*%
%ADD12C,0.127000*%
%ADD13C,0.152400*%
%ADD14C,0.050800*%
%ADD15C,0.203200*%


D10*
X55697Y280190D02*
X56924Y280190D01*
X56924Y276098D01*
X54469Y276098D01*
X54391Y276100D01*
X54313Y276105D01*
X54236Y276115D01*
X54159Y276128D01*
X54083Y276144D01*
X54008Y276164D01*
X53934Y276188D01*
X53861Y276215D01*
X53789Y276246D01*
X53719Y276280D01*
X53651Y276317D01*
X53584Y276358D01*
X53519Y276402D01*
X53457Y276448D01*
X53397Y276498D01*
X53339Y276550D01*
X53284Y276605D01*
X53232Y276663D01*
X53182Y276723D01*
X53136Y276785D01*
X53092Y276850D01*
X53051Y276917D01*
X53014Y276985D01*
X52980Y277055D01*
X52949Y277127D01*
X52922Y277200D01*
X52898Y277274D01*
X52878Y277349D01*
X52862Y277425D01*
X52849Y277502D01*
X52839Y277579D01*
X52834Y277657D01*
X52832Y277735D01*
X52832Y281827D01*
X52834Y281907D01*
X52840Y281987D01*
X52850Y282067D01*
X52863Y282146D01*
X52881Y282225D01*
X52902Y282302D01*
X52928Y282378D01*
X52957Y282453D01*
X52989Y282527D01*
X53025Y282599D01*
X53065Y282669D01*
X53108Y282736D01*
X53154Y282802D01*
X53204Y282865D01*
X53256Y282926D01*
X53311Y282985D01*
X53370Y283040D01*
X53430Y283092D01*
X53494Y283142D01*
X53560Y283188D01*
X53627Y283231D01*
X53697Y283271D01*
X53769Y283307D01*
X53843Y283339D01*
X53917Y283368D01*
X53994Y283394D01*
X54071Y283415D01*
X54150Y283433D01*
X54229Y283446D01*
X54309Y283456D01*
X54389Y283462D01*
X54469Y283464D01*
X56924Y283464D01*
X60635Y283464D02*
X60635Y276098D01*
X64727Y276098D02*
X60635Y283464D01*
X64727Y283464D02*
X64727Y276098D01*
X68438Y276098D02*
X68438Y283464D01*
X70484Y283464D01*
X70573Y283462D01*
X70662Y283456D01*
X70751Y283446D01*
X70839Y283433D01*
X70927Y283416D01*
X71014Y283394D01*
X71099Y283369D01*
X71184Y283341D01*
X71267Y283308D01*
X71349Y283272D01*
X71429Y283233D01*
X71507Y283190D01*
X71583Y283144D01*
X71658Y283094D01*
X71730Y283041D01*
X71799Y282985D01*
X71866Y282926D01*
X71931Y282865D01*
X71992Y282800D01*
X72051Y282733D01*
X72107Y282664D01*
X72160Y282592D01*
X72210Y282517D01*
X72256Y282441D01*
X72299Y282363D01*
X72338Y282283D01*
X72374Y282201D01*
X72407Y282118D01*
X72435Y282033D01*
X72460Y281948D01*
X72482Y281861D01*
X72499Y281773D01*
X72512Y281685D01*
X72522Y281596D01*
X72528Y281507D01*
X72530Y281418D01*
X72530Y278144D01*
X72528Y278055D01*
X72522Y277966D01*
X72512Y277877D01*
X72499Y277789D01*
X72482Y277701D01*
X72460Y277614D01*
X72435Y277529D01*
X72407Y277444D01*
X72374Y277361D01*
X72338Y277279D01*
X72299Y277199D01*
X72256Y277121D01*
X72210Y277045D01*
X72160Y276970D01*
X72107Y276898D01*
X72051Y276829D01*
X71992Y276762D01*
X71931Y276697D01*
X71866Y276636D01*
X71799Y276577D01*
X71730Y276521D01*
X71658Y276468D01*
X71583Y276418D01*
X71507Y276372D01*
X71429Y276329D01*
X71349Y276290D01*
X71267Y276254D01*
X71184Y276221D01*
X71099Y276193D01*
X71014Y276168D01*
X70927Y276146D01*
X70839Y276129D01*
X70751Y276116D01*
X70662Y276106D01*
X70573Y276100D01*
X70484Y276098D01*
X68438Y276098D01*
X471876Y130711D02*
X473103Y130711D01*
X473103Y126619D01*
X470648Y126619D01*
X470570Y126621D01*
X470492Y126626D01*
X470415Y126636D01*
X470338Y126649D01*
X470262Y126665D01*
X470187Y126685D01*
X470113Y126709D01*
X470040Y126736D01*
X469968Y126767D01*
X469898Y126801D01*
X469830Y126838D01*
X469763Y126879D01*
X469698Y126923D01*
X469636Y126969D01*
X469576Y127019D01*
X469518Y127071D01*
X469463Y127126D01*
X469411Y127184D01*
X469361Y127244D01*
X469315Y127306D01*
X469271Y127371D01*
X469230Y127438D01*
X469193Y127506D01*
X469159Y127576D01*
X469128Y127648D01*
X469101Y127721D01*
X469077Y127795D01*
X469057Y127870D01*
X469041Y127946D01*
X469028Y128023D01*
X469018Y128100D01*
X469013Y128178D01*
X469011Y128256D01*
X469011Y132348D01*
X469013Y132428D01*
X469019Y132508D01*
X469029Y132588D01*
X469042Y132667D01*
X469060Y132746D01*
X469081Y132823D01*
X469107Y132899D01*
X469136Y132974D01*
X469168Y133048D01*
X469204Y133120D01*
X469244Y133190D01*
X469287Y133257D01*
X469333Y133323D01*
X469383Y133386D01*
X469435Y133447D01*
X469490Y133506D01*
X469549Y133561D01*
X469609Y133613D01*
X469673Y133663D01*
X469739Y133709D01*
X469806Y133752D01*
X469876Y133792D01*
X469948Y133828D01*
X470022Y133860D01*
X470096Y133889D01*
X470173Y133915D01*
X470250Y133936D01*
X470329Y133954D01*
X470408Y133967D01*
X470488Y133977D01*
X470568Y133983D01*
X470648Y133985D01*
X473103Y133985D01*
X476814Y133985D02*
X476814Y126619D01*
X480906Y126619D02*
X476814Y133985D01*
X480906Y133985D02*
X480906Y126619D01*
X484617Y126619D02*
X484617Y133985D01*
X486663Y133985D01*
X486752Y133983D01*
X486841Y133977D01*
X486930Y133967D01*
X487018Y133954D01*
X487106Y133937D01*
X487193Y133915D01*
X487278Y133890D01*
X487363Y133862D01*
X487446Y133829D01*
X487528Y133793D01*
X487608Y133754D01*
X487686Y133711D01*
X487762Y133665D01*
X487837Y133615D01*
X487909Y133562D01*
X487978Y133506D01*
X488045Y133447D01*
X488110Y133386D01*
X488171Y133321D01*
X488230Y133254D01*
X488286Y133185D01*
X488339Y133113D01*
X488389Y133038D01*
X488435Y132962D01*
X488478Y132884D01*
X488517Y132804D01*
X488553Y132722D01*
X488586Y132639D01*
X488614Y132554D01*
X488639Y132469D01*
X488661Y132382D01*
X488678Y132294D01*
X488691Y132206D01*
X488701Y132117D01*
X488707Y132028D01*
X488709Y131939D01*
X488709Y128665D01*
X488707Y128576D01*
X488701Y128487D01*
X488691Y128398D01*
X488678Y128310D01*
X488661Y128222D01*
X488639Y128135D01*
X488614Y128050D01*
X488586Y127965D01*
X488553Y127882D01*
X488517Y127800D01*
X488478Y127720D01*
X488435Y127642D01*
X488389Y127566D01*
X488339Y127491D01*
X488286Y127419D01*
X488230Y127350D01*
X488171Y127283D01*
X488110Y127218D01*
X488045Y127157D01*
X487978Y127098D01*
X487909Y127042D01*
X487837Y126989D01*
X487762Y126939D01*
X487686Y126893D01*
X487608Y126850D01*
X487528Y126811D01*
X487446Y126775D01*
X487363Y126742D01*
X487278Y126714D01*
X487193Y126689D01*
X487106Y126667D01*
X487018Y126650D01*
X486930Y126637D01*
X486841Y126627D01*
X486752Y126621D01*
X486663Y126619D01*
X484617Y126619D01*
X288177Y299748D02*
X286131Y299748D01*
X288177Y299748D02*
X288266Y299746D01*
X288355Y299740D01*
X288444Y299730D01*
X288532Y299717D01*
X288620Y299700D01*
X288707Y299678D01*
X288792Y299653D01*
X288877Y299625D01*
X288960Y299592D01*
X289042Y299556D01*
X289122Y299517D01*
X289200Y299474D01*
X289276Y299428D01*
X289351Y299378D01*
X289423Y299325D01*
X289492Y299269D01*
X289559Y299210D01*
X289624Y299149D01*
X289685Y299084D01*
X289744Y299017D01*
X289800Y298948D01*
X289853Y298876D01*
X289903Y298801D01*
X289949Y298725D01*
X289992Y298647D01*
X290031Y298567D01*
X290067Y298485D01*
X290100Y298402D01*
X290128Y298317D01*
X290153Y298232D01*
X290175Y298145D01*
X290192Y298057D01*
X290205Y297969D01*
X290215Y297880D01*
X290221Y297791D01*
X290223Y297702D01*
X290221Y297613D01*
X290215Y297524D01*
X290205Y297435D01*
X290192Y297347D01*
X290175Y297259D01*
X290153Y297172D01*
X290128Y297087D01*
X290100Y297002D01*
X290067Y296919D01*
X290031Y296837D01*
X289992Y296757D01*
X289949Y296679D01*
X289903Y296603D01*
X289853Y296528D01*
X289800Y296456D01*
X289744Y296387D01*
X289685Y296320D01*
X289624Y296255D01*
X289559Y296194D01*
X289492Y296135D01*
X289423Y296079D01*
X289351Y296026D01*
X289276Y295976D01*
X289200Y295930D01*
X289122Y295887D01*
X289042Y295848D01*
X288960Y295812D01*
X288877Y295779D01*
X288792Y295751D01*
X288707Y295726D01*
X288620Y295704D01*
X288532Y295687D01*
X288444Y295674D01*
X288355Y295664D01*
X288266Y295658D01*
X288177Y295656D01*
X286131Y295656D01*
X286131Y303022D01*
X288177Y303022D01*
X288256Y303020D01*
X288335Y303014D01*
X288414Y303005D01*
X288492Y302992D01*
X288569Y302974D01*
X288645Y302954D01*
X288720Y302929D01*
X288794Y302901D01*
X288867Y302870D01*
X288938Y302834D01*
X289007Y302796D01*
X289074Y302754D01*
X289139Y302709D01*
X289202Y302661D01*
X289263Y302610D01*
X289320Y302556D01*
X289376Y302500D01*
X289428Y302441D01*
X289478Y302379D01*
X289524Y302315D01*
X289568Y302249D01*
X289608Y302181D01*
X289644Y302111D01*
X289678Y302039D01*
X289708Y301965D01*
X289734Y301891D01*
X289757Y301815D01*
X289775Y301738D01*
X289791Y301661D01*
X289802Y301582D01*
X289810Y301504D01*
X289814Y301425D01*
X289814Y301345D01*
X289810Y301266D01*
X289802Y301188D01*
X289791Y301109D01*
X289775Y301032D01*
X289757Y300955D01*
X289734Y300879D01*
X289708Y300805D01*
X289678Y300731D01*
X289644Y300659D01*
X289608Y300589D01*
X289568Y300521D01*
X289524Y300455D01*
X289478Y300391D01*
X289428Y300329D01*
X289376Y300270D01*
X289320Y300214D01*
X289263Y300160D01*
X289202Y300109D01*
X289139Y300061D01*
X289074Y300016D01*
X289007Y299974D01*
X288938Y299936D01*
X288867Y299900D01*
X288794Y299869D01*
X288720Y299841D01*
X288645Y299816D01*
X288569Y299796D01*
X288492Y299778D01*
X288414Y299765D01*
X288335Y299756D01*
X288256Y299750D01*
X288177Y299748D01*
X293085Y300976D02*
X293085Y297702D01*
X293085Y300976D02*
X293087Y301065D01*
X293093Y301154D01*
X293103Y301243D01*
X293116Y301331D01*
X293133Y301419D01*
X293155Y301506D01*
X293180Y301591D01*
X293208Y301676D01*
X293241Y301759D01*
X293277Y301841D01*
X293316Y301921D01*
X293359Y301999D01*
X293405Y302075D01*
X293455Y302150D01*
X293508Y302222D01*
X293564Y302291D01*
X293623Y302358D01*
X293684Y302423D01*
X293749Y302484D01*
X293816Y302543D01*
X293885Y302599D01*
X293957Y302652D01*
X294032Y302702D01*
X294108Y302748D01*
X294186Y302791D01*
X294266Y302830D01*
X294348Y302866D01*
X294431Y302899D01*
X294516Y302927D01*
X294601Y302952D01*
X294688Y302974D01*
X294776Y302991D01*
X294864Y303004D01*
X294953Y303014D01*
X295042Y303020D01*
X295131Y303022D01*
X295220Y303020D01*
X295309Y303014D01*
X295398Y303004D01*
X295486Y302991D01*
X295574Y302974D01*
X295661Y302952D01*
X295746Y302927D01*
X295831Y302899D01*
X295914Y302866D01*
X295996Y302830D01*
X296076Y302791D01*
X296154Y302748D01*
X296230Y302702D01*
X296305Y302652D01*
X296377Y302599D01*
X296446Y302543D01*
X296513Y302484D01*
X296578Y302423D01*
X296639Y302358D01*
X296698Y302291D01*
X296754Y302222D01*
X296807Y302150D01*
X296857Y302075D01*
X296903Y301999D01*
X296946Y301921D01*
X296985Y301841D01*
X297021Y301759D01*
X297054Y301676D01*
X297082Y301591D01*
X297107Y301506D01*
X297129Y301419D01*
X297146Y301331D01*
X297159Y301243D01*
X297169Y301154D01*
X297175Y301065D01*
X297177Y300976D01*
X297177Y297702D01*
X297175Y297613D01*
X297169Y297524D01*
X297159Y297435D01*
X297146Y297347D01*
X297129Y297259D01*
X297107Y297172D01*
X297082Y297087D01*
X297054Y297002D01*
X297021Y296919D01*
X296985Y296837D01*
X296946Y296757D01*
X296903Y296679D01*
X296857Y296603D01*
X296807Y296528D01*
X296754Y296456D01*
X296698Y296387D01*
X296639Y296320D01*
X296578Y296255D01*
X296513Y296194D01*
X296446Y296135D01*
X296377Y296079D01*
X296305Y296026D01*
X296230Y295976D01*
X296154Y295930D01*
X296076Y295887D01*
X295996Y295848D01*
X295914Y295812D01*
X295831Y295779D01*
X295746Y295751D01*
X295661Y295726D01*
X295574Y295704D01*
X295486Y295687D01*
X295398Y295674D01*
X295309Y295664D01*
X295220Y295658D01*
X295131Y295656D01*
X295042Y295658D01*
X294953Y295664D01*
X294864Y295674D01*
X294776Y295687D01*
X294688Y295704D01*
X294601Y295726D01*
X294516Y295751D01*
X294431Y295779D01*
X294348Y295812D01*
X294266Y295848D01*
X294186Y295887D01*
X294108Y295930D01*
X294032Y295976D01*
X293957Y296026D01*
X293885Y296079D01*
X293816Y296135D01*
X293749Y296194D01*
X293684Y296255D01*
X293623Y296320D01*
X293564Y296387D01*
X293508Y296456D01*
X293455Y296528D01*
X293405Y296603D01*
X293359Y296679D01*
X293316Y296757D01*
X293277Y296837D01*
X293241Y296919D01*
X293208Y297002D01*
X293180Y297087D01*
X293155Y297172D01*
X293133Y297259D01*
X293116Y297347D01*
X293103Y297435D01*
X293093Y297524D01*
X293087Y297613D01*
X293085Y297702D01*
X300400Y297702D02*
X300400Y300976D01*
X300402Y301065D01*
X300408Y301154D01*
X300418Y301243D01*
X300431Y301331D01*
X300448Y301419D01*
X300470Y301506D01*
X300495Y301591D01*
X300523Y301676D01*
X300556Y301759D01*
X300592Y301841D01*
X300631Y301921D01*
X300674Y301999D01*
X300720Y302075D01*
X300770Y302150D01*
X300823Y302222D01*
X300879Y302291D01*
X300938Y302358D01*
X300999Y302423D01*
X301064Y302484D01*
X301131Y302543D01*
X301200Y302599D01*
X301272Y302652D01*
X301347Y302702D01*
X301423Y302748D01*
X301501Y302791D01*
X301581Y302830D01*
X301663Y302866D01*
X301746Y302899D01*
X301831Y302927D01*
X301916Y302952D01*
X302003Y302974D01*
X302091Y302991D01*
X302179Y303004D01*
X302268Y303014D01*
X302357Y303020D01*
X302446Y303022D01*
X302535Y303020D01*
X302624Y303014D01*
X302713Y303004D01*
X302801Y302991D01*
X302889Y302974D01*
X302976Y302952D01*
X303061Y302927D01*
X303146Y302899D01*
X303229Y302866D01*
X303311Y302830D01*
X303391Y302791D01*
X303469Y302748D01*
X303545Y302702D01*
X303620Y302652D01*
X303692Y302599D01*
X303761Y302543D01*
X303828Y302484D01*
X303893Y302423D01*
X303954Y302358D01*
X304013Y302291D01*
X304069Y302222D01*
X304122Y302150D01*
X304172Y302075D01*
X304218Y301999D01*
X304261Y301921D01*
X304300Y301841D01*
X304336Y301759D01*
X304369Y301676D01*
X304397Y301591D01*
X304422Y301506D01*
X304444Y301419D01*
X304461Y301331D01*
X304474Y301243D01*
X304484Y301154D01*
X304490Y301065D01*
X304492Y300976D01*
X304492Y297702D01*
X304490Y297613D01*
X304484Y297524D01*
X304474Y297435D01*
X304461Y297347D01*
X304444Y297259D01*
X304422Y297172D01*
X304397Y297087D01*
X304369Y297002D01*
X304336Y296919D01*
X304300Y296837D01*
X304261Y296757D01*
X304218Y296679D01*
X304172Y296603D01*
X304122Y296528D01*
X304069Y296456D01*
X304013Y296387D01*
X303954Y296320D01*
X303893Y296255D01*
X303828Y296194D01*
X303761Y296135D01*
X303692Y296079D01*
X303620Y296026D01*
X303545Y295976D01*
X303469Y295930D01*
X303391Y295887D01*
X303311Y295848D01*
X303229Y295812D01*
X303146Y295779D01*
X303061Y295751D01*
X302976Y295726D01*
X302889Y295704D01*
X302801Y295687D01*
X302713Y295674D01*
X302624Y295664D01*
X302535Y295658D01*
X302446Y295656D01*
X302357Y295658D01*
X302268Y295664D01*
X302179Y295674D01*
X302091Y295687D01*
X302003Y295704D01*
X301916Y295726D01*
X301831Y295751D01*
X301746Y295779D01*
X301663Y295812D01*
X301581Y295848D01*
X301501Y295887D01*
X301423Y295930D01*
X301347Y295976D01*
X301272Y296026D01*
X301200Y296079D01*
X301131Y296135D01*
X301064Y296194D01*
X300999Y296255D01*
X300938Y296320D01*
X300879Y296387D01*
X300823Y296456D01*
X300770Y296528D01*
X300720Y296603D01*
X300674Y296679D01*
X300631Y296757D01*
X300592Y296837D01*
X300556Y296919D01*
X300523Y297002D01*
X300495Y297087D01*
X300470Y297172D01*
X300448Y297259D01*
X300431Y297347D01*
X300418Y297435D01*
X300408Y297524D01*
X300402Y297613D01*
X300400Y297702D01*
X309274Y295656D02*
X309274Y303022D01*
X311320Y303022D02*
X307227Y303022D01*
X352806Y303022D02*
X352806Y295656D01*
X352806Y303022D02*
X354852Y303022D01*
X354941Y303020D01*
X355030Y303014D01*
X355119Y303004D01*
X355207Y302991D01*
X355295Y302974D01*
X355382Y302952D01*
X355467Y302927D01*
X355552Y302899D01*
X355635Y302866D01*
X355717Y302830D01*
X355797Y302791D01*
X355875Y302748D01*
X355951Y302702D01*
X356026Y302652D01*
X356098Y302599D01*
X356167Y302543D01*
X356234Y302484D01*
X356299Y302423D01*
X356360Y302358D01*
X356419Y302291D01*
X356475Y302222D01*
X356528Y302150D01*
X356578Y302075D01*
X356624Y301999D01*
X356667Y301921D01*
X356706Y301841D01*
X356742Y301759D01*
X356775Y301676D01*
X356803Y301591D01*
X356828Y301506D01*
X356850Y301419D01*
X356867Y301331D01*
X356880Y301243D01*
X356890Y301154D01*
X356896Y301065D01*
X356898Y300976D01*
X356896Y300887D01*
X356890Y300798D01*
X356880Y300709D01*
X356867Y300621D01*
X356850Y300533D01*
X356828Y300446D01*
X356803Y300361D01*
X356775Y300276D01*
X356742Y300193D01*
X356706Y300111D01*
X356667Y300031D01*
X356624Y299953D01*
X356578Y299877D01*
X356528Y299802D01*
X356475Y299730D01*
X356419Y299661D01*
X356360Y299594D01*
X356299Y299529D01*
X356234Y299468D01*
X356167Y299409D01*
X356098Y299353D01*
X356026Y299300D01*
X355951Y299250D01*
X355875Y299204D01*
X355797Y299161D01*
X355717Y299122D01*
X355635Y299086D01*
X355552Y299053D01*
X355467Y299025D01*
X355382Y299000D01*
X355295Y298978D01*
X355207Y298961D01*
X355119Y298948D01*
X355030Y298938D01*
X354941Y298932D01*
X354852Y298930D01*
X352806Y298930D01*
X355261Y298930D02*
X356898Y295656D01*
X360314Y297702D02*
X360314Y303022D01*
X360314Y297702D02*
X360316Y297613D01*
X360322Y297524D01*
X360332Y297435D01*
X360345Y297347D01*
X360362Y297259D01*
X360384Y297172D01*
X360409Y297087D01*
X360437Y297002D01*
X360470Y296919D01*
X360506Y296837D01*
X360545Y296757D01*
X360588Y296679D01*
X360634Y296603D01*
X360684Y296528D01*
X360737Y296456D01*
X360793Y296387D01*
X360852Y296320D01*
X360913Y296255D01*
X360978Y296194D01*
X361045Y296135D01*
X361114Y296079D01*
X361186Y296026D01*
X361261Y295976D01*
X361337Y295930D01*
X361415Y295887D01*
X361495Y295848D01*
X361577Y295812D01*
X361660Y295779D01*
X361745Y295751D01*
X361830Y295726D01*
X361917Y295704D01*
X362005Y295687D01*
X362093Y295674D01*
X362182Y295664D01*
X362271Y295658D01*
X362360Y295656D01*
X362449Y295658D01*
X362538Y295664D01*
X362627Y295674D01*
X362715Y295687D01*
X362803Y295704D01*
X362890Y295726D01*
X362975Y295751D01*
X363060Y295779D01*
X363143Y295812D01*
X363225Y295848D01*
X363305Y295887D01*
X363383Y295930D01*
X363459Y295976D01*
X363534Y296026D01*
X363606Y296079D01*
X363675Y296135D01*
X363742Y296194D01*
X363807Y296255D01*
X363868Y296320D01*
X363927Y296387D01*
X363983Y296456D01*
X364036Y296528D01*
X364086Y296603D01*
X364132Y296679D01*
X364175Y296757D01*
X364214Y296837D01*
X364250Y296919D01*
X364283Y297002D01*
X364311Y297087D01*
X364336Y297172D01*
X364358Y297259D01*
X364375Y297347D01*
X364388Y297435D01*
X364398Y297524D01*
X364404Y297613D01*
X364406Y297702D01*
X364406Y303022D01*
X368117Y303022D02*
X368117Y295656D01*
X372209Y295656D02*
X368117Y303022D01*
X372209Y303022D02*
X372209Y295656D01*
X272062Y215928D02*
X270835Y215928D01*
X272062Y215928D02*
X272062Y211836D01*
X269607Y211836D01*
X269529Y211838D01*
X269451Y211843D01*
X269374Y211853D01*
X269297Y211866D01*
X269221Y211882D01*
X269146Y211902D01*
X269072Y211926D01*
X268999Y211953D01*
X268927Y211984D01*
X268857Y212018D01*
X268789Y212055D01*
X268722Y212096D01*
X268657Y212140D01*
X268595Y212186D01*
X268535Y212236D01*
X268477Y212288D01*
X268422Y212343D01*
X268370Y212401D01*
X268320Y212461D01*
X268274Y212523D01*
X268230Y212588D01*
X268189Y212655D01*
X268152Y212723D01*
X268118Y212793D01*
X268087Y212865D01*
X268060Y212938D01*
X268036Y213012D01*
X268016Y213087D01*
X268000Y213163D01*
X267987Y213240D01*
X267977Y213317D01*
X267972Y213395D01*
X267970Y213473D01*
X267970Y217565D01*
X267972Y217645D01*
X267978Y217725D01*
X267988Y217805D01*
X268001Y217884D01*
X268019Y217963D01*
X268040Y218040D01*
X268066Y218116D01*
X268095Y218191D01*
X268127Y218265D01*
X268163Y218337D01*
X268203Y218407D01*
X268246Y218474D01*
X268292Y218540D01*
X268342Y218603D01*
X268394Y218664D01*
X268449Y218723D01*
X268508Y218778D01*
X268568Y218830D01*
X268632Y218880D01*
X268698Y218926D01*
X268765Y218969D01*
X268835Y219009D01*
X268907Y219045D01*
X268981Y219077D01*
X269055Y219106D01*
X269132Y219132D01*
X269209Y219153D01*
X269288Y219171D01*
X269367Y219184D01*
X269447Y219194D01*
X269527Y219200D01*
X269607Y219202D01*
X272062Y219202D01*
X275773Y219202D02*
X275773Y211836D01*
X279865Y211836D02*
X275773Y219202D01*
X279865Y219202D02*
X279865Y211836D01*
X283576Y211836D02*
X283576Y219202D01*
X285622Y219202D01*
X285711Y219200D01*
X285800Y219194D01*
X285889Y219184D01*
X285977Y219171D01*
X286065Y219154D01*
X286152Y219132D01*
X286237Y219107D01*
X286322Y219079D01*
X286405Y219046D01*
X286487Y219010D01*
X286567Y218971D01*
X286645Y218928D01*
X286721Y218882D01*
X286796Y218832D01*
X286868Y218779D01*
X286937Y218723D01*
X287004Y218664D01*
X287069Y218603D01*
X287130Y218538D01*
X287189Y218471D01*
X287245Y218402D01*
X287298Y218330D01*
X287348Y218255D01*
X287394Y218179D01*
X287437Y218101D01*
X287476Y218021D01*
X287512Y217939D01*
X287545Y217856D01*
X287573Y217771D01*
X287598Y217686D01*
X287620Y217599D01*
X287637Y217511D01*
X287650Y217423D01*
X287660Y217334D01*
X287666Y217245D01*
X287668Y217156D01*
X287668Y213882D01*
X287666Y213793D01*
X287660Y213704D01*
X287650Y213615D01*
X287637Y213527D01*
X287620Y213439D01*
X287598Y213352D01*
X287573Y213267D01*
X287545Y213182D01*
X287512Y213099D01*
X287476Y213017D01*
X287437Y212937D01*
X287394Y212859D01*
X287348Y212783D01*
X287298Y212708D01*
X287245Y212636D01*
X287189Y212567D01*
X287130Y212500D01*
X287069Y212435D01*
X287004Y212374D01*
X286937Y212315D01*
X286868Y212259D01*
X286796Y212206D01*
X286721Y212156D01*
X286645Y212110D01*
X286567Y212067D01*
X286487Y212028D01*
X286405Y211992D01*
X286322Y211959D01*
X286237Y211931D01*
X286152Y211906D01*
X286065Y211884D01*
X285977Y211867D01*
X285889Y211854D01*
X285800Y211844D01*
X285711Y211838D01*
X285622Y211836D01*
X283576Y211836D01*
X277241Y194310D02*
X277241Y186944D01*
X277241Y194310D02*
X279287Y194310D01*
X279376Y194308D01*
X279465Y194302D01*
X279554Y194292D01*
X279642Y194279D01*
X279730Y194262D01*
X279817Y194240D01*
X279902Y194215D01*
X279987Y194187D01*
X280070Y194154D01*
X280152Y194118D01*
X280232Y194079D01*
X280310Y194036D01*
X280386Y193990D01*
X280461Y193940D01*
X280533Y193887D01*
X280602Y193831D01*
X280669Y193772D01*
X280734Y193711D01*
X280795Y193646D01*
X280854Y193579D01*
X280910Y193510D01*
X280963Y193438D01*
X281013Y193363D01*
X281059Y193287D01*
X281102Y193209D01*
X281141Y193129D01*
X281177Y193047D01*
X281210Y192964D01*
X281238Y192879D01*
X281263Y192794D01*
X281285Y192707D01*
X281302Y192619D01*
X281315Y192531D01*
X281325Y192442D01*
X281331Y192353D01*
X281333Y192264D01*
X281331Y192175D01*
X281325Y192086D01*
X281315Y191997D01*
X281302Y191909D01*
X281285Y191821D01*
X281263Y191734D01*
X281238Y191649D01*
X281210Y191564D01*
X281177Y191481D01*
X281141Y191399D01*
X281102Y191319D01*
X281059Y191241D01*
X281013Y191165D01*
X280963Y191090D01*
X280910Y191018D01*
X280854Y190949D01*
X280795Y190882D01*
X280734Y190817D01*
X280669Y190756D01*
X280602Y190697D01*
X280533Y190641D01*
X280461Y190588D01*
X280386Y190538D01*
X280310Y190492D01*
X280232Y190449D01*
X280152Y190410D01*
X280070Y190374D01*
X279987Y190341D01*
X279902Y190313D01*
X279817Y190288D01*
X279730Y190266D01*
X279642Y190249D01*
X279554Y190236D01*
X279465Y190226D01*
X279376Y190220D01*
X279287Y190218D01*
X277241Y190218D01*
X279696Y190218D02*
X281333Y186944D01*
X284096Y186944D02*
X289006Y194310D01*
X284096Y194310D02*
X289006Y186944D01*
X280557Y169672D02*
X280557Y162306D01*
X278511Y169672D02*
X282603Y169672D01*
X289840Y169672D02*
X284929Y162306D01*
X289840Y162306D02*
X284929Y169672D01*
X270383Y95123D02*
X263017Y95123D01*
X263017Y97169D01*
X263019Y97258D01*
X263025Y97347D01*
X263035Y97436D01*
X263048Y97524D01*
X263065Y97612D01*
X263087Y97699D01*
X263112Y97784D01*
X263140Y97869D01*
X263173Y97952D01*
X263209Y98034D01*
X263248Y98114D01*
X263291Y98192D01*
X263337Y98268D01*
X263387Y98343D01*
X263440Y98415D01*
X263496Y98484D01*
X263555Y98551D01*
X263616Y98616D01*
X263681Y98677D01*
X263748Y98736D01*
X263817Y98792D01*
X263889Y98845D01*
X263964Y98895D01*
X264040Y98941D01*
X264118Y98984D01*
X264198Y99023D01*
X264280Y99059D01*
X264363Y99092D01*
X264448Y99120D01*
X264533Y99145D01*
X264620Y99167D01*
X264708Y99184D01*
X264796Y99197D01*
X264885Y99207D01*
X264974Y99213D01*
X265063Y99215D01*
X265152Y99213D01*
X265241Y99207D01*
X265330Y99197D01*
X265418Y99184D01*
X265506Y99167D01*
X265593Y99145D01*
X265678Y99120D01*
X265763Y99092D01*
X265846Y99059D01*
X265928Y99023D01*
X266008Y98984D01*
X266086Y98941D01*
X266162Y98895D01*
X266237Y98845D01*
X266309Y98792D01*
X266378Y98736D01*
X266445Y98677D01*
X266510Y98616D01*
X266571Y98551D01*
X266630Y98484D01*
X266686Y98415D01*
X266739Y98343D01*
X266789Y98268D01*
X266835Y98192D01*
X266878Y98114D01*
X266917Y98034D01*
X266953Y97952D01*
X266986Y97869D01*
X267014Y97784D01*
X267039Y97699D01*
X267061Y97612D01*
X267078Y97524D01*
X267091Y97436D01*
X267101Y97347D01*
X267107Y97258D01*
X267109Y97169D01*
X267109Y95123D01*
X267109Y97578D02*
X270383Y99215D01*
X270383Y104599D02*
X270381Y104677D01*
X270376Y104755D01*
X270366Y104832D01*
X270353Y104909D01*
X270337Y104985D01*
X270317Y105060D01*
X270293Y105134D01*
X270266Y105207D01*
X270235Y105279D01*
X270201Y105349D01*
X270164Y105418D01*
X270123Y105484D01*
X270079Y105549D01*
X270033Y105611D01*
X269983Y105671D01*
X269931Y105729D01*
X269876Y105784D01*
X269818Y105836D01*
X269758Y105886D01*
X269696Y105932D01*
X269631Y105976D01*
X269565Y106017D01*
X269496Y106054D01*
X269426Y106088D01*
X269354Y106119D01*
X269281Y106146D01*
X269207Y106170D01*
X269132Y106190D01*
X269056Y106206D01*
X268979Y106219D01*
X268902Y106229D01*
X268824Y106234D01*
X268746Y106236D01*
X270383Y104599D02*
X270381Y104485D01*
X270376Y104372D01*
X270366Y104258D01*
X270353Y104145D01*
X270336Y104033D01*
X270316Y103921D01*
X270292Y103810D01*
X270264Y103699D01*
X270233Y103590D01*
X270198Y103482D01*
X270159Y103375D01*
X270117Y103269D01*
X270072Y103165D01*
X270023Y103062D01*
X269970Y102961D01*
X269915Y102862D01*
X269856Y102764D01*
X269794Y102669D01*
X269729Y102576D01*
X269661Y102484D01*
X269590Y102396D01*
X269516Y102309D01*
X269439Y102225D01*
X269360Y102144D01*
X264654Y102348D02*
X264576Y102350D01*
X264498Y102355D01*
X264421Y102365D01*
X264344Y102378D01*
X264268Y102394D01*
X264193Y102414D01*
X264119Y102438D01*
X264046Y102465D01*
X263974Y102496D01*
X263904Y102530D01*
X263836Y102567D01*
X263769Y102608D01*
X263704Y102652D01*
X263642Y102698D01*
X263582Y102748D01*
X263524Y102800D01*
X263469Y102855D01*
X263417Y102913D01*
X263367Y102973D01*
X263321Y103035D01*
X263277Y103100D01*
X263236Y103167D01*
X263199Y103235D01*
X263165Y103305D01*
X263134Y103377D01*
X263107Y103450D01*
X263083Y103524D01*
X263063Y103599D01*
X263047Y103675D01*
X263034Y103752D01*
X263024Y103829D01*
X263019Y103907D01*
X263017Y103985D01*
X263019Y104095D01*
X263025Y104204D01*
X263035Y104314D01*
X263048Y104422D01*
X263066Y104531D01*
X263087Y104638D01*
X263113Y104745D01*
X263142Y104851D01*
X263174Y104956D01*
X263211Y105059D01*
X263251Y105161D01*
X263295Y105262D01*
X263343Y105361D01*
X263393Y105458D01*
X263448Y105553D01*
X263506Y105646D01*
X263567Y105737D01*
X263631Y105826D01*
X266086Y103166D02*
X266044Y103100D01*
X266000Y103035D01*
X265952Y102973D01*
X265902Y102913D01*
X265849Y102855D01*
X265793Y102800D01*
X265735Y102747D01*
X265674Y102698D01*
X265611Y102651D01*
X265546Y102607D01*
X265479Y102567D01*
X265410Y102530D01*
X265339Y102496D01*
X265267Y102465D01*
X265193Y102438D01*
X265118Y102414D01*
X265043Y102394D01*
X264966Y102378D01*
X264889Y102365D01*
X264811Y102355D01*
X264732Y102350D01*
X264654Y102348D01*
X267313Y105417D02*
X267355Y105484D01*
X267399Y105549D01*
X267447Y105611D01*
X267497Y105671D01*
X267550Y105729D01*
X267606Y105784D01*
X267665Y105836D01*
X267725Y105886D01*
X267789Y105933D01*
X267854Y105976D01*
X267921Y106017D01*
X267990Y106054D01*
X268061Y106088D01*
X268133Y106119D01*
X268207Y106146D01*
X268281Y106170D01*
X268357Y106190D01*
X268434Y106206D01*
X268511Y106219D01*
X268589Y106229D01*
X268668Y106234D01*
X268746Y106236D01*
X267314Y105417D02*
X266086Y103166D01*
X263017Y110773D02*
X270383Y110773D01*
X263017Y108727D02*
X263017Y112819D01*
X431165Y144145D02*
X433620Y136779D01*
X436076Y144145D01*
X438741Y141690D02*
X438741Y136779D01*
X438536Y143736D02*
X438536Y144145D01*
X438946Y144145D01*
X438946Y143736D01*
X438536Y143736D01*
X441981Y141690D02*
X441981Y136779D01*
X441981Y141690D02*
X444027Y141690D01*
X444096Y141688D01*
X444164Y141682D01*
X444233Y141673D01*
X444300Y141659D01*
X444367Y141642D01*
X444433Y141621D01*
X444497Y141597D01*
X444560Y141568D01*
X444621Y141537D01*
X444680Y141502D01*
X444738Y141464D01*
X444793Y141422D01*
X444845Y141378D01*
X444895Y141330D01*
X444943Y141280D01*
X444987Y141228D01*
X445029Y141173D01*
X445067Y141115D01*
X445102Y141056D01*
X445133Y140995D01*
X445162Y140932D01*
X445186Y140868D01*
X445207Y140802D01*
X445224Y140735D01*
X445238Y140668D01*
X445247Y140599D01*
X445253Y140531D01*
X445255Y140462D01*
X445255Y136779D01*
X452435Y137393D02*
X452435Y137802D01*
X452844Y137802D01*
X452844Y137393D01*
X452435Y137393D01*
X452435Y140667D02*
X452435Y141076D01*
X452844Y141076D01*
X452844Y140667D01*
X452435Y140667D01*
X460182Y144145D02*
X460182Y136779D01*
X462637Y140053D02*
X460182Y144145D01*
X462637Y140053D02*
X465092Y144145D01*
X465092Y136779D01*
X468229Y136779D02*
X470684Y144145D01*
X473139Y136779D01*
X472525Y138621D02*
X468842Y138621D01*
X475544Y136779D02*
X480454Y144145D01*
X475544Y144145D02*
X480454Y136779D01*
X483268Y138825D02*
X483270Y138914D01*
X483276Y139003D01*
X483286Y139092D01*
X483299Y139180D01*
X483316Y139268D01*
X483338Y139355D01*
X483363Y139440D01*
X483391Y139525D01*
X483424Y139608D01*
X483460Y139690D01*
X483499Y139770D01*
X483542Y139848D01*
X483588Y139924D01*
X483638Y139999D01*
X483691Y140071D01*
X483747Y140140D01*
X483806Y140207D01*
X483867Y140272D01*
X483932Y140333D01*
X483999Y140392D01*
X484068Y140448D01*
X484140Y140501D01*
X484215Y140551D01*
X484291Y140597D01*
X484369Y140640D01*
X484449Y140679D01*
X484531Y140715D01*
X484614Y140748D01*
X484699Y140776D01*
X484784Y140801D01*
X484871Y140823D01*
X484959Y140840D01*
X485047Y140853D01*
X485136Y140863D01*
X485225Y140869D01*
X485314Y140871D01*
X485403Y140869D01*
X485492Y140863D01*
X485581Y140853D01*
X485669Y140840D01*
X485757Y140823D01*
X485844Y140801D01*
X485929Y140776D01*
X486014Y140748D01*
X486097Y140715D01*
X486179Y140679D01*
X486259Y140640D01*
X486337Y140597D01*
X486413Y140551D01*
X486488Y140501D01*
X486560Y140448D01*
X486629Y140392D01*
X486696Y140333D01*
X486761Y140272D01*
X486822Y140207D01*
X486881Y140140D01*
X486937Y140071D01*
X486990Y139999D01*
X487040Y139924D01*
X487086Y139848D01*
X487129Y139770D01*
X487168Y139690D01*
X487204Y139608D01*
X487237Y139525D01*
X487265Y139440D01*
X487290Y139355D01*
X487312Y139268D01*
X487329Y139180D01*
X487342Y139092D01*
X487352Y139003D01*
X487358Y138914D01*
X487360Y138825D01*
X487358Y138736D01*
X487352Y138647D01*
X487342Y138558D01*
X487329Y138470D01*
X487312Y138382D01*
X487290Y138295D01*
X487265Y138210D01*
X487237Y138125D01*
X487204Y138042D01*
X487168Y137960D01*
X487129Y137880D01*
X487086Y137802D01*
X487040Y137726D01*
X486990Y137651D01*
X486937Y137579D01*
X486881Y137510D01*
X486822Y137443D01*
X486761Y137378D01*
X486696Y137317D01*
X486629Y137258D01*
X486560Y137202D01*
X486488Y137149D01*
X486413Y137099D01*
X486337Y137053D01*
X486259Y137010D01*
X486179Y136971D01*
X486097Y136935D01*
X486014Y136902D01*
X485929Y136874D01*
X485844Y136849D01*
X485757Y136827D01*
X485669Y136810D01*
X485581Y136797D01*
X485492Y136787D01*
X485403Y136781D01*
X485314Y136779D01*
X485225Y136781D01*
X485136Y136787D01*
X485047Y136797D01*
X484959Y136810D01*
X484871Y136827D01*
X484784Y136849D01*
X484699Y136874D01*
X484614Y136902D01*
X484531Y136935D01*
X484449Y136971D01*
X484369Y137010D01*
X484291Y137053D01*
X484215Y137099D01*
X484140Y137149D01*
X484068Y137202D01*
X483999Y137258D01*
X483932Y137317D01*
X483867Y137378D01*
X483806Y137443D01*
X483747Y137510D01*
X483691Y137579D01*
X483638Y137651D01*
X483588Y137726D01*
X483542Y137802D01*
X483499Y137880D01*
X483460Y137960D01*
X483424Y138042D01*
X483391Y138125D01*
X483363Y138210D01*
X483338Y138295D01*
X483316Y138382D01*
X483299Y138470D01*
X483286Y138558D01*
X483276Y138647D01*
X483270Y138736D01*
X483268Y138825D01*
X483677Y142508D02*
X483679Y142587D01*
X483685Y142666D01*
X483694Y142745D01*
X483707Y142823D01*
X483725Y142900D01*
X483745Y142976D01*
X483770Y143051D01*
X483798Y143125D01*
X483829Y143198D01*
X483865Y143269D01*
X483903Y143338D01*
X483945Y143405D01*
X483990Y143470D01*
X484038Y143533D01*
X484089Y143594D01*
X484143Y143651D01*
X484199Y143707D01*
X484258Y143759D01*
X484320Y143809D01*
X484384Y143855D01*
X484450Y143899D01*
X484518Y143939D01*
X484588Y143975D01*
X484660Y144009D01*
X484734Y144039D01*
X484808Y144065D01*
X484884Y144088D01*
X484961Y144106D01*
X485038Y144122D01*
X485117Y144133D01*
X485195Y144141D01*
X485274Y144145D01*
X485354Y144145D01*
X485433Y144141D01*
X485511Y144133D01*
X485590Y144122D01*
X485667Y144106D01*
X485744Y144088D01*
X485820Y144065D01*
X485894Y144039D01*
X485968Y144009D01*
X486040Y143975D01*
X486110Y143939D01*
X486178Y143899D01*
X486244Y143855D01*
X486308Y143809D01*
X486370Y143759D01*
X486429Y143707D01*
X486485Y143651D01*
X486539Y143594D01*
X486590Y143533D01*
X486638Y143470D01*
X486683Y143405D01*
X486725Y143338D01*
X486763Y143269D01*
X486799Y143198D01*
X486830Y143125D01*
X486858Y143051D01*
X486883Y142976D01*
X486903Y142900D01*
X486921Y142823D01*
X486934Y142745D01*
X486943Y142666D01*
X486949Y142587D01*
X486951Y142508D01*
X486949Y142429D01*
X486943Y142350D01*
X486934Y142271D01*
X486921Y142193D01*
X486903Y142116D01*
X486883Y142040D01*
X486858Y141965D01*
X486830Y141891D01*
X486799Y141818D01*
X486763Y141747D01*
X486725Y141678D01*
X486683Y141611D01*
X486638Y141546D01*
X486590Y141483D01*
X486539Y141422D01*
X486485Y141365D01*
X486429Y141309D01*
X486370Y141257D01*
X486308Y141207D01*
X486244Y141161D01*
X486178Y141117D01*
X486110Y141077D01*
X486040Y141041D01*
X485968Y141007D01*
X485894Y140977D01*
X485820Y140951D01*
X485744Y140928D01*
X485667Y140910D01*
X485590Y140894D01*
X485511Y140883D01*
X485433Y140875D01*
X485354Y140871D01*
X485274Y140871D01*
X485195Y140875D01*
X485117Y140883D01*
X485038Y140894D01*
X484961Y140910D01*
X484884Y140928D01*
X484808Y140951D01*
X484734Y140977D01*
X484660Y141007D01*
X484588Y141041D01*
X484518Y141077D01*
X484450Y141117D01*
X484384Y141161D01*
X484320Y141207D01*
X484258Y141257D01*
X484199Y141309D01*
X484143Y141365D01*
X484089Y141422D01*
X484038Y141483D01*
X483990Y141546D01*
X483945Y141611D01*
X483903Y141678D01*
X483865Y141747D01*
X483829Y141818D01*
X483798Y141891D01*
X483770Y141965D01*
X483745Y142040D01*
X483725Y142116D01*
X483707Y142193D01*
X483694Y142271D01*
X483685Y142350D01*
X483679Y142429D01*
X483677Y142508D01*
X490174Y144145D02*
X492629Y136779D01*
X495085Y144145D01*
X95931Y74653D02*
X94295Y74653D01*
X94217Y74655D01*
X94139Y74660D01*
X94062Y74670D01*
X93985Y74683D01*
X93909Y74699D01*
X93834Y74719D01*
X93760Y74743D01*
X93687Y74770D01*
X93615Y74801D01*
X93545Y74835D01*
X93477Y74872D01*
X93410Y74913D01*
X93345Y74957D01*
X93283Y75003D01*
X93223Y75053D01*
X93165Y75105D01*
X93110Y75160D01*
X93058Y75218D01*
X93008Y75278D01*
X92962Y75340D01*
X92918Y75405D01*
X92877Y75472D01*
X92840Y75540D01*
X92806Y75610D01*
X92775Y75682D01*
X92748Y75755D01*
X92724Y75829D01*
X92704Y75904D01*
X92688Y75980D01*
X92675Y76057D01*
X92665Y76134D01*
X92660Y76212D01*
X92658Y76290D01*
X92658Y80382D01*
X92660Y80462D01*
X92666Y80542D01*
X92676Y80622D01*
X92689Y80701D01*
X92707Y80780D01*
X92728Y80857D01*
X92754Y80933D01*
X92783Y81008D01*
X92815Y81082D01*
X92851Y81154D01*
X92891Y81224D01*
X92934Y81291D01*
X92980Y81357D01*
X93030Y81420D01*
X93082Y81481D01*
X93137Y81540D01*
X93196Y81595D01*
X93256Y81647D01*
X93320Y81697D01*
X93386Y81743D01*
X93453Y81786D01*
X93523Y81826D01*
X93595Y81862D01*
X93669Y81894D01*
X93743Y81923D01*
X93820Y81949D01*
X93897Y81970D01*
X93976Y81988D01*
X94055Y82001D01*
X94135Y82011D01*
X94215Y82017D01*
X94295Y82019D01*
X95931Y82019D01*
X98777Y80382D02*
X100823Y82019D01*
X100823Y74653D01*
X98777Y74653D02*
X102869Y74653D01*
X105345Y55753D02*
X106981Y55753D01*
X105345Y55753D02*
X105267Y55755D01*
X105189Y55760D01*
X105112Y55770D01*
X105035Y55783D01*
X104959Y55799D01*
X104884Y55819D01*
X104810Y55843D01*
X104737Y55870D01*
X104665Y55901D01*
X104595Y55935D01*
X104527Y55972D01*
X104460Y56013D01*
X104395Y56057D01*
X104333Y56103D01*
X104273Y56153D01*
X104215Y56205D01*
X104160Y56260D01*
X104108Y56318D01*
X104058Y56378D01*
X104012Y56440D01*
X103968Y56505D01*
X103927Y56572D01*
X103890Y56640D01*
X103856Y56710D01*
X103825Y56782D01*
X103798Y56855D01*
X103774Y56929D01*
X103754Y57004D01*
X103738Y57080D01*
X103725Y57157D01*
X103715Y57234D01*
X103710Y57312D01*
X103708Y57390D01*
X103708Y61482D01*
X103710Y61562D01*
X103716Y61642D01*
X103726Y61722D01*
X103739Y61801D01*
X103757Y61880D01*
X103778Y61957D01*
X103804Y62033D01*
X103833Y62108D01*
X103865Y62182D01*
X103901Y62254D01*
X103941Y62324D01*
X103984Y62391D01*
X104030Y62457D01*
X104080Y62520D01*
X104132Y62581D01*
X104187Y62640D01*
X104246Y62695D01*
X104306Y62747D01*
X104370Y62797D01*
X104436Y62843D01*
X104503Y62886D01*
X104573Y62926D01*
X104645Y62962D01*
X104719Y62994D01*
X104793Y63023D01*
X104870Y63049D01*
X104947Y63070D01*
X105026Y63088D01*
X105105Y63101D01*
X105185Y63111D01*
X105265Y63117D01*
X105345Y63119D01*
X106981Y63119D01*
X112078Y63120D02*
X112163Y63118D01*
X112248Y63112D01*
X112332Y63102D01*
X112416Y63089D01*
X112500Y63071D01*
X112582Y63050D01*
X112663Y63025D01*
X112743Y62996D01*
X112822Y62963D01*
X112899Y62927D01*
X112974Y62887D01*
X113048Y62844D01*
X113119Y62798D01*
X113188Y62748D01*
X113255Y62695D01*
X113319Y62639D01*
X113380Y62580D01*
X113439Y62519D01*
X113495Y62455D01*
X113548Y62388D01*
X113598Y62319D01*
X113644Y62248D01*
X113687Y62174D01*
X113727Y62099D01*
X113763Y62022D01*
X113796Y61943D01*
X113825Y61863D01*
X113850Y61782D01*
X113871Y61700D01*
X113889Y61616D01*
X113902Y61532D01*
X113912Y61448D01*
X113918Y61363D01*
X113920Y61278D01*
X112078Y63119D02*
X111982Y63117D01*
X111886Y63111D01*
X111791Y63101D01*
X111696Y63088D01*
X111601Y63070D01*
X111508Y63049D01*
X111415Y63024D01*
X111324Y62995D01*
X111233Y62963D01*
X111144Y62927D01*
X111057Y62887D01*
X110971Y62844D01*
X110887Y62798D01*
X110805Y62748D01*
X110725Y62694D01*
X110648Y62638D01*
X110573Y62578D01*
X110500Y62516D01*
X110430Y62450D01*
X110362Y62382D01*
X110297Y62311D01*
X110236Y62238D01*
X110177Y62162D01*
X110121Y62083D01*
X110069Y62003D01*
X110020Y61920D01*
X109974Y61836D01*
X109932Y61750D01*
X109894Y61662D01*
X109859Y61573D01*
X109827Y61482D01*
X113305Y59846D02*
X113365Y59905D01*
X113422Y59967D01*
X113477Y60031D01*
X113528Y60098D01*
X113577Y60167D01*
X113623Y60237D01*
X113666Y60310D01*
X113706Y60384D01*
X113742Y60460D01*
X113775Y60538D01*
X113805Y60617D01*
X113832Y60697D01*
X113855Y60778D01*
X113874Y60860D01*
X113890Y60942D01*
X113903Y61026D01*
X113912Y61110D01*
X113917Y61194D01*
X113919Y61278D01*
X113305Y59845D02*
X109827Y55753D01*
X113919Y55753D01*
X460945Y163703D02*
X462581Y163703D01*
X460945Y163703D02*
X460867Y163705D01*
X460789Y163710D01*
X460712Y163720D01*
X460635Y163733D01*
X460559Y163749D01*
X460484Y163769D01*
X460410Y163793D01*
X460337Y163820D01*
X460265Y163851D01*
X460195Y163885D01*
X460127Y163922D01*
X460060Y163963D01*
X459995Y164007D01*
X459933Y164053D01*
X459873Y164103D01*
X459815Y164155D01*
X459760Y164210D01*
X459708Y164268D01*
X459658Y164328D01*
X459612Y164390D01*
X459568Y164455D01*
X459527Y164522D01*
X459490Y164590D01*
X459456Y164660D01*
X459425Y164732D01*
X459398Y164805D01*
X459374Y164879D01*
X459354Y164954D01*
X459338Y165030D01*
X459325Y165107D01*
X459315Y165184D01*
X459310Y165262D01*
X459308Y165340D01*
X459308Y169432D01*
X459310Y169512D01*
X459316Y169592D01*
X459326Y169672D01*
X459339Y169751D01*
X459357Y169830D01*
X459378Y169907D01*
X459404Y169983D01*
X459433Y170058D01*
X459465Y170132D01*
X459501Y170204D01*
X459541Y170274D01*
X459584Y170341D01*
X459630Y170407D01*
X459680Y170470D01*
X459732Y170531D01*
X459787Y170590D01*
X459846Y170645D01*
X459906Y170697D01*
X459970Y170747D01*
X460036Y170793D01*
X460103Y170836D01*
X460173Y170876D01*
X460245Y170912D01*
X460319Y170944D01*
X460393Y170973D01*
X460470Y170999D01*
X460547Y171020D01*
X460626Y171038D01*
X460705Y171051D01*
X460785Y171061D01*
X460865Y171067D01*
X460945Y171069D01*
X462581Y171069D01*
X465427Y163703D02*
X467473Y163703D01*
X467562Y163705D01*
X467651Y163711D01*
X467740Y163721D01*
X467828Y163734D01*
X467916Y163751D01*
X468003Y163773D01*
X468088Y163798D01*
X468173Y163826D01*
X468256Y163859D01*
X468338Y163895D01*
X468418Y163934D01*
X468496Y163977D01*
X468572Y164023D01*
X468647Y164073D01*
X468719Y164126D01*
X468788Y164182D01*
X468855Y164241D01*
X468920Y164302D01*
X468981Y164367D01*
X469040Y164434D01*
X469096Y164503D01*
X469149Y164575D01*
X469199Y164650D01*
X469245Y164726D01*
X469288Y164804D01*
X469327Y164884D01*
X469363Y164966D01*
X469396Y165049D01*
X469424Y165134D01*
X469449Y165219D01*
X469471Y165306D01*
X469488Y165394D01*
X469501Y165482D01*
X469511Y165571D01*
X469517Y165660D01*
X469519Y165749D01*
X469517Y165838D01*
X469511Y165927D01*
X469501Y166016D01*
X469488Y166104D01*
X469471Y166192D01*
X469449Y166279D01*
X469424Y166364D01*
X469396Y166449D01*
X469363Y166532D01*
X469327Y166614D01*
X469288Y166694D01*
X469245Y166772D01*
X469199Y166848D01*
X469149Y166923D01*
X469096Y166995D01*
X469040Y167064D01*
X468981Y167131D01*
X468920Y167196D01*
X468855Y167257D01*
X468788Y167316D01*
X468719Y167372D01*
X468647Y167425D01*
X468572Y167475D01*
X468496Y167521D01*
X468418Y167564D01*
X468338Y167603D01*
X468256Y167639D01*
X468173Y167672D01*
X468088Y167700D01*
X468003Y167725D01*
X467916Y167747D01*
X467828Y167764D01*
X467740Y167777D01*
X467651Y167787D01*
X467562Y167793D01*
X467473Y167795D01*
X467882Y171069D02*
X465427Y171069D01*
X467882Y171069D02*
X467961Y171067D01*
X468040Y171061D01*
X468119Y171052D01*
X468197Y171039D01*
X468274Y171021D01*
X468350Y171001D01*
X468425Y170976D01*
X468499Y170948D01*
X468572Y170917D01*
X468643Y170881D01*
X468712Y170843D01*
X468779Y170801D01*
X468844Y170756D01*
X468907Y170708D01*
X468968Y170657D01*
X469025Y170603D01*
X469081Y170547D01*
X469133Y170488D01*
X469183Y170426D01*
X469229Y170362D01*
X469273Y170296D01*
X469313Y170228D01*
X469349Y170158D01*
X469383Y170086D01*
X469413Y170012D01*
X469439Y169938D01*
X469462Y169862D01*
X469480Y169785D01*
X469496Y169708D01*
X469507Y169629D01*
X469515Y169551D01*
X469519Y169472D01*
X469519Y169392D01*
X469515Y169313D01*
X469507Y169235D01*
X469496Y169156D01*
X469480Y169079D01*
X469462Y169002D01*
X469439Y168926D01*
X469413Y168852D01*
X469383Y168778D01*
X469349Y168706D01*
X469313Y168636D01*
X469273Y168568D01*
X469229Y168502D01*
X469183Y168438D01*
X469133Y168376D01*
X469081Y168317D01*
X469025Y168261D01*
X468968Y168207D01*
X468907Y168156D01*
X468844Y168108D01*
X468779Y168063D01*
X468712Y168021D01*
X468643Y167983D01*
X468572Y167947D01*
X468499Y167916D01*
X468425Y167888D01*
X468350Y167863D01*
X468274Y167843D01*
X468197Y167825D01*
X468119Y167812D01*
X468040Y167803D01*
X467961Y167797D01*
X467882Y167795D01*
X466245Y167795D01*
X382397Y200595D02*
X382397Y202231D01*
X382397Y200595D02*
X382395Y200517D01*
X382390Y200439D01*
X382380Y200362D01*
X382367Y200285D01*
X382351Y200209D01*
X382331Y200134D01*
X382307Y200060D01*
X382280Y199987D01*
X382249Y199915D01*
X382215Y199845D01*
X382178Y199777D01*
X382137Y199710D01*
X382093Y199645D01*
X382047Y199583D01*
X381997Y199523D01*
X381945Y199465D01*
X381890Y199410D01*
X381832Y199358D01*
X381772Y199308D01*
X381710Y199262D01*
X381645Y199218D01*
X381579Y199177D01*
X381510Y199140D01*
X381440Y199106D01*
X381368Y199075D01*
X381295Y199048D01*
X381221Y199024D01*
X381146Y199004D01*
X381070Y198988D01*
X380993Y198975D01*
X380916Y198965D01*
X380838Y198960D01*
X380760Y198958D01*
X376668Y198958D01*
X376588Y198960D01*
X376508Y198966D01*
X376428Y198976D01*
X376349Y198989D01*
X376270Y199007D01*
X376193Y199028D01*
X376117Y199054D01*
X376042Y199083D01*
X375968Y199115D01*
X375896Y199151D01*
X375826Y199191D01*
X375759Y199234D01*
X375693Y199280D01*
X375630Y199330D01*
X375569Y199382D01*
X375510Y199437D01*
X375455Y199496D01*
X375403Y199556D01*
X375353Y199620D01*
X375307Y199685D01*
X375264Y199753D01*
X375224Y199823D01*
X375188Y199895D01*
X375156Y199969D01*
X375127Y200043D01*
X375102Y200120D01*
X375080Y200197D01*
X375062Y200276D01*
X375049Y200355D01*
X375039Y200434D01*
X375033Y200515D01*
X375031Y200595D01*
X375031Y202231D01*
X375031Y206714D02*
X380760Y205077D01*
X380760Y209169D01*
X379123Y207941D02*
X382397Y207941D01*
D11*
X418350Y223800D02*
X418350Y258800D01*
X483350Y258800D01*
X483350Y223800D01*
X418350Y223800D01*
X419600Y218550D02*
X419600Y201050D01*
D10*
X473980Y286639D02*
X473980Y294005D01*
X473162Y286639D02*
X474799Y286639D01*
X474799Y294005D02*
X473162Y294005D01*
X479400Y286639D02*
X481037Y286639D01*
X479400Y286639D02*
X479322Y286641D01*
X479244Y286646D01*
X479167Y286656D01*
X479090Y286669D01*
X479014Y286685D01*
X478939Y286705D01*
X478865Y286729D01*
X478792Y286756D01*
X478720Y286787D01*
X478650Y286821D01*
X478582Y286858D01*
X478515Y286899D01*
X478450Y286943D01*
X478388Y286989D01*
X478328Y287039D01*
X478270Y287091D01*
X478215Y287146D01*
X478163Y287204D01*
X478113Y287264D01*
X478067Y287326D01*
X478023Y287391D01*
X477982Y287458D01*
X477945Y287526D01*
X477911Y287596D01*
X477880Y287668D01*
X477853Y287741D01*
X477829Y287815D01*
X477809Y287890D01*
X477793Y287966D01*
X477780Y288043D01*
X477770Y288120D01*
X477765Y288198D01*
X477763Y288276D01*
X477763Y292368D01*
X477765Y292448D01*
X477771Y292528D01*
X477781Y292608D01*
X477794Y292687D01*
X477812Y292766D01*
X477833Y292843D01*
X477859Y292919D01*
X477888Y292994D01*
X477920Y293068D01*
X477956Y293140D01*
X477996Y293210D01*
X478039Y293277D01*
X478085Y293343D01*
X478135Y293406D01*
X478187Y293467D01*
X478242Y293526D01*
X478301Y293581D01*
X478361Y293633D01*
X478425Y293683D01*
X478491Y293729D01*
X478558Y293772D01*
X478628Y293812D01*
X478700Y293848D01*
X478774Y293880D01*
X478848Y293909D01*
X478925Y293935D01*
X479002Y293956D01*
X479081Y293974D01*
X479160Y293987D01*
X479240Y293997D01*
X479320Y294003D01*
X479400Y294005D01*
X481037Y294005D01*
X483882Y292368D02*
X485928Y294005D01*
X485928Y286639D01*
X483882Y286639D02*
X487974Y286639D01*
D12*
X493050Y121450D02*
X434050Y121450D01*
X493050Y121450D02*
X493050Y45450D01*
X434050Y45450D02*
X434050Y121450D01*
X434050Y45450D02*
X493050Y45450D01*
D11*
X447150Y126950D02*
X447152Y127013D01*
X447158Y127075D01*
X447168Y127137D01*
X447181Y127199D01*
X447199Y127259D01*
X447220Y127318D01*
X447245Y127376D01*
X447274Y127432D01*
X447306Y127486D01*
X447341Y127538D01*
X447379Y127587D01*
X447421Y127635D01*
X447465Y127679D01*
X447513Y127721D01*
X447562Y127759D01*
X447614Y127794D01*
X447668Y127826D01*
X447724Y127855D01*
X447782Y127880D01*
X447841Y127901D01*
X447901Y127919D01*
X447963Y127932D01*
X448025Y127942D01*
X448087Y127948D01*
X448150Y127950D01*
X448213Y127948D01*
X448275Y127942D01*
X448337Y127932D01*
X448399Y127919D01*
X448459Y127901D01*
X448518Y127880D01*
X448576Y127855D01*
X448632Y127826D01*
X448686Y127794D01*
X448738Y127759D01*
X448787Y127721D01*
X448835Y127679D01*
X448879Y127635D01*
X448921Y127587D01*
X448959Y127538D01*
X448994Y127486D01*
X449026Y127432D01*
X449055Y127376D01*
X449080Y127318D01*
X449101Y127259D01*
X449119Y127199D01*
X449132Y127137D01*
X449142Y127075D01*
X449148Y127013D01*
X449150Y126950D01*
X449148Y126887D01*
X449142Y126825D01*
X449132Y126763D01*
X449119Y126701D01*
X449101Y126641D01*
X449080Y126582D01*
X449055Y126524D01*
X449026Y126468D01*
X448994Y126414D01*
X448959Y126362D01*
X448921Y126313D01*
X448879Y126265D01*
X448835Y126221D01*
X448787Y126179D01*
X448738Y126141D01*
X448686Y126106D01*
X448632Y126074D01*
X448576Y126045D01*
X448518Y126020D01*
X448459Y125999D01*
X448399Y125981D01*
X448337Y125968D01*
X448275Y125958D01*
X448213Y125952D01*
X448150Y125950D01*
X448087Y125952D01*
X448025Y125958D01*
X447963Y125968D01*
X447901Y125981D01*
X447841Y125999D01*
X447782Y126020D01*
X447724Y126045D01*
X447668Y126074D01*
X447614Y126106D01*
X447562Y126141D01*
X447513Y126179D01*
X447465Y126221D01*
X447421Y126265D01*
X447379Y126313D01*
X447341Y126362D01*
X447306Y126414D01*
X447274Y126468D01*
X447245Y126524D01*
X447220Y126582D01*
X447199Y126641D01*
X447181Y126701D01*
X447168Y126763D01*
X447158Y126825D01*
X447152Y126887D01*
X447150Y126950D01*
D10*
X431419Y148463D02*
X431419Y155829D01*
X433465Y155829D01*
X433554Y155827D01*
X433643Y155821D01*
X433732Y155811D01*
X433820Y155798D01*
X433908Y155781D01*
X433995Y155759D01*
X434080Y155734D01*
X434165Y155706D01*
X434248Y155673D01*
X434330Y155637D01*
X434410Y155598D01*
X434488Y155555D01*
X434564Y155509D01*
X434639Y155459D01*
X434711Y155406D01*
X434780Y155350D01*
X434847Y155291D01*
X434912Y155230D01*
X434973Y155165D01*
X435032Y155098D01*
X435088Y155029D01*
X435141Y154957D01*
X435191Y154882D01*
X435237Y154806D01*
X435280Y154728D01*
X435319Y154648D01*
X435355Y154566D01*
X435388Y154483D01*
X435416Y154398D01*
X435441Y154313D01*
X435463Y154226D01*
X435480Y154138D01*
X435493Y154050D01*
X435503Y153961D01*
X435509Y153872D01*
X435511Y153783D01*
X435509Y153694D01*
X435503Y153605D01*
X435493Y153516D01*
X435480Y153428D01*
X435463Y153340D01*
X435441Y153253D01*
X435416Y153168D01*
X435388Y153083D01*
X435355Y153000D01*
X435319Y152918D01*
X435280Y152838D01*
X435237Y152760D01*
X435191Y152684D01*
X435141Y152609D01*
X435088Y152537D01*
X435032Y152468D01*
X434973Y152401D01*
X434912Y152336D01*
X434847Y152275D01*
X434780Y152216D01*
X434711Y152160D01*
X434639Y152107D01*
X434564Y152057D01*
X434488Y152011D01*
X434410Y151968D01*
X434330Y151929D01*
X434248Y151893D01*
X434165Y151860D01*
X434080Y151832D01*
X433995Y151807D01*
X433908Y151785D01*
X433820Y151768D01*
X433732Y151755D01*
X433643Y151745D01*
X433554Y151739D01*
X433465Y151737D01*
X431419Y151737D01*
X438120Y155829D02*
X439757Y148463D01*
X441394Y153374D01*
X443031Y148463D01*
X444668Y155829D01*
X447934Y155829D02*
X447934Y148463D01*
X447934Y155829D02*
X449980Y155829D01*
X450069Y155827D01*
X450158Y155821D01*
X450247Y155811D01*
X450335Y155798D01*
X450423Y155781D01*
X450510Y155759D01*
X450595Y155734D01*
X450680Y155706D01*
X450763Y155673D01*
X450845Y155637D01*
X450925Y155598D01*
X451003Y155555D01*
X451079Y155509D01*
X451154Y155459D01*
X451226Y155406D01*
X451295Y155350D01*
X451362Y155291D01*
X451427Y155230D01*
X451488Y155165D01*
X451547Y155098D01*
X451603Y155029D01*
X451656Y154957D01*
X451706Y154882D01*
X451752Y154806D01*
X451795Y154728D01*
X451834Y154648D01*
X451870Y154566D01*
X451903Y154483D01*
X451931Y154398D01*
X451956Y154313D01*
X451978Y154226D01*
X451995Y154138D01*
X452008Y154050D01*
X452018Y153961D01*
X452024Y153872D01*
X452026Y153783D01*
X452024Y153694D01*
X452018Y153605D01*
X452008Y153516D01*
X451995Y153428D01*
X451978Y153340D01*
X451956Y153253D01*
X451931Y153168D01*
X451903Y153083D01*
X451870Y153000D01*
X451834Y152918D01*
X451795Y152838D01*
X451752Y152760D01*
X451706Y152684D01*
X451656Y152609D01*
X451603Y152537D01*
X451547Y152468D01*
X451488Y152401D01*
X451427Y152336D01*
X451362Y152275D01*
X451295Y152216D01*
X451226Y152160D01*
X451154Y152107D01*
X451079Y152057D01*
X451003Y152011D01*
X450925Y151968D01*
X450845Y151929D01*
X450763Y151893D01*
X450680Y151860D01*
X450595Y151832D01*
X450510Y151807D01*
X450423Y151785D01*
X450335Y151768D01*
X450247Y151755D01*
X450158Y151745D01*
X450069Y151739D01*
X449980Y151737D01*
X447934Y151737D01*
X450389Y151737D02*
X452026Y148463D01*
X454875Y147645D02*
X458149Y147645D01*
X461633Y148463D02*
X461633Y155829D01*
X460814Y148463D02*
X462451Y148463D01*
X462451Y155829D02*
X460814Y155829D01*
X465683Y155829D02*
X465683Y148463D01*
X469775Y148463D02*
X465683Y155829D01*
X469775Y155829D02*
X469775Y148463D01*
D13*
X292100Y38100D02*
X285750Y31750D01*
X292100Y38100D02*
X304800Y38100D01*
X311150Y31750D01*
X311150Y19050D01*
X304800Y12700D01*
X292100Y12700D01*
X285750Y19050D01*
X254000Y38100D02*
X241300Y38100D01*
X254000Y38100D02*
X260350Y31750D01*
X260350Y19050D01*
X254000Y12700D01*
X260350Y31750D02*
X266700Y38100D01*
X279400Y38100D01*
X285750Y31750D01*
X285750Y19050D01*
X279400Y12700D01*
X266700Y12700D01*
X260350Y19050D01*
X215900Y38100D02*
X209550Y31750D01*
X215900Y38100D02*
X228600Y38100D01*
X234950Y31750D01*
X234950Y19050D01*
X228600Y12700D01*
X215900Y12700D01*
X209550Y19050D01*
X234950Y31750D02*
X241300Y38100D01*
X234950Y19050D02*
X241300Y12700D01*
X254000Y12700D01*
X177800Y38100D02*
X165100Y38100D01*
X177800Y38100D02*
X184150Y31750D01*
X184150Y19050D01*
X177800Y12700D01*
X184150Y31750D02*
X190500Y38100D01*
X203200Y38100D01*
X209550Y31750D01*
X209550Y19050D01*
X203200Y12700D01*
X190500Y12700D01*
X184150Y19050D01*
X139700Y38100D02*
X133350Y31750D01*
X139700Y38100D02*
X152400Y38100D01*
X158750Y31750D01*
X158750Y19050D01*
X152400Y12700D01*
X139700Y12700D01*
X133350Y19050D01*
X158750Y31750D02*
X165100Y38100D01*
X158750Y19050D02*
X165100Y12700D01*
X177800Y12700D01*
X101600Y38100D02*
X88900Y38100D01*
X101600Y38100D02*
X107950Y31750D01*
X107950Y19050D01*
X101600Y12700D01*
X107950Y31750D02*
X114300Y38100D01*
X127000Y38100D01*
X133350Y31750D01*
X133350Y19050D01*
X127000Y12700D01*
X114300Y12700D01*
X107950Y19050D01*
X63500Y38100D02*
X57150Y31750D01*
X63500Y38100D02*
X76200Y38100D01*
X82550Y31750D01*
X82550Y19050D01*
X76200Y12700D01*
X63500Y12700D01*
X57150Y19050D01*
X82550Y31750D02*
X88900Y38100D01*
X82550Y19050D02*
X88900Y12700D01*
X101600Y12700D01*
X25400Y38100D02*
X12700Y38100D01*
X25400Y38100D02*
X31750Y31750D01*
X31750Y19050D01*
X25400Y12700D01*
X31750Y31750D02*
X38100Y38100D01*
X50800Y38100D01*
X57150Y31750D01*
X57150Y19050D01*
X50800Y12700D01*
X38100Y12700D01*
X31750Y19050D01*
X6350Y19050D02*
X6350Y31750D01*
X12700Y38100D01*
X6350Y19050D02*
X12700Y12700D01*
X25400Y12700D01*
X311150Y31750D02*
X317500Y38100D01*
X330200Y38100D01*
X336550Y31750D01*
X336550Y19050D01*
X330200Y12700D01*
X317500Y12700D01*
X311150Y19050D01*
D10*
X8424Y45706D02*
X8424Y51435D01*
X8424Y45706D02*
X8422Y45628D01*
X8417Y45550D01*
X8407Y45473D01*
X8394Y45396D01*
X8378Y45320D01*
X8358Y45245D01*
X8334Y45171D01*
X8307Y45098D01*
X8276Y45026D01*
X8242Y44956D01*
X8205Y44888D01*
X8164Y44821D01*
X8120Y44756D01*
X8074Y44694D01*
X8024Y44634D01*
X7972Y44576D01*
X7917Y44521D01*
X7859Y44469D01*
X7799Y44419D01*
X7737Y44373D01*
X7672Y44329D01*
X7606Y44288D01*
X7537Y44251D01*
X7467Y44217D01*
X7395Y44186D01*
X7322Y44159D01*
X7248Y44135D01*
X7173Y44115D01*
X7097Y44099D01*
X7020Y44086D01*
X6943Y44076D01*
X6865Y44071D01*
X6787Y44069D01*
X5969Y44069D01*
X12220Y44069D02*
X12220Y51435D01*
X14266Y51435D01*
X14355Y51433D01*
X14444Y51427D01*
X14533Y51417D01*
X14621Y51404D01*
X14709Y51387D01*
X14796Y51365D01*
X14881Y51340D01*
X14966Y51312D01*
X15049Y51279D01*
X15131Y51243D01*
X15211Y51204D01*
X15289Y51161D01*
X15365Y51115D01*
X15440Y51065D01*
X15512Y51012D01*
X15581Y50956D01*
X15648Y50897D01*
X15713Y50836D01*
X15774Y50771D01*
X15833Y50704D01*
X15889Y50635D01*
X15942Y50563D01*
X15992Y50488D01*
X16038Y50412D01*
X16081Y50334D01*
X16120Y50254D01*
X16156Y50172D01*
X16189Y50089D01*
X16217Y50004D01*
X16242Y49919D01*
X16264Y49832D01*
X16281Y49744D01*
X16294Y49656D01*
X16304Y49567D01*
X16310Y49478D01*
X16312Y49389D01*
X16310Y49300D01*
X16304Y49211D01*
X16294Y49122D01*
X16281Y49034D01*
X16264Y48946D01*
X16242Y48859D01*
X16217Y48774D01*
X16189Y48689D01*
X16156Y48606D01*
X16120Y48524D01*
X16081Y48444D01*
X16038Y48366D01*
X15992Y48290D01*
X15942Y48215D01*
X15889Y48143D01*
X15833Y48074D01*
X15774Y48007D01*
X15713Y47942D01*
X15648Y47881D01*
X15581Y47822D01*
X15512Y47766D01*
X15440Y47713D01*
X15365Y47663D01*
X15289Y47617D01*
X15211Y47574D01*
X15131Y47535D01*
X15049Y47499D01*
X14966Y47466D01*
X14881Y47438D01*
X14796Y47413D01*
X14709Y47391D01*
X14621Y47374D01*
X14533Y47361D01*
X14444Y47351D01*
X14355Y47345D01*
X14266Y47343D01*
X12220Y47343D01*
X19174Y49798D02*
X21220Y51435D01*
X21220Y44069D01*
X19174Y44069D02*
X23266Y44069D01*
X317881Y89281D02*
X317881Y96647D01*
X319927Y96647D01*
X320016Y96645D01*
X320105Y96639D01*
X320194Y96629D01*
X320282Y96616D01*
X320370Y96599D01*
X320457Y96577D01*
X320542Y96552D01*
X320627Y96524D01*
X320710Y96491D01*
X320792Y96455D01*
X320872Y96416D01*
X320950Y96373D01*
X321026Y96327D01*
X321101Y96277D01*
X321173Y96224D01*
X321242Y96168D01*
X321309Y96109D01*
X321374Y96048D01*
X321435Y95983D01*
X321494Y95916D01*
X321550Y95847D01*
X321603Y95775D01*
X321653Y95700D01*
X321699Y95624D01*
X321742Y95546D01*
X321781Y95466D01*
X321817Y95384D01*
X321850Y95301D01*
X321878Y95216D01*
X321903Y95131D01*
X321925Y95044D01*
X321942Y94956D01*
X321955Y94868D01*
X321965Y94779D01*
X321971Y94690D01*
X321973Y94601D01*
X321971Y94512D01*
X321965Y94423D01*
X321955Y94334D01*
X321942Y94246D01*
X321925Y94158D01*
X321903Y94071D01*
X321878Y93986D01*
X321850Y93901D01*
X321817Y93818D01*
X321781Y93736D01*
X321742Y93656D01*
X321699Y93578D01*
X321653Y93502D01*
X321603Y93427D01*
X321550Y93355D01*
X321494Y93286D01*
X321435Y93219D01*
X321374Y93154D01*
X321309Y93093D01*
X321242Y93034D01*
X321173Y92978D01*
X321101Y92925D01*
X321026Y92875D01*
X320950Y92829D01*
X320872Y92786D01*
X320792Y92747D01*
X320710Y92711D01*
X320627Y92678D01*
X320542Y92650D01*
X320457Y92625D01*
X320370Y92603D01*
X320282Y92586D01*
X320194Y92573D01*
X320105Y92563D01*
X320016Y92557D01*
X319927Y92555D01*
X317881Y92555D01*
X320336Y92555D02*
X321973Y89281D01*
X325145Y95010D02*
X327191Y96647D01*
X327191Y89281D01*
X325145Y89281D02*
X329237Y89281D01*
X332460Y95010D02*
X334506Y96647D01*
X334506Y89281D01*
X332460Y89281D02*
X336552Y89281D01*
D12*
X307600Y84850D02*
X307600Y118350D01*
X307600Y84850D02*
X276600Y84850D01*
X276600Y118350D01*
X307600Y118350D01*
D14*
X293621Y48618D02*
X292379Y48618D01*
X292309Y48620D01*
X292240Y48626D01*
X292171Y48636D01*
X292103Y48649D01*
X292035Y48667D01*
X291969Y48688D01*
X291904Y48713D01*
X291840Y48741D01*
X291778Y48773D01*
X291718Y48808D01*
X291660Y48847D01*
X291605Y48889D01*
X291551Y48934D01*
X291501Y48982D01*
X291453Y49032D01*
X291408Y49086D01*
X291366Y49141D01*
X291327Y49199D01*
X291292Y49259D01*
X291260Y49321D01*
X291232Y49385D01*
X291207Y49450D01*
X291186Y49516D01*
X291168Y49584D01*
X291155Y49652D01*
X291145Y49721D01*
X291139Y49790D01*
X291137Y49860D01*
X291137Y52964D01*
X291139Y53034D01*
X291145Y53103D01*
X291155Y53172D01*
X291168Y53240D01*
X291186Y53308D01*
X291207Y53374D01*
X291232Y53439D01*
X291260Y53503D01*
X291292Y53565D01*
X291327Y53625D01*
X291366Y53683D01*
X291408Y53738D01*
X291453Y53792D01*
X291501Y53842D01*
X291551Y53890D01*
X291605Y53935D01*
X291660Y53977D01*
X291718Y54016D01*
X291778Y54051D01*
X291840Y54083D01*
X291904Y54111D01*
X291969Y54136D01*
X292035Y54157D01*
X292103Y54175D01*
X292171Y54188D01*
X292240Y54198D01*
X292309Y54204D01*
X292379Y54206D01*
X293621Y54206D01*
X295726Y54206D02*
X295726Y53585D01*
X295726Y54206D02*
X298830Y54206D01*
X297278Y48618D01*
D15*
X279400Y292100D02*
X381000Y292100D01*
X381000Y241300D01*
X279400Y241300D01*
X279400Y292100D01*
D14*
X266884Y288516D02*
X266882Y288446D01*
X266876Y288377D01*
X266866Y288308D01*
X266853Y288240D01*
X266835Y288172D01*
X266814Y288106D01*
X266789Y288041D01*
X266761Y287977D01*
X266729Y287915D01*
X266694Y287855D01*
X266655Y287797D01*
X266613Y287742D01*
X266568Y287688D01*
X266520Y287638D01*
X266470Y287590D01*
X266416Y287545D01*
X266361Y287503D01*
X266303Y287464D01*
X266243Y287429D01*
X266181Y287397D01*
X266117Y287369D01*
X266052Y287344D01*
X265986Y287323D01*
X265918Y287305D01*
X265850Y287292D01*
X265781Y287282D01*
X265712Y287276D01*
X265642Y287274D01*
X265543Y287276D01*
X265445Y287281D01*
X265347Y287291D01*
X265249Y287304D01*
X265152Y287320D01*
X265055Y287340D01*
X264960Y287364D01*
X264865Y287392D01*
X264771Y287423D01*
X264679Y287457D01*
X264588Y287495D01*
X264498Y287536D01*
X264410Y287581D01*
X264324Y287629D01*
X264240Y287680D01*
X264158Y287734D01*
X264077Y287792D01*
X263999Y287852D01*
X263924Y287915D01*
X263850Y287981D01*
X263780Y288050D01*
X263934Y291620D02*
X263936Y291690D01*
X263942Y291759D01*
X263952Y291828D01*
X263965Y291896D01*
X263983Y291964D01*
X264004Y292030D01*
X264029Y292095D01*
X264057Y292159D01*
X264089Y292221D01*
X264124Y292281D01*
X264163Y292339D01*
X264205Y292394D01*
X264250Y292448D01*
X264298Y292498D01*
X264348Y292546D01*
X264402Y292591D01*
X264457Y292633D01*
X264515Y292672D01*
X264575Y292707D01*
X264637Y292739D01*
X264701Y292767D01*
X264766Y292792D01*
X264832Y292813D01*
X264900Y292831D01*
X264968Y292844D01*
X265037Y292854D01*
X265106Y292860D01*
X265176Y292862D01*
X265270Y292860D01*
X265363Y292854D01*
X265456Y292845D01*
X265549Y292832D01*
X265641Y292815D01*
X265732Y292795D01*
X265823Y292770D01*
X265912Y292743D01*
X266000Y292711D01*
X266087Y292676D01*
X266173Y292638D01*
X266256Y292596D01*
X266338Y292551D01*
X266419Y292503D01*
X266497Y292451D01*
X266573Y292396D01*
X264555Y290534D02*
X264496Y290570D01*
X264440Y290610D01*
X264386Y290653D01*
X264334Y290698D01*
X264285Y290747D01*
X264239Y290798D01*
X264196Y290851D01*
X264155Y290907D01*
X264118Y290965D01*
X264083Y291025D01*
X264053Y291086D01*
X264025Y291149D01*
X264001Y291214D01*
X263981Y291280D01*
X263964Y291347D01*
X263951Y291414D01*
X263942Y291482D01*
X263936Y291551D01*
X263934Y291620D01*
X266262Y289602D02*
X266321Y289566D01*
X266377Y289526D01*
X266431Y289483D01*
X266483Y289438D01*
X266532Y289389D01*
X266578Y289338D01*
X266621Y289285D01*
X266662Y289229D01*
X266699Y289171D01*
X266734Y289111D01*
X266764Y289050D01*
X266792Y288987D01*
X266816Y288922D01*
X266836Y288856D01*
X266853Y288789D01*
X266866Y288722D01*
X266875Y288654D01*
X266881Y288585D01*
X266883Y288516D01*
X266263Y289602D02*
X264555Y290534D01*
X269083Y291620D02*
X270635Y292862D01*
X270635Y287274D01*
X269083Y287274D02*
X272187Y287274D01*
D10*
X369189Y287147D02*
X369189Y279781D01*
X369189Y287147D02*
X371235Y287147D01*
X371324Y287145D01*
X371413Y287139D01*
X371502Y287129D01*
X371590Y287116D01*
X371678Y287099D01*
X371765Y287077D01*
X371850Y287052D01*
X371935Y287024D01*
X372018Y286991D01*
X372100Y286955D01*
X372180Y286916D01*
X372258Y286873D01*
X372334Y286827D01*
X372409Y286777D01*
X372481Y286724D01*
X372550Y286668D01*
X372617Y286609D01*
X372682Y286548D01*
X372743Y286483D01*
X372802Y286416D01*
X372858Y286347D01*
X372911Y286275D01*
X372961Y286200D01*
X373007Y286124D01*
X373050Y286046D01*
X373089Y285966D01*
X373125Y285884D01*
X373158Y285801D01*
X373186Y285716D01*
X373211Y285631D01*
X373233Y285544D01*
X373250Y285456D01*
X373263Y285368D01*
X373273Y285279D01*
X373279Y285190D01*
X373281Y285101D01*
X373279Y285012D01*
X373273Y284923D01*
X373263Y284834D01*
X373250Y284746D01*
X373233Y284658D01*
X373211Y284571D01*
X373186Y284486D01*
X373158Y284401D01*
X373125Y284318D01*
X373089Y284236D01*
X373050Y284156D01*
X373007Y284078D01*
X372961Y284002D01*
X372911Y283927D01*
X372858Y283855D01*
X372802Y283786D01*
X372743Y283719D01*
X372682Y283654D01*
X372617Y283593D01*
X372550Y283534D01*
X372481Y283478D01*
X372409Y283425D01*
X372334Y283375D01*
X372258Y283329D01*
X372180Y283286D01*
X372100Y283247D01*
X372018Y283211D01*
X371935Y283178D01*
X371850Y283150D01*
X371765Y283125D01*
X371678Y283103D01*
X371590Y283086D01*
X371502Y283073D01*
X371413Y283063D01*
X371324Y283057D01*
X371235Y283055D01*
X369189Y283055D01*
X371644Y283055D02*
X373281Y279781D01*
X376453Y285510D02*
X378499Y287147D01*
X378499Y279781D01*
X376453Y279781D02*
X380545Y279781D01*
X387861Y285306D02*
X387859Y285391D01*
X387853Y285476D01*
X387843Y285560D01*
X387830Y285644D01*
X387812Y285728D01*
X387791Y285810D01*
X387766Y285891D01*
X387737Y285971D01*
X387704Y286050D01*
X387668Y286127D01*
X387628Y286202D01*
X387585Y286276D01*
X387539Y286347D01*
X387489Y286416D01*
X387436Y286483D01*
X387380Y286547D01*
X387321Y286608D01*
X387260Y286667D01*
X387196Y286723D01*
X387129Y286776D01*
X387060Y286826D01*
X386989Y286872D01*
X386915Y286915D01*
X386840Y286955D01*
X386763Y286991D01*
X386684Y287024D01*
X386604Y287053D01*
X386523Y287078D01*
X386441Y287099D01*
X386357Y287117D01*
X386273Y287130D01*
X386189Y287140D01*
X386104Y287146D01*
X386019Y287148D01*
X386019Y287147D02*
X385923Y287145D01*
X385827Y287139D01*
X385732Y287129D01*
X385637Y287116D01*
X385542Y287098D01*
X385449Y287077D01*
X385356Y287052D01*
X385265Y287023D01*
X385174Y286991D01*
X385085Y286955D01*
X384998Y286915D01*
X384912Y286872D01*
X384828Y286826D01*
X384746Y286776D01*
X384666Y286722D01*
X384589Y286666D01*
X384514Y286606D01*
X384441Y286544D01*
X384371Y286478D01*
X384303Y286410D01*
X384238Y286339D01*
X384177Y286266D01*
X384118Y286190D01*
X384062Y286111D01*
X384010Y286031D01*
X383961Y285948D01*
X383915Y285864D01*
X383873Y285778D01*
X383835Y285690D01*
X383800Y285601D01*
X383768Y285510D01*
X387247Y283874D02*
X387307Y283933D01*
X387364Y283995D01*
X387419Y284059D01*
X387470Y284126D01*
X387519Y284195D01*
X387565Y284265D01*
X387608Y284338D01*
X387648Y284412D01*
X387684Y284488D01*
X387717Y284566D01*
X387747Y284645D01*
X387774Y284725D01*
X387797Y284806D01*
X387816Y284888D01*
X387832Y284970D01*
X387845Y285054D01*
X387854Y285138D01*
X387859Y285222D01*
X387861Y285306D01*
X387247Y283873D02*
X383768Y279781D01*
X387860Y279781D01*
D13*
X411480Y151130D02*
X414020Y151130D01*
X414020Y166370D01*
X411480Y166370D01*
X350520Y166370D02*
X347980Y166370D01*
X347980Y151130D01*
X350520Y151130D01*
D14*
X368300Y186690D02*
X368300Y189230D01*
X368300Y186690D02*
X393700Y186690D01*
X393700Y189230D01*
X392430Y130810D02*
X368300Y130810D01*
X392430Y130810D02*
X392430Y128270D01*
X368300Y128270D02*
X368300Y130810D01*
D13*
X368300Y128270D02*
X359410Y128270D01*
X393700Y189230D02*
X402590Y189230D01*
X393700Y189230D02*
X368300Y189230D01*
X359410Y189230D01*
X368300Y128270D02*
X392430Y128270D01*
X402590Y128270D01*
X411480Y148590D02*
X411480Y151130D01*
X411480Y166370D02*
X411480Y168910D01*
X350520Y151130D02*
X350520Y148590D01*
X350520Y166370D02*
X350520Y168910D01*
X363220Y158750D02*
X363225Y159186D01*
X363241Y159622D01*
X363268Y160058D01*
X363306Y160493D01*
X363354Y160926D01*
X363412Y161359D01*
X363482Y161790D01*
X363562Y162219D01*
X363652Y162646D01*
X363753Y163070D01*
X363864Y163492D01*
X363986Y163911D01*
X364117Y164327D01*
X364259Y164740D01*
X364411Y165149D01*
X364573Y165554D01*
X364745Y165955D01*
X364927Y166352D01*
X365118Y166744D01*
X365319Y167131D01*
X365530Y167514D01*
X365750Y167891D01*
X365979Y168262D01*
X366216Y168628D01*
X366463Y168988D01*
X366719Y169342D01*
X366983Y169689D01*
X367256Y170030D01*
X367537Y170363D01*
X367826Y170690D01*
X368123Y171010D01*
X368428Y171322D01*
X368740Y171627D01*
X369060Y171924D01*
X369387Y172213D01*
X369720Y172494D01*
X370061Y172767D01*
X370408Y173031D01*
X370762Y173287D01*
X371122Y173534D01*
X371488Y173771D01*
X371859Y174000D01*
X372236Y174220D01*
X372619Y174431D01*
X373006Y174632D01*
X373398Y174823D01*
X373795Y175005D01*
X374196Y175177D01*
X374601Y175339D01*
X375010Y175491D01*
X375423Y175633D01*
X375839Y175764D01*
X376258Y175886D01*
X376680Y175997D01*
X377104Y176098D01*
X377531Y176188D01*
X377960Y176268D01*
X378391Y176338D01*
X378824Y176396D01*
X379257Y176444D01*
X379692Y176482D01*
X380128Y176509D01*
X380564Y176525D01*
X381000Y176530D01*
X381436Y176525D01*
X381872Y176509D01*
X382308Y176482D01*
X382743Y176444D01*
X383176Y176396D01*
X383609Y176338D01*
X384040Y176268D01*
X384469Y176188D01*
X384896Y176098D01*
X385320Y175997D01*
X385742Y175886D01*
X386161Y175764D01*
X386577Y175633D01*
X386990Y175491D01*
X387399Y175339D01*
X387804Y175177D01*
X388205Y175005D01*
X388602Y174823D01*
X388994Y174632D01*
X389381Y174431D01*
X389764Y174220D01*
X390141Y174000D01*
X390512Y173771D01*
X390878Y173534D01*
X391238Y173287D01*
X391592Y173031D01*
X391939Y172767D01*
X392280Y172494D01*
X392613Y172213D01*
X392940Y171924D01*
X393260Y171627D01*
X393572Y171322D01*
X393877Y171010D01*
X394174Y170690D01*
X394463Y170363D01*
X394744Y170030D01*
X395017Y169689D01*
X395281Y169342D01*
X395537Y168988D01*
X395784Y168628D01*
X396021Y168262D01*
X396250Y167891D01*
X396470Y167514D01*
X396681Y167131D01*
X396882Y166744D01*
X397073Y166352D01*
X397255Y165955D01*
X397427Y165554D01*
X397589Y165149D01*
X397741Y164740D01*
X397883Y164327D01*
X398014Y163911D01*
X398136Y163492D01*
X398247Y163070D01*
X398348Y162646D01*
X398438Y162219D01*
X398518Y161790D01*
X398588Y161359D01*
X398646Y160926D01*
X398694Y160493D01*
X398732Y160058D01*
X398759Y159622D01*
X398775Y159186D01*
X398780Y158750D01*
X398775Y158314D01*
X398759Y157878D01*
X398732Y157442D01*
X398694Y157007D01*
X398646Y156574D01*
X398588Y156141D01*
X398518Y155710D01*
X398438Y155281D01*
X398348Y154854D01*
X398247Y154430D01*
X398136Y154008D01*
X398014Y153589D01*
X397883Y153173D01*
X397741Y152760D01*
X397589Y152351D01*
X397427Y151946D01*
X397255Y151545D01*
X397073Y151148D01*
X396882Y150756D01*
X396681Y150369D01*
X396470Y149986D01*
X396250Y149609D01*
X396021Y149238D01*
X395784Y148872D01*
X395537Y148512D01*
X395281Y148158D01*
X395017Y147811D01*
X394744Y147470D01*
X394463Y147137D01*
X394174Y146810D01*
X393877Y146490D01*
X393572Y146178D01*
X393260Y145873D01*
X392940Y145576D01*
X392613Y145287D01*
X392280Y145006D01*
X391939Y144733D01*
X391592Y144469D01*
X391238Y144213D01*
X390878Y143966D01*
X390512Y143729D01*
X390141Y143500D01*
X389764Y143280D01*
X389381Y143069D01*
X388994Y142868D01*
X388602Y142677D01*
X388205Y142495D01*
X387804Y142323D01*
X387399Y142161D01*
X386990Y142009D01*
X386577Y141867D01*
X386161Y141736D01*
X385742Y141614D01*
X385320Y141503D01*
X384896Y141402D01*
X384469Y141312D01*
X384040Y141232D01*
X383609Y141162D01*
X383176Y141104D01*
X382743Y141056D01*
X382308Y141018D01*
X381872Y140991D01*
X381436Y140975D01*
X381000Y140970D01*
X380564Y140975D01*
X380128Y140991D01*
X379692Y141018D01*
X379257Y141056D01*
X378824Y141104D01*
X378391Y141162D01*
X377960Y141232D01*
X377531Y141312D01*
X377104Y141402D01*
X376680Y141503D01*
X376258Y141614D01*
X375839Y141736D01*
X375423Y141867D01*
X375010Y142009D01*
X374601Y142161D01*
X374196Y142323D01*
X373795Y142495D01*
X373398Y142677D01*
X373006Y142868D01*
X372619Y143069D01*
X372236Y143280D01*
X371859Y143500D01*
X371488Y143729D01*
X371122Y143966D01*
X370762Y144213D01*
X370408Y144469D01*
X370061Y144733D01*
X369720Y145006D01*
X369387Y145287D01*
X369060Y145576D01*
X368740Y145873D01*
X368428Y146178D01*
X368123Y146490D01*
X367826Y146810D01*
X367537Y147137D01*
X367256Y147470D01*
X366983Y147811D01*
X366719Y148158D01*
X366463Y148512D01*
X366216Y148872D01*
X365979Y149238D01*
X365750Y149609D01*
X365530Y149986D01*
X365319Y150369D01*
X365118Y150756D01*
X364927Y151148D01*
X364745Y151545D01*
X364573Y151946D01*
X364411Y152351D01*
X364259Y152760D01*
X364117Y153173D01*
X363986Y153589D01*
X363864Y154008D01*
X363753Y154430D01*
X363652Y154854D01*
X363562Y155281D01*
X363482Y155710D01*
X363412Y156141D01*
X363354Y156574D01*
X363306Y157007D01*
X363268Y157442D01*
X363241Y157878D01*
X363225Y158314D01*
X363220Y158750D01*
X378460Y158750D02*
X378462Y158850D01*
X378468Y158951D01*
X378478Y159050D01*
X378492Y159150D01*
X378509Y159249D01*
X378531Y159347D01*
X378557Y159444D01*
X378586Y159540D01*
X378619Y159634D01*
X378656Y159728D01*
X378696Y159820D01*
X378740Y159910D01*
X378788Y159998D01*
X378839Y160085D01*
X378893Y160169D01*
X378951Y160251D01*
X379012Y160331D01*
X379076Y160408D01*
X379143Y160483D01*
X379213Y160555D01*
X379286Y160624D01*
X379361Y160690D01*
X379439Y160754D01*
X379519Y160814D01*
X379602Y160871D01*
X379687Y160924D01*
X379774Y160974D01*
X379863Y161021D01*
X379953Y161064D01*
X380045Y161104D01*
X380139Y161140D01*
X380234Y161172D01*
X380330Y161200D01*
X380428Y161225D01*
X380526Y161245D01*
X380625Y161262D01*
X380725Y161275D01*
X380824Y161284D01*
X380925Y161289D01*
X381025Y161290D01*
X381125Y161287D01*
X381226Y161280D01*
X381325Y161269D01*
X381425Y161254D01*
X381523Y161236D01*
X381621Y161213D01*
X381718Y161186D01*
X381813Y161156D01*
X381908Y161122D01*
X382001Y161084D01*
X382092Y161043D01*
X382182Y160998D01*
X382270Y160950D01*
X382356Y160898D01*
X382440Y160843D01*
X382521Y160784D01*
X382600Y160722D01*
X382677Y160658D01*
X382751Y160590D01*
X382822Y160519D01*
X382891Y160446D01*
X382956Y160370D01*
X383019Y160291D01*
X383078Y160210D01*
X383134Y160127D01*
X383187Y160042D01*
X383236Y159954D01*
X383282Y159865D01*
X383324Y159774D01*
X383363Y159681D01*
X383398Y159587D01*
X383429Y159492D01*
X383457Y159395D01*
X383480Y159298D01*
X383500Y159199D01*
X383516Y159100D01*
X383528Y159001D01*
X383536Y158900D01*
X383540Y158800D01*
X383540Y158700D01*
X383536Y158600D01*
X383528Y158499D01*
X383516Y158400D01*
X383500Y158301D01*
X383480Y158202D01*
X383457Y158105D01*
X383429Y158008D01*
X383398Y157913D01*
X383363Y157819D01*
X383324Y157726D01*
X383282Y157635D01*
X383236Y157546D01*
X383187Y157458D01*
X383134Y157373D01*
X383078Y157290D01*
X383019Y157209D01*
X382956Y157130D01*
X382891Y157054D01*
X382822Y156981D01*
X382751Y156910D01*
X382677Y156842D01*
X382600Y156778D01*
X382521Y156716D01*
X382440Y156657D01*
X382356Y156602D01*
X382270Y156550D01*
X382182Y156502D01*
X382092Y156457D01*
X382001Y156416D01*
X381908Y156378D01*
X381813Y156344D01*
X381718Y156314D01*
X381621Y156287D01*
X381523Y156264D01*
X381425Y156246D01*
X381325Y156231D01*
X381226Y156220D01*
X381125Y156213D01*
X381025Y156210D01*
X380925Y156211D01*
X380824Y156216D01*
X380725Y156225D01*
X380625Y156238D01*
X380526Y156255D01*
X380428Y156275D01*
X380330Y156300D01*
X380234Y156328D01*
X380139Y156360D01*
X380045Y156396D01*
X379953Y156436D01*
X379863Y156479D01*
X379774Y156526D01*
X379687Y156576D01*
X379602Y156629D01*
X379519Y156686D01*
X379439Y156746D01*
X379361Y156810D01*
X379286Y156876D01*
X379213Y156945D01*
X379143Y157017D01*
X379076Y157092D01*
X379012Y157169D01*
X378951Y157249D01*
X378893Y157331D01*
X378839Y157415D01*
X378788Y157502D01*
X378740Y157590D01*
X378696Y157680D01*
X378656Y157772D01*
X378619Y157866D01*
X378586Y157960D01*
X378557Y158056D01*
X378531Y158153D01*
X378509Y158251D01*
X378492Y158350D01*
X378478Y158450D01*
X378468Y158549D01*
X378462Y158650D01*
X378460Y158750D01*
D10*
X340261Y193280D02*
X340259Y193202D01*
X340254Y193124D01*
X340244Y193047D01*
X340231Y192970D01*
X340215Y192894D01*
X340195Y192819D01*
X340171Y192745D01*
X340144Y192672D01*
X340113Y192600D01*
X340079Y192530D01*
X340042Y192462D01*
X340001Y192395D01*
X339957Y192330D01*
X339911Y192268D01*
X339861Y192208D01*
X339809Y192150D01*
X339754Y192095D01*
X339696Y192043D01*
X339636Y191993D01*
X339574Y191947D01*
X339509Y191903D01*
X339443Y191862D01*
X339374Y191825D01*
X339304Y191791D01*
X339232Y191760D01*
X339159Y191733D01*
X339085Y191709D01*
X339010Y191689D01*
X338934Y191673D01*
X338857Y191660D01*
X338780Y191650D01*
X338702Y191645D01*
X338624Y191643D01*
X338510Y191645D01*
X338397Y191650D01*
X338283Y191660D01*
X338170Y191673D01*
X338058Y191690D01*
X337946Y191710D01*
X337835Y191734D01*
X337724Y191762D01*
X337615Y191793D01*
X337507Y191828D01*
X337400Y191867D01*
X337294Y191909D01*
X337190Y191954D01*
X337087Y192003D01*
X336986Y192056D01*
X336887Y192111D01*
X336789Y192170D01*
X336694Y192232D01*
X336601Y192297D01*
X336509Y192365D01*
X336421Y192436D01*
X336334Y192510D01*
X336250Y192587D01*
X336169Y192666D01*
X336373Y197372D02*
X336375Y197450D01*
X336380Y197528D01*
X336390Y197605D01*
X336403Y197682D01*
X336419Y197758D01*
X336439Y197833D01*
X336463Y197907D01*
X336490Y197980D01*
X336521Y198052D01*
X336555Y198122D01*
X336592Y198191D01*
X336633Y198257D01*
X336677Y198322D01*
X336723Y198384D01*
X336773Y198444D01*
X336825Y198502D01*
X336880Y198557D01*
X336938Y198609D01*
X336998Y198659D01*
X337060Y198705D01*
X337125Y198749D01*
X337192Y198790D01*
X337260Y198827D01*
X337330Y198861D01*
X337402Y198892D01*
X337475Y198919D01*
X337549Y198943D01*
X337624Y198963D01*
X337700Y198979D01*
X337777Y198992D01*
X337854Y199002D01*
X337932Y199007D01*
X338010Y199009D01*
X338120Y199007D01*
X338229Y199001D01*
X338339Y198991D01*
X338447Y198978D01*
X338556Y198960D01*
X338663Y198939D01*
X338770Y198913D01*
X338876Y198884D01*
X338981Y198852D01*
X339084Y198815D01*
X339186Y198775D01*
X339287Y198731D01*
X339386Y198683D01*
X339483Y198633D01*
X339578Y198578D01*
X339671Y198520D01*
X339762Y198459D01*
X339851Y198395D01*
X337192Y195939D02*
X337125Y195981D01*
X337060Y196025D01*
X336998Y196073D01*
X336938Y196123D01*
X336880Y196176D01*
X336825Y196232D01*
X336773Y196291D01*
X336723Y196351D01*
X336676Y196415D01*
X336633Y196480D01*
X336592Y196547D01*
X336555Y196616D01*
X336521Y196687D01*
X336490Y196759D01*
X336463Y196833D01*
X336439Y196907D01*
X336419Y196983D01*
X336403Y197060D01*
X336390Y197137D01*
X336380Y197215D01*
X336375Y197294D01*
X336373Y197372D01*
X339443Y194712D02*
X339509Y194670D01*
X339574Y194626D01*
X339636Y194579D01*
X339696Y194528D01*
X339754Y194475D01*
X339809Y194419D01*
X339862Y194361D01*
X339911Y194300D01*
X339958Y194237D01*
X340001Y194172D01*
X340042Y194105D01*
X340079Y194036D01*
X340113Y193965D01*
X340144Y193893D01*
X340171Y193819D01*
X340195Y193744D01*
X340215Y193669D01*
X340231Y193592D01*
X340244Y193515D01*
X340254Y193437D01*
X340259Y193358D01*
X340261Y193280D01*
X339443Y194712D02*
X337192Y195940D01*
X345491Y199010D02*
X345576Y199008D01*
X345661Y199002D01*
X345745Y198992D01*
X345829Y198979D01*
X345913Y198961D01*
X345995Y198940D01*
X346076Y198915D01*
X346156Y198886D01*
X346235Y198853D01*
X346312Y198817D01*
X346387Y198777D01*
X346461Y198734D01*
X346532Y198688D01*
X346601Y198638D01*
X346668Y198585D01*
X346732Y198529D01*
X346793Y198470D01*
X346852Y198409D01*
X346908Y198345D01*
X346961Y198278D01*
X347011Y198209D01*
X347057Y198138D01*
X347100Y198064D01*
X347140Y197989D01*
X347176Y197912D01*
X347209Y197833D01*
X347238Y197753D01*
X347263Y197672D01*
X347284Y197590D01*
X347302Y197506D01*
X347315Y197422D01*
X347325Y197338D01*
X347331Y197253D01*
X347333Y197168D01*
X345491Y199009D02*
X345395Y199007D01*
X345299Y199001D01*
X345204Y198991D01*
X345109Y198978D01*
X345014Y198960D01*
X344921Y198939D01*
X344828Y198914D01*
X344737Y198885D01*
X344646Y198853D01*
X344557Y198817D01*
X344470Y198777D01*
X344384Y198734D01*
X344300Y198688D01*
X344218Y198638D01*
X344138Y198584D01*
X344061Y198528D01*
X343986Y198468D01*
X343913Y198406D01*
X343843Y198340D01*
X343775Y198272D01*
X343710Y198201D01*
X343649Y198128D01*
X343590Y198052D01*
X343534Y197973D01*
X343482Y197893D01*
X343433Y197810D01*
X343387Y197726D01*
X343345Y197640D01*
X343307Y197552D01*
X343272Y197463D01*
X343240Y197372D01*
X346719Y195736D02*
X346779Y195795D01*
X346836Y195857D01*
X346891Y195921D01*
X346942Y195988D01*
X346991Y196057D01*
X347037Y196127D01*
X347080Y196200D01*
X347120Y196274D01*
X347156Y196350D01*
X347189Y196428D01*
X347219Y196507D01*
X347246Y196587D01*
X347269Y196668D01*
X347288Y196750D01*
X347304Y196832D01*
X347317Y196916D01*
X347326Y197000D01*
X347331Y197084D01*
X347333Y197168D01*
X346719Y195735D02*
X343240Y191643D01*
X347333Y191643D01*
D13*
X347980Y90170D02*
X350520Y90170D01*
X347980Y90170D02*
X347980Y74930D01*
X350520Y74930D01*
X411480Y74930D02*
X414020Y74930D01*
X414020Y90170D01*
X411480Y90170D01*
D14*
X393700Y54610D02*
X393700Y52070D01*
X393700Y54610D02*
X368300Y54610D01*
X368300Y52070D01*
X369570Y110490D02*
X393700Y110490D01*
X369570Y110490D02*
X369570Y113030D01*
X393700Y113030D02*
X393700Y110490D01*
D13*
X393700Y113030D02*
X402590Y113030D01*
X368300Y52070D02*
X359410Y52070D01*
X368300Y52070D02*
X393700Y52070D01*
X402590Y52070D01*
X393700Y113030D02*
X369570Y113030D01*
X359410Y113030D01*
X350520Y92710D02*
X350520Y90170D01*
X350520Y74930D02*
X350520Y72390D01*
X411480Y90170D02*
X411480Y92710D01*
X411480Y74930D02*
X411480Y72390D01*
X363220Y82550D02*
X363225Y82986D01*
X363241Y83422D01*
X363268Y83858D01*
X363306Y84293D01*
X363354Y84726D01*
X363412Y85159D01*
X363482Y85590D01*
X363562Y86019D01*
X363652Y86446D01*
X363753Y86870D01*
X363864Y87292D01*
X363986Y87711D01*
X364117Y88127D01*
X364259Y88540D01*
X364411Y88949D01*
X364573Y89354D01*
X364745Y89755D01*
X364927Y90152D01*
X365118Y90544D01*
X365319Y90931D01*
X365530Y91314D01*
X365750Y91691D01*
X365979Y92062D01*
X366216Y92428D01*
X366463Y92788D01*
X366719Y93142D01*
X366983Y93489D01*
X367256Y93830D01*
X367537Y94163D01*
X367826Y94490D01*
X368123Y94810D01*
X368428Y95122D01*
X368740Y95427D01*
X369060Y95724D01*
X369387Y96013D01*
X369720Y96294D01*
X370061Y96567D01*
X370408Y96831D01*
X370762Y97087D01*
X371122Y97334D01*
X371488Y97571D01*
X371859Y97800D01*
X372236Y98020D01*
X372619Y98231D01*
X373006Y98432D01*
X373398Y98623D01*
X373795Y98805D01*
X374196Y98977D01*
X374601Y99139D01*
X375010Y99291D01*
X375423Y99433D01*
X375839Y99564D01*
X376258Y99686D01*
X376680Y99797D01*
X377104Y99898D01*
X377531Y99988D01*
X377960Y100068D01*
X378391Y100138D01*
X378824Y100196D01*
X379257Y100244D01*
X379692Y100282D01*
X380128Y100309D01*
X380564Y100325D01*
X381000Y100330D01*
X381436Y100325D01*
X381872Y100309D01*
X382308Y100282D01*
X382743Y100244D01*
X383176Y100196D01*
X383609Y100138D01*
X384040Y100068D01*
X384469Y99988D01*
X384896Y99898D01*
X385320Y99797D01*
X385742Y99686D01*
X386161Y99564D01*
X386577Y99433D01*
X386990Y99291D01*
X387399Y99139D01*
X387804Y98977D01*
X388205Y98805D01*
X388602Y98623D01*
X388994Y98432D01*
X389381Y98231D01*
X389764Y98020D01*
X390141Y97800D01*
X390512Y97571D01*
X390878Y97334D01*
X391238Y97087D01*
X391592Y96831D01*
X391939Y96567D01*
X392280Y96294D01*
X392613Y96013D01*
X392940Y95724D01*
X393260Y95427D01*
X393572Y95122D01*
X393877Y94810D01*
X394174Y94490D01*
X394463Y94163D01*
X394744Y93830D01*
X395017Y93489D01*
X395281Y93142D01*
X395537Y92788D01*
X395784Y92428D01*
X396021Y92062D01*
X396250Y91691D01*
X396470Y91314D01*
X396681Y90931D01*
X396882Y90544D01*
X397073Y90152D01*
X397255Y89755D01*
X397427Y89354D01*
X397589Y88949D01*
X397741Y88540D01*
X397883Y88127D01*
X398014Y87711D01*
X398136Y87292D01*
X398247Y86870D01*
X398348Y86446D01*
X398438Y86019D01*
X398518Y85590D01*
X398588Y85159D01*
X398646Y84726D01*
X398694Y84293D01*
X398732Y83858D01*
X398759Y83422D01*
X398775Y82986D01*
X398780Y82550D01*
X398775Y82114D01*
X398759Y81678D01*
X398732Y81242D01*
X398694Y80807D01*
X398646Y80374D01*
X398588Y79941D01*
X398518Y79510D01*
X398438Y79081D01*
X398348Y78654D01*
X398247Y78230D01*
X398136Y77808D01*
X398014Y77389D01*
X397883Y76973D01*
X397741Y76560D01*
X397589Y76151D01*
X397427Y75746D01*
X397255Y75345D01*
X397073Y74948D01*
X396882Y74556D01*
X396681Y74169D01*
X396470Y73786D01*
X396250Y73409D01*
X396021Y73038D01*
X395784Y72672D01*
X395537Y72312D01*
X395281Y71958D01*
X395017Y71611D01*
X394744Y71270D01*
X394463Y70937D01*
X394174Y70610D01*
X393877Y70290D01*
X393572Y69978D01*
X393260Y69673D01*
X392940Y69376D01*
X392613Y69087D01*
X392280Y68806D01*
X391939Y68533D01*
X391592Y68269D01*
X391238Y68013D01*
X390878Y67766D01*
X390512Y67529D01*
X390141Y67300D01*
X389764Y67080D01*
X389381Y66869D01*
X388994Y66668D01*
X388602Y66477D01*
X388205Y66295D01*
X387804Y66123D01*
X387399Y65961D01*
X386990Y65809D01*
X386577Y65667D01*
X386161Y65536D01*
X385742Y65414D01*
X385320Y65303D01*
X384896Y65202D01*
X384469Y65112D01*
X384040Y65032D01*
X383609Y64962D01*
X383176Y64904D01*
X382743Y64856D01*
X382308Y64818D01*
X381872Y64791D01*
X381436Y64775D01*
X381000Y64770D01*
X380564Y64775D01*
X380128Y64791D01*
X379692Y64818D01*
X379257Y64856D01*
X378824Y64904D01*
X378391Y64962D01*
X377960Y65032D01*
X377531Y65112D01*
X377104Y65202D01*
X376680Y65303D01*
X376258Y65414D01*
X375839Y65536D01*
X375423Y65667D01*
X375010Y65809D01*
X374601Y65961D01*
X374196Y66123D01*
X373795Y66295D01*
X373398Y66477D01*
X373006Y66668D01*
X372619Y66869D01*
X372236Y67080D01*
X371859Y67300D01*
X371488Y67529D01*
X371122Y67766D01*
X370762Y68013D01*
X370408Y68269D01*
X370061Y68533D01*
X369720Y68806D01*
X369387Y69087D01*
X369060Y69376D01*
X368740Y69673D01*
X368428Y69978D01*
X368123Y70290D01*
X367826Y70610D01*
X367537Y70937D01*
X367256Y71270D01*
X366983Y71611D01*
X366719Y71958D01*
X366463Y72312D01*
X366216Y72672D01*
X365979Y73038D01*
X365750Y73409D01*
X365530Y73786D01*
X365319Y74169D01*
X365118Y74556D01*
X364927Y74948D01*
X364745Y75345D01*
X364573Y75746D01*
X364411Y76151D01*
X364259Y76560D01*
X364117Y76973D01*
X363986Y77389D01*
X363864Y77808D01*
X363753Y78230D01*
X363652Y78654D01*
X363562Y79081D01*
X363482Y79510D01*
X363412Y79941D01*
X363354Y80374D01*
X363306Y80807D01*
X363268Y81242D01*
X363241Y81678D01*
X363225Y82114D01*
X363220Y82550D01*
X378460Y82550D02*
X378462Y82650D01*
X378468Y82751D01*
X378478Y82850D01*
X378492Y82950D01*
X378509Y83049D01*
X378531Y83147D01*
X378557Y83244D01*
X378586Y83340D01*
X378619Y83434D01*
X378656Y83528D01*
X378696Y83620D01*
X378740Y83710D01*
X378788Y83798D01*
X378839Y83885D01*
X378893Y83969D01*
X378951Y84051D01*
X379012Y84131D01*
X379076Y84208D01*
X379143Y84283D01*
X379213Y84355D01*
X379286Y84424D01*
X379361Y84490D01*
X379439Y84554D01*
X379519Y84614D01*
X379602Y84671D01*
X379687Y84724D01*
X379774Y84774D01*
X379863Y84821D01*
X379953Y84864D01*
X380045Y84904D01*
X380139Y84940D01*
X380234Y84972D01*
X380330Y85000D01*
X380428Y85025D01*
X380526Y85045D01*
X380625Y85062D01*
X380725Y85075D01*
X380824Y85084D01*
X380925Y85089D01*
X381025Y85090D01*
X381125Y85087D01*
X381226Y85080D01*
X381325Y85069D01*
X381425Y85054D01*
X381523Y85036D01*
X381621Y85013D01*
X381718Y84986D01*
X381813Y84956D01*
X381908Y84922D01*
X382001Y84884D01*
X382092Y84843D01*
X382182Y84798D01*
X382270Y84750D01*
X382356Y84698D01*
X382440Y84643D01*
X382521Y84584D01*
X382600Y84522D01*
X382677Y84458D01*
X382751Y84390D01*
X382822Y84319D01*
X382891Y84246D01*
X382956Y84170D01*
X383019Y84091D01*
X383078Y84010D01*
X383134Y83927D01*
X383187Y83842D01*
X383236Y83754D01*
X383282Y83665D01*
X383324Y83574D01*
X383363Y83481D01*
X383398Y83387D01*
X383429Y83292D01*
X383457Y83195D01*
X383480Y83098D01*
X383500Y82999D01*
X383516Y82900D01*
X383528Y82801D01*
X383536Y82700D01*
X383540Y82600D01*
X383540Y82500D01*
X383536Y82400D01*
X383528Y82299D01*
X383516Y82200D01*
X383500Y82101D01*
X383480Y82002D01*
X383457Y81905D01*
X383429Y81808D01*
X383398Y81713D01*
X383363Y81619D01*
X383324Y81526D01*
X383282Y81435D01*
X383236Y81346D01*
X383187Y81258D01*
X383134Y81173D01*
X383078Y81090D01*
X383019Y81009D01*
X382956Y80930D01*
X382891Y80854D01*
X382822Y80781D01*
X382751Y80710D01*
X382677Y80642D01*
X382600Y80578D01*
X382521Y80516D01*
X382440Y80457D01*
X382356Y80402D01*
X382270Y80350D01*
X382182Y80302D01*
X382092Y80257D01*
X382001Y80216D01*
X381908Y80178D01*
X381813Y80144D01*
X381718Y80114D01*
X381621Y80087D01*
X381523Y80064D01*
X381425Y80046D01*
X381325Y80031D01*
X381226Y80020D01*
X381125Y80013D01*
X381025Y80010D01*
X380925Y80011D01*
X380824Y80016D01*
X380725Y80025D01*
X380625Y80038D01*
X380526Y80055D01*
X380428Y80075D01*
X380330Y80100D01*
X380234Y80128D01*
X380139Y80160D01*
X380045Y80196D01*
X379953Y80236D01*
X379863Y80279D01*
X379774Y80326D01*
X379687Y80376D01*
X379602Y80429D01*
X379519Y80486D01*
X379439Y80546D01*
X379361Y80610D01*
X379286Y80676D01*
X379213Y80745D01*
X379143Y80817D01*
X379076Y80892D01*
X379012Y80969D01*
X378951Y81049D01*
X378893Y81131D01*
X378839Y81215D01*
X378788Y81302D01*
X378740Y81390D01*
X378696Y81480D01*
X378656Y81572D01*
X378619Y81666D01*
X378586Y81760D01*
X378557Y81856D01*
X378531Y81953D01*
X378509Y82051D01*
X378492Y82150D01*
X378478Y82250D01*
X378468Y82349D01*
X378462Y82450D01*
X378460Y82550D01*
D10*
X340528Y116953D02*
X340526Y116875D01*
X340521Y116797D01*
X340511Y116720D01*
X340498Y116643D01*
X340482Y116567D01*
X340462Y116492D01*
X340438Y116418D01*
X340411Y116345D01*
X340380Y116273D01*
X340346Y116203D01*
X340309Y116135D01*
X340268Y116068D01*
X340224Y116003D01*
X340178Y115941D01*
X340128Y115881D01*
X340076Y115823D01*
X340021Y115768D01*
X339963Y115716D01*
X339903Y115666D01*
X339841Y115620D01*
X339776Y115576D01*
X339710Y115535D01*
X339641Y115498D01*
X339571Y115464D01*
X339499Y115433D01*
X339426Y115406D01*
X339352Y115382D01*
X339277Y115362D01*
X339201Y115346D01*
X339124Y115333D01*
X339047Y115323D01*
X338969Y115318D01*
X338891Y115316D01*
X338777Y115318D01*
X338664Y115323D01*
X338550Y115333D01*
X338437Y115346D01*
X338325Y115363D01*
X338213Y115383D01*
X338102Y115407D01*
X337991Y115435D01*
X337882Y115466D01*
X337774Y115501D01*
X337667Y115540D01*
X337561Y115582D01*
X337457Y115627D01*
X337354Y115676D01*
X337253Y115729D01*
X337154Y115784D01*
X337056Y115843D01*
X336961Y115905D01*
X336868Y115970D01*
X336776Y116038D01*
X336688Y116109D01*
X336601Y116183D01*
X336517Y116260D01*
X336436Y116339D01*
X336640Y121045D02*
X336642Y121123D01*
X336647Y121201D01*
X336657Y121278D01*
X336670Y121355D01*
X336686Y121431D01*
X336706Y121506D01*
X336730Y121580D01*
X336757Y121653D01*
X336788Y121725D01*
X336822Y121795D01*
X336859Y121864D01*
X336900Y121930D01*
X336944Y121995D01*
X336990Y122057D01*
X337040Y122117D01*
X337092Y122175D01*
X337147Y122230D01*
X337205Y122282D01*
X337265Y122332D01*
X337327Y122378D01*
X337392Y122422D01*
X337459Y122463D01*
X337527Y122500D01*
X337597Y122534D01*
X337669Y122565D01*
X337742Y122592D01*
X337816Y122616D01*
X337891Y122636D01*
X337967Y122652D01*
X338044Y122665D01*
X338121Y122675D01*
X338199Y122680D01*
X338277Y122682D01*
X338387Y122680D01*
X338496Y122674D01*
X338606Y122664D01*
X338714Y122651D01*
X338823Y122633D01*
X338930Y122612D01*
X339037Y122586D01*
X339143Y122557D01*
X339248Y122525D01*
X339351Y122488D01*
X339453Y122448D01*
X339554Y122404D01*
X339653Y122356D01*
X339750Y122306D01*
X339845Y122251D01*
X339938Y122193D01*
X340029Y122132D01*
X340118Y122068D01*
X337459Y119612D02*
X337392Y119654D01*
X337327Y119698D01*
X337265Y119746D01*
X337205Y119796D01*
X337147Y119849D01*
X337092Y119905D01*
X337040Y119964D01*
X336990Y120024D01*
X336943Y120088D01*
X336900Y120153D01*
X336859Y120220D01*
X336822Y120289D01*
X336788Y120360D01*
X336757Y120432D01*
X336730Y120506D01*
X336706Y120580D01*
X336686Y120656D01*
X336670Y120733D01*
X336657Y120810D01*
X336647Y120888D01*
X336642Y120967D01*
X336640Y121045D01*
X339709Y118385D02*
X339775Y118343D01*
X339840Y118299D01*
X339902Y118252D01*
X339962Y118201D01*
X340020Y118148D01*
X340075Y118092D01*
X340128Y118034D01*
X340177Y117973D01*
X340224Y117910D01*
X340267Y117845D01*
X340308Y117778D01*
X340345Y117709D01*
X340379Y117638D01*
X340410Y117566D01*
X340437Y117492D01*
X340461Y117417D01*
X340481Y117342D01*
X340497Y117265D01*
X340510Y117188D01*
X340520Y117110D01*
X340525Y117031D01*
X340527Y116953D01*
X339709Y118385D02*
X337458Y119613D01*
X343507Y115316D02*
X345553Y115316D01*
X345642Y115318D01*
X345731Y115324D01*
X345820Y115334D01*
X345908Y115347D01*
X345996Y115364D01*
X346083Y115386D01*
X346168Y115411D01*
X346253Y115439D01*
X346336Y115472D01*
X346418Y115508D01*
X346498Y115547D01*
X346576Y115590D01*
X346652Y115636D01*
X346727Y115686D01*
X346799Y115739D01*
X346868Y115795D01*
X346935Y115854D01*
X347000Y115915D01*
X347061Y115980D01*
X347120Y116047D01*
X347176Y116116D01*
X347229Y116188D01*
X347279Y116263D01*
X347325Y116339D01*
X347368Y116417D01*
X347407Y116497D01*
X347443Y116579D01*
X347476Y116662D01*
X347504Y116747D01*
X347529Y116832D01*
X347551Y116919D01*
X347568Y117007D01*
X347581Y117095D01*
X347591Y117184D01*
X347597Y117273D01*
X347599Y117362D01*
X347597Y117451D01*
X347591Y117540D01*
X347581Y117629D01*
X347568Y117717D01*
X347551Y117805D01*
X347529Y117892D01*
X347504Y117977D01*
X347476Y118062D01*
X347443Y118145D01*
X347407Y118227D01*
X347368Y118307D01*
X347325Y118385D01*
X347279Y118461D01*
X347229Y118536D01*
X347176Y118608D01*
X347120Y118677D01*
X347061Y118744D01*
X347000Y118809D01*
X346935Y118870D01*
X346868Y118929D01*
X346799Y118985D01*
X346727Y119038D01*
X346652Y119088D01*
X346576Y119134D01*
X346498Y119177D01*
X346418Y119216D01*
X346336Y119252D01*
X346253Y119285D01*
X346168Y119313D01*
X346083Y119338D01*
X345996Y119360D01*
X345908Y119377D01*
X345820Y119390D01*
X345731Y119400D01*
X345642Y119406D01*
X345553Y119408D01*
X345962Y122682D02*
X343507Y122682D01*
X345962Y122682D02*
X346041Y122680D01*
X346120Y122674D01*
X346199Y122665D01*
X346277Y122652D01*
X346354Y122634D01*
X346430Y122614D01*
X346505Y122589D01*
X346579Y122561D01*
X346652Y122530D01*
X346723Y122494D01*
X346792Y122456D01*
X346859Y122414D01*
X346924Y122369D01*
X346987Y122321D01*
X347048Y122270D01*
X347105Y122216D01*
X347161Y122160D01*
X347213Y122101D01*
X347263Y122039D01*
X347309Y121975D01*
X347353Y121909D01*
X347393Y121841D01*
X347429Y121771D01*
X347463Y121699D01*
X347493Y121625D01*
X347519Y121551D01*
X347542Y121475D01*
X347560Y121398D01*
X347576Y121321D01*
X347587Y121242D01*
X347595Y121164D01*
X347599Y121085D01*
X347599Y121005D01*
X347595Y120926D01*
X347587Y120848D01*
X347576Y120769D01*
X347560Y120692D01*
X347542Y120615D01*
X347519Y120539D01*
X347493Y120465D01*
X347463Y120391D01*
X347429Y120319D01*
X347393Y120249D01*
X347353Y120181D01*
X347309Y120115D01*
X347263Y120051D01*
X347213Y119989D01*
X347161Y119930D01*
X347105Y119874D01*
X347048Y119820D01*
X346987Y119769D01*
X346924Y119721D01*
X346859Y119676D01*
X346792Y119634D01*
X346723Y119596D01*
X346652Y119560D01*
X346579Y119529D01*
X346505Y119501D01*
X346430Y119476D01*
X346354Y119456D01*
X346277Y119438D01*
X346199Y119425D01*
X346120Y119416D01*
X346041Y119410D01*
X345962Y119408D01*
X344325Y119408D01*
D13*
X323850Y209550D02*
X323850Y222250D01*
X323850Y209550D02*
X317500Y203200D01*
X304800Y203200D01*
X298450Y209550D01*
X317500Y203200D02*
X323850Y196850D01*
X323850Y184150D01*
X317500Y177800D01*
X304800Y177800D01*
X298450Y184150D01*
X298450Y196850D01*
X304800Y203200D01*
X304800Y228600D02*
X317500Y228600D01*
X323850Y222250D01*
X304800Y228600D02*
X298450Y222250D01*
X298450Y209550D01*
X317500Y177800D02*
X323850Y171450D01*
X323850Y158750D01*
X317500Y152400D01*
X304800Y152400D01*
X298450Y158750D01*
X298450Y171450D01*
X304800Y177800D01*
X444500Y330200D02*
X457200Y330200D01*
X463550Y323850D01*
X463550Y311150D01*
X457200Y304800D01*
X419100Y330200D02*
X412750Y323850D01*
X419100Y330200D02*
X431800Y330200D01*
X438150Y323850D01*
X438150Y311150D01*
X431800Y304800D01*
X419100Y304800D01*
X412750Y311150D01*
X438150Y323850D02*
X444500Y330200D01*
X438150Y311150D02*
X444500Y304800D01*
X457200Y304800D01*
X381000Y330200D02*
X368300Y330200D01*
X381000Y330200D02*
X387350Y323850D01*
X387350Y311150D01*
X381000Y304800D01*
X387350Y323850D02*
X393700Y330200D01*
X406400Y330200D01*
X412750Y323850D01*
X412750Y311150D01*
X406400Y304800D01*
X393700Y304800D01*
X387350Y311150D01*
X342900Y330200D02*
X336550Y323850D01*
X342900Y330200D02*
X355600Y330200D01*
X361950Y323850D01*
X361950Y311150D01*
X355600Y304800D01*
X342900Y304800D01*
X336550Y311150D01*
X361950Y323850D02*
X368300Y330200D01*
X361950Y311150D02*
X368300Y304800D01*
X381000Y304800D01*
X304800Y330200D02*
X292100Y330200D01*
X304800Y330200D02*
X311150Y323850D01*
X311150Y311150D01*
X304800Y304800D01*
X311150Y323850D02*
X317500Y330200D01*
X330200Y330200D01*
X336550Y323850D01*
X336550Y311150D01*
X330200Y304800D01*
X317500Y304800D01*
X311150Y311150D01*
X266700Y330200D02*
X260350Y323850D01*
X266700Y330200D02*
X279400Y330200D01*
X285750Y323850D01*
X285750Y311150D01*
X279400Y304800D01*
X266700Y304800D01*
X260350Y311150D01*
X285750Y323850D02*
X292100Y330200D01*
X285750Y311150D02*
X292100Y304800D01*
X304800Y304800D01*
X228600Y330200D02*
X215900Y330200D01*
X228600Y330200D02*
X234950Y323850D01*
X234950Y311150D01*
X228600Y304800D01*
X234950Y323850D02*
X241300Y330200D01*
X254000Y330200D01*
X260350Y323850D01*
X260350Y311150D01*
X254000Y304800D01*
X241300Y304800D01*
X234950Y311150D01*
X190500Y330200D02*
X184150Y323850D01*
X190500Y330200D02*
X203200Y330200D01*
X209550Y323850D01*
X209550Y311150D01*
X203200Y304800D01*
X190500Y304800D01*
X184150Y311150D01*
X209550Y323850D02*
X215900Y330200D01*
X209550Y311150D02*
X215900Y304800D01*
X228600Y304800D01*
X152400Y330200D02*
X139700Y330200D01*
X152400Y330200D02*
X158750Y323850D01*
X158750Y311150D01*
X152400Y304800D01*
X158750Y323850D02*
X165100Y330200D01*
X177800Y330200D01*
X184150Y323850D01*
X184150Y311150D01*
X177800Y304800D01*
X165100Y304800D01*
X158750Y311150D01*
X133350Y311150D02*
X133350Y323850D01*
X139700Y330200D01*
X133350Y311150D02*
X139700Y304800D01*
X152400Y304800D01*
X463550Y323850D02*
X469900Y330200D01*
X482600Y330200D01*
X488950Y323850D01*
X488950Y311150D01*
X482600Y304800D01*
X469900Y304800D01*
X463550Y311150D01*
D10*
X137710Y336028D02*
X137710Y341757D01*
X137710Y336028D02*
X137708Y335950D01*
X137703Y335872D01*
X137693Y335795D01*
X137680Y335718D01*
X137664Y335642D01*
X137644Y335567D01*
X137620Y335493D01*
X137593Y335420D01*
X137562Y335348D01*
X137528Y335278D01*
X137491Y335210D01*
X137450Y335143D01*
X137406Y335078D01*
X137360Y335016D01*
X137310Y334956D01*
X137258Y334898D01*
X137203Y334843D01*
X137145Y334791D01*
X137085Y334741D01*
X137023Y334695D01*
X136958Y334651D01*
X136892Y334610D01*
X136823Y334573D01*
X136753Y334539D01*
X136681Y334508D01*
X136608Y334481D01*
X136534Y334457D01*
X136459Y334437D01*
X136383Y334421D01*
X136306Y334408D01*
X136229Y334398D01*
X136151Y334393D01*
X136073Y334391D01*
X135255Y334391D01*
X141506Y334391D02*
X141506Y341757D01*
X143552Y341757D01*
X143641Y341755D01*
X143730Y341749D01*
X143819Y341739D01*
X143907Y341726D01*
X143995Y341709D01*
X144082Y341687D01*
X144167Y341662D01*
X144252Y341634D01*
X144335Y341601D01*
X144417Y341565D01*
X144497Y341526D01*
X144575Y341483D01*
X144651Y341437D01*
X144726Y341387D01*
X144798Y341334D01*
X144867Y341278D01*
X144934Y341219D01*
X144999Y341158D01*
X145060Y341093D01*
X145119Y341026D01*
X145175Y340957D01*
X145228Y340885D01*
X145278Y340810D01*
X145324Y340734D01*
X145367Y340656D01*
X145406Y340576D01*
X145442Y340494D01*
X145475Y340411D01*
X145503Y340326D01*
X145528Y340241D01*
X145550Y340154D01*
X145567Y340066D01*
X145580Y339978D01*
X145590Y339889D01*
X145596Y339800D01*
X145598Y339711D01*
X145596Y339622D01*
X145590Y339533D01*
X145580Y339444D01*
X145567Y339356D01*
X145550Y339268D01*
X145528Y339181D01*
X145503Y339096D01*
X145475Y339011D01*
X145442Y338928D01*
X145406Y338846D01*
X145367Y338766D01*
X145324Y338688D01*
X145278Y338612D01*
X145228Y338537D01*
X145175Y338465D01*
X145119Y338396D01*
X145060Y338329D01*
X144999Y338264D01*
X144934Y338203D01*
X144867Y338144D01*
X144798Y338088D01*
X144726Y338035D01*
X144651Y337985D01*
X144575Y337939D01*
X144497Y337896D01*
X144417Y337857D01*
X144335Y337821D01*
X144252Y337788D01*
X144167Y337760D01*
X144082Y337735D01*
X143995Y337713D01*
X143907Y337696D01*
X143819Y337683D01*
X143730Y337673D01*
X143641Y337667D01*
X143552Y337665D01*
X141506Y337665D01*
X148460Y336028D02*
X150097Y341757D01*
X148460Y336028D02*
X152552Y336028D01*
X151325Y337665D02*
X151325Y334391D01*
M02*
