G04 EAGLE Gerber RS-274X export*
G75*
%MOMM*%
%FSLAX34Y34*%
%LPD*%
%INSoldermask Bottom*%
%IPPOS*%
%AMOC8*
5,1,8,0,0,1.08239X$1,22.5*%
G01*
%ADD10C,2.203200*%
%ADD11R,1.411200X1.411200*%
%ADD12C,1.411200*%
%ADD13C,1.727200*%
%ADD14C,1.853200*%
%ADD15R,1.283200X1.253200*%
%ADD16R,1.303200X1.203200*%
%ADD17R,1.253200X1.283200*%
%ADD18R,1.203200X1.303200*%
%ADD19R,2.743200X1.473200*%
%ADD20C,0.959600*%


D10*
X418000Y30000D03*
X30000Y315000D03*
D11*
X453550Y107950D03*
D12*
X473550Y107950D03*
X72750Y298450D03*
X87750Y298450D03*
X102750Y298450D03*
X117750Y298450D03*
D13*
X19050Y33020D02*
X19050Y17780D01*
X44450Y17780D02*
X44450Y33020D01*
X69850Y33020D02*
X69850Y17780D01*
X95250Y17780D02*
X95250Y33020D01*
X120650Y33020D02*
X120650Y17780D01*
X146050Y17780D02*
X146050Y33020D01*
X171450Y33020D02*
X171450Y17780D01*
X196850Y17780D02*
X196850Y33020D01*
X222250Y33020D02*
X222250Y17780D01*
X247650Y17780D02*
X247650Y33020D01*
X273050Y33020D02*
X273050Y17780D01*
X298450Y17780D02*
X298450Y33020D01*
X323850Y33020D02*
X323850Y17780D01*
D14*
X304800Y258450D02*
X304800Y274950D01*
X330200Y274950D02*
X330200Y258450D01*
X355600Y258450D02*
X355600Y274950D01*
D13*
X356108Y181356D02*
X340868Y181356D01*
X340868Y136144D02*
X356108Y136144D01*
X405892Y181356D02*
X421132Y181356D01*
X421132Y136144D02*
X405892Y136144D01*
D15*
X371856Y181216D03*
X371856Y163716D03*
D16*
X391160Y166488D03*
X391160Y149488D03*
D13*
X405892Y59944D02*
X421132Y59944D01*
X421132Y105156D02*
X405892Y105156D01*
X356108Y59944D02*
X340868Y59944D01*
X340868Y105156D02*
X356108Y105156D01*
D17*
X419976Y78232D03*
X402476Y78232D03*
D18*
X361306Y83058D03*
X344306Y83058D03*
D19*
X355600Y234950D03*
X355600Y209550D03*
X393700Y234950D03*
X393700Y209550D03*
D13*
X318770Y215900D02*
X303530Y215900D01*
X303530Y190500D02*
X318770Y190500D01*
X318770Y165100D02*
X303530Y165100D01*
X146050Y309880D02*
X146050Y325120D01*
X171450Y325120D02*
X171450Y309880D01*
X196850Y309880D02*
X196850Y325120D01*
X222250Y325120D02*
X222250Y309880D01*
X247650Y309880D02*
X247650Y325120D01*
X273050Y325120D02*
X273050Y309880D01*
X298450Y309880D02*
X298450Y325120D01*
X323850Y325120D02*
X323850Y309880D01*
X349250Y309880D02*
X349250Y325120D01*
X374650Y325120D02*
X374650Y309880D01*
X400050Y309880D02*
X400050Y325120D01*
X425450Y325120D02*
X425450Y309880D01*
X450850Y309880D02*
X450850Y325120D01*
X476250Y325120D02*
X476250Y309880D01*
D20*
X330000Y70000D03*
X62500Y62500D03*
X85000Y105000D03*
X395478Y194818D03*
X375412Y194818D03*
X115000Y262500D03*
X280000Y277500D03*
X245000Y220000D03*
X102500Y62500D03*
X291016Y71164D03*
X247500Y290000D03*
X112500Y62500D03*
X125000Y62500D03*
X140000Y62500D03*
X152500Y62500D03*
X165000Y62500D03*
X180214Y64492D03*
X192206Y70508D03*
X203690Y69746D03*
X216698Y69492D03*
X168476Y262246D03*
X257500Y265000D03*
X180468Y259746D03*
X192500Y242500D03*
X317500Y235000D03*
X202500Y242500D03*
X195000Y230000D03*
X92500Y262500D03*
X142500Y290000D03*
X252500Y62500D03*
X242500Y120000D03*
X83820Y204216D03*
X150368Y228346D03*
X126746Y228854D03*
X93726Y222250D03*
X318516Y133096D03*
X228854Y148590D03*
X191770Y137160D03*
X367284Y32512D03*
M02*
