G04 EAGLE Gerber RS-274X export*
G75*
%MOMM*%
%FSLAX34Y34*%
%LPD*%
%INSoldermask Top*%
%IPPOS*%
%AMOC8*
5,1,8,0,0,1.08239X$1,22.5*%
G01*
%ADD10C,2.203200*%
%ADD11R,1.253200X1.283200*%
%ADD12R,1.503200X1.703200*%
%ADD13R,1.803200X2.003200*%
%ADD14R,2.003200X1.803200*%
%ADD15R,1.153200X1.953200*%
%ADD16R,3.403200X1.953200*%
%ADD17R,1.411200X1.411200*%
%ADD18C,1.411200*%
%ADD19R,1.203200X1.703200*%
%ADD20R,1.703200X1.203200*%
%ADD21R,6.203200X6.203200*%
%ADD22C,1.727200*%
%ADD23R,1.203200X1.303200*%
%ADD24R,1.203200X1.453200*%
%ADD25R,0.603200X0.803200*%
%ADD26C,1.853200*%
%ADD27C,0.959600*%


D10*
X418000Y30000D03*
X30000Y315000D03*
D11*
X91300Y69850D03*
X73800Y69850D03*
D12*
X92050Y50800D03*
X73050Y50800D03*
D13*
X471200Y184150D03*
X443200Y184150D03*
D14*
X400050Y236250D03*
X400050Y208250D03*
D15*
X427850Y209800D03*
X450850Y209800D03*
X473850Y209800D03*
D16*
X450850Y272800D03*
D17*
X453550Y107950D03*
D18*
X473550Y107950D03*
D19*
X76050Y91650D03*
X88750Y91650D03*
X101450Y91650D03*
X114150Y91650D03*
X126850Y91650D03*
X139550Y91650D03*
X152250Y91650D03*
X164950Y91650D03*
X177650Y91650D03*
X190350Y91650D03*
X203050Y91650D03*
X215750Y91650D03*
X228450Y91650D03*
X241150Y91650D03*
D20*
X258550Y127150D03*
X258550Y139850D03*
X258550Y152550D03*
X258550Y165250D03*
X258550Y177950D03*
X258550Y190650D03*
X258550Y203350D03*
X258550Y216050D03*
X258550Y228750D03*
X258550Y241450D03*
D19*
X241150Y276650D03*
X228450Y276650D03*
X215750Y276650D03*
X203050Y276650D03*
X190350Y276650D03*
X177650Y276650D03*
X164950Y276650D03*
X152250Y276650D03*
X139550Y276650D03*
X126850Y276650D03*
X114150Y276650D03*
X101450Y276650D03*
X88750Y276650D03*
X76050Y276650D03*
D21*
X153050Y187150D03*
D18*
X72750Y298450D03*
X87750Y298450D03*
X102750Y298450D03*
X117750Y298450D03*
D22*
X19050Y33020D02*
X19050Y17780D01*
X44450Y17780D02*
X44450Y33020D01*
X69850Y33020D02*
X69850Y17780D01*
X95250Y17780D02*
X95250Y33020D01*
X120650Y33020D02*
X120650Y17780D01*
X146050Y17780D02*
X146050Y33020D01*
X171450Y33020D02*
X171450Y17780D01*
X196850Y17780D02*
X196850Y33020D01*
X222250Y33020D02*
X222250Y17780D01*
X247650Y17780D02*
X247650Y33020D01*
X273050Y33020D02*
X273050Y17780D01*
X298450Y17780D02*
X298450Y33020D01*
X323850Y33020D02*
X323850Y17780D01*
D23*
X315350Y82550D03*
X332350Y82550D03*
D24*
X282100Y81600D03*
X282100Y121600D03*
X302100Y81600D03*
X302100Y121600D03*
D25*
X276100Y101600D03*
X308100Y101600D03*
D11*
X299834Y60960D03*
X282334Y60960D03*
D26*
X304800Y258450D02*
X304800Y274950D01*
X330200Y274950D02*
X330200Y258450D01*
X355600Y258450D02*
X355600Y274950D01*
D23*
X374532Y267716D03*
X391532Y267716D03*
D22*
X356108Y181356D02*
X340868Y181356D01*
X340868Y136144D02*
X356108Y136144D01*
X405892Y181356D02*
X421132Y181356D01*
X421132Y136144D02*
X405892Y136144D01*
X405892Y59944D02*
X421132Y59944D01*
X421132Y105156D02*
X405892Y105156D01*
X356108Y59944D02*
X340868Y59944D01*
X340868Y105156D02*
X356108Y105156D01*
X318770Y215900D02*
X303530Y215900D01*
X303530Y190500D02*
X318770Y190500D01*
X318770Y165100D02*
X303530Y165100D01*
X146050Y309880D02*
X146050Y325120D01*
X171450Y325120D02*
X171450Y309880D01*
X196850Y309880D02*
X196850Y325120D01*
X222250Y325120D02*
X222250Y309880D01*
X247650Y309880D02*
X247650Y325120D01*
X273050Y325120D02*
X273050Y309880D01*
X298450Y309880D02*
X298450Y325120D01*
X323850Y325120D02*
X323850Y309880D01*
X349250Y309880D02*
X349250Y325120D01*
X374650Y325120D02*
X374650Y309880D01*
X400050Y309880D02*
X400050Y325120D01*
X425450Y325120D02*
X425450Y309880D01*
X450850Y309880D02*
X450850Y325120D01*
X476250Y325120D02*
X476250Y309880D01*
D27*
X330000Y70000D03*
X62500Y62500D03*
X85000Y105000D03*
X395478Y194818D03*
X375412Y194818D03*
X115000Y262500D03*
X280000Y277500D03*
X245000Y220000D03*
X102500Y62500D03*
X291016Y71164D03*
X247500Y290000D03*
X112500Y62500D03*
X125000Y62500D03*
X140000Y62500D03*
X152500Y62500D03*
X165000Y62500D03*
X180214Y64492D03*
X192206Y70508D03*
X203690Y69746D03*
X216698Y69492D03*
X168476Y262246D03*
X257500Y265000D03*
X180468Y259746D03*
X192500Y242500D03*
X317500Y235000D03*
X202500Y242500D03*
X195000Y230000D03*
X92500Y262500D03*
X142500Y290000D03*
X252500Y62500D03*
X242500Y120000D03*
X83820Y204216D03*
X150368Y228346D03*
X126746Y228854D03*
X93726Y222250D03*
X318516Y133096D03*
X228854Y148590D03*
X191770Y137160D03*
X367284Y32512D03*
M02*
