M48
;GenerationSoftware,Autodesk,EAGLE,9.6.2*%
;CreationDate,2021-06-27T14:30:19Z*%
FMAT,2
ICI,OFF
METRIC,TZ,000.000
T5C0.350
T4C0.700
T3C1.016
T2C1.100
T1C2.000
%
G90
M71
T1
X41800Y3000
X3000Y31500
T2
X35560Y26670
X33020Y26670
X30480Y26670
T3
X29845Y31750
X27305Y31750
X24765Y31750
X22225Y31750
X17145Y31750
X14605Y31750
X19685Y31750
X31115Y16510
X31115Y19050
X31115Y21590
X34849Y10516
X34849Y5994
X41351Y10516
X41351Y5994
X41351Y13614
X41351Y18136
X34849Y13614
X34849Y18136
X42545Y31750
X40005Y31750
X37465Y31750
X32385Y2540
X29845Y2540
X27305Y2540
X24765Y2540
X19685Y2540
X17145Y2540
X14605Y2540
X22225Y2540
X12065Y2540
X9525Y2540
X6985Y2540
X4445Y2540
X1905Y2540
X34925Y31750
X32385Y31750
X45085Y31750
X47625Y31750
T4
X7275Y29845
X8775Y29845
X10275Y29845
X11775Y29845
X45355Y10795
X47355Y10795
T5
X22885Y14859
X31852Y13310
X9373Y22225
X15037Y22835
X8382Y20422
X24250Y12000
X12675Y22885
X25250Y6250
X14250Y29000
X9250Y26250
X19500Y23000
X20250Y24250
X31750Y23500
X19250Y24250
X18047Y25975
X25750Y26500
X16848Y26225
X21670Y6949
X20369Y6975
X19221Y7051
X18021Y6449
X16500Y6250
X15250Y6250
X14000Y6250
X12500Y6250
X24750Y29000
X29102Y7116
X11250Y6250
X10250Y6250
X24500Y22000
X28000Y27750
X11500Y26250
X37541Y19482
X39548Y19482
X8500Y10500
X6250Y6250
X33000Y7000
X36728Y3251
X19177Y13716
M30